<?xml version="1.0" standalone="no"?><!DOCTYPE svg PUBLIC "-//W3C//DTD SVG 1.1//EN" 	"http://www.w3.org/Graphics/SVG/1.1/DTD/svg11.dtd"><svg width="1710" height="947" version="1.1"	xmlns="http://www.w3.org/2000/svg"><title>Krona (snapshot) - Vegan_3 - Root</title><defs>	<style type="text/css">	text {font-size: 11px; font-family: sans-serif; dominant-baseline:central}	path {stroke-width:0.27499999999999997;}	path.wedge {stroke:none}	path.line {fill:none;stroke:black;}	line {stroke:black;stroke-width:0.27499999999999997;}	line.tick {stroke-width:0.5499999999999999;}	line.pattern {stroke-width:0.18333333333333332;}	circle {fill:none;stroke:black;stroke-width:0.27499999999999997;}	rect {stroke:black;stroke-width:0.27499999999999997;}	.highlight {stroke:black;stroke-width:1.375;}	.searchHighlight {fill:rgb(255, 255, 100);stroke:none;}	</style><pattern id="hiddenPattern" patternUnits="userSpaceOnUse" x="0" y="0" width="6.6" height="6.6"><line class="pattern" x1="0" y1="0" x2="3.3" y2="3.3"/><line class="pattern" x1="3.3" y1="6.6" x2="6.6" y2="3.3"/></pattern></defs><path class="wedge" fill="rgb(220,220,220)" d=" M 817.8777496971529,561.4998959020131 L 818.3250396066452,852.2995519054839 A 378.8,378.8 0 0,1 817.7423937410481,852.3 L 817.742393741048,561.5 A 88,88 0 0 0 817.8777496971529,561.4998959020131 Z "/><path class="wedge" fill="rgb(207,111,111)" d=" M 817.742393741048,561.5 L 817.742393741048,852.3 A 378.8,378.8 0 1,1 821.3258906395345,94.71695055087469 L 818.5748851007809,385.50393782596876 A 88,88 0 1 0 817.742393741048,561.5 Z "/><path class="wedge" fill="rgb(207,111,111)" d=" M 819.1857752268168,314.5658753800776 L 821.182374692251,94.71562000122634 A 378.8,378.8 0 0,1 821.3258906395345,94.71695055087469 L 819.2459930780666,314.5664336653575 A 158.94067861568504,158.94067861568504 0 0 0 819.1857752268168,314.5658753800776 Z "/><path class="wedge" fill="rgb(210,121,121)" d=" M 817.742393741048,632.4406786156851 L 817.742393741048,852.3 A 378.8,378.8 0 1,1 820.7670370553038,94.7120757827389 L 819.0115037224055,314.56438826156773 A 158.94067861568504,158.94067861568504 0 1 0 817.742393741048,632.4406786156851 Z "/><path class="wedge" fill="rgb(210,121,121)" d=" M 817.2209998050913,270.5910648653844 L 816.7690340870208,94.7012505683474 A 378.8,378.8 0 0,1 820.7670370553038,94.7120757827389 L 819.3625869306468,270.5968635453644 A 202.90960501932898,202.90960501932898 0 0 0 817.2209998050913,270.5910648653844 Z "/><path class="wedge" fill="rgb(213,130,130)" d=" M 817.742393741048,676.409605019329 L 817.742393741048,852.3 A 378.8,378.8 0 0,1 651.6507001984894,133.05471902791072 L 728.773016936106,291.1356454785082 A 202.90960501932898,202.90960501932898 0 0 0 817.742393741048,676.409605019329 Z "/><path class="wedge" fill="rgb(213,130,130)" d=" M 715.1386272755581,264.6337846327226 L 650.7243079858526,133.50823681937493 A 378.8,378.8 0 0,1 651.6507001984894,133.05471902791072 L 715.7077352844963,264.3551762811005 A 232.70717396495255,232.70717396495255 0 0 0 715.1386272755581,264.6337846327226 Z "/><path class="wedge" fill="rgb(216,140,140)" d=" M 817.742393741048,706.2071739649525 L 817.742393741048,852.3 A 378.8,378.8 0 0,1 641.3152227137623,138.29425225198048 L 709.3583695055912,267.5739644792757 A 232.70717396495255,232.70717396495255 0 0 0 817.742393741048,706.2071739649525 Z "/><path class="wedge" fill="rgb(216,140,140)" d=" M 699.3505859750344,248.561523804999 L 641.3139853333142,138.29490351918287 A 378.8,378.8 0 0,1 641.3152227137623,138.29425225198048 L 699.3514163158478,248.56108677389884 A 254.19271865856766,254.19271865856766 0 0 0 699.3505859750344,248.561523804999 Z "/><path class="wedge" fill="rgb(219,149,149)" d=" M 817.742393741048,727.6927186585676 L 817.742393741048,852.3 A 378.8,378.8 0 0,1 641.3054722210003,138.2993843613521 L 699.3448732739697,248.5645306620552 A 254.19271865856766,254.19271865856766 0 0 0 817.742393741048,727.6927186585676 Z "/><path class="wedge" fill="rgb(219,149,149)" d=" M 691.7643103409524,234.23662087929995 L 641.262809384182,138.32184393187583 A 378.8,378.8 0 0,1 641.3054722210003,138.2993843613521 L 691.7947647554637,234.2205883525979 A 270.40237070968385,270.40237070968385 0 0 0 691.7643103409524,234.23662087929995 Z "/><path class="wedge" fill="rgb(223,159,159)" d=" M 817.742393741048,743.9023707096839 L 817.742393741048,852.3 A 378.8,378.8 0 0,1 641.2366785712098,138.33560375185436 L 691.7456571366856,234.2464431811551 A 270.40237070968385,270.40237070968385 0 0 0 817.742393741048,743.9023707096839 Z "/><path class="wedge" fill="rgb(223,159,159)" d=" M 677.56587919639,227.58669214050016 L 630.1534919678408,144.41058368351918 A 378.8,378.8 0 0,1 641.2366785712098,138.33560375185436 L 685.8478321979946,223.04714046819998 A 283.05972905429314,283.05972905429314 0 0 0 677.56587919639,227.58669214050016 Z "/><path class="wedge" fill="rgb(226,168,168)" d=" M 817.742393741048,756.5597290542931 L 817.742393741048,852.3 A 378.8,378.8 0 0,1 629.156904070737,144.98066558296898 L 676.821175130569,228.01268799054512 A 283.05972905429314,283.05972905429314 0 0 0 817.742393741048,756.5597290542931 Z "/><path class="wedge" fill="rgb(226,168,168)" d=" M 671.744640921093,219.21884288537822 L 629.1292551932679,144.99653888100977 A 378.8,378.8 0 0,1 629.156904070737,144.98066558296898 L 671.7660427916603,219.206556011507 A 293.21366047990944,293.21366047990944 0 0 0 671.744640921093,219.21884288537822 Z "/><path class="wedge" fill="rgb(229,178,178)" d=" M 817.742393741048,766.7136604799094 L 817.742393741048,852.3 A 378.8,378.8 0 0,1 629.0960783039212,145.01558991027275 L 671.718960041556,219.23358951163513 A 293.21366047990944,293.21366047990944 0 0 0 817.742393741048,766.7136604799094 Z "/><path class="wedge" fill="rgb(229,178,178)" d=" M 643.8419856940379,227.15895028278115 L 599.2842272225389,164.04003573746195 A 378.8,378.8 0 0,1 629.0960783039212,145.01558991027275 L 667.5732709570672,212.01482019627264 A 301.53816457406833,301.53816457406833 0 0 0 643.8419856940379,227.15895028278115 Z "/><path class="wedge" fill="rgb(229,178,178)" d=" M 817.742393741048,775.0381645740683 L 817.742393741048,852.3 A 378.8,378.8 0 0,1 575.80991825275,182.02424233891406 L 625.1556075488564,241.47501324456235 A 301.53816457406833,301.53816457406833 0 0 0 817.742393741048,775.0381645740683 Z "/><path class="wedge" fill="rgb(229,178,178)" d=" M 616.6197633616355,239.59160046645107 L 570.7771616631662,186.2760209440757 A 378.8,378.8 0 0,1 575.80991825275,182.02424233891406 L 620.7183210202988,236.12905276422495 A 308.4857400643993,308.4857400643993 0 0 0 616.6197633616355,239.59160046645107 Z "/><path class="wedge" fill="rgb(229,178,178)" d=" M 817.742393741048,781.9857400643994 L 817.742393741048,852.3 A 378.8,378.8 0 0,1 566.5096483383771,190.00123873738573 L 613.1444016767562,242.6253295262988 A 308.4857400643993,308.4857400643993 0 0 0 817.742393741048,781.9857400643994 Z "/><path class="wedge" fill="rgb(229,178,178)" d=" M 580.3728514872927,267.38107108041004 L 531.7252432207549,225.13810757635946 A 378.8,378.8 0 0,1 566.5096483383771,190.00123873738573 L 609.2409046978058,238.22050341037556 A 314.37129711332796,314.37129711332796 0 0 0 580.3728514872927,267.38107108041004 Z "/><path class="wedge" fill="rgb(229,178,178)" d=" M 817.742393741048,787.871297113328 L 817.742393741048,852.3 A 378.8,378.8 0 0,1 490.0254982437821,283.52348459445284 L 545.7656632145738,315.8358934289546 A 314.37129711332796,314.37129711332796 0 0 0 817.742393741048,787.871297113328 Z "/><path class="wedge" fill="rgb(229,178,178)" d=" M 798.8990488212057,792.364382739268 L 795.3961285712767,851.6402972878748 A 378.8,378.8 0 0,1 490.0254982437821,283.52348459445284 L 541.3972214717935,313.303520666219 A 319.4206728241967,319.4206728241967 0 0 0 798.8990488212057,792.364382739268 Z "/><path class="wedge" fill="rgb(229,178,178)" d=" M 817.742393741048,792.9206728241967 L 817.742393741048,852.3 A 378.8,378.8 0 0,1 795.3961285712767,851.6402972878748 L 798.8990488212057,792.364382739268 A 319.4206728241967,319.4206728241967 0 0 0 817.742393741048,792.9206728241967 Z "/><path class="wedge" fill="rgb(229,193,178)" d=" M 545.7656632145738,315.8358934289546 L 490.0254982437821,283.52348459445284 A 378.8,378.8 0 0,1 531.4833424437134,225.41695835799266 L 580.1720947263337,267.6124931551806 A 314.37129711332796,314.37129711332796 0 0 0 545.7656632145738,315.8358934289546 Z "/><path class="wedge" fill="rgb(229,195,178)" d=" M 580.1720947263337,267.6124931551806 L 531.4833424437134,225.41695835799266 A 378.8,378.8 0 0,1 531.7252432207549,225.13810757635946 L 580.3728514872927,267.38107108041004 A 314.37129711332796,314.37129711332796 0 0 0 580.1720947263337,267.6124931551806 Z "/><path class="wedge" fill="url(#hiddenPattern)" d=" M 580.1720947263337,267.6124931551806 L 531.4833424437134,225.41695835799266 A 378.8,378.8 0 0,1 531.7252432207549,225.13810757635946 L 580.3728514872927,267.38107108041004 A 314.37129711332796,314.37129711332796 0 0 0 580.1720947263337,267.6124931551806 Z "/><path class="wedge" fill="rgb(229,196,178)" d=" M 613.1444016767562,242.6253295262988 L 566.5096483383771,190.00123873738573 A 378.8,378.8 0 0,1 570.7771616631662,186.2760209440757 L 616.6197633616355,239.59160046645107 A 308.4857400643993,308.4857400643993 0 0 0 613.1444016767562,242.6253295262988 Z "/><path class="wedge" fill="url(#hiddenPattern)" d=" M 613.1444016767562,242.6253295262988 L 566.5096483383771,190.00123873738573 A 378.8,378.8 0 0,1 570.7771616631662,186.2760209440757 L 616.6197633616355,239.59160046645107 A 308.4857400643993,308.4857400643993 0 0 0 613.1444016767562,242.6253295262988 Z "/><path class="wedge" fill="rgb(229,197,178)" d=" M 625.1556075488564,241.47501324456235 L 575.80991825275,182.02424233891406 A 378.8,378.8 0 0,1 599.2842272225389,164.04003573746195 L 643.8419856940379,227.15895028278115 A 301.53816457406833,301.53816457406833 0 0 0 625.1556075488564,241.47501324456235 Z "/><path class="wedge" fill="url(#hiddenPattern)" d=" M 625.1556075488564,241.47501324456235 L 575.80991825275,182.02424233891406 A 378.8,378.8 0 0,1 599.2842272225389,164.04003573746195 L 643.8419856940379,227.15895028278115 A 301.53816457406833,301.53816457406833 0 0 0 625.1556075488564,241.47501324456235 Z "/><path class="wedge" fill="rgb(226,191,168)" d=" M 671.718960041556,219.23358951163513 L 629.0960783039212,145.01558991027275 A 378.8,378.8 0 0,1 629.1292551932679,144.99653888100977 L 671.744640921093,219.21884288537822 A 293.21366047990944,293.21366047990944 0 0 0 671.718960041556,219.23358951163513 Z "/><path class="wedge" fill="url(#hiddenPattern)" d=" M 671.718960041556,219.23358951163513 L 629.0960783039212,145.01558991027275 A 378.8,378.8 0 0,1 629.1292551932679,144.99653888100977 L 671.744640921093,219.21884288537822 A 293.21366047990944,293.21366047990944 0 0 0 671.718960041556,219.23358951163513 Z "/><path class="wedge" fill="rgb(223,184,159)" d=" M 676.821175130569,228.01268799054512 L 629.156904070737,144.98066558296898 A 378.8,378.8 0 0,1 630.1534919678408,144.41058368351918 L 677.56587919639,227.58669214050016 A 283.05972905429314,283.05972905429314 0 0 0 676.821175130569,228.01268799054512 Z "/><path class="wedge" fill="url(#hiddenPattern)" d=" M 676.821175130569,228.01268799054512 L 629.156904070737,144.98066558296898 A 378.8,378.8 0 0,1 630.1534919678408,144.41058368351918 L 677.56587919639,227.58669214050016 A 283.05972905429314,283.05972905429314 0 0 0 676.821175130569,228.01268799054512 Z "/><path class="wedge" fill="rgb(219,178,149)" d=" M 691.7456571366856,234.2464431811551 L 641.2366785712098,138.33560375185436 A 378.8,378.8 0 0,1 641.262809384182,138.32184393187583 L 691.7643103409524,234.23662087929995 A 270.40237070968385,270.40237070968385 0 0 0 691.7456571366856,234.2464431811551 Z "/><path class="wedge" fill="url(#hiddenPattern)" d=" M 691.7456571366856,234.2464431811551 L 641.2366785712098,138.33560375185436 A 378.8,378.8 0 0,1 641.262809384182,138.32184393187583 L 691.7643103409524,234.23662087929995 A 270.40237070968385,270.40237070968385 0 0 0 691.7456571366856,234.2464431811551 Z "/><path class="wedge" fill="rgb(216,171,140)" d=" M 699.3448732739697,248.5645306620552 L 641.3054722210003,138.2993843613521 A 378.8,378.8 0 0,1 641.3139853333142,138.29490351918287 L 699.3505859750344,248.561523804999 A 254.19271865856766,254.19271865856766 0 0 0 699.3448732739697,248.5645306620552 Z "/><path class="wedge" fill="url(#hiddenPattern)" d=" M 699.3448732739697,248.5645306620552 L 641.3054722210003,138.2993843613521 A 378.8,378.8 0 0,1 641.3139853333142,138.29490351918287 L 699.3505859750344,248.561523804999 A 254.19271865856766,254.19271865856766 0 0 0 699.3448732739697,248.5645306620552 Z "/><path class="wedge" fill="rgb(213,165,130)" d=" M 709.3583695055912,267.5739644792757 L 641.3152227137623,138.29425225198048 A 378.8,378.8 0 0,1 650.7243079858526,133.50823681937493 L 715.1386272755581,264.6337846327226 A 232.70717396495255,232.70717396495255 0 0 0 709.3583695055912,267.5739644792757 Z "/><path class="wedge" fill="url(#hiddenPattern)" d=" M 709.3583695055912,267.5739644792757 L 641.3152227137623,138.29425225198048 A 378.8,378.8 0 0,1 650.7243079858526,133.50823681937493 L 715.1386272755581,264.6337846327226 A 232.70717396495255,232.70717396495255 0 0 0 709.3583695055912,267.5739644792757 Z "/><path class="wedge" fill="rgb(213,165,130)" d=" M 728.773016936106,291.1356454785082 L 651.6507001984894,133.05471902791072 A 378.8,378.8 0 0,1 816.654988681549,94.70156078695811 L 817.1599097623812,270.5912310383933 A 202.90960501932898,202.90960501932898 0 0 0 728.773016936106,291.1356454785082 Z "/><path class="wedge" fill="rgb(213,165,130)" d=" M 816.5186603011376,240.79604367088484 L 815.7504043273145,94.70523765741484 A 378.8,378.8 0 0,1 816.654988681549,94.70156078695811 L 817.0743711477238,240.79378486905534 A 232.70717396495255,232.70717396495255 0 0 0 816.5186603011376,240.79604367088484 Z "/><path class="wedge" fill="rgb(216,172,140)" d=" M 715.7077352844963,264.3551762811005 L 651.6507001984894,133.05471902791072 A 378.8,378.8 0 0,1 809.8612994534744,94.78199362476784 L 812.900822517678,240.84319695559356 A 232.70717396495255,232.70717396495255 0 0 0 715.7077352844963,264.3551762811005 Z "/><path class="wedge" fill="rgb(216,172,140)" d=" M 811.35043584776,219.38766048590995 L 808.2170475283198,94.81978163689661 A 378.8,378.8 0 0,1 809.8612994534744,94.78199362476784 L 812.4538066688125,219.36230294225706 A 254.19271865856766,254.19271865856766 0 0 0 811.35043584776,219.38766048590995 Z "/><path class="wedge" fill="rgb(219,179,149)" d=" M 706.28701061489,245.04511213100503 L 651.6507001984894,133.05471902791072 A 378.8,378.8 0 0,1 798.0132021938889,95.21413058257713 L 804.5031729482603,219.65228728264353 A 254.19271865856766,254.19271865856766 0 0 0 706.28701061489,245.04511213100503 Z "/><path class="wedge" fill="rgb(219,179,149)" d=" M 800.8050518632583,203.62860741543545 L 794.0152899938878,95.44383413602219 A 378.8,378.8 0 0,1 798.0132021938889,95.21413058257713 L 803.6589191725758,203.46463596503423 A 270.40237070968385,270.40237070968385 0 0 0 800.8050518632583,203.62860741543545 Z "/><path class="wedge" fill="rgb(223,186,159)" d=" M 699.1795962513592,230.4767395148433 L 651.6507001984894,133.05471902791072 A 378.8,378.8 0 0,1 782.5875438981329,96.33481532288522 L 792.6474762662137,204.26462490536545 A 270.40237070968385,270.40237070968385 0 0 0 699.1795962513592,230.4767395148433 Z "/><path class="wedge" fill="rgb(223,186,159)" d=" M 791.0713645855052,191.69959826843035 L 782.0503301689042,96.38527395769592 A 378.8,378.8 0 0,1 782.5875438981329,96.33481532288522 L 791.4727995713545,191.66189286320872 A 283.05972905429314,283.05972905429314 0 0 0 791.0713645855052,191.69959826843035 Z "/><path class="wedge" fill="rgb(226,193,168)" d=" M 693.6297491467361,219.10097943565924 L 651.6507001984894,133.05471902791072 A 378.8,378.8 0 0,1 780.3089404975734,96.55414635750583 L 789.7701045840668,191.8257888062734 A 283.05972905429314,283.05972905429314 0 0 0 693.6297491467361,219.10097943565924 Z "/><path class="wedge" fill="rgb(226,193,168)" d=" M 787.0132655725351,181.90100930553496 L 778.0437189549522,96.78597687340095 A 378.8,378.8 0 0,1 780.3089404975734,96.55414635750583 L 788.7666813600482,181.72155874012697 A 293.21366047990944,293.21366047990944 0 0 0 787.0132655725351,181.90100930553496 Z "/><path class="wedge" fill="rgb(229,200,178)" d=" M 689.1775747365049,209.97516624356507 L 651.6507001984894,133.05471902791072 A 378.8,378.8 0 0,1 772.2364988928117,97.4432841524283 L 782.5181329124704,182.40980411372846 A 293.21366047990944,293.21366047990944 0 0 0 689.1775747365049,209.97516624356507 Z "/><path class="wedge" fill="rgb(229,200,178)" d=" M 737.9151722004277,182.72022182448336 L 717.4613843295202,108.21496177449984 A 378.8,378.8 0 0,1 772.2364988928117,97.4432841524283 L 781.5180959326062,174.14558639802345 A 301.53816457406833,301.53816457406833 0 0 0 737.9151722004277,182.72022182448336 Z "/><path class="wedge" fill="rgb(229,200,178)" d=" M 685.5275457425745,202.493544978282 L 651.6507001984894,133.05471902791072 A 378.8,378.8 0 0,1 671.2261632585105,124.18290307345677 L 701.1103049870471,195.43126646892352 A 301.53816457406833,301.53816457406833 0 0 0 685.5275457425745,202.493544978282 Z "/><path class="wedge" fill="url(#hiddenPattern)" d=" M 685.5275457425745,202.493544978282 L 651.6507001984894,133.05471902791072 A 378.8,378.8 0 0,1 671.2261632585105,124.18290307345677 L 701.1103049870471,195.43126646892352 A 301.53816457406833,301.53816457406833 0 0 0 685.5275457425745,202.493544978282 Z "/><path class="wedge" fill="rgb(229,200,178)" d=" M 701.1103049870471,195.43126646892352 L 671.2261632585105,124.18290307345677 A 378.8,378.8 0 0,1 713.4453259639718,109.34129606296108 L 734.7182480495043,183.61682365668884 A 301.53816457406833,301.53816457406833 0 0 0 701.1103049870471,195.43126646892352 Z "/><path class="wedge" fill="rgb(229,200,178)" d=" M 699.606212119033,188.5310641230339 L 672.679008998929,123.57707361883251 A 378.8,378.8 0 0,1 713.4453259639718,109.34129606296108 L 732.8053342379906,176.93778435873833 A 308.4857400643993,308.4857400643993 0 0 0 699.606212119033,188.5310641230339 Z "/><path class="wedge" fill="rgb(229,200,178)" d=" M 698.4230489895916,189.02443726892244 L 671.2261632585105,124.18290307345677 A 378.8,378.8 0 0,1 672.679008998929,123.57707361883251 L 699.606212119033,188.5310641230339 A 308.4857400643993,308.4857400643993 0 0 0 698.4230489895916,189.02443726892244 Z "/><path class="wedge" fill="url(#hiddenPattern)" d=" M 698.4230489895916,189.02443726892244 L 671.2261632585105,124.18290307345677 A 378.8,378.8 0 0,1 672.679008998929,123.57707361883251 L 699.606212119033,188.5310641230339 A 308.4857400643993,308.4857400643993 0 0 0 698.4230489895916,189.02443726892244 Z "/><path class="wedge" fill="rgb(229,201,178)" d=" M 734.7182480495043,183.61682365668884 L 713.4453259639718,109.34129606296108 A 378.8,378.8 0 0,1 717.4613843295202,108.21496177449984 L 737.9151722004277,182.72022182448336 A 301.53816457406833,301.53816457406833 0 0 0 734.7182480495043,183.61682365668884 Z "/><path class="wedge" fill="url(#hiddenPattern)" d=" M 734.7182480495043,183.61682365668884 L 713.4453259639718,109.34129606296108 A 378.8,378.8 0 0,1 717.4613843295202,108.21496177449984 L 737.9151722004277,182.72022182448336 A 301.53816457406833,301.53816457406833 0 0 0 734.7182480495043,183.61682365668884 Z "/><path class="wedge" fill="rgb(226,196,168)" d=" M 782.5181329124704,182.40980411372846 L 772.2364988928117,97.4432841524283 A 378.8,378.8 0 0,1 778.0437189549522,96.78597687340095 L 787.0132655725351,181.90100930553496 A 293.21366047990944,293.21366047990944 0 0 0 782.5181329124704,182.40980411372846 Z "/><path class="wedge" fill="url(#hiddenPattern)" d=" M 782.5181329124704,182.40980411372846 L 772.2364988928117,97.4432841524283 A 378.8,378.8 0 0,1 778.0437189549522,96.78597687340095 L 787.0132655725351,181.90100930553496 A 293.21366047990944,293.21366047990944 0 0 0 782.5181329124704,182.40980411372846 Z "/><path class="wedge" fill="rgb(223,189,159)" d=" M 789.7701045840668,191.8257888062734 L 780.3089404975734,96.55414635750583 A 378.8,378.8 0 0,1 782.0503301689042,96.38527395769592 L 791.0713645855052,191.69959826843035 A 283.05972905429314,283.05972905429314 0 0 0 789.7701045840668,191.8257888062734 Z "/><path class="wedge" fill="url(#hiddenPattern)" d=" M 789.7701045840668,191.8257888062734 L 780.3089404975734,96.55414635750583 A 378.8,378.8 0 0,1 782.0503301689042,96.38527395769592 L 791.0713645855052,191.69959826843035 A 283.05972905429314,283.05972905429314 0 0 0 789.7701045840668,191.8257888062734 Z "/><path class="wedge" fill="rgb(219,183,149)" d=" M 792.6474762662137,204.26462490536545 L 782.5875438981329,96.33481532288522 A 378.8,378.8 0 0,1 794.0152899938878,95.44383413602219 L 800.8050518632583,203.62860741543545 A 270.40237070968385,270.40237070968385 0 0 0 792.6474762662137,204.26462490536545 Z "/><path class="wedge" fill="url(#hiddenPattern)" d=" M 792.6474762662137,204.26462490536545 L 782.5875438981329,96.33481532288522 A 378.8,378.8 0 0,1 794.0152899938878,95.44383413602219 L 800.8050518632583,203.62860741543545 A 270.40237070968385,270.40237070968385 0 0 0 792.6474762662137,204.26462490536545 Z "/><path class="wedge" fill="rgb(216,177,140)" d=" M 804.5031729482603,219.65228728264353 L 798.0132021938889,95.21413058257713 A 378.8,378.8 0 0,1 808.2170475283198,94.81978163689661 L 811.35043584776,219.38766048590995 A 254.19271865856766,254.19271865856766 0 0 0 804.5031729482603,219.65228728264353 Z "/><path class="wedge" fill="url(#hiddenPattern)" d=" M 804.5031729482603,219.65228728264353 L 798.0132021938889,95.21413058257713 A 378.8,378.8 0 0,1 808.2170475283198,94.81978163689661 L 811.35043584776,219.38766048590995 A 254.19271865856766,254.19271865856766 0 0 0 804.5031729482603,219.65228728264353 Z "/><path class="wedge" fill="rgb(213,171,130)" d=" M 812.900822517678,240.84319695559356 L 809.8612994534744,94.78199362476784 A 378.8,378.8 0 0,1 815.7504043273145,94.70523765741484 L 816.5186603011376,240.79604367088484 A 232.70717396495255,232.70717396495255 0 0 0 812.900822517678,240.84319695559356 Z "/><path class="wedge" fill="url(#hiddenPattern)" d=" M 812.900822517678,240.84319695559356 L 809.8612994534744,94.78199362476784 A 378.8,378.8 0 0,1 815.7504043273145,94.70523765741484 L 816.5186603011376,240.79604367088484 A 232.70717396495255,232.70717396495255 0 0 0 812.900822517678,240.84319695559356 Z "/><path class="wedge" fill="rgb(210,165,121)" d=" M 817.1599097623812,270.5912310383933 L 816.654988681549,94.70156078695811 A 378.8,378.8 0 0,1 816.7690340870208,94.7012505683474 L 817.2209998050913,270.5910648653844 A 202.90960501932898,202.90960501932898 0 0 0 817.1599097623812,270.5912310383933 Z "/><path class="wedge" fill="url(#hiddenPattern)" d=" M 817.1599097623812,270.5912310383933 L 816.654988681549,94.70156078695811 A 378.8,378.8 0 0,1 816.7690340870208,94.7012505683474 L 817.2209998050913,270.5910648653844 A 202.90960501932898,202.90960501932898 0 0 0 817.1599097623812,270.5912310383933 Z "/><path class="wedge" fill="rgb(207,159,111)" d=" M 819.0115037224055,314.56438826156773 L 820.7670370553038,94.7120757827389 A 378.8,378.8 0 0,1 821.182374692251,94.71562000122634 L 819.1857752268168,314.5658753800776 A 158.94067861568504,158.94067861568504 0 0 0 819.0115037224055,314.56438826156773 Z "/><path class="wedge" fill="url(#hiddenPattern)" d=" M 819.0115037224055,314.56438826156773 L 820.7670370553038,94.7120757827389 A 378.8,378.8 0 0,1 821.182374692251,94.71562000122634 L 819.1857752268168,314.5658753800776 A 158.94067861568504,158.94067861568504 0 0 0 819.0115037224055,314.56438826156773 Z "/><path class="wedge" fill="rgb(159,207,111)" d=" M 818.5748851007809,385.50393782596876 L 821.3258906395345,94.71695055087469 A 378.8,378.8 0 0,1 818.4127971636316,852.2994067567306 L 817.8981368804021,561.4998621821338 A 88,88 0 0 0 818.5748851007809,385.50393782596876 Z "/><path class="wedge" fill="rgb(101,204,204)" d=" M 817.8981368804021,561.4998621821338 L 818.4127971636316,852.2994067567306 A 378.8,378.8 0 0,1 818.3254311318286,852.2995513030619 L 817.8778406533729,561.4998957620629 A 88,88 0 0 0 817.8981368804021,561.4998621821338 Z "/><path class="wedge" fill="url(#hiddenPattern)" d=" M 817.8981368804021,561.4998621821338 L 818.4127971636316,852.2994067567306 A 378.8,378.8 0 0,1 818.3254311318286,852.2995513030619 L 817.8778406533729,561.4998957620629 A 88,88 0 0 0 817.8981368804021,561.4998621821338 Z "/><rect fill="rgb(101,204,204)" x="1673.795" y="852.1283333333333" width="22" height="22"/><rect fill="url(#hiddenPattern)" style="stroke:none" x="1673.795" y="852.1283333333333" width="22" height="22"/><path class="line" d="M 818.3691141518972,852.2994815486509 L 818.4670392160923,911.4869005406274 A 437.9875,437.9875 0 0,0 1017.7994156626464,863.1283333333333 L 1279.404893741048,863.1283333333333 L 1577.9997526041668,863.1283333333333"/><text x="1666.4616666666668" y="863.1283333333333" style="font-color:black;font-weight:normal" text-anchor="end">Viruses&#160;&#160;&#160;0.004%</text><path class="wedge" fill="rgb(159,111,207)" d=" M 817.8778406533729,561.4998957620629 L 818.3254311318286,852.2995513030619 A 378.8,378.8 0 0,1 818.3250396066452,852.2995519054839 L 817.8777496971529,561.4998959020131 A 88,88 0 0 0 817.8778406533729,561.4998957620629 Z "/><path class="wedge" fill="rgb(159,111,207)" d=" M 817.8778406533729,561.4998957620629 L 818.3254311318286,852.2995513030619 A 378.8,378.8 0 0,1 818.3250396066452,852.2995519054839 L 817.8777496971529,561.4998959020131 A 88,88 0 0 0 817.8778406533729,561.4998957620629 Z "/><rect fill="rgb(159,111,207)" x="1673.795" y="881.4616666666667" width="22" height="22"/><path class="line" d="M 818.3252353692367,852.2995516043234 L 818.4345181745222,923.3244675301341 A 449.82500000000005,449.82500000000005 0 0,0 981.491141793938,892.4616666666667 L 1268.404893741048,892.4616666666667 L 1520.9157682291668,892.4616666666667"/><text x="1666.4616666666668" y="892.4616666666667" style="font-color:black;font-weight:normal" text-anchor="end">other sequences&#160;&#160;&#160;0.00002%</text><circle cx="817.742393741048" cy="473.5" r="88"/><circle cx="817.742393741048" cy="473.5" r="378.8"/><text x="817.742393741048" y="473.5" text-anchor="middle" style="font-color:black;font-weight:bold" transform="rotate(360,817.742393741048,473.5)">Root</text><rect fill="rgb(220,220,220)" x="1673.795" y="910.795" width="22" height="22"/><path class="line" d="M 818.0337167600004,852.2998879763544 L 818.0974436703962,935.1623634711818 A 461.6625,461.6625 0 0,0 928.0322703447058,921.795 L 1257.404893741048,921.795 L 1563.1271940104168,921.795"/><text x="1666.4616666666668" y="921.795" style="font-color:black;font-weight:normal" text-anchor="end">[other Root]&#160;&#160;&#160;0.02%</text><path class="line" d=" M 818.5748851007809,385.50393782596876 A 88,88 0 1 0 817.742393741048,561.5"/><line x1="821.3258906395345" y1="94.71695055087469" x2="818.5748851007809" y2="385.50393782596876"/><text x="817.742393741048" y="350.02966069215745" text-anchor="middle" style="font-color:black;font-weight:normal" transform="rotate(270.2710167776924,817.742393741048,473.5)">cellular organisms</text><path class="line" d=" M 819.0115037224055,314.56438826156773 A 158.94067861568504,158.94067861568504 0 1 0 817.742393741048,632.4406786156851"/><line x1="820.7670370553038" y1="94.7120757827389" x2="819.0115037224055" y2="314.56438826156773"/><text x="817.742393741048" y="301.36864346322176" text-anchor="middle" style="font-color:black;font-weight:normal" transform="rotate(270.22875018215626,817.742393741048,473.5)">Bacteria</text><path class="line" d=" M 728.773016936106,291.1356454785082 A 202.90960501932898,202.90960501932898 0 0 0 817.742393741048,676.409605019329"/><line x1="651.6507001984894" y1="133.05471902791072" x2="728.773016936106" y2="291.1356454785082"/><text x="817.742393741048" y="685.348875703016" text-anchor="middle" style="font-color:black;font-weight:normal" transform="rotate(76.99691157467531,817.742393741048,473.5)">Pseudomonadati</text><path class="line" d=" M 709.3583695055912,267.5739644792757 A 232.70717396495255,232.70717396495255 0 0 0 817.742393741048,706.2071739649525"/><line x1="641.3152227137623" y1="138.29425225198048" x2="709.3583695055912" y2="267.5739644792757"/><text x="817.742393741048" y="716.9499463117601" text-anchor="middle" style="font-color:black;font-weight:normal" transform="rotate(76.120522683926,817.742393741048,473.5)">FCB group</text><path class="line" d=" M 699.3448732739697,248.5645306620552 A 254.19271865856766,254.19271865856766 0 0 0 817.742393741048,727.6927186585676"/><line x1="641.3054722210003" y1="138.2993843613521" x2="699.3448732739697" y2="248.5645306620552"/><text x="817.742393741048" y="735.7975446841258" text-anchor="middle" style="font-color:black;font-weight:normal" transform="rotate(76.11968936533908,817.742393741048,473.5)">Bacteroidota/Chlorobiota group</text><path class="line" d=" M 691.7456571366856,234.2464431811551 A 270.40237070968385,270.40237070968385 0 0 0 817.742393741048,743.9023707096839"/><line x1="641.2366785712098" y1="138.33560375185436" x2="691.7456571366856" y2="234.2464431811551"/><path class="line" d=" M 676.821175130569,228.01268799054512 A 283.05972905429314,283.05972905429314 0 0 0 817.742393741048,756.5597290542931"/><line x1="629.156904070737" y1="144.98066558296898" x2="676.821175130569" y2="228.01268799054512"/><path class="line" d=" M 671.718960041556,219.23358951163513 A 293.21366047990944,293.21366047990944 0 0 0 817.742393741048,766.7136604799094"/><line x1="629.0960783039212" y1="145.01558991027275" x2="671.718960041556" y2="219.23358951163513"/><path class="line" d=" M 625.1556075488564,241.47501324456235 A 301.53816457406833,301.53816457406833 0 0 0 817.742393741048,775.0381645740683"/><line x1="575.80991825275" y1="182.02424233891406" x2="625.1556075488564" y2="241.47501324456235"/><path class="line" d=" M 613.1444016767562,242.6253295262988 A 308.4857400643993,308.4857400643993 0 0 0 817.742393741048,781.9857400643994"/><line x1="566.5096483383771" y1="190.00123873738573" x2="613.1444016767562" y2="242.6253295262988"/><path class="line" d=" M 545.7656632145738,315.8358934289546 A 314.37129711332796,314.37129711332796 0 0 0 817.742393741048,787.871297113328"/><line x1="490.0254982437821" y1="283.52348459445284" x2="545.7656632145738" y2="315.8358934289546"/><text x="471.156745184384" y="473.5" text-anchor="end" style="font-color:black;font-weight:normal" transform="rotate(-29.94962864094833,817.742393741048,473.5)">Segatella copri&#160;&#160;&#160;33%</text><path class="line" d=" M 798.8990488212057,792.364382739268 A 319.4206728241967,319.4206728241967 0 0 0 817.742393741048,792.9206728241967"/><line x1="795.3961285712767" y1="851.6402972878748" x2="798.8990488212057" y2="792.364382739268"/><text x="468.6320573289496" y="473.5" text-anchor="end" style="font-color:black;font-weight:normal" transform="rotate(-88.30901469524193,817.742393741048,473.5)">Segatella copri DSM 18205&#160;&#160;&#160;0.9%</text><path class="line" d=" M 580.1720947263337,267.6124931551806 A 314.37129711332796,314.37129711332796 0 0 0 545.7656632145738,315.8358934289546"/><line x1="531.4833424437134" y1="225.41695835799266" x2="580.1720947263337" y2="267.6124931551806"/><text x="471.156745184384" y="473.5" text-anchor="end" style="font-color:black;font-weight:normal" transform="rotate(35.50709797789113,817.742393741048,473.5)">Segatella hominis&#160;&#160;&#160;3%</text><path class="line" d=" M 580.3728514872927,267.38107108041004 A 314.37129711332796,314.37129711332796 0 0 0 580.1720947263337,267.6124931551806"/><line x1="531.7252432207549" y1="225.13810757635946" x2="580.3728514872927" y2="267.38107108041004"/><path class="line" d=" M 616.6197633616355,239.59160046645107 A 308.4857400643993,308.4857400643993 0 0 0 613.1444016767562,242.6253295262988"/><line x1="570.7771616631662" y1="186.2760209440757" x2="616.6197633616355" y2="239.59160046645107"/><line x1="1188.292393741048" y1="473.5" x2="1204.792393741048" y2="473.5" class="tick" transform="rotate(232.5434462489419,817.742393741048,473.5)"/><text x="427.94239374104797" y="473.5" text-anchor="end" style="font-color:black;font-weight:normal" transform="rotate(52.54344624894189,817.742393741048,473.5)">12 more</text><path class="line" d=" M 643.8419856940379,227.15895028278115 A 301.53816457406833,301.53816457406833 0 0 0 625.1556075488564,241.47501324456235"/><line x1="599.2842272225389" y1="164.04003573746195" x2="643.8419856940379" y2="227.15895028278115"/><path class="line" d=" M 671.744640921093,219.21884288537822 A 293.21366047990944,293.21366047990944 0 0 0 671.718960041556,219.23358951163513"/><line x1="629.1292551932679" y1="144.99653888100977" x2="671.744640921093" y2="219.21884288537822"/><path class="line" d=" M 677.56587919639,227.58669214050016 A 283.05972905429314,283.05972905429314 0 0 0 676.821175130569,228.01268799054512"/><line x1="630.1534919678408" y1="144.41058368351918" x2="677.56587919639" y2="227.58669214050016"/><path class="line" d=" M 691.7643103409524,234.23662087929995 A 270.40237070968385,270.40237070968385 0 0 0 691.7456571366856,234.2464431811551"/><line x1="641.262809384182" y1="138.32184393187583" x2="691.7643103409524" y2="234.23662087929995"/><path class="line" d=" M 699.3505859750344,248.561523804999 A 254.19271865856766,254.19271865856766 0 0 0 699.3448732739697,248.5645306620552"/><line x1="641.3139853333142" y1="138.29490351918287" x2="699.3505859750344" y2="248.561523804999"/><path class="line" d=" M 715.1386272755581,264.6337846327226 A 232.70717396495255,232.70717396495255 0 0 0 709.3583695055912,267.5739644792757"/><line x1="650.7243079858526" y1="133.50823681937493" x2="715.1386272755581" y2="264.6337846327226"/><path class="line" d=" M 817.1599097623812,270.5912310383933 A 202.90960501932898,202.90960501932898 0 0 0 728.773016936106,291.1356454785082"/><line x1="816.654988681549" y1="94.70156078695811" x2="817.1599097623812" y2="270.5912310383933"/><text x="817.742393741048" y="249.73209671873454" text-anchor="middle" style="font-color:black;font-weight:normal" transform="rotate(346.9146731822498,817.742393741048,473.5)">Bacillati</text><path class="line" d=" M 812.900822517678,240.84319695559356 A 232.70717396495255,232.70717396495255 0 0 0 715.7077352844963,264.3551762811005"/><line x1="809.8612994534744" y1="94.78199362476784" x2="812.900822517678" y2="240.84319695559356"/><text x="817.742393741048" y="230.0500536882399" text-anchor="middle" style="font-color:black;font-weight:normal" transform="rotate(346.40083709742584,817.742393741048,473.5)">Bacillota</text><path class="line" d=" M 804.5031729482603,219.65228728264353 A 254.19271865856766,254.19271865856766 0 0 0 706.28701061489,245.04511213100503"/><line x1="798.0132021938889" y1="95.21413058257713" x2="804.5031729482603" y2="219.65228728264353"/><text x="817.742393741048" y="211.20245531587426" text-anchor="middle" style="font-color:black;font-weight:normal" transform="rotate(345.50415668758257,817.742393741048,473.5)">Clostridia</text><path class="line" d=" M 792.6474762662137,204.26462490536545 A 270.40237070968385,270.40237070968385 0 0 0 699.1795962513592,230.4767395148433"/><line x1="782.5875438981329" y1="96.33481532288522" x2="792.6474762662137" y2="204.26462490536545"/><path class="line" d=" M 789.7701045840668,191.8257888062734 A 283.05972905429314,283.05972905429314 0 0 0 693.6297491467361,219.10097943565924"/><line x1="780.3089404975734" y1="96.55414635750583" x2="789.7701045840668" y2="191.8257888062734"/><path class="line" d=" M 782.5181329124704,182.40980411372846 A 293.21366047990944,293.21366047990944 0 0 0 689.1775747365049,209.97516624356507"/><line x1="772.2364988928117" y1="97.4432841524283" x2="782.5181329124704" y2="182.40980411372846"/><path class="line" d=" M 701.1103049870471,195.43126646892352 A 301.53816457406833,301.53816457406833 0 0 0 685.5275457425745,202.493544978282"/><line x1="671.2261632585105" y1="124.18290307345677" x2="701.1103049870471" y2="195.43126646892352"/><text x="477.57331145401383" y="473.5" text-anchor="end" style="font-color:black;font-weight:normal" transform="rotate(65.61944159053587,817.742393741048,473.5)">unclassified Faecalibacterium&#160;&#160;&#160;0.9%</text><path class="line" d=" M 734.7182480495043,183.61682365668884 A 301.53816457406833,301.53816457406833 0 0 0 701.1103049870471,195.43126646892352"/><line x1="713.4453259639718" y1="109.34129606296108" x2="734.7182480495043" y2="183.61682365668884"/><text x="477.57331145401383" y="473.5" text-anchor="end" style="font-color:black;font-weight:normal" transform="rotate(70.63152717757184,817.742393741048,473.5)">Faecalibacterium prausnitzii&#160;&#160;&#160;2%</text><path class="line" d=" M 699.606212119033,188.5310641230339 A 308.4857400643993,308.4857400643993 0 0 0 698.4230489895916,189.02443726892244"/><line x1="672.679008998929" y1="123.57707361883251" x2="699.606212119033" y2="188.5310641230339"/><path class="line" d=" M 737.9151722004277,182.72022182448336 A 301.53816457406833,301.53816457406833 0 0 0 734.7182480495043,183.61682365668884"/><line x1="717.4613843295202" y1="108.21496177449984" x2="737.9151722004277" y2="182.72022182448336"/><path class="line" d=" M 787.0132655725351,181.90100930553496 A 293.21366047990944,293.21366047990944 0 0 0 782.5181329124704,182.40980411372846"/><line x1="778.0437189549522" y1="96.78597687340095" x2="787.0132655725351" y2="181.90100930553496"/><path class="line" d=" M 791.0713645855052,191.69959826843035 A 283.05972905429314,283.05972905429314 0 0 0 789.7701045840668,191.8257888062734"/><line x1="782.0503301689042" y1="96.38527395769592" x2="791.0713645855052" y2="191.69959826843035"/><path class="line" d=" M 800.8050518632583,203.62860741543545 A 270.40237070968385,270.40237070968385 0 0 0 792.6474762662137,204.26462490536545"/><line x1="794.0152899938878" y1="95.44383413602219" x2="800.8050518632583" y2="203.62860741543545"/><path class="line" d=" M 811.35043584776,219.38766048590995 A 254.19271865856766,254.19271865856766 0 0 0 804.5031729482603,219.65228728264353"/><line x1="808.2170475283198" y1="94.81978163689661" x2="811.35043584776" y2="219.38766048590995"/><path class="line" d=" M 816.5186603011376,240.79604367088484 A 232.70717396495255,232.70717396495255 0 0 0 812.900822517678,240.84319695559356"/><line x1="815.7504043273145" y1="94.70523765741484" x2="816.5186603011376" y2="240.79604367088484"/><path class="line" d=" M 817.2209998050913,270.5910648653844 A 202.90960501932898,202.90960501932898 0 0 0 817.1599097623812,270.5912310383933"/><line x1="816.7690340870208" y1="94.7012505683474" x2="817.2209998050913" y2="270.5910648653844"/><path class="line" d=" M 819.1857752268168,314.5658753800776 A 158.94067861568504,158.94067861568504 0 0 0 819.0115037224055,314.56438826156773"/><line x1="821.182374692251" y1="94.71562000122634" x2="819.1857752268168" y2="314.5658753800776"/><path class="line" d=" M 817.8981368804021,561.4998621821338 A 88,88 0 0 0 818.5748851007809,385.50393782596876"/><line x1="818.4127971636316" y1="852.2994067567306" x2="817.8981368804021" y2="561.4998621821338"/><text x="1051.142393741048" y="473.5" text-anchor="start" style="font-color:black;font-weight:normal" transform="rotate(360.22031547524085,817.742393741048,473.5)">50%&#160;&#160;&#160;No hits</text><path class="line" d=" M 817.8778406533729,561.4998957620629 A 88,88 0 0 0 817.8981368804021,561.4998621821338"/><line x1="818.3254311318286" y1="852.2995513030619" x2="817.8778406533729" y2="561.4998957620629"/><line x1="818.3250396066452" y1="852.2995519054839" x2="817.8777496971529" y2="561.4998959020131"/><path class="line" d=" M 817.8777496971529,561.4998959020131 A 88,88 0 0 0 817.8778406533729,561.4998957620629"/></svg>