<?xml version="1.0" standalone="no"?><!DOCTYPE svg PUBLIC "-//W3C//DTD SVG 1.1//EN" 	"http://www.w3.org/Graphics/SVG/1.1/DTD/svg11.dtd"><svg width="1710" height="947" version="1.1"	xmlns="http://www.w3.org/2000/svg"><title>Krona (snapshot) - Omnivore_3 - Root</title><defs>	<style type="text/css">	text {font-size: 11px; font-family: sans-serif; dominant-baseline:central}	path {stroke-width:0.27499999999999997;}	path.wedge {stroke:none}	path.line {fill:none;stroke:black;}	line {stroke:black;stroke-width:0.27499999999999997;}	line.tick {stroke-width:0.5499999999999999;}	line.pattern {stroke-width:0.18333333333333332;}	circle {fill:none;stroke:black;stroke-width:0.27499999999999997;}	rect {stroke:black;stroke-width:0.27499999999999997;}	.highlight {stroke:black;stroke-width:1.375;}	.searchHighlight {fill:rgb(255, 255, 100);stroke:none;}	</style><pattern id="hiddenPattern" patternUnits="userSpaceOnUse" x="0" y="0" width="6.6" height="6.6"><line class="pattern" x1="0" y1="0" x2="3.3" y2="3.3"/><line class="pattern" x1="3.3" y1="6.6" x2="6.6" y2="3.3"/></pattern></defs><path class="wedge" fill="rgb(220,220,220)" d=" M 818.1442793839849,561.4990823129991 L 819.4723287585992,852.2960497745919 A 378.8,378.8 0 0,1 817.7423937410481,852.3 L 817.742393741048,561.5 A 88,88 0 0 0 818.1442793839849,561.4990823129991 Z "/><path class="wedge" fill="rgb(207,111,111)" d=" M 817.742393741048,561.5 L 817.742393741048,852.3 A 378.8,378.8 0 0,1 475.6147044121877,310.90207813598954 L 738.2618323341321,435.7264595458476 A 88,88 0 0 0 817.742393741048,561.5 Z "/><path class="wedge" fill="rgb(207,111,111)" d=" M 674.1623464867939,405.3317570324667 L 475.55106567065076,311.03605017291443 A 378.8,378.8 0 0,1 475.6147044121877,310.90207813598954 L 674.1890486641068,405.2755437102271 A 158.94067861568504,158.94067861568504 0 0 0 674.1623464867939,405.3317570324667 Z "/><path class="wedge" fill="rgb(210,121,121)" d=" M 817.742393741048,632.4406786156851 L 817.742393741048,852.3 A 378.8,378.8 0 0,1 475.3882578460047,311.37941020475455 L 674.0940339574032,405.47582745609446 A 158.94067861568504,158.94067861568504 0 0 0 817.742393741048,632.4406786156851 Z "/><path class="wedge" fill="rgb(210,121,121)" d=" M 632.446490874883,390.80939478929395 L 471.82437769140336,319.12977562924317 A 378.8,378.8 0 0,1 475.3882578460047,311.37941020475455 L 634.3555339438017,386.65780137050183 A 202.90960501932898,202.90960501932898 0 0 0 632.446490874883,390.80939478929395 Z "/><path class="wedge" fill="rgb(213,130,130)" d=" M 817.742393741048,676.409605019329 L 817.742393741048,852.3 A 378.8,378.8 0 0,1 479.84696685322274,644.719509660244 L 636.743904808508,565.2161644053941 A 202.90960501932898,202.90960501932898 0 0 0 817.742393741048,676.409605019329 Z "/><path class="wedge" fill="rgb(213,130,130)" d=" M 610.5988710789363,579.5386242549662 L 480.5548242842272,646.109336374953 A 378.8,378.8 0 0,1 479.84696685322274,644.719509660244 L 610.1640149481572,578.6848157885435 A 232.70717396495255,232.70717396495255 0 0 0 610.5988710789363,579.5386242549662 Z "/><path class="wedge" fill="rgb(216,140,140)" d=" M 817.742393741048,706.2071739649525 L 817.742393741048,852.3 A 378.8,378.8 0 0,1 508.0667093084367,691.6522644191296 L 627.5001725953896,607.5168873997643 A 232.70717396495255,232.70717396495255 0 0 0 817.742393741048,706.2071739649525 Z "/><path class="wedge" fill="rgb(216,140,140)" d=" M 609.9373704396797,619.8933417534811 L 508.069704287301,691.656515846956 A 378.8,378.8 0 0,1 508.0667093084367,691.6522644191296 L 609.9353606671881,619.8904888443011 A 254.19271865856766,254.19271865856766 0 0 0 609.9373704396797,619.8933417534811 Z "/><path class="wedge" fill="rgb(219,149,149)" d=" M 817.742393741048,727.6927186585676 L 817.742393741048,852.3 A 378.8,378.8 0 0,1 508.08516908643475,691.6784664425029 L 609.9477480514413,619.9080716414385 A 254.19271865856766,254.19271865856766 0 0 0 817.742393741048,727.6927186585676 Z "/><path class="wedge" fill="rgb(219,149,149)" d=" M 596.7149936974773,629.2701207401365 L 508.110570185789,691.7145133620699 A 378.8,378.8 0 0,1 508.08516908643475,691.6784664425029 L 596.6968613915533,629.244389028131 A 270.40237070968385,270.40237070968385 0 0 0 596.7149936974773,629.2701207401365 Z "/><path class="wedge" fill="rgb(223,159,159)" d=" M 817.742393741048,743.9023707096839 L 817.742393741048,852.3 A 378.8,378.8 0 0,1 508.1384520342078,691.7540704765606 L 596.7348968598644,629.2983581676358 A 270.40237070968385,270.40237070968385 0 0 0 817.742393741048,743.9023707096839 Z "/><path class="wedge" fill="rgb(223,159,159)" d=" M 593.2249812687586,645.8796441260909 L 517.2856804931155,704.1842072276506 A 378.8,378.8 0 0,1 508.1384520342078,691.7540704765606 L 586.3896802941648,636.5911775451211 A 283.05972905429314,283.05972905429314 0 0 0 593.2249812687586,645.8796441260909 Z "/><path class="wedge" fill="rgb(226,168,168)" d=" M 817.742393741048,756.5597290542931 L 817.742393741048,852.3 A 378.8,378.8 0 0,1 518.0389512992463,705.16200937688 L 593.7878657204161,646.6103104709418 A 283.05972905429314,283.05972905429314 0 0 0 817.742393741048,756.5597290542931 Z "/><path class="wedge" fill="rgb(226,168,168)" d=" M 585.8126773412519,652.8958119431379 L 518.1145509302848,705.2597804032628 A 378.8,378.8 0 0,1 518.0389512992463,705.16200937688 L 585.7541587442408,652.820131371505 A 293.21366047990944,293.21366047990944 0 0 0 585.8126773412519,652.8958119431379 Z "/><path class="wedge" fill="rgb(229,178,178)" d=" M 817.742393741048,766.7136604799094 L 817.742393741048,852.3 A 378.8,378.8 0 0,1 518.1842061137027,705.3498053167616 L 585.8665945833357,652.9654965641025 A 293.21366047990944,293.21366047990944 0 0 0 817.742393741048,766.7136604799094 Z "/><path class="wedge" fill="rgb(229,178,178)" d=" M 610.0534867984177,692.110573000652 L 556.8382456343045,748.12422599016 A 378.8,378.8 0 0,1 518.1842061137027,705.3498053167616 L 579.2835075734554,658.0606250054682 A 301.53816457406833,301.53816457406833 0 0 0 610.0534867984177,692.110573000652 Z "/><path class="wedge" fill="rgb(229,178,178)" d=" M 817.742393741048,775.0381645740683 L 817.742393741048,852.3 A 378.8,378.8 0 0,1 807.2227332426904,852.1539010006359 L 809.3683728365678,774.921864616005 A 301.53816457406833,301.53816457406833 0 0 0 817.742393741048,775.0381645740683 Z "/><path class="wedge" fill="url(#hiddenPattern)" d=" M 817.742393741048,775.0381645740683 L 817.742393741048,852.3 A 378.8,378.8 0 0,1 807.2227332426904,852.1539010006359 L 809.3683728365678,774.921864616005 A 301.53816457406833,301.53816457406833 0 0 0 817.742393741048,775.0381645740683 Z "/><path class="wedge" fill="rgb(229,178,178)" d=" M 809.3683728365678,774.921864616005 L 807.2227332426904,852.1539010006359 A 378.8,378.8 0 0,1 734.018850829942,842.9317370806307 L 751.0954997044769,767.5806967653198 A 301.53816457406833,301.53816457406833 0 0 0 809.3683728365678,774.921864616005 Z "/><path class="wedge" fill="rgb(229,178,178)" d=" M 749.5626225555718,774.3570601202109 L 734.0221630436198,842.9324877050872 A 378.8,378.8 0 0,1 734.018850829942,842.9317370806307 L 749.5599251672729,774.356448829448 A 308.4857400643993,308.4857400643993 0 0 0 749.5626225555718,774.3570601202109 Z "/><path class="wedge" fill="rgb(229,178,178)" d=" M 809.1754316131122,781.8667605027796 L 807.2227332426904,852.1539010006359 A 378.8,378.8 0 0,1 734.0302365926527,842.9343172277886 L 749.5691974625105,774.3585500401279 A 308.4857400643993,308.4857400643993 0 0 0 809.1754316131122,781.8667605027796 Z "/><path class="wedge" fill="rgb(229,178,178)" d=" M 752.1722358908264,780.9570975733254 L 738.7339854616176,843.9687725317086 A 378.8,378.8 0 0,1 734.0302365926527,842.9343172277886 L 748.2685304176696,780.098588978555 A 314.37129711332796,314.37129711332796 0 0 0 752.1722358908264,780.9570975733254 Z "/><path class="wedge" fill="rgb(229,178,178)" d=" M 809.0119837197689,787.7500475569998 L 807.2227332426904,852.1539010006359 A 378.8,378.8 0 0,1 784.1071862473298,850.8037407936138 L 789.8280753448597,786.6295311483613 A 314.37129711332796,314.37129711332796 0 0 0 809.0119837197689,787.7500475569998 Z "/><path class="wedge" fill="rgb(229,179,178)" d=" M 789.8280753448597,786.6295311483613 L 784.1071862473298,850.8037407936138 A 378.8,378.8 0 0,1 766.1075693395474,848.7642867487209 L 774.8899472697738,784.9369603629968 A 314.37129711332796,314.37129711332796 0 0 0 789.8280753448597,786.6295311483613 Z "/><path class="wedge" fill="url(#hiddenPattern)" d=" M 789.8280753448597,786.6295311483613 L 784.1071862473298,850.8037407936138 A 378.8,378.8 0 0,1 766.1075693395474,848.7642867487209 L 774.8899472697738,784.9369603629968 A 314.37129711332796,314.37129711332796 0 0 0 789.8280753448597,786.6295311483613 Z "/><path class="wedge" fill="rgb(229,180,178)" d=" M 774.8899472697738,784.9369603629968 L 766.1075693395474,848.7642867487209 A 378.8,378.8 0 0,1 744.5024316991387,845.1521868092527 L 756.9595482615181,781.9392292561502 A 314.37129711332796,314.37129711332796 0 0 0 774.8899472697738,784.9369603629968 Z "/><path class="wedge" fill="rgb(229,180,178)" d=" M 763.9017651605499,788.3503659542407 L 753.8929568027017,846.8800870462378 A 378.8,378.8 0 0,1 744.5024316991387,845.1521868092527 L 755.9832650371269,786.8933251509914 A 319.4206728241967,319.4206728241967 0 0 0 763.9017651605499,788.3503659542407 Z "/><path class="wedge" fill="rgb(229,180,178)" d=" M 774.2016589166378,789.9392052802764 L 766.1075693395474,848.7642867487209 A 378.8,378.8 0 0,1 753.8929568027017,846.8800870462378 L 763.9017651605499,788.3503659542407 A 319.4206728241967,319.4206728241967 0 0 0 774.2016589166378,789.9392052802764 Z "/><path class="wedge" fill="url(#hiddenPattern)" d=" M 774.2016589166378,789.9392052802764 L 766.1075693395474,848.7642867487209 A 378.8,378.8 0 0,1 753.8929568027017,846.8800870462378 L 763.9017651605499,788.3503659542407 A 319.4206728241967,319.4206728241967 0 0 0 774.2016589166378,789.9392052802764 Z "/><path class="wedge" fill="rgb(229,180,178)" d=" M 756.9595482615181,781.9392292561502 L 744.5024316991387,845.1521868092527 A 378.8,378.8 0 0,1 738.7339854616176,843.9687725317086 L 752.1722358908264,780.9570975733254 A 314.37129711332796,314.37129711332796 0 0 0 756.9595482615181,781.9392292561502 Z "/><path class="wedge" fill="url(#hiddenPattern)" d=" M 756.9595482615181,781.9392292561502 L 744.5024316991387,845.1521868092527 A 378.8,378.8 0 0,1 738.7339854616176,843.9687725317086 L 752.1722358908264,780.9570975733254 A 314.37129711332796,314.37129711332796 0 0 0 756.9595482615181,781.9392292561502 Z "/><path class="wedge" fill="rgb(229,181,178)" d=" M 749.5691974625105,774.3585500401279 L 734.0302365926527,842.9343172277886 A 378.8,378.8 0 0,1 734.0221630436198,842.9324877050872 L 749.5626225555718,774.3570601202109 A 308.4857400643993,308.4857400643993 0 0 0 749.5691974625105,774.3585500401279 Z "/><path class="wedge" fill="url(#hiddenPattern)" d=" M 749.5691974625105,774.3585500401279 L 734.0302365926527,842.9343172277886 A 378.8,378.8 0 0,1 734.0221630436198,842.9324877050872 L 749.5626225555718,774.3570601202109 A 308.4857400643993,308.4857400643993 0 0 0 749.5691974625105,774.3585500401279 Z "/><path class="wedge" fill="rgb(229,181,178)" d=" M 751.0954997044769,767.5806967653198 L 734.018850829942,842.9317370806307 A 378.8,378.8 0 0,1 584.5354270636557,772.0028487186172 L 632.1014204100375,711.1187991624673 A 301.53816457406833,301.53816457406833 0 0 0 751.0954997044769,767.5806967653198 Z "/><path class="wedge" fill="rgb(229,181,178)" d=" M 633.2599005693963,720.7441334718615 L 591.2101449608188,777.0993746083353 A 378.8,378.8 0 0,1 584.5354270636557,772.0028487186172 L 627.8241685466207,716.5936436069009 A 308.4857400643993,308.4857400643993 0 0 0 633.2599005693963,720.7441334718615 Z "/><path class="wedge" fill="rgb(229,181,178)" d=" M 749.5599251672729,774.356448829448 L 734.018850829942,842.9317370806307 A 378.8,378.8 0 0,1 618.0709681061139,795.4017890365212 L 655.1347181689616,735.6491859001726 A 308.4857400643993,308.4857400643993 0 0 0 749.5599251672729,774.356448829448 Z "/><path class="wedge" fill="rgb(229,181,178)" d=" M 672.626600804862,752.374020104452 L 642.8859012145973,809.5277473979602 A 378.8,378.8 0 0,1 618.0709681061139,795.4017890365212 L 652.0323486689213,740.6506941988174 A 314.37129711332796,314.37129711332796 0 0 0 672.626600804862,752.374020104452 Z "/><path class="wedge" fill="rgb(229,181,178)" d=" M 748.259081217585,780.0964476791653 L 734.018850829942,842.9317370806307 A 378.8,378.8 0 0,1 709.57289504859,836.5272710866532 L 727.9710484082959,774.7812938200182 A 314.37129711332796,314.37129711332796 0 0 0 748.259081217585,780.0964476791653 Z "/><path class="wedge" fill="rgb(229,181,178)" d=" M 746.927572136533,784.972032883505 L 733.7633131555091,842.8737321792219 A 378.8,378.8 0 0,1 709.57289504859,836.5272710866532 L 726.5291570689228,779.6204202323938 A 319.4206728241967,319.4206728241967 0 0 0 746.927572136533,784.972032883505 Z "/><path class="wedge" fill="rgb(229,181,178)" d=" M 747.143052643131,785.0209451449492 L 734.018850829942,842.9317370806307 A 378.8,378.8 0 0,1 733.7633131555091,842.8737321792219 L 746.927572136533,784.972032883505 A 319.4206728241967,319.4206728241967 0 0 0 747.143052643131,785.0209451449492 Z "/><path class="wedge" fill="url(#hiddenPattern)" d=" M 747.143052643131,785.0209451449492 L 734.018850829942,842.9317370806307 A 378.8,378.8 0 0,1 733.7633131555091,842.8737321792219 L 746.927572136533,784.972032883505 A 319.4206728241967,319.4206728241967 0 0 0 747.143052643131,785.0209451449492 Z "/><path class="wedge" fill="rgb(229,181,178)" d=" M 727.9710484082959,774.7812938200182 L 709.57289504859,836.5272710866532 A 378.8,378.8 0 0,1 708.6971638228674,836.2651827726734 L 727.244267095326,774.5637831462482 A 314.37129711332796,314.37129711332796 0 0 0 727.9710484082959,774.7812938200182 Z "/><path class="wedge" fill="url(#hiddenPattern)" d=" M 727.9710484082959,774.7812938200182 L 709.57289504859,836.5272710866532 A 378.8,378.8 0 0,1 708.6971638228674,836.2651827726734 L 727.244267095326,774.5637831462482 A 314.37129711332796,314.37129711332796 0 0 0 727.9710484082959,774.7812938200182 Z "/><path class="wedge" fill="rgb(229,181,178)" d=" M 727.244267095326,774.5637831462482 L 708.6971638228674,836.2651827726734 A 378.8,378.8 0 0,1 695.4476170028869,832.0155890370227 L 716.2482871059885,771.0369872252313 A 314.37129711332796,314.37129711332796 0 0 0 727.244267095326,774.5637831462482 Z "/><path class="wedge" fill="rgb(229,182,178)" d=" M 716.2482871059885,771.0369872252313 L 695.4476170028869,832.0155890370227 A 378.8,378.8 0 0,1 670.9466736658038,822.6997373532669 L 695.9146193726755,763.3056345918161 A 314.37129711332796,314.37129711332796 0 0 0 716.2482871059885,771.0369872252313 Z "/><path class="wedge" fill="url(#hiddenPattern)" d=" M 716.2482871059885,771.0369872252313 L 695.4476170028869,832.0155890370227 A 378.8,378.8 0 0,1 670.9466736658038,822.6997373532669 L 695.9146193726755,763.3056345918161 A 314.37129711332796,314.37129711332796 0 0 0 716.2482871059885,771.0369872252313 Z "/><path class="wedge" fill="rgb(229,183,178)" d=" M 695.9146193726755,763.3056345918161 L 670.9466736658038,822.6997373532669 A 378.8,378.8 0 0,1 644.7798959651949,810.5065494365622 L 674.1984529338779,753.1863412937141 A 314.37129711332796,314.37129711332796 0 0 0 695.9146193726755,763.3056345918161 Z "/><path class="wedge" fill="rgb(229,183,178)" d=" M 689.9125558899125,766.2270038490042 L 666.1493795823787,820.6440595175 A 378.8,378.8 0 0,1 644.7798959651949,810.5065494365622 L 671.8928757555236,757.6786134297455 A 319.4206728241967,319.4206728241967 0 0 0 689.9125558899125,766.2270038490042 Z "/><path class="wedge" fill="rgb(229,183,178)" d=" M 693.9578433869115,767.9604410121786 L 670.9466736658038,822.6997373532669 A 378.8,378.8 0 0,1 666.1493795823787,820.6440595175 L 689.9125558899125,766.2270038490042 A 319.4206728241967,319.4206728241967 0 0 0 693.9578433869115,767.9604410121786 Z "/><path class="wedge" fill="url(#hiddenPattern)" d=" M 693.9578433869115,767.9604410121786 L 670.9466736658038,822.6997373532669 A 378.8,378.8 0 0,1 666.1493795823787,820.6440595175 L 689.9125558899125,766.2270038490042 A 319.4206728241967,319.4206728241967 0 0 0 693.9578433869115,767.9604410121786 Z "/><path class="wedge" fill="rgb(229,183,178)" d=" M 674.1984529338779,753.1863412937141 L 644.7798959651949,810.5065494365622 A 378.8,378.8 0 0,1 642.8859012145973,809.5277473979602 L 672.626600804862,752.374020104452 A 314.37129711332796,314.37129711332796 0 0 0 674.1984529338779,753.1863412937141 Z "/><path class="wedge" fill="url(#hiddenPattern)" d=" M 674.1984529338779,753.1863412937141 L 644.7798959651949,810.5065494365622 A 378.8,378.8 0 0,1 642.8859012145973,809.5277473979602 L 672.626600804862,752.374020104452 A 314.37129711332796,314.37129711332796 0 0 0 674.1984529338779,753.1863412937141 Z "/><path class="wedge" fill="rgb(229,185,178)" d=" M 655.1347181689616,735.6491859001726 L 618.0709681061139,795.4017890365212 A 378.8,378.8 0 0,1 591.2101449608188,777.0993746083353 L 633.2599005693963,720.7441334718615 A 308.4857400643993,308.4857400643993 0 0 0 655.1347181689616,735.6491859001726 Z "/><path class="wedge" fill="rgb(229,185,178)" d=" M 632.7381600924163,727.6707024438474 L 594.8225395762491,779.7616179333363 A 378.8,378.8 0 0,1 591.2101449608188,777.0993746083353 L 629.7401844299609,725.4612703231719 A 314.37129711332796,314.37129711332796 0 0 0 632.7381600924163,727.6707024438474 Z "/><path class="wedge" fill="rgb(229,185,178)" d=" M 652.0323486689213,740.6506941988174 L 618.0709681061139,795.4017890365212 A 378.8,378.8 0 0,1 614.6938434465677,793.2823106791711 L 649.2296267583221,738.8917101428412 A 314.37129711332796,314.37129711332796 0 0 0 652.0323486689213,740.6506941988174 Z "/><path class="wedge" fill="url(#hiddenPattern)" d=" M 652.0323486689213,740.6506941988174 L 618.0709681061139,795.4017890365212 A 378.8,378.8 0 0,1 614.6938434465677,793.2823106791711 L 649.2296267583221,738.8917101428412 A 314.37129711332796,314.37129711332796 0 0 0 652.0323486689213,740.6506941988174 Z "/><path class="wedge" fill="rgb(229,185,178)" d=" M 649.2296267583221,738.8917101428412 L 614.6938434465677,793.2823106791711 A 378.8,378.8 0 0,1 598.5449348567425,782.4367476016139 L 635.827426810202,729.8908291169275 A 314.37129711332796,314.37129711332796 0 0 0 649.2296267583221,738.8917101428412 Z "/><path class="wedge" fill="rgb(229,185,178)" d=" M 646.5230047467485,743.1543844625585 L 614.6938434465677,793.2823106791711 A 378.8,378.8 0 0,1 598.5449348567425,782.4367476016139 L 632.9055410531414,734.0089328907775 A 319.4206728241967,319.4206728241967 0 0 0 646.5230047467485,743.1543844625585 Z "/><path class="wedge" fill="rgb(229,185,178)" d=" M 646.5230047467485,743.1543844625585 L 614.6938434465677,793.2823106791711 A 378.8,378.8 0 0,1 614.6938434465677,793.2823106791711 L 646.5230047467485,743.1543844625585 A 319.4206728241967,319.4206728241967 0 0 0 646.5230047467485,743.1543844625585 Z "/><path class="wedge" fill="url(#hiddenPattern)" d=" M 646.5230047467485,743.1543844625585 L 614.6938434465677,793.2823106791711 A 378.8,378.8 0 0,1 614.6938434465677,793.2823106791711 L 646.5230047467485,743.1543844625585 A 319.4206728241967,319.4206728241967 0 0 0 646.5230047467485,743.1543844625585 Z "/><path class="wedge" fill="rgb(229,185,178)" d=" M 635.827426810202,729.8908291169275 L 598.5449348567425,782.4367476016139 A 378.8,378.8 0 0,1 594.8225395762491,779.7616179333363 L 632.7381600924163,727.6707024438474 A 314.37129711332796,314.37129711332796 0 0 0 635.827426810202,729.8908291169275 Z "/><path class="wedge" fill="url(#hiddenPattern)" d=" M 635.827426810202,729.8908291169275 L 598.5449348567425,782.4367476016139 A 378.8,378.8 0 0,1 594.8225395762491,779.7616179333363 L 632.7381600924163,727.6707024438474 A 314.37129711332796,314.37129711332796 0 0 0 635.827426810202,729.8908291169275 Z "/><path class="wedge" fill="rgb(229,183,178)" d=" M 632.1014204100375,711.1187991624673 L 584.5354270636557,772.0028487186172 A 378.8,378.8 0 0,1 568.3623400415468,758.6298455385438 L 619.2270725321509,700.4734168135694 A 301.53816457406833,301.53816457406833 0 0 0 632.1014204100375,711.1187991624673 Z "/><path class="wedge" fill="url(#hiddenPattern)" d=" M 632.1014204100375,711.1187991624673 L 584.5354270636557,772.0028487186172 A 378.8,378.8 0 0,1 568.3623400415468,758.6298455385438 L 619.2270725321509,700.4734168135694 A 301.53816457406833,301.53816457406833 0 0 0 632.1014204100375,711.1187991624673 Z "/><path class="wedge" fill="rgb(229,186,178)" d=" M 619.2270725321509,700.4734168135694 L 568.3623400415468,758.6298455385438 A 378.8,378.8 0 0,1 557.3365762820549,748.5968015690361 L 610.4501755758034,692.4867598345402 A 301.53816457406833,301.53816457406833 0 0 0 619.2270725321509,700.4734168135694 Z "/><path class="wedge" fill="url(#hiddenPattern)" d=" M 619.2270725321509,700.4734168135694 L 568.3623400415468,758.6298455385438 A 378.8,378.8 0 0,1 557.3365762820549,748.5968015690361 L 610.4501755758034,692.4867598345402 A 301.53816457406833,301.53816457406833 0 0 0 619.2270725321509,700.4734168135694 Z "/><path class="wedge" fill="rgb(229,186,178)" d=" M 610.4501755758034,692.4867598345402 L 557.3365762820549,748.5968015690361 A 378.8,378.8 0 0,1 556.8382456343045,748.12422599016 L 610.0534867984177,692.110573000652 A 301.53816457406833,301.53816457406833 0 0 0 610.4501755758034,692.4867598345402 Z "/><path class="wedge" fill="url(#hiddenPattern)" d=" M 610.4501755758034,692.4867598345402 L 557.3365762820549,748.5968015690361 A 378.8,378.8 0 0,1 556.8382456343045,748.12422599016 L 610.0534867984177,692.110573000652 A 301.53816457406833,301.53816457406833 0 0 0 610.4501755758034,692.4867598345402 Z "/><path class="wedge" fill="rgb(226,181,168)" d=" M 585.8665945833357,652.9654965641025 L 518.1842061137027,705.3498053167616 A 378.8,378.8 0 0,1 518.1145509302848,705.2597804032628 L 585.8126773412519,652.8958119431379 A 293.21366047990944,293.21366047990944 0 0 0 585.8665945833357,652.9654965641025 Z "/><path class="wedge" fill="url(#hiddenPattern)" d=" M 585.8665945833357,652.9654965641025 L 518.1842061137027,705.3498053167616 A 378.8,378.8 0 0,1 518.1145509302848,705.2597804032628 L 585.8126773412519,652.8958119431379 A 293.21366047990944,293.21366047990944 0 0 0 585.8665945833357,652.9654965641025 Z "/><path class="wedge" fill="rgb(223,173,159)" d=" M 593.7878657204161,646.6103104709418 L 518.0389512992463,705.16200937688 A 378.8,378.8 0 0,1 517.2856804931155,704.1842072276506 L 593.2249812687586,645.8796441260909 A 283.05972905429314,283.05972905429314 0 0 0 593.7878657204161,646.6103104709418 Z "/><path class="wedge" fill="url(#hiddenPattern)" d=" M 593.7878657204161,646.6103104709418 L 518.0389512992463,705.16200937688 A 378.8,378.8 0 0,1 517.2856804931155,704.1842072276506 L 593.2249812687586,645.8796441260909 A 283.05972905429314,283.05972905429314 0 0 0 593.7878657204161,646.6103104709418 Z "/><path class="wedge" fill="rgb(219,165,149)" d=" M 596.7348968598644,629.2983581676358 L 508.1384520342078,691.7540704765606 A 378.8,378.8 0 0,1 508.110570185789,691.7145133620699 L 596.7149936974773,629.2701207401365 A 270.40237070968385,270.40237070968385 0 0 0 596.7348968598644,629.2983581676358 Z "/><path class="wedge" fill="url(#hiddenPattern)" d=" M 596.7348968598644,629.2983581676358 L 508.1384520342078,691.7540704765606 A 378.8,378.8 0 0,1 508.110570185789,691.7145133620699 L 596.7149936974773,629.2701207401365 A 270.40237070968385,270.40237070968385 0 0 0 596.7348968598644,629.2983581676358 Z "/><path class="wedge" fill="rgb(216,157,140)" d=" M 609.9477480514413,619.9080716414385 L 508.08516908643475,691.6784664425029 A 378.8,378.8 0 0,1 508.069704287301,691.656515846956 L 609.9373704396797,619.8933417534811 A 254.19271865856766,254.19271865856766 0 0 0 609.9477480514413,619.9080716414385 Z "/><path class="wedge" fill="url(#hiddenPattern)" d=" M 609.9477480514413,619.9080716414385 L 508.08516908643475,691.6784664425029 A 378.8,378.8 0 0,1 508.069704287301,691.656515846956 L 609.9373704396797,619.8933417534811 A 254.19271865856766,254.19271865856766 0 0 0 609.9477480514413,619.9080716414385 Z "/><path class="wedge" fill="rgb(216,158,140)" d=" M 627.5001725953896,607.5168873997643 L 508.0667093084367,691.6522644191296 A 378.8,378.8 0 0,1 492.2534466272297,667.2688966442706 L 617.7856539319547,592.5375193780231 A 232.70717396495255,232.70717396495255 0 0 0 627.5001725953896,607.5168873997643 Z "/><path class="wedge" fill="rgb(216,158,140)" d=" M 599.5366703806714,603.8848170294706 L 492.570498790214,667.8004856763971 A 378.8,378.8 0 0,1 492.2534466272297,667.2688966442706 L 599.3239133815543,603.5280956427617 A 254.19271865856766,254.19271865856766 0 0 0 599.5366703806714,603.8848170294706 Z "/><path class="wedge" fill="rgb(216,158,140)" d=" M 609.9353606671881,619.8904888443011 L 508.0667093084367,691.6522644191296 A 378.8,378.8 0 0,1 507.3894255159572,690.6876495426842 L 609.4808712043746,619.2431866323102 A 254.19271865856766,254.19271865856766 0 0 0 609.9353606671881,619.8904888443011 Z "/><path class="wedge" fill="url(#hiddenPattern)" d=" M 609.9353606671881,619.8904888443011 L 508.0667093084367,691.6522644191296 A 378.8,378.8 0 0,1 507.3894255159572,690.6876495426842 L 609.4808712043746,619.2431866323102 A 254.19271865856766,254.19271865856766 0 0 0 609.9353606671881,619.8904888443011 Z "/><path class="wedge" fill="rgb(219,166,149)" d=" M 609.4808712043746,619.2431866323102 L 507.3894255159572,690.6876495426842 A 378.8,378.8 0 0,1 493.42838412765184,669.2290555039849 L 600.1123520232813,604.8434549604847 A 254.19271865856766,254.19271865856766 0 0 0 609.4808712043746,619.2431866323102 Z "/><path class="wedge" fill="rgb(219,166,149)" d=" M 586.3705701477163,613.4447081261508 L 493.61932282591835,669.5450838469199 A 378.8,378.8 0 0,1 493.42838412765184,669.2290555039849 L 586.2342705788898,613.2191146384498 A 270.40237070968385,270.40237070968385 0 0 0 586.3705701477163,613.4447081261508 Z "/><path class="wedge" fill="rgb(223,174,159)" d=" M 596.2002122076485,628.5371048711875 L 507.3894255159572,690.6876495426842 A 378.8,378.8 0 0,1 494.3200296363318,670.6989208817239 L 586.8707622879175,614.2683624810177 A 270.40237070968385,270.40237070968385 0 0 0 596.2002122076485,628.5371048711875 Z "/><path class="wedge" fill="rgb(223,174,159)" d=" M 576.2360996038351,621.1398323773088 L 494.55059063708484,671.076563403682 A 378.8,378.8 0 0,1 494.3200296363318,670.6989208817239 L 576.063812026212,620.8576375780881 A 283.05972905429314,283.05972905429314 0 0 0 576.2360996038351,621.1398323773088 Z "/><path class="wedge" fill="rgb(226,182,168)" d=" M 585.8299674026376,635.7942904791208 L 507.3894255159572,690.6876495426842 A 378.8,378.8 0 0,1 494.6440132644746,671.2293011503743 L 576.3059100145966,621.2539662347405 A 283.05972905429314,283.05972905429314 0 0 0 585.8299674026376,635.7942904791208 Z "/><path class="wedge" fill="rgb(226,182,168)" d=" M 574.1292731453732,636.6775050846924 L 503.02086974859895,684.3075006632125 A 378.8,378.8 0 0,1 494.6440132644746,671.2293011503743 L 567.6450895312629,626.5542032060075 A 293.21366047990944,293.21366047990944 0 0 0 574.1292731453732,636.6775050846924 Z "/><path class="wedge" fill="rgb(226,182,168)" d=" M 577.5107943374475,641.6161186204808 L 507.3894255159572,690.6876495426842 A 378.8,378.8 0 0,1 503.02086974859895,684.3075006632125 L 574.1292731453732,636.6775050846924 A 293.21366047990944,293.21366047990944 0 0 0 577.5107943374475,641.6161186204808 Z "/><path class="wedge" fill="url(#hiddenPattern)" d=" M 577.5107943374475,641.6161186204808 L 507.3894255159572,690.6876495426842 A 378.8,378.8 0 0,1 503.02086974859895,684.3075006632125 L 574.1292731453732,636.6775050846924 A 293.21366047990944,293.21366047990944 0 0 0 577.5107943374475,641.6161186204808 Z "/><path class="wedge" fill="rgb(223,175,159)" d=" M 576.3059100145966,621.2539662347405 L 494.6440132644746,671.2293011503743 A 378.8,378.8 0 0,1 494.55059063708484,671.076563403682 L 576.2360996038351,621.1398323773088 A 283.05972905429314,283.05972905429314 0 0 0 576.3059100145966,621.2539662347405 Z "/><path class="wedge" fill="url(#hiddenPattern)" d=" M 576.3059100145966,621.2539662347405 L 494.6440132644746,671.2293011503743 A 378.8,378.8 0 0,1 494.55059063708484,671.076563403682 L 576.2360996038351,621.1398323773088 A 283.05972905429314,283.05972905429314 0 0 0 576.3059100145966,621.2539662347405 Z "/><path class="wedge" fill="rgb(219,167,149)" d=" M 586.8707622879175,614.2683624810177 L 494.3200296363318,670.6989208817239 A 378.8,378.8 0 0,1 493.61932282591835,669.5450838469199 L 586.3705701477163,613.4447081261508 A 270.40237070968385,270.40237070968385 0 0 0 586.8707622879175,614.2683624810177 Z "/><path class="wedge" fill="url(#hiddenPattern)" d=" M 586.8707622879175,614.2683624810177 L 494.3200296363318,670.6989208817239 A 378.8,378.8 0 0,1 493.61932282591835,669.5450838469199 L 586.3705701477163,613.4447081261508 A 270.40237070968385,270.40237070968385 0 0 0 586.8707622879175,614.2683624810177 Z "/><path class="wedge" fill="rgb(216,159,140)" d=" M 600.1123520232813,604.8434549604847 L 493.42838412765184,669.2290555039849 A 378.8,378.8 0 0,1 492.570498790214,667.8004856763971 L 599.5366703806714,603.8848170294706 A 254.19271865856766,254.19271865856766 0 0 0 600.1123520232813,604.8434549604847 Z "/><path class="wedge" fill="url(#hiddenPattern)" d=" M 600.1123520232813,604.8434549604847 L 493.42838412765184,669.2290555039849 A 378.8,378.8 0 0,1 492.570498790214,667.8004856763971 L 599.5366703806714,603.8848170294706 A 254.19271865856766,254.19271865856766 0 0 0 600.1123520232813,604.8434549604847 Z "/><path class="wedge" fill="rgb(213,151,130)" d=" M 617.7856539319547,592.5375193780231 L 492.2534466272297,667.2688966442706 A 378.8,378.8 0 0,1 489.117346576296,661.9012164927938 L 615.8590621153651,589.2400070263918 A 232.70717396495255,232.70717396495255 0 0 0 617.7856539319547,592.5375193780231 Z "/><path class="wedge" fill="url(#hiddenPattern)" d=" M 617.7856539319547,592.5375193780231 L 492.2534466272297,667.2688966442706 A 378.8,378.8 0 0,1 489.117346576296,661.9012164927938 L 615.8590621153651,589.2400070263918 A 232.70717396495255,232.70717396495255 0 0 0 617.7856539319547,592.5375193780231 Z "/><path class="wedge" fill="rgb(216,159,140)" d=" M 615.8590621153651,589.2400070263918 L 489.117346576296,661.9012164927938 A 378.8,378.8 0 0,1 480.8216240079237,646.629532207648 L 610.7627734277114,579.8581947463464 A 232.70717396495255,232.70717396495255 0 0 0 615.8590621153651,589.2400070263918 Z "/><path class="wedge" fill="rgb(216,159,140)" d=" M 591.6555655312961,589.6838385021251 L 480.82601400442724,646.638075145732 A 378.8,378.8 0 0,1 480.8216240079237,646.629532207648 L 591.652619635979,589.6781057865578 A 254.19271865856766,254.19271865856766 0 0 0 591.6555655312961,589.6838385021251 Z "/><path class="wedge" fill="rgb(219,167,149)" d=" M 597.219441898101,599.9261283497482 L 489.117346576296,661.9012164927938 A 378.8,378.8 0 0,1 480.9097564214335,646.8009360514624 L 591.7117606544373,589.7931258738009 A 254.19271865856766,254.19271865856766 0 0 0 597.219441898101,599.9261283497482 Z "/><path class="wedge" fill="rgb(219,167,149)" d=" M 577.2998177247356,597.2126093979799 L 480.91232987756825,646.8059378028468 A 378.8,378.8 0 0,1 480.9097564214335,646.8009360514624 L 577.2979806903118,597.2090389506936 A 270.40237070968385,270.40237070968385 0 0 0 577.2998177247356,597.2126093979799 Z "/><path class="wedge" fill="rgb(223,175,159)" d=" M 583.1568820516852,607.9882143195349 L 489.117346576296,661.9012164927938 A 378.8,378.8 0 0,1 480.9443100500794,646.8680790171344 L 577.3226464323985,597.2569682460849 A 270.40237070968385,270.40237070968385 0 0 0 583.1568820516852,607.9882143195349 Z "/><path class="wedge" fill="rgb(226,183,168)" d=" M 572.1760874820485,614.2835197833933 L 489.117346576296,661.9012164927938 A 378.8,378.8 0 0,1 480.94460149387965,646.8686451969711 L 566.068972886857,603.0503741709729 A 283.05972905429314,283.05972905429314 0 0 0 572.1760874820485,614.2835197833933 Z "/><path class="wedge" fill="rgb(226,183,168)" d=" M 557.0433577214966,607.702322299222 L 480.9477345748443,646.8747315992752 A 378.8,378.8 0 0,1 480.94460149387965,646.8686451969711 L 557.0409325310578,607.697611062953 A 293.21366047990944,293.21366047990944 0 0 0 557.0433577214966,607.702322299222 Z "/><path class="wedge" fill="rgb(229,191,178)" d=" M 563.3671218177116,619.3337125837379 L 489.117346576296,661.9012164927938 A 378.8,378.8 0 0,1 480.9576202876645,646.8939340633149 L 557.0510098493805,607.7171861449751 A 293.21366047990944,293.21366047990944 0 0 0 563.3671218177116,619.3337125837379 Z "/><path class="wedge" fill="rgb(229,191,178)" d=" M 563.3671218177116,619.3337125837379 L 489.117346576296,661.9012164927938 A 378.8,378.8 0 0,1 480.9576202876645,646.8939340633149 L 557.0510098493805,607.7171861449751 A 293.21366047990944,293.21366047990944 0 0 0 563.3671218177116,619.3337125837379 Z "/><path class="wedge" fill="rgb(229,191,178)" d=" M 549.7750855693291,611.770699882155 L 481.11496722995486,647.1992104775338 A 378.8,378.8 0 0,1 480.9576202876645,646.8939340633149 L 549.6498318518541,611.5276890858738 A 301.53816457406833,301.53816457406833 0 0 0 549.7750855693291,611.770699882155 Z "/><path class="wedge" fill="rgb(229,191,178)" d=" M 556.1452618637355,623.474015376871 L 489.117346576296,661.9012164927938 A 378.8,378.8 0 0,1 481.14555944667205,647.2584850964248 L 549.7994380531707,611.8178845700807 A 301.53816457406833,301.53816457406833 0 0 0 556.1452618637355,623.474015376871 Z "/><path class="wedge" fill="rgb(229,191,178)" d=" M 550.1179028171007,626.929409438928 L 489.11729379047006,661.9011244193429 A 378.8,378.8 0 0,1 481.14555944667205,647.2584850964248 L 543.6259113476094,615.0047910967252 A 308.4857400643993,308.4857400643993 0 0 0 550.1179028171007,626.929409438928 Z "/><path class="wedge" fill="rgb(229,191,178)" d=" M 550.1179458046261,626.9294844213637 L 489.117346576296,661.9012164927938 A 378.8,378.8 0 0,1 489.11729379047006,661.9011244193429 L 550.1179028171007,626.929409438928 A 308.4857400643993,308.4857400643993 0 0 0 550.1179458046261,626.9294844213637 Z "/><path class="wedge" fill="url(#hiddenPattern)" d=" M 550.1179458046261,626.9294844213637 L 489.117346576296,661.9012164927938 A 378.8,378.8 0 0,1 489.11729379047006,661.9011244193429 L 550.1179028171007,626.929409438928 A 308.4857400643993,308.4857400643993 0 0 0 550.1179458046261,626.9294844213637 Z "/><path class="wedge" fill="rgb(229,192,178)" d=" M 549.7994380531707,611.8178845700807 L 481.14555944667205,647.2584850964248 A 378.8,378.8 0 0,1 481.11496722995486,647.1992104775338 L 549.7750855693291,611.770699882155 A 301.53816457406833,301.53816457406833 0 0 0 549.7994380531707,611.8178845700807 Z "/><path class="wedge" fill="url(#hiddenPattern)" d=" M 549.7994380531707,611.8178845700807 L 481.14555944667205,647.2584850964248 A 378.8,378.8 0 0,1 481.11496722995486,647.1992104775338 L 549.7750855693291,611.770699882155 A 301.53816457406833,301.53816457406833 0 0 0 549.7994380531707,611.8178845700807 Z "/><path class="wedge" fill="rgb(226,184,168)" d=" M 557.0510098493805,607.7171861449751 L 480.9576202876645,646.8939340633149 A 378.8,378.8 0 0,1 480.9477345748443,646.8747315992752 L 557.0433577214966,607.702322299222 A 293.21366047990944,293.21366047990944 0 0 0 557.0510098493805,607.7171861449751 Z "/><path class="wedge" fill="url(#hiddenPattern)" d=" M 557.0510098493805,607.7171861449751 L 480.9576202876645,646.8939340633149 A 378.8,378.8 0 0,1 480.9477345748443,646.8747315992752 L 557.0433577214966,607.702322299222 A 293.21366047990944,293.21366047990944 0 0 0 557.0510098493805,607.7171861449751 Z "/><path class="wedge" fill="rgb(223,176,159)" d=" M 566.068972886857,603.0503741709729 L 480.94460149387965,646.8686451969711 A 378.8,378.8 0 0,1 480.9443100500794,646.8680790171344 L 566.0687551043777,603.049951090954 A 283.05972905429314,283.05972905429314 0 0 0 566.068972886857,603.0503741709729 Z "/><path class="wedge" fill="url(#hiddenPattern)" d=" M 566.068972886857,603.0503741709729 L 480.94460149387965,646.8686451969711 A 378.8,378.8 0 0,1 480.9443100500794,646.8680790171344 L 566.0687551043777,603.049951090954 A 283.05972905429314,283.05972905429314 0 0 0 566.068972886857,603.0503741709729 Z "/><path class="wedge" fill="rgb(219,168,149)" d=" M 577.3226464323985,597.2569682460849 L 480.9443100500794,646.8680790171344 A 378.8,378.8 0 0,1 480.91232987756825,646.8059378028468 L 577.2998177247356,597.2126093979799 A 270.40237070968385,270.40237070968385 0 0 0 577.3226464323985,597.2569682460849 Z "/><path class="wedge" fill="url(#hiddenPattern)" d=" M 577.3226464323985,597.2569682460849 L 480.9443100500794,646.8680790171344 A 378.8,378.8 0 0,1 480.91232987756825,646.8059378028468 L 577.2998177247356,597.2126093979799 A 270.40237070968385,270.40237070968385 0 0 0 577.3226464323985,597.2569682460849 Z "/><path class="wedge" fill="rgb(216,160,140)" d=" M 591.7117606544373,589.7931258738009 L 480.9097564214335,646.8009360514624 A 378.8,378.8 0 0,1 480.82601400442724,646.638075145732 L 591.6555655312961,589.6838385021251 A 254.19271865856766,254.19271865856766 0 0 0 591.7117606544373,589.7931258738009 Z "/><path class="wedge" fill="url(#hiddenPattern)" d=" M 591.7117606544373,589.7931258738009 L 480.9097564214335,646.8009360514624 A 378.8,378.8 0 0,1 480.82601400442724,646.638075145732 L 591.6555655312961,589.6838385021251 A 254.19271865856766,254.19271865856766 0 0 0 591.7117606544373,589.7931258738009 Z "/><path class="wedge" fill="rgb(213,152,130)" d=" M 610.7627734277114,579.8581947463464 L 480.8216240079237,646.629532207648 A 378.8,378.8 0 0,1 480.5548242842272,646.109336374953 L 610.5988710789363,579.5386242549662 A 232.70717396495255,232.70717396495255 0 0 0 610.7627734277114,579.8581947463464 Z "/><path class="wedge" fill="url(#hiddenPattern)" d=" M 610.7627734277114,579.8581947463464 L 480.8216240079237,646.629532207648 A 378.8,378.8 0 0,1 480.5548242842272,646.109336374953 L 610.5988710789363,579.5386242549662 A 232.70717396495255,232.70717396495255 0 0 0 610.7627734277114,579.8581947463464 Z "/><path class="wedge" fill="rgb(213,153,130)" d=" M 636.743904808508,565.2161644053941 L 479.84696685322274,644.719509660244 A 378.8,378.8 0 0,1 471.50790455699024,319.840901670436 L 632.2769675414538,391.1903195626239 A 202.90960501932898,202.90960501932898 0 0 0 636.743904808508,565.2161644053941 Z "/><path class="wedge" fill="rgb(213,153,130)" d=" M 604.4207247150682,380.51347227299533 L 470.49805722045926,322.1368249725973 A 378.8,378.8 0 0,1 471.50790455699024,319.840901670436 L 605.0411014833368,379.1030239538659 A 232.70717396495255,232.70717396495255 0 0 0 604.4207247150682,380.51347227299533 Z "/><path class="wedge" fill="rgb(216,160,140)" d=" M 610.1640149481572,578.6848157885435 L 479.84696685322274,644.719509660244 A 378.8,378.8 0 0,1 454.7425391314895,365.2385315385044 L 594.741680129963,406.992026465231 A 232.70717396495255,232.70717396495255 0 0 0 610.1640149481572,578.6848157885435 Z "/><path class="wedge" fill="rgb(216,160,140)" d=" M 572.3037242230307,407.36530619818967 L 451.987747014501,374.9455561735605 A 378.8,378.8 0 0,1 454.7425391314895,365.2385315385044 L 574.1523200455135,400.85143348944996 A 254.19271865856766,254.19271865856766 0 0 0 572.3037242230307,407.36530619818967 Z "/><path class="wedge" fill="rgb(219,168,149)" d=" M 590.9985785802413,588.3963903060303 L 479.84696685322274,644.719509660244 A 378.8,378.8 0 0,1 450.23186188638095,381.709755551585 L 571.12544224212,411.9044039528059 A 254.19271865856766,254.19271865856766 0 0 0 590.9985785802413,588.3963903060303 Z "/><path class="wedge" fill="rgb(219,168,149)" d=" M 552.1294723274518,422.8322778926063 L 445.65181492177373,402.52084000259333 A 378.8,378.8 0 0,1 450.23186188638095,381.709755551585 L 555.3988903770597,407.97650552567893 A 270.40237070968385,270.40237070968385 0 0 0 552.1294723274518,422.8322778926063 Z "/><path class="wedge" fill="rgb(223,176,159)" d=" M 576.5393196058088,595.7232347515301 L 479.84696685322274,644.719509660244 A 378.8,378.8 0 0,1 439.08996644083715,462.92742700859657 L 547.4453662411715,465.9528806721841 A 270.40237070968385,270.40237070968385 0 0 0 576.5393196058088,595.7232347515301 Z "/><path class="wedge" fill="rgb(223,176,159)" d=" M 534.7418667983643,467.71104824227706 L 439.02161998758123,465.7530310717395 A 378.8,378.8 0 0,1 439.08996644083715,462.92742700859657 L 534.7929389434025,465.59960494626876 A 283.05972905429314,283.05972905429314 0 0 0 534.7418667983643,467.71104824227706 Z "/><path class="wedge" fill="rgb(226,184,168)" d=" M 565.2487612607086,601.4444245333622 L 479.84696685322274,644.719509660244 A 378.8,378.8 0 0,1 438.9497782225855,471.1347455354043 L 534.6881827684424,471.732554678213 A 283.05972905429314,283.05972905429314 0 0 0 565.2487612607086,601.4444245333622 Z "/><path class="wedge" fill="rgb(226,184,168)" d=" M 524.5713610558787,478.49962862011296 L 438.99746419247634,479.958973699244 A 378.8,378.8 0 0,1 438.9497782225855,471.1347455354043 L 524.5344492877023,471.66915279954975 A 293.21366047990944,293.21366047990944 0 0 0 524.5713610558787,478.49962862011296 Z "/><path class="wedge" fill="rgb(229,192,178)" d=" M 556.191298236294,606.0340527271788 L 479.84696685322274,644.719509660244 A 378.8,378.8 0 0,1 439.9877930572512,501.62297392213827 L 525.337934317546,495.2688493328701 A 293.21366047990944,293.21366047990944 0 0 0 556.191298236294,606.0340527271788 Z "/><path class="wedge" fill="rgb(229,192,178)" d=" M 525.6416053651506,548.3491424458362 L 450.79786851624516,567.5274183817893 A 378.8,378.8 0 0,1 439.9877930572512,501.62297392213827 L 517.036403905773,495.8868794584107 A 301.53816457406833,301.53816457406833 0 0 0 525.6416053651506,548.3491424458362 Z "/><path class="wedge" fill="rgb(229,192,178)" d=" M 548.7657125326897,609.7967705444084 L 479.84696685322274,644.719509660244 A 378.8,378.8 0 0,1 473.9941139620152,632.6432064178543 L 544.1066351347574,600.1836070952268 A 301.53816457406833,301.53816457406833 0 0 0 548.7657125326897,609.7967705444084 Z "/><path class="wedge" fill="url(#hiddenPattern)" d=" M 548.7657125326897,609.7967705444084 L 479.84696685322274,644.719509660244 A 378.8,378.8 0 0,1 473.9941139620152,632.6432064178543 L 544.1066351347574,600.1836070952268 A 301.53816457406833,301.53816457406833 0 0 0 548.7657125326897,609.7967705444084 Z "/><path class="wedge" fill="rgb(229,192,178)" d=" M 544.1066351347574,600.1836070952268 L 473.9941139620152,632.6432064178543 A 378.8,378.8 0 0,1 452.9199440372161,575.4510676358764 L 527.3308523495252,554.6566468091047 A 301.53816457406833,301.53816457406833 0 0 0 544.1066351347574,600.1836070952268 Z "/><path class="wedge" fill="rgb(229,192,178)" d=" M 536.2694162698047,599.7395135310379 L 472.11227208988635,628.5137381247328 A 378.8,378.8 0 0,1 452.9199440372161,575.4510676358764 L 520.6396392822473,556.5265326029804 A 308.4857400643993,308.4857400643993 0 0 0 536.2694162698047,599.7395135310379 Z "/><path class="wedge" fill="rgb(229,192,178)" d=" M 537.8019436790123,603.1024546146601 L 473.9941139620152,632.6432064178543 A 378.8,378.8 0 0,1 472.11227208988635,628.5137381247328 L 536.2694162698047,599.7395135310379 A 308.4857400643993,308.4857400643993 0 0 0 537.8019436790123,603.1024546146601 Z "/><path class="wedge" fill="url(#hiddenPattern)" d=" M 537.8019436790123,603.1024546146601 L 473.9941139620152,632.6432064178543 A 378.8,378.8 0 0,1 472.11227208988635,628.5137381247328 L 536.2694162698047,599.7395135310379 A 308.4857400643993,308.4857400643993 0 0 0 537.8019436790123,603.1024546146601 Z "/><path class="wedge" fill="rgb(229,194,178)" d=" M 527.3308523495252,554.6566468091047 L 452.9199440372161,575.4510676358764 A 378.8,378.8 0 0,1 450.79786851624516,567.5274183817893 L 525.6416053651506,548.3491424458362 A 301.53816457406833,301.53816457406833 0 0 0 527.3308523495252,554.6566468091047 Z "/><path class="wedge" fill="url(#hiddenPattern)" d=" M 527.3308523495252,554.6566468091047 L 452.9199440372161,575.4510676358764 A 378.8,378.8 0 0,1 450.79786851624516,567.5274183817893 L 525.6416053651506,548.3491424458362 A 301.53816457406833,301.53816457406833 0 0 0 527.3308523495252,554.6566468091047 Z "/><path class="wedge" fill="rgb(226,190,168)" d=" M 525.337934317546,495.2688493328701 L 439.9877930572512,501.62297392213827 A 378.8,378.8 0 0,1 438.99746419247634,479.958973699244 L 524.5713610558787,478.49962862011296 A 293.21366047990944,293.21366047990944 0 0 0 525.337934317546,495.2688493328701 Z "/><path class="wedge" fill="url(#hiddenPattern)" d=" M 525.337934317546,495.2688493328701 L 439.9877930572512,501.62297392213827 A 378.8,378.8 0 0,1 438.99746419247634,479.958973699244 L 524.5713610558787,478.49962862011296 A 293.21366047990944,293.21366047990944 0 0 0 525.337934317546,495.2688493328701 Z "/><path class="wedge" fill="rgb(223,183,159)" d=" M 534.6881827684424,471.732554678213 L 438.9497782225855,471.1347455354043 A 378.8,378.8 0 0,1 439.02161998758123,465.7530310717395 L 534.7418667983643,467.71104824227706 A 283.05972905429314,283.05972905429314 0 0 0 534.6881827684424,471.732554678213 Z "/><path class="wedge" fill="url(#hiddenPattern)" d=" M 534.6881827684424,471.732554678213 L 438.9497782225855,471.1347455354043 A 378.8,378.8 0 0,1 439.02161998758123,465.7530310717395 L 534.7418667983643,467.71104824227706 A 283.05972905429314,283.05972905429314 0 0 0 534.6881827684424,471.732554678213 Z "/><path class="wedge" fill="rgb(223,184,159)" d=" M 547.4453662411715,465.9528806721841 L 439.08996644083715,462.92742700859657 A 378.8,378.8 0 0,1 445.36029149961973,404.0665071434938 L 551.9213714180858,423.9356360215069 A 270.40237070968385,270.40237070968385 0 0 0 547.4453662411715,465.9528806721841 Z "/><path class="wedge" fill="rgb(223,184,159)" d=" M 539.4757231873116,421.6302566882366 L 445.3566249920878,404.0861740483498 A 378.8,378.8 0 0,1 445.36029149961973,404.0665071434938 L 539.4784629988972,421.61556051938794 A 283.05972905429314,283.05972905429314 0 0 0 539.4757231873116,421.6302566882366 Z "/><path class="wedge" fill="rgb(226,191,168)" d=" M 534.7929389434025,465.59960494626876 L 439.08996644083715,462.92742700859657 A 378.8,378.8 0 0,1 445.34936312343785,404.1251432619015 L 539.470296728567,421.6593765800777 A 283.05972905429314,283.05972905429314 0 0 0 534.7929389434025,465.59960494626876 Z "/><path class="wedge" fill="rgb(226,191,168)" d=" M 528.7221530823449,424.08794497682857 L 444.3598337937149,409.6650258308486 A 378.8,378.8 0 0,1 445.34936312343785,404.1251432619015 L 529.4881074564744,419.79974738794306 A 293.21366047990944,293.21366047990944 0 0 0 528.7221530823449,424.08794497682857 Z "/><path class="wedge" fill="rgb(226,191,168)" d=" M 524.642963280917,465.3162016169471 L 439.08996644083715,462.92742700859657 A 378.8,378.8 0 0,1 440.1031850666052,443.86778658721784 L 525.4272545748132,450.56290981287293 A 293.21366047990944,293.21366047990944 0 0 0 524.642963280917,465.3162016169471 Z "/><path class="wedge" fill="url(#hiddenPattern)" d=" M 524.642963280917,465.3162016169471 L 439.08996644083715,462.92742700859657 A 378.8,378.8 0 0,1 440.1031850666052,443.86778658721784 L 525.4272545748132,450.56290981287293 A 293.21366047990944,293.21366047990944 0 0 0 524.642963280917,465.3162016169471 Z "/><path class="wedge" fill="rgb(229,198,178)" d=" M 525.4272545748132,450.56290981287293 L 440.1031850666052,443.86778658721784 A 378.8,378.8 0 0,1 441.95989147863287,425.7825923441143 L 526.8644554288447,436.5638971293709 A 293.21366047990944,293.21366047990944 0 0 0 525.4272545748132,450.56290981287293 Z "/><path class="wedge" fill="rgb(229,198,178)" d=" M 525.4272545748132,450.56290981287293 L 440.1031850666052,443.86778658721784 A 378.8,378.8 0 0,1 441.95989147863287,425.7825923441143 L 526.8644554288447,436.5638971293709 A 293.21366047990944,293.21366047990944 0 0 0 525.4272545748132,450.56290981287293 Z "/><path class="wedge" fill="rgb(229,198,178)" d=" M 517.1911496794546,449.12348696539044 L 440.18218867928937,442.87759719220566 A 378.8,378.8 0 0,1 441.95989147863287,425.7825923441143 L 518.6062638274806,435.51525997151964 A 301.53816457406833,301.53816457406833 0 0 0 517.1911496794546,449.12348696539044 Z "/><path class="wedge" fill="rgb(229,198,178)" d=" M 517.1282600164043,449.9117126590353 L 440.1031850666052,443.86778658721784 A 378.8,378.8 0 0,1 440.18218867928937,442.87759719220566 L 517.1911496794546,449.12348696539044 A 301.53816457406833,301.53816457406833 0 0 0 517.1282600164043,449.9117126590353 Z "/><path class="wedge" fill="url(#hiddenPattern)" d=" M 517.1282600164043,449.9117126590353 L 440.1031850666052,443.86778658721784 A 378.8,378.8 0 0,1 440.18218867928937,442.87759719220566 L 517.1911496794546,449.12348696539044 A 301.53816457406833,301.53816457406833 0 0 0 517.1282600164043,449.9117126590353 Z "/><path class="wedge" fill="rgb(226,192,168)" d=" M 526.8644554288447,436.5638971293709 L 441.95989147863287,425.7825923441143 A 378.8,378.8 0 0,1 444.3598337937149,409.6650258308486 L 528.7221530823449,424.08794497682857 A 293.21366047990944,293.21366047990944 0 0 0 526.8644554288447,436.5638971293709 Z "/><path class="wedge" fill="url(#hiddenPattern)" d=" M 526.8644554288447,436.5638971293709 L 441.95989147863287,425.7825923441143 A 378.8,378.8 0 0,1 444.3598337937149,409.6650258308486 L 528.7221530823449,424.08794497682857 A 293.21366047990944,293.21366047990944 0 0 0 526.8644554288447,436.5638971293709 Z "/><path class="wedge" fill="rgb(223,186,159)" d=" M 539.470296728567,421.6593765800777 L 445.34936312343785,404.1251432619015 A 378.8,378.8 0 0,1 445.3566249920878,404.0861740483498 L 539.4757231873116,421.6302566882366 A 283.05972905429314,283.05972905429314 0 0 0 539.470296728567,421.6593765800777 Z "/><path class="wedge" fill="url(#hiddenPattern)" d=" M 539.470296728567,421.6593765800777 L 445.34936312343785,404.1251432619015 A 378.8,378.8 0 0,1 445.3566249920878,404.0861740483498 L 539.4757231873116,421.6302566882366 A 283.05972905429314,283.05972905429314 0 0 0 539.470296728567,421.6593765800777 Z "/><path class="wedge" fill="rgb(219,179,149)" d=" M 551.9213714180858,423.9356360215069 L 445.36029149961973,404.0665071434938 A 378.8,378.8 0 0,1 445.65181492177373,402.52084000259333 L 552.1294723274518,422.8322778926063 A 270.40237070968385,270.40237070968385 0 0 0 551.9213714180858,423.9356360215069 Z "/><path class="wedge" fill="url(#hiddenPattern)" d=" M 551.9213714180858,423.9356360215069 L 445.36029149961973,404.0665071434938 A 378.8,378.8 0 0,1 445.65181492177373,402.52084000259333 L 552.1294723274518,422.8322778926063 A 270.40237070968385,270.40237070968385 0 0 0 551.9213714180858,423.9356360215069 Z "/><path class="wedge" fill="rgb(216,174,140)" d=" M 571.12544224212,411.9044039528059 L 450.23186188638095,381.709755551585 A 378.8,378.8 0 0,1 451.987747014501,374.9455561735605 L 572.3037242230307,407.36530619818967 A 254.19271865856766,254.19271865856766 0 0 0 571.12544224212,411.9044039528059 Z "/><path class="wedge" fill="url(#hiddenPattern)" d=" M 571.12544224212,411.9044039528059 L 450.23186188638095,381.709755551585 A 378.8,378.8 0 0,1 451.987747014501,374.9455561735605 L 572.3037242230307,407.36530619818967 A 254.19271865856766,254.19271865856766 0 0 0 571.12544224212,411.9044039528059 Z "/><path class="wedge" fill="rgb(216,175,140)" d=" M 594.741680129963,406.992026465231 L 454.7425391314895,365.2385315385044 A 378.8,378.8 0 0,1 470.3717583079212,322.426899685001 L 604.3431358475614,380.69167308229356 A 232.70717396495255,232.70717396495255 0 0 0 594.741680129963,406.992026465231 Z "/><path class="wedge" fill="rgb(216,175,140)" d=" M 584.599014261355,372.21770725432 L 470.31028548490144,322.5683262111982 A 378.8,378.8 0 0,1 470.3717583079212,322.426899685001 L 584.6402654334961,372.1228033652373 A 254.19271865856766,254.19271865856766 0 0 0 584.599014261355,372.21770725432 Z "/><path class="wedge" fill="rgb(216,175,140)" d=" M 574.1523200455135,400.85143348944996 L 454.7425391314895,365.2385315385044 A 378.8,378.8 0 0,1 455.63499429989605,362.28996776384747 L 574.7511996799859,398.8728077185466 A 254.19271865856766,254.19271865856766 0 0 0 574.1523200455135,400.85143348944996 Z "/><path class="wedge" fill="url(#hiddenPattern)" d=" M 574.1523200455135,400.85143348944996 L 454.7425391314895,365.2385315385044 A 378.8,378.8 0 0,1 455.63499429989605,362.28996776384747 L 574.7511996799859,398.8728077185466 A 254.19271865856766,254.19271865856766 0 0 0 574.1523200455135,400.85143348944996 Z "/><path class="wedge" fill="rgb(219,181,149)" d=" M 574.7511996799859,398.8728077185466 L 455.63499429989605,362.28996776384747 A 378.8,378.8 0 0,1 470.27086405855056,322.65910348945374 L 584.5725606194926,372.2786231021346 A 254.19271865856766,254.19271865856766 0 0 0 574.7511996799859,398.8728077185466 Z "/><path class="wedge" fill="rgb(219,181,149)" d=" M 569.5749984718691,366.1203650093353 L 470.0908214517878,323.0745224876939 A 378.8,378.8 0 0,1 470.27086405855056,322.65910348945374 L 569.7035199811019,365.8238225543142 A 270.40237070968385,270.40237070968385 0 0 0 569.5749984718691,366.1203650093353 Z "/><path class="wedge" fill="rgb(223,188,159)" d=" M 559.2558592626797,394.11389555608235 L 455.63499429989605,362.28996776384747 A 378.8,378.8 0 0,1 469.0939300778109,325.39973401352563 L 568.8633781158411,367.7801926465749 A 270.40237070968385,270.40237070968385 0 0 0 559.2558592626797,394.11389555608235 Z "/><path class="wedge" fill="rgb(223,188,159)" d=" M 559.2558592626797,394.11389555608235 L 455.63499429989605,362.28996776384747 A 378.8,378.8 0 0,1 469.0939300778109,325.39973401352563 L 568.8633781158411,367.7801926465749 A 270.40237070968385,270.40237070968385 0 0 0 559.2558592626797,394.11389555608235 Z "/><path class="wedge" fill="rgb(223,188,159)" d=" M 557.2050808563032,362.85137232172076 L 469.0826446115224,325.4263043719908 A 378.8,378.8 0 0,1 469.0939300778109,325.39973401352563 L 557.2135139635626,362.8315175211188 A 283.05972905429314,283.05972905429314 0 0 0 557.2050808563032,362.85137232172076 Z "/><path class="wedge" fill="rgb(226,195,168)" d=" M 547.1562734285687,390.3978838625012 L 455.63499429989605,362.28996776384747 A 378.8,378.8 0 0,1 469.07955390875924,325.4335820650618 L 557.2027713170035,362.8568106053238 A 283.05972905429314,283.05972905429314 0 0 0 547.1562734285687,390.3978838625012 Z "/><path class="wedge" fill="rgb(226,195,168)" d=" M 543.1458590196808,370.6846615964107 L 462.99368530022485,340.6738208801899 A 378.8,378.8 0 0,1 469.07955390875924,325.4335820650618 L 547.8566821767772,358.8878131022932 A 293.21366047990944,293.21366047990944 0 0 0 543.1458590196808,370.6846615964107 Z "/><path class="wedge" fill="rgb(229,201,178)" d=" M 537.4497958608979,387.4168409871938 L 455.63499429989605,362.28996776384747 A 378.8,378.8 0 0,1 460.5966444818107,347.2607280357732 L 541.2904072966423,375.78331829738715 A 293.21366047990944,293.21366047990944 0 0 0 537.4497958608979,387.4168409871938 Z "/><path class="wedge" fill="rgb(226,195,168)" d=" M 541.2904072966423,375.78331829738715 L 460.5966444818107,347.2607280357732 A 378.8,378.8 0 0,1 462.99368530022485,340.6738208801899 L 543.1458590196808,370.6846615964107 A 293.21366047990944,293.21366047990944 0 0 0 541.2904072966423,375.78331829738715 Z "/><path class="wedge" fill="url(#hiddenPattern)" d=" M 541.2904072966423,375.78331829738715 L 460.5966444818107,347.2607280357732 A 378.8,378.8 0 0,1 462.99368530022485,340.6738208801899 L 543.1458590196808,370.6846615964107 A 293.21366047990944,293.21366047990944 0 0 0 541.2904072966423,375.78331829738715 Z "/><path class="wedge" fill="rgb(223,190,159)" d=" M 557.2027713170035,362.8568106053238 L 469.07955390875924,325.4335820650618 A 378.8,378.8 0 0,1 469.0826446115224,325.4263043719908 L 557.2050808563032,362.85137232172076 A 283.05972905429314,283.05972905429314 0 0 0 557.2027713170035,362.8568106053238 Z "/><path class="wedge" fill="url(#hiddenPattern)" d=" M 557.2027713170035,362.8568106053238 L 469.07955390875924,325.4335820650618 A 378.8,378.8 0 0,1 469.0826446115224,325.4263043719908 L 557.2050808563032,362.85137232172076 A 283.05972905429314,283.05972905429314 0 0 0 557.2027713170035,362.8568106053238 Z "/><path class="wedge" fill="rgb(219,183,149)" d=" M 568.8633781158411,367.7801926465749 L 469.0939300778109,325.39973401352563 A 378.8,378.8 0 0,1 470.0908214517878,323.0745224876939 L 569.5749984718691,366.1203650093353 A 270.40237070968385,270.40237070968385 0 0 0 568.8633781158411,367.7801926465749 Z "/><path class="wedge" fill="url(#hiddenPattern)" d=" M 568.8633781158411,367.7801926465749 L 469.0939300778109,325.39973401352563 A 378.8,378.8 0 0,1 470.0908214517878,323.0745224876939 L 569.5749984718691,366.1203650093353 A 270.40237070968385,270.40237070968385 0 0 0 568.8633781158411,367.7801926465749 Z "/><path class="wedge" fill="rgb(216,176,140)" d=" M 584.5725606194926,372.2786231021346 L 470.27086405855056,322.65910348945374 A 378.8,378.8 0 0,1 470.31028548490144,322.5683262111982 L 584.599014261355,372.21770725432 A 254.19271865856766,254.19271865856766 0 0 0 584.5725606194926,372.2786231021346 Z "/><path class="wedge" fill="url(#hiddenPattern)" d=" M 584.5725606194926,372.2786231021346 L 470.27086405855056,322.65910348945374 A 378.8,378.8 0 0,1 470.31028548490144,322.5683262111982 L 584.599014261355,372.21770725432 A 254.19271865856766,254.19271865856766 0 0 0 584.5725606194926,372.2786231021346 Z "/><path class="wedge" fill="rgb(213,170,130)" d=" M 604.3431358475614,380.69167308229356 L 470.3717583079212,322.426899685001 A 378.8,378.8 0 0,1 470.49805722045926,322.1368249725973 L 604.4207247150682,380.51347227299533 A 232.70717396495255,232.70717396495255 0 0 0 604.3431358475614,380.69167308229356 Z "/><path class="wedge" fill="url(#hiddenPattern)" d=" M 604.3431358475614,380.69167308229356 L 470.3717583079212,322.426899685001 A 378.8,378.8 0 0,1 470.49805722045926,322.1368249725973 L 604.4207247150682,380.51347227299533 A 232.70717396495255,232.70717396495255 0 0 0 604.3431358475614,380.69167308229356 Z "/><path class="wedge" fill="rgb(210,164,121)" d=" M 632.2769675414538,391.1903195626239 L 471.50790455699024,319.840901670436 A 378.8,378.8 0 0,1 471.82437769140336,319.12977562924317 L 632.446490874883,390.80939478929395 A 202.90960501932898,202.90960501932898 0 0 0 632.2769675414538,391.1903195626239 Z "/><path class="wedge" fill="url(#hiddenPattern)" d=" M 632.2769675414538,391.1903195626239 L 471.50790455699024,319.840901670436 A 378.8,378.8 0 0,1 471.82437769140336,319.12977562924317 L 632.446490874883,390.80939478929395 A 202.90960501932898,202.90960501932898 0 0 0 632.2769675414538,391.1903195626239 Z "/><path class="wedge" fill="rgb(207,159,111)" d=" M 674.0940339574032,405.47582745609446 L 475.3882578460047,311.37941020475455 A 378.8,378.8 0 0,1 475.55106567065076,311.03605017291443 L 674.1623464867939,405.3317570324667 A 158.94067861568504,158.94067861568504 0 0 0 674.0940339574032,405.47582745609446 Z "/><path class="wedge" fill="url(#hiddenPattern)" d=" M 674.0940339574032,405.47582745609446 L 475.3882578460047,311.37941020475455 A 378.8,378.8 0 0,1 475.55106567065076,311.03605017291443 L 674.1623464867939,405.3317570324667 A 158.94067861568504,158.94067861568504 0 0 0 674.0940339574032,405.47582745609446 Z "/><path class="wedge" fill="rgb(159,207,111)" d=" M 738.2618323341321,435.7264595458476 L 475.6147044121877,310.90207813598954 A 378.8,378.8 0 1,1 822.1677051071696,852.2741498826351 L 818.7704491798513,561.4939946929036 A 88,88 0 1 0 738.2618323341321,435.7264595458476 Z "/><path class="wedge" fill="rgb(101,204,204)" d=" M 818.7704491798513,561.4939946929036 L 822.1677051071696,852.2741498826351 A 378.8,378.8 0 0,1 819.4725410190888,852.2960488051535 L 818.1443286947639,561.4990820877865 A 88,88 0 0 0 818.7704491798513,561.4939946929036 Z "/><path class="wedge" fill="url(#hiddenPattern)" d=" M 818.7704491798513,561.4939946929036 L 822.1677051071696,852.2741498826351 A 378.8,378.8 0 0,1 819.4725410190888,852.2960488051535 L 818.1443286947639,561.4990820877865 A 88,88 0 0 0 818.7704491798513,561.4939946929036 Z "/><rect fill="rgb(101,204,204)" x="1673.795" y="852.1283333333333" width="22" height="22"/><rect fill="url(#hiddenPattern)" style="stroke:none" x="1673.795" y="852.1283333333333" width="22" height="22"/><path class="line" d="M 820.8201425402029,852.2874964440211 L 821.3010407900708,911.4730427633995 A 437.9875,437.9875 0 0,0 1017.7994156626464,863.1283333333333 L 1279.404893741048,863.1283333333333 L 1590.2351041666668,863.1283333333333"/><text x="1666.4616666666668" y="863.1283333333333" style="font-color:black;font-weight:normal" text-anchor="end">Viruses&#160;&#160;&#160;0.1%</text><path class="wedge" fill="rgb(159,111,207)" d=" M 818.1443286947639,561.4990820877865 L 819.4725410190888,852.2960488051535 A 378.8,378.8 0 0,1 819.4723287585992,852.2960497745919 L 818.1442793839849,561.4990823129991 A 88,88 0 0 0 818.1443286947639,561.4990820877865 Z "/><path class="wedge" fill="rgb(159,111,207)" d=" M 818.1443286947639,561.4990820877865 L 819.4725410190888,852.2960488051535 A 378.8,378.8 0 0,1 819.4723287585992,852.2960497745919 L 818.1442793839849,561.4990823129991 A 88,88 0 0 0 818.1443286947639,561.4990820877865 Z "/><rect fill="rgb(159,111,207)" x="1673.795" y="881.4616666666667" width="22" height="22"/><path class="line" d="M 819.472434888844,852.2960492898876 L 819.7968176040557,923.3203085317416 A 449.82500000000005,449.82500000000005 0 0,0 981.491141793938,892.4616666666667 L 1268.404893741048,892.4616666666667 L 1514.7980924479168,892.4616666666667"/><text x="1666.4616666666668" y="892.4616666666667" style="font-color:black;font-weight:normal" text-anchor="end">other sequences&#160;&#160;&#160;0.000009%</text><circle cx="817.742393741048" cy="473.5" r="88"/><circle cx="817.742393741048" cy="473.5" r="378.8"/><text x="817.742393741048" y="473.5" text-anchor="middle" style="font-color:black;font-weight:bold" transform="rotate(360,817.742393741048,473.5)">Root</text><rect fill="rgb(220,220,220)" x="1673.795" y="910.795" width="22" height="22"/><path class="line" d="M 818.6073635048592,852.2990124423607 L 818.7965756406929,935.161296414127 A 461.6625,461.6625 0 0,0 928.0322703447058,921.795 L 1257.404893741048,921.795 L 1563.1271940104168,921.795"/><text x="1666.4616666666668" y="921.795" style="font-color:black;font-weight:normal" text-anchor="end">[other Root]&#160;&#160;&#160;0.07%</text><path class="line" d=" M 738.2618323341321,435.7264595458476 A 88,88 0 0 0 817.742393741048,561.5"/><line x1="475.6147044121877" y1="310.90207813598954" x2="738.2618323341321" y2="435.7264595458476"/><text x="817.742393741048" y="596.9703393078426" text-anchor="middle" style="font-color:black;font-weight:normal" transform="rotate(57.709820698183556,817.742393741048,473.5)">cellular organisms</text><path class="line" d=" M 674.0940339574032,405.47582745609446 A 158.94067861568504,158.94067861568504 0 0 0 817.742393741048,632.4406786156851"/><line x1="475.3882578460047" y1="311.37941020475455" x2="674.0940339574032" y2="405.47582745609446"/><text x="817.742393741048" y="645.6313565367782" text-anchor="middle" style="font-color:black;font-weight:normal" transform="rotate(57.66986476725126,817.742393741048,473.5)">Bacteria</text><path class="line" d=" M 636.743904808508,565.2161644053941 A 202.90960501932898,202.90960501932898 0 0 0 817.742393741048,676.409605019329"/><line x1="479.84696685322274" y1="644.719509660244" x2="636.743904808508" y2="565.2161644053941"/><text x="817.742393741048" y="685.348875703016" text-anchor="middle" style="font-color:black;font-weight:normal" transform="rotate(31.563800864784326,817.742393741048,473.5)">Pseudomonadati</text><path class="line" d=" M 627.5001725953896,607.5168873997643 A 232.70717396495255,232.70717396495255 0 0 0 817.742393741048,706.2071739649525"/><line x1="508.0667093084367" y1="691.6522644191296" x2="627.5001725953896" y2="607.5168873997643"/><text x="817.742393741048" y="716.9499463117601" text-anchor="middle" style="font-color:black;font-weight:normal" transform="rotate(27.41853356061416,817.742393741048,473.5)">FCB group</text><path class="line" d=" M 609.9477480514413,619.9080716414385 A 254.19271865856766,254.19271865856766 0 0 0 817.742393741048,727.6927186585676"/><line x1="508.08516908643475" y1="691.6784664425029" x2="609.9477480514413" y2="619.9080716414385"/><text x="817.742393741048" y="735.7975446841258" text-anchor="middle" style="font-color:black;font-weight:normal" transform="rotate(27.41610955676893,817.742393741048,473.5)">Bacteroidota/...robiota group</text><path class="line" d=" M 596.7348968598644,629.2983581676358 A 270.40237070968385,270.40237070968385 0 0 0 817.742393741048,743.9023707096839"/><line x1="508.1384520342078" y1="691.7540704765606" x2="596.7348968598644" y2="629.2983581676358"/><path class="line" d=" M 593.7878657204161,646.6103104709418 A 283.05972905429314,283.05972905429314 0 0 0 817.742393741048,756.5597290542931"/><line x1="518.0389512992463" y1="705.16200937688" x2="593.7878657204161" y2="646.6103104709418"/><path class="line" d=" M 585.8665945833357,652.9654965641025 A 293.21366047990944,293.21366047990944 0 0 0 817.742393741048,766.7136604799094"/><line x1="518.1842061137027" y1="705.3498053167616" x2="585.8665945833357" y2="652.9654965641025"/><path class="line" d=" M 809.3683728365678,774.921864616005 A 301.53816457406833,301.53816457406833 0 0 0 817.742393741048,775.0381645740683"/><line x1="807.2227332426904" y1="852.1539010006359" x2="809.3683728365678" y2="774.921864616005"/><path class="line" d=" M 751.0954997044769,767.5806967653198 A 301.53816457406833,301.53816457406833 0 0 0 809.3683728365678,774.921864616005"/><line x1="734.018850829942" y1="842.9317370806307" x2="751.0954997044769" y2="767.5806967653198"/><path class="line" d=" M 749.5691974625105,774.3585500401279 A 308.4857400643993,308.4857400643993 0 0 0 809.1754316131122,781.8667605027796"/><line x1="734.0302365926527" y1="842.9343172277886" x2="749.5691974625105" y2="774.3585500401279"/><path class="line" d=" M 789.8280753448597,786.6295311483613 A 314.37129711332796,314.37129711332796 0 0 0 809.0119837197689,787.7500475569998"/><line x1="784.1071862473298" y1="850.8037407936138" x2="789.8280753448597" y2="786.6295311483613"/><text x="471.156745184384" y="473.5" text-anchor="end" style="font-color:black;font-weight:normal" transform="rotate(-86.65719836614292,817.742393741048,473.5)">Alistipes putredinis&#160;&#160;&#160;1%</text><line x1="1188.292393741048" y1="473.5" x2="1204.792393741048" y2="473.5" class="tick" transform="rotate(96.46435271806592,817.742393741048,473.5)"/><text x="427.94239374104797" y="473.5" text-anchor="end" style="font-color:black;font-weight:normal" transform="rotate(-83.53564728193406,817.742393741048,473.5)">6 more</text><path class="line" d=" M 774.8899472697738,784.9369603629968 A 314.37129711332796,314.37129711332796 0 0 0 789.8280753448597,786.6295311483613"/><line x1="766.1075693395474" y1="848.7642867487209" x2="774.8899472697738" y2="784.9369603629968"/><path class="line" d=" M 756.9595482615181,781.9392292561502 A 314.37129711332796,314.37129711332796 0 0 0 774.8899472697738,784.9369603629968"/><line x1="744.5024316991387" y1="845.1521868092527" x2="756.9595482615181" y2="781.9392292561502"/><path class="line" d=" M 763.9017651605499,788.3503659542407 A 319.4206728241967,319.4206728241967 0 0 0 774.2016589166378,789.9392052802764"/><line x1="753.8929568027017" y1="846.8800870462378" x2="763.9017651605499" y2="788.3503659542407"/><path class="line" d=" M 752.1722358908264,780.9570975733254 A 314.37129711332796,314.37129711332796 0 0 0 756.9595482615181,781.9392292561502"/><line x1="738.7339854616176" y1="843.9687725317086" x2="752.1722358908264" y2="780.9570975733254"/><path class="line" d=" M 749.5626225555718,774.3570601202109 A 308.4857400643993,308.4857400643993 0 0 0 749.5691974625105,774.3585500401279"/><line x1="734.0221630436198" y1="842.9324877050872" x2="749.5626225555718" y2="774.3570601202109"/><path class="line" d=" M 632.1014204100375,711.1187991624673 A 301.53816457406833,301.53816457406833 0 0 0 751.0954997044769,767.5806967653198"/><line x1="584.5354270636557" y1="772.0028487186172" x2="632.1014204100375" y2="711.1187991624673"/><path class="line" d=" M 655.1347181689616,735.6491859001726 A 308.4857400643993,308.4857400643993 0 0 0 749.5599251672729,774.356448829448"/><line x1="618.0709681061139" y1="795.4017890365212" x2="655.1347181689616" y2="735.6491859001726"/><path class="line" d=" M 727.9710484082959,774.7812938200182 A 314.37129711332796,314.37129711332796 0 0 0 748.259081217585,780.0964476791653"/><line x1="709.57289504859" y1="836.5272710866532" x2="727.9710484082959" y2="774.7812938200182"/><text x="471.156745184384" y="473.5" text-anchor="end" style="font-color:black;font-weight:normal" transform="rotate(-75.31932170521982,817.742393741048,473.5)">Bacteroides uniformis&#160;&#160;&#160;1%</text><path class="line" d=" M 746.927572136533,784.972032883505 A 319.4206728241967,319.4206728241967 0 0 0 747.143052643131,785.0209451449492"/><line x1="733.7633131555091" y1="842.8737321792219" x2="746.927572136533" y2="784.972032883505"/><path class="line" d=" M 727.244267095326,774.5637831462482 A 314.37129711332796,314.37129711332796 0 0 0 727.9710484082959,774.7812938200182"/><line x1="708.6971638228674" y1="836.2651827726734" x2="727.244267095326" y2="774.5637831462482"/><path class="line" d=" M 716.2482871059885,771.0369872252313 A 314.37129711332796,314.37129711332796 0 0 0 727.244267095326,774.5637831462482"/><line x1="695.4476170028869" y1="832.0155890370227" x2="716.2482871059885" y2="771.0369872252313"/><text x="471.156745184384" y="473.5" text-anchor="end" style="font-color:black;font-weight:normal" transform="rotate(-72.217134559013,817.742393741048,473.5)">Bacteroides eggerthii&#160;&#160;&#160;0.6%</text><line x1="1188.292393741048" y1="473.5" x2="1204.792393741048" y2="473.5" class="tick" transform="rotate(110.81801523581844,817.742393741048,473.5)"/><text x="427.94239374104797" y="473.5" text-anchor="end" style="font-color:black;font-weight:normal" transform="rotate(-69.18198476418158,817.742393741048,473.5)">10 more</text><path class="line" d=" M 695.9146193726755,763.3056345918161 A 314.37129711332796,314.37129711332796 0 0 0 716.2482871059885,771.0369872252313"/><line x1="670.9466736658038" y1="822.6997373532669" x2="695.9146193726755" y2="763.3056345918161"/><path class="line" d=" M 674.1984529338779,753.1863412937141 A 314.37129711332796,314.37129711332796 0 0 0 695.9146193726755,763.3056345918161"/><line x1="644.7798959651949" y1="810.5065494365622" x2="674.1984529338779" y2="753.1863412937141"/><text x="471.156745184384" y="473.5" text-anchor="end" style="font-color:black;font-weight:normal" transform="rotate(-65.01543518784047,817.742393741048,473.5)">Bacteroides stercoris&#160;&#160;&#160;1%</text><path class="line" d=" M 689.9125558899125,766.2270038490042 A 319.4206728241967,319.4206728241967 0 0 0 693.9578433869115,767.9604410121786"/><line x1="666.1493795823787" y1="820.6440595175" x2="689.9125558899125" y2="766.2270038490042"/><path class="line" d=" M 672.626600804862,752.374020104452 A 314.37129711332796,314.37129711332796 0 0 0 674.1984529338779,753.1863412937141"/><line x1="642.8859012145973" y1="809.5277473979602" x2="672.626600804862" y2="752.374020104452"/><path class="line" d=" M 633.2599005693963,720.7441334718615 A 308.4857400643993,308.4857400643993 0 0 0 655.1347181689616,735.6491859001726"/><line x1="591.2101449608188" y1="777.0993746083353" x2="633.2599005693963" y2="720.7441334718615"/><path class="line" d=" M 649.2296267583221,738.8917101428412 A 314.37129711332796,314.37129711332796 0 0 0 652.0323486689213,740.6506941988174"/><line x1="614.6938434465677" y1="793.2823106791711" x2="649.2296267583221" y2="738.8917101428412"/><path class="line" d=" M 635.827426810202,729.8908291169275 A 314.37129711332796,314.37129711332796 0 0 0 649.2296267583221,738.8917101428412"/><line x1="598.5449348567425" y1="782.4367476016139" x2="635.827426810202" y2="729.8908291169275"/><text x="471.156745184384" y="473.5" text-anchor="end" style="font-color:black;font-weight:normal" transform="rotate(-56.11479807526247,817.742393741048,473.5)">Phocaeicola vulgatus&#160;&#160;&#160;0.8%</text><path class="line" d=" M 646.5230047467485,743.1543844625585 A 319.4206728241967,319.4206728241967 0 0 0 646.5230047467485,743.1543844625585"/><line x1="614.6938434465677" y1="793.2823106791711" x2="646.5230047467485" y2="743.1543844625585"/><path class="line" d=" M 632.7381600924163,727.6707024438474 A 314.37129711332796,314.37129711332796 0 0 0 635.827426810202,729.8908291169275"/><line x1="594.8225395762491" y1="779.7616179333363" x2="632.7381600924163" y2="727.6707024438474"/><line x1="1188.292393741048" y1="473.5" x2="1204.792393741048" y2="473.5" class="tick" transform="rotate(129.5862462663942,817.742393741048,473.5)"/><text x="427.94239374104797" y="473.5" text-anchor="end" style="font-color:black;font-weight:normal" transform="rotate(-50.4137537336058,817.742393741048,473.5)">2 more</text><path class="line" d=" M 619.2270725321509,700.4734168135694 A 301.53816457406833,301.53816457406833 0 0 0 632.1014204100375,711.1187991624673"/><line x1="568.3623400415468" y1="758.6298455385438" x2="619.2270725321509" y2="700.4734168135694"/><path class="line" d=" M 610.4501755758034,692.4867598345402 A 301.53816457406833,301.53816457406833 0 0 0 619.2270725321509,700.4734168135694"/><line x1="557.3365762820549" y1="748.5968015690361" x2="610.4501755758034" y2="692.4867598345402"/><text x="477.57331145401383" y="473.5" text-anchor="end" style="font-color:black;font-weight:normal" transform="rotate(-47.69894567872488,817.742393741048,473.5)">Odoribacteraceae&#160;&#160;&#160;0.6%</text><path class="line" d=" M 610.0534867984177,692.110573000652 A 301.53816457406833,301.53816457406833 0 0 0 610.4501755758034,692.4867598345402"/><line x1="556.8382456343045" y1="748.12422599016" x2="610.0534867984177" y2="692.110573000652"/><path class="line" d=" M 585.8126773412519,652.8958119431379 A 293.21366047990944,293.21366047990944 0 0 0 585.8665945833357,652.9654965641025"/><line x1="518.1145509302848" y1="705.2597804032628" x2="585.8126773412519" y2="652.8958119431379"/><path class="line" d=" M 593.2249812687586,645.8796441260909 A 283.05972905429314,283.05972905429314 0 0 0 593.7878657204161,646.6103104709418"/><line x1="517.2856804931155" y1="704.1842072276506" x2="593.2249812687586" y2="645.8796441260909"/><path class="line" d=" M 596.7149936974773,629.2701207401365 A 270.40237070968385,270.40237070968385 0 0 0 596.7348968598644,629.2983581676358"/><line x1="508.110570185789" y1="691.7145133620699" x2="596.7149936974773" y2="629.2701207401365"/><path class="line" d=" M 609.9373704396797,619.8933417534811 A 254.19271865856766,254.19271865856766 0 0 0 609.9477480514413,619.9080716414385"/><line x1="508.069704287301" y1="691.656515846956" x2="609.9373704396797" y2="619.8933417534811"/><path class="line" d=" M 617.7856539319547,592.5375193780231 A 232.70717396495255,232.70717396495255 0 0 0 627.5001725953896,607.5168873997643"/><line x1="492.2534466272297" y1="667.2688966442706" x2="617.7856539319547" y2="592.5375193780231"/><text x="817.742393741048" y="716.9499463117601" text-anchor="middle" style="font-color:black;font-weight:normal" transform="rotate(57.0355182113099,817.742393741048,473.5)">...</text><path class="line" d=" M 609.4808712043746,619.2431866323102 A 254.19271865856766,254.19271865856766 0 0 0 609.9353606671881,619.8904888443011"/><line x1="507.3894255159572" y1="690.6876495426842" x2="609.4808712043746" y2="619.2431866323102"/><path class="line" d=" M 600.1123520232813,604.8434549604847 A 254.19271865856766,254.19271865856766 0 0 0 609.4808712043746,619.2431866323102"/><line x1="493.42838412765184" y1="669.2290555039849" x2="600.1123520232813" y2="604.8434549604847"/><text x="817.742393741048" y="735.7975446841258" text-anchor="middle" style="font-color:black;font-weight:normal" transform="rotate(56.95182185337566,817.742393741048,473.5)">...</text><path class="line" d=" M 586.8707622879175,614.2683624810177 A 270.40237070968385,270.40237070968385 0 0 0 596.2002122076485,628.5371048711875"/><line x1="494.3200296363318" y1="670.6989208817239" x2="586.8707622879175" y2="614.2683624810177"/><path class="line" d=" M 576.3059100145966,621.2539662347405 A 283.05972905429314,283.05972905429314 0 0 0 585.8299674026376,635.7942904791208"/><line x1="494.6440132644746" y1="671.2293011503743" x2="576.3059100145966" y2="621.2539662347405"/><path class="line" d=" M 574.1292731453732,636.6775050846924 A 293.21366047990944,293.21366047990944 0 0 0 577.5107943374475,641.6161186204808"/><line x1="503.02086974859895" y1="684.3075006632125" x2="574.1292731453732" y2="636.6775050846924"/><path class="line" d=" M 576.2360996038351,621.1398323773088 A 283.05972905429314,283.05972905429314 0 0 0 576.3059100145966,621.2539662347405"/><line x1="494.55059063708484" y1="671.076563403682" x2="576.2360996038351" y2="621.1398323773088"/><path class="line" d=" M 586.3705701477163,613.4447081261508 A 270.40237070968385,270.40237070968385 0 0 0 586.8707622879175,614.2683624810177"/><line x1="493.61932282591835" y1="669.5450838469199" x2="586.3705701477163" y2="613.4447081261508"/><path class="line" d=" M 599.5366703806714,603.8848170294706 A 254.19271865856766,254.19271865856766 0 0 0 600.1123520232813,604.8434549604847"/><line x1="492.570498790214" y1="667.8004856763971" x2="599.5366703806714" y2="603.8848170294706"/><path class="line" d=" M 615.8590621153651,589.2400070263918 A 232.70717396495255,232.70717396495255 0 0 0 617.7856539319547,592.5375193780231"/><line x1="489.117346576296" y1="661.9012164927938" x2="615.8590621153651" y2="589.2400070263918"/><path class="line" d=" M 610.7627734277114,579.8581947463464 A 232.70717396495255,232.70717396495255 0 0 0 615.8590621153651,589.2400070263918"/><line x1="480.8216240079237" y1="646.629532207648" x2="610.7627734277114" y2="579.8581947463464"/><text x="817.742393741048" y="716.9499463117601" text-anchor="middle" style="font-color:black;font-weight:normal" transform="rotate(61.488774467623244,817.742393741048,473.5)">...</text><path class="line" d=" M 591.7117606544373,589.7931258738009 A 254.19271865856766,254.19271865856766 0 0 0 597.219441898101,599.9261283497482"/><line x1="480.9097564214335" y1="646.8009360514624" x2="591.7117606544373" y2="589.7931258738009"/><text x="817.742393741048" y="735.7975446841258" text-anchor="middle" style="font-color:black;font-weight:normal" transform="rotate(61.47419833854069,817.742393741048,473.5)">...</text><path class="line" d=" M 577.3226464323985,597.2569682460849 A 270.40237070968385,270.40237070968385 0 0 0 583.1568820516852,607.9882143195349"/><line x1="480.9443100500794" y1="646.8680790171344" x2="577.3226464323985" y2="597.2569682460849"/><path class="line" d=" M 566.068972886857,603.0503741709729 A 283.05972905429314,283.05972905429314 0 0 0 572.1760874820485,614.2835197833933"/><line x1="480.94460149387965" y1="646.8686451969711" x2="566.068972886857" y2="603.0503741709729"/><line x1="480.9576202876645" y1="646.8939340633149" x2="557.0510098493805" y2="607.7171861449751"/><path class="line" d=" M 557.0510098493805,607.7171861449751 A 293.21366047990944,293.21366047990944 0 0 0 563.3671218177116,619.3337125837379"/><path class="line" d=" M 549.7994380531707,611.8178845700807 A 301.53816457406833,301.53816457406833 0 0 0 556.1452618637355,623.474015376871"/><line x1="481.14555944667205" y1="647.2584850964248" x2="549.7994380531707" y2="611.8178845700807"/><text x="477.57331145401383" y="473.5" text-anchor="end" style="font-color:black;font-weight:normal" transform="rotate(-28.564730200033384,817.742393741048,473.5)">Akkermansia muciniphila&#160;&#160;&#160;0.7%</text><path class="line" d=" M 550.1179028171007,626.929409438928 A 308.4857400643993,308.4857400643993 0 0 0 550.1179458046261,626.9294844213637"/><line x1="489.11729379047006" y1="661.9011244193429" x2="550.1179028171007" y2="626.929409438928"/><path class="line" d=" M 549.7750855693291,611.770699882155 A 301.53816457406833,301.53816457406833 0 0 0 549.7994380531707,611.8178845700807"/><line x1="481.11496722995486" y1="647.1992104775338" x2="549.7750855693291" y2="611.770699882155"/><path class="line" d=" M 557.0433577214966,607.702322299222 A 293.21366047990944,293.21366047990944 0 0 0 557.0510098493805,607.7171861449751"/><line x1="480.9477345748443" y1="646.8747315992752" x2="557.0433577214966" y2="607.702322299222"/><path class="line" d=" M 566.0687551043777,603.049951090954 A 283.05972905429314,283.05972905429314 0 0 0 566.068972886857,603.0503741709729"/><path class="line" d=" M 577.2998177247356,597.2126093979799 A 270.40237070968385,270.40237070968385 0 0 0 577.3226464323985,597.2569682460849"/><line x1="480.91232987756825" y1="646.8059378028468" x2="577.2998177247356" y2="597.2126093979799"/><path class="line" d=" M 591.6555655312961,589.6838385021251 A 254.19271865856766,254.19271865856766 0 0 0 591.7117606544373,589.7931258738009"/><line x1="480.82601400442724" y1="646.638075145732" x2="591.6555655312961" y2="589.6838385021251"/><path class="line" d=" M 610.5988710789363,579.5386242549662 A 232.70717396495255,232.70717396495255 0 0 0 610.7627734277114,579.8581947463464"/><line x1="480.5548242842272" y1="646.109336374953" x2="610.5988710789363" y2="579.5386242549662"/><path class="line" d=" M 632.2769675414538,391.1903195626239 A 202.90960501932898,202.90960501932898 0 0 0 636.743904808508,565.2161644053941"/><line x1="471.50790455699024" y1="319.840901670436" x2="632.2769675414538" y2="391.1903195626239"/><text x="817.742393741048" y="697.2679032812655" text-anchor="middle" style="font-color:black;font-weight:normal" transform="rotate(88.52964100529807,817.742393741048,473.5)">Bacillati</text><path class="line" d=" M 594.741680129963,406.992026465231 A 232.70717396495255,232.70717396495255 0 0 0 610.1640149481572,578.6848157885435"/><line x1="454.7425391314895" y1="365.2385315385044" x2="594.741680129963" y2="406.992026465231"/><text x="817.742393741048" y="716.9499463117601" text-anchor="middle" style="font-color:black;font-weight:normal" transform="rotate(84.8671718577256,817.742393741048,473.5)">Bacillota</text><path class="line" d=" M 571.12544224212,411.9044039528059 A 254.19271865856766,254.19271865856766 0 0 0 590.9985785802413,588.3963903060303"/><line x1="450.23186188638095" y1="381.709755551585" x2="571.12544224212" y2="411.9044039528059"/><text x="817.742393741048" y="735.7975446841258" text-anchor="middle" style="font-color:black;font-weight:normal" transform="rotate(83.57551090808418,817.742393741048,473.5)">Clostridia</text><path class="line" d=" M 547.4453662411715,465.9528806721841 A 270.40237070968385,270.40237070968385 0 0 0 576.5393196058088,595.7232347515301"/><line x1="439.08996644083715" y1="462.92742700859657" x2="547.4453662411715" y2="465.9528806721841"/><path class="line" d=" M 534.6881827684424,471.732554678213 A 283.05972905429314,283.05972905429314 0 0 0 565.2487612607086,601.4444245333622"/><line x1="438.9497782225855" y1="471.1347455354043" x2="534.6881827684424" y2="471.732554678213"/><path class="line" d=" M 525.337934317546,495.2688493328701 A 293.21366047990944,293.21366047990944 0 0 0 556.191298236294,606.0340527271788"/><line x1="439.9877930572512" y1="501.62297392213827" x2="525.337934317546" y2="495.2688493328701"/><line x1="1188.292393741048" y1="473.5" x2="1204.792393741048" y2="473.5" class="tick" transform="rotate(154.14257307473073,817.742393741048,473.5)"/><text x="427.94239374104797" y="473.5" text-anchor="end" style="font-color:black;font-weight:normal" transform="rotate(-25.85742692526928,817.742393741048,473.5)">1 more</text><path class="line" d=" M 544.1066351347574,600.1836070952268 A 301.53816457406833,301.53816457406833 0 0 0 548.7657125326897,609.7967705444084"/><line x1="473.9941139620152" y1="632.6432064178543" x2="544.1066351347574" y2="600.1836070952268"/><path class="line" d=" M 527.3308523495252,554.6566468091047 A 301.53816457406833,301.53816457406833 0 0 0 544.1066351347574,600.1836070952268"/><line x1="452.9199440372161" y1="575.4510676358764" x2="527.3308523495252" y2="554.6566468091047"/><text x="477.57331145401383" y="473.5" text-anchor="end" style="font-color:black;font-weight:normal" transform="rotate(-20.227842538030142,817.742393741048,473.5)">Faecalibacterium prausnitzii&#160;&#160;&#160;3%</text><path class="line" d=" M 536.2694162698047,599.7395135310379 A 308.4857400643993,308.4857400643993 0 0 0 537.8019436790123,603.1024546146601"/><line x1="472.11227208988635" y1="628.5137381247328" x2="536.2694162698047" y2="599.7395135310379"/><path class="line" d=" M 525.6416053651506,548.3491424458362 A 301.53816457406833,301.53816457406833 0 0 0 527.3308523495252,554.6566468091047"/><line x1="450.79786851624516" y1="567.5274183817893" x2="525.6416053651506" y2="548.3491424458362"/><line x1="1188.292393741048" y1="473.5" x2="1204.792393741048" y2="473.5" class="tick" transform="rotate(177.38265375535318,817.742393741048,473.5)"/><text x="427.94239374104797" y="473.5" text-anchor="end" style="font-color:black;font-weight:normal" transform="rotate(-2.61734624464682,817.742393741048,473.5)">25 more</text><path class="line" d=" M 524.5713610558787,478.49962862011296 A 293.21366047990944,293.21366047990944 0 0 0 525.337934317546,495.2688493328701"/><line x1="438.99746419247634" y1="479.958973699244" x2="524.5713610558787" y2="478.49962862011296"/><path class="line" d=" M 534.7418667983643,467.71104824227706 A 283.05972905429314,283.05972905429314 0 0 0 534.6881827684424,471.732554678213"/><line x1="439.02161998758123" y1="465.7530310717395" x2="534.7418667983643" y2="467.71104824227706"/><path class="line" d=" M 551.9213714180858,423.9356360215069 A 270.40237070968385,270.40237070968385 0 0 0 547.4453662411715,465.9528806721841"/><line x1="445.36029149961973" y1="404.0665071434938" x2="551.9213714180858" y2="423.9356360215069"/><path class="line" d=" M 539.470296728567,421.6593765800777 A 283.05972905429314,283.05972905429314 0 0 0 534.7929389434025,465.59960494626876"/><line x1="445.34936312343785" y1="404.1251432619015" x2="539.470296728567" y2="421.6593765800777"/><line x1="1188.292393741048" y1="473.5" x2="1204.792393741048" y2="473.5" class="tick" transform="rotate(183.04300372782004,817.742393741048,473.5)"/><text x="427.94239374104797" y="473.5" text-anchor="end" style="font-color:black;font-weight:normal" transform="rotate(3.0430037278200226,817.742393741048,473.5)">5 more</text><path class="line" d=" M 525.4272545748132,450.56290981287293 A 293.21366047990944,293.21366047990944 0 0 0 524.642963280917,465.3162016169471"/><line x1="440.1031850666052" y1="443.86778658721784" x2="525.4272545748132" y2="450.56290981287293"/><line x1="441.95989147863287" y1="425.7825923441143" x2="526.8644554288447" y2="436.5638971293709"/><path class="line" d=" M 526.8644554288447,436.5638971293709 A 293.21366047990944,293.21366047990944 0 0 0 525.4272545748132,450.56290981287293"/><text x="481.7355635010932" y="473.5" text-anchor="end" style="font-color:black;font-weight:normal" transform="rotate(5.861702821676918,817.742393741048,473.5)">Agathobacter rectalis&#160;&#160;&#160;0.8%</text><path class="line" d=" M 517.1911496794546,449.12348696539044 A 301.53816457406833,301.53816457406833 0 0 0 517.1282600164043,449.9117126590353"/><line x1="440.18218867928937" y1="442.87759719220566" x2="517.1911496794546" y2="449.12348696539044"/><line x1="1188.292393741048" y1="473.5" x2="1204.792393741048" y2="473.5" class="tick" transform="rotate(188.46924469315505,817.742393741048,473.5)"/><text x="427.94239374104797" y="473.5" text-anchor="end" style="font-color:black;font-weight:normal" transform="rotate(8.469244693155044,817.742393741048,473.5)">36 more</text><path class="line" d=" M 528.7221530823449,424.08794497682857 A 293.21366047990944,293.21366047990944 0 0 0 526.8644554288447,436.5638971293709"/><line x1="444.3598337937149" y1="409.6650258308486" x2="528.7221530823449" y2="424.08794497682857"/><path class="line" d=" M 539.4757231873116,421.6302566882366 A 283.05972905429314,283.05972905429314 0 0 0 539.470296728567,421.6593765800777"/><line x1="445.3566249920878" y1="404.0861740483498" x2="539.4757231873116" y2="421.6302566882366"/><path class="line" d=" M 552.1294723274518,422.8322778926063 A 270.40237070968385,270.40237070968385 0 0 0 551.9213714180858,423.9356360215069"/><line x1="445.65181492177373" y1="402.52084000259333" x2="552.1294723274518" y2="422.8322778926063"/><path class="line" d=" M 572.3037242230307,407.36530619818967 A 254.19271865856766,254.19271865856766 0 0 0 571.12544224212,411.9044039528059"/><line x1="451.987747014501" y1="374.9455561735605" x2="572.3037242230307" y2="407.36530619818967"/><path class="line" d=" M 604.3431358475614,380.69167308229356 A 232.70717396495255,232.70717396495255 0 0 0 594.741680129963,406.992026465231"/><line x1="470.3717583079212" y1="322.426899685001" x2="604.3431358475614" y2="380.69167308229356"/><text x="817.742393741048" y="230.0500536882399" text-anchor="middle" style="font-color:black;font-weight:normal" transform="rotate(290.0555937879684,817.742393741048,473.5)">Actinomycetota</text><path class="line" d=" M 574.7511996799859,398.8728077185466 A 254.19271865856766,254.19271865856766 0 0 0 574.1523200455135,400.85143348944996"/><line x1="455.63499429989605" y1="362.28996776384747" x2="574.7511996799859" y2="398.8728077185466"/><path class="line" d=" M 584.5725606194926,372.2786231021346 A 254.19271865856766,254.19271865856766 0 0 0 574.7511996799859,398.8728077185466"/><line x1="470.27086405855056" y1="322.65910348945374" x2="584.5725606194926" y2="372.2786231021346"/><text x="817.742393741048" y="211.20245531587426" text-anchor="middle" style="font-color:black;font-weight:normal" transform="rotate(290.269431862282,817.742393741048,473.5)">Actinomycetes</text><line x1="469.0939300778109" y1="325.39973401352563" x2="568.8633781158411" y2="367.7801926465749"/><path class="line" d=" M 568.8633781158411,367.7801926465749 A 270.40237070968385,270.40237070968385 0 0 0 559.2558592626797,394.11389555608235"/><path class="line" d=" M 557.2027713170035,362.8568106053238 A 283.05972905429314,283.05972905429314 0 0 0 547.1562734285687,390.3978838625012"/><line x1="469.07955390875924" y1="325.4335820650618" x2="557.2027713170035" y2="362.8568106053238"/><path class="line" d=" M 541.2904072966423,375.78331829738715 A 293.21366047990944,293.21366047990944 0 0 0 537.4497958608979,387.4168409871938"/><line x1="460.5966444818107" y1="347.2607280357732" x2="541.2904072966423" y2="375.78331829738715"/><text x="481.7355635010932" y="473.5" text-anchor="end" style="font-color:black;font-weight:normal" transform="rotate(18.269769153766244,817.742393741048,473.5)">Bifidobacterium adolescentis&#160;&#160;&#160;0.7%</text><path class="line" d=" M 543.1458590196808,370.6846615964107 A 293.21366047990944,293.21366047990944 0 0 0 541.2904072966423,375.78331829738715"/><line x1="462.99368530022485" y1="340.6738208801899" x2="543.1458590196808" y2="370.6846615964107"/><path class="line" d=" M 557.2050808563032,362.85137232172076 A 283.05972905429314,283.05972905429314 0 0 0 557.2027713170035,362.8568106053238"/><line x1="469.0826446115224" y1="325.4263043719908" x2="557.2050808563032" y2="362.85137232172076"/><path class="line" d=" M 569.5749984718691,366.1203650093353 A 270.40237070968385,270.40237070968385 0 0 0 568.8633781158411,367.7801926465749"/><line x1="470.0908214517878" y1="323.0745224876939" x2="569.5749984718691" y2="366.1203650093353"/><path class="line" d=" M 584.599014261355,372.21770725432 A 254.19271865856766,254.19271865856766 0 0 0 584.5725606194926,372.2786231021346"/><line x1="470.31028548490144" y1="322.5683262111982" x2="584.599014261355" y2="372.21770725432"/><path class="line" d=" M 604.4207247150682,380.51347227299533 A 232.70717396495255,232.70717396495255 0 0 0 604.3431358475614,380.69167308229356"/><line x1="470.49805722045926" y1="322.1368249725973" x2="604.4207247150682" y2="380.51347227299533"/><path class="line" d=" M 632.446490874883,390.80939478929395 A 202.90960501932898,202.90960501932898 0 0 0 632.2769675414538,391.1903195626239"/><line x1="471.82437769140336" y1="319.12977562924317" x2="632.446490874883" y2="390.80939478929395"/><path class="line" d=" M 674.1623464867939,405.3317570324667 A 158.94067861568504,158.94067861568504 0 0 0 674.0940339574032,405.47582745609446"/><line x1="475.55106567065076" y1="311.03605017291443" x2="674.1623464867939" y2="405.3317570324667"/><path class="line" d=" M 818.7704491798513,561.4939946929036 A 88,88 0 1 0 738.2618323341321,435.7264595458476"/><line x1="822.1677051071696" y1="852.2741498826351" x2="818.7704491798513" y2="561.4939946929036"/><text x="1051.142393741048" y="473.5" text-anchor="start" style="font-color:black;font-weight:normal" transform="rotate(327.3751355977317,817.742393741048,473.5)">68%&#160;&#160;&#160;No hits</text><path class="line" d=" M 818.1443286947639,561.4990820877865 A 88,88 0 0 0 818.7704491798513,561.4939946929036"/><line x1="819.4725410190888" y1="852.2960488051535" x2="818.1443286947639" y2="561.4990820877865"/><line x1="819.4723287585992" y1="852.2960497745919" x2="818.1442793839849" y2="561.4990823129991"/><path class="line" d=" M 818.1442793839849,561.4990823129991 A 88,88 0 0 0 818.1443286947639,561.4990820877865"/></svg>