<?xml version="1.0" standalone="no"?><!DOCTYPE svg PUBLIC "-//W3C//DTD SVG 1.1//EN" 	"http://www.w3.org/Graphics/SVG/1.1/DTD/svg11.dtd"><svg width="1710" height="947" version="1.1"	xmlns="http://www.w3.org/2000/svg"><title>Krona (snapshot) - Vegan_2 - Root</title><defs>	<style type="text/css">	text {font-size: 11px; font-family: sans-serif; dominant-baseline:central}	path {stroke-width:0.27499999999999997;}	path.wedge {stroke:none}	path.line {fill:none;stroke:black;}	line {stroke:black;stroke-width:0.27499999999999997;}	line.tick {stroke-width:0.5499999999999999;}	line.pattern {stroke-width:0.18333333333333332;}	circle {fill:none;stroke:black;stroke-width:0.27499999999999997;}	rect {stroke:black;stroke-width:0.27499999999999997;}	.highlight {stroke:black;stroke-width:1.375;}	.searchHighlight {fill:rgb(255, 255, 100);stroke:none;}	</style><pattern id="hiddenPattern" patternUnits="userSpaceOnUse" x="0" y="0" width="6.6" height="6.6"><line class="pattern" x1="0" y1="0" x2="3.3" y2="3.3"/><line class="pattern" x1="3.3" y1="6.6" x2="6.6" y2="3.3"/></pattern></defs><path class="wedge" fill="rgb(220,220,220)" d=" M 818.9859018914075,561.4912136947775 L 823.0951310973683,852.262178949792 A 378.8,378.8 0 0,1 817.7423937410481,852.3 L 817.742393741048,561.5 A 88,88 0 0 0 818.9859018914075,561.4912136947775 Z "/><path class="wedge" fill="rgb(207,111,111)" d=" M 817.742393741048,561.5 L 817.742393741048,852.3 A 378.8,378.8 0 1,1 950.2556108392357,118.6342686391252 L 848.5268792337632,391.06023136283795 A 88,88 0 1 0 817.742393741048,561.5 Z "/><path class="wedge" fill="rgb(207,111,111)" d=" M 873.3068770042097,324.5881887877516 L 950.1680662838136,118.60159023800031 A 378.8,378.8 0 0,1 950.2556108392357,118.6342686391252 L 873.343609821126,324.6019003169249 A 158.94067861568504,158.94067861568504 0 0 0 873.3068770042097,324.5881887877516 Z "/><path class="wedge" fill="rgb(210,121,121)" d=" M 817.742393741048,632.4406786156851 L 817.742393741048,852.3 A 378.8,378.8 0 1,1 949.9223319059868,118.50999458194184 L 873.2037693253,324.54975616966243 A 158.94067861568504,158.94067861568504 0 1 0 817.742393741048,632.4406786156851 Z "/><path class="wedge" fill="rgb(210,121,121)" d=" M 886.3495900384567,282.5409456838746 L 945.8211308465823,117.00977979550203 A 378.8,378.8 0 0,1 949.9223319059868,118.50999458194184 L 888.5464566885851,283.3445570612787 A 202.90960501932898,202.90960501932898 0 0 0 886.3495900384567,282.5409456838746 Z "/><path class="wedge" fill="rgb(213,130,130)" d=" M 817.742393741048,676.409605019329 L 817.742393741048,852.3 A 378.8,378.8 0 0,1 728.8523137160108,105.27724992452937 L 770.1271587146043,276.25624926888906 A 202.90960501932898,202.90960501932898 0 0 0 817.742393741048,676.409605019329 Z "/><path class="wedge" fill="rgb(213,130,130)" d=" M 762.1312740319936,247.53532979808566 L 727.2187893894159,105.67542624888534 A 378.8,378.8 0 0,1 728.8523137160108,105.27724992452937 L 763.1347925896623,247.2907192194673 A 232.70717396495255,232.70717396495255 0 0 0 762.1312740319936,247.53532979808566 Z "/><path class="wedge" fill="rgb(216,140,140)" d=" M 817.742393741048,706.2071739649525 L 817.742393741048,852.3 A 378.8,378.8 0 0,1 620.3392542307929,150.20224171594577 L 696.4722598254177,274.8893672664029 A 232.70717396495255,232.70717396495255 0 0 0 817.742393741048,706.2071739649525 Z "/><path class="wedge" fill="rgb(216,140,140)" d=" M 685.2730023658359,256.5534661080878 L 620.335458885721,150.20455915521376 A 378.8,378.8 0 0,1 620.3392542307929,150.20224171594577 L 685.2755492219133,256.5519109967154 A 254.19271865856766,254.19271865856766 0 0 0 685.2730023658359,256.5534661080878 Z "/><path class="wedge" fill="rgb(219,149,149)" d=" M 817.742393741048,727.6927186585676 L 817.742393741048,852.3 A 378.8,378.8 0 0,1 620.3152681073148,150.21688868114052 L 685.2594533984259,256.5617398032174 A 254.19271865856766,254.19271865856766 0 0 0 817.742393741048,727.6927186585676 Z "/><path class="wedge" fill="rgb(219,149,149)" d=" M 676.8015213695845,242.73364070864199 L 620.3018080161892,150.22510906563633 A 378.8,378.8 0 0,1 620.3152681073148,150.21688868114052 L 676.8111297131703,242.72777267417572 A 270.40237070968385,270.40237070968385 0 0 0 676.8015213695845,242.73364070864199 Z "/><path class="wedge" fill="rgb(223,159,159)" d=" M 817.742393741048,743.9023707096839 L 817.742393741048,852.3 A 378.8,378.8 0 0,1 620.252474142769,150.25524496588457 L 676.7663049062024,242.75515290207017 A 270.40237070968385,270.40237070968385 0 0 0 817.742393741048,743.9023707096839 Z "/><path class="wedge" fill="rgb(223,159,159)" d=" M 655.9069907905828,241.2671156701739 L 601.1688428426163,162.71818416895042 A 378.8,378.8 0 0,1 620.252474142769,150.25524496588457 L 670.1673062741975,231.95413733321521 A 283.05972905429314,283.05972905429314 0 0 0 655.9069907905828,241.2671156701739 Z "/><path class="wedge" fill="rgb(226,168,168)" d=" M 817.742393741048,756.5597290542931 L 817.742393741048,852.3 A 378.8,378.8 0 0,1 600.2914107410012,163.33148130038506 L 655.2513263424657,241.72540426535255 A 283.05972905429314,283.05972905429314 0 0 0 817.742393741048,756.5597290542931 Z "/><path class="wedge" fill="rgb(226,168,168)" d=" M 649.3899715280389,233.43394111819902 L 600.249465785676,163.36089203488154 A 378.8,378.8 0 0,1 600.2914107410012,163.33148130038506 L 649.422439410535,233.41117546582544 A 293.21366047990944,293.21366047990944 0 0 0 649.3899715280389,233.43394111819902 Z "/><path class="wedge" fill="rgb(229,178,178)" d=" M 817.742393741048,766.7136604799094 L 817.742393741048,852.3 A 378.8,378.8 0 0,1 600.2249997320221,163.37805091622067 L 649.3710333518262,233.44722310977025 A 293.21366047990944,293.21366047990944 0 0 0 817.742393741048,766.7136604799094 Z "/><path class="wedge" fill="rgb(229,178,178)" d=" M 576.926247822659,292.0259011326656 L 515.2229557696112,245.52756822491452 A 378.8,378.8 0 0,1 600.2249997320221,163.37805091622067 L 644.5908738033074,226.6319870093572 A 301.53816457406833,301.53816457406833 0 0 0 576.926247822659,292.0259011326656 Z "/><path class="wedge" fill="rgb(229,178,178)" d=" M 817.742393741048,775.0381645740683 L 817.742393741048,852.3 A 378.8,378.8 0 0,1 740.9083324700788,844.4258241597759 L 756.5797701602149,768.7700427937234 A 301.53816457406833,301.53816457406833 0 0 0 817.742393741048,775.0381645740683 Z "/><path class="wedge" fill="rgb(229,178,178)" d=" M 757.4128354701519,776.0290006295572 L 743.6617031125454,844.9855196047406 A 378.8,378.8 0 0,1 740.9083324700788,844.4258241597759 L 755.1705556910788,775.5731979274701 A 308.4857400643993,308.4857400643993 0 0 0 757.4128354701519,776.0290006295572 Z "/><path class="wedge" fill="rgb(229,178,178)" d=" M 817.742393741048,781.9857400643994 L 817.742393741048,852.3 A 378.8,378.8 0 0,1 797.1308092625092,851.7388168674443 L 800.9568079655413,781.5287258248056 A 308.4857400643993,308.4857400643993 0 0 0 817.742393741048,781.9857400643994 Z "/><path class="wedge" fill="rgb(229,178,178)" d=" M 802.0324414828559,787.478518132629 L 798.8127714439529,851.8267230842798 A 378.8,378.8 0 0,1 797.1308092625092,851.7388168674443 L 800.63655808086,787.4055635618505 A 314.37129711332796,314.37129711332796 0 0 0 802.0324414828559,787.478518132629 Z "/><path class="wedge" fill="rgb(229,178,178)" d=" M 817.742393741048,787.871297113328 L 817.742393741048,852.3 A 378.8,378.8 0 0,1 800.0283225141276,851.8855859841487 L 803.0412439291027,787.5273692577177 A 314.37129711332796,314.37129711332796 0 0 0 817.742393741048,787.871297113328 Z "/><path class="wedge" fill="rgb(229,178,178)" d=" M 817.2018665472757,792.9202154808229 L 817.101384193386,852.2994576378903 A 378.8,378.8 0 0,1 800.0283225141276,851.8855859841487 L 802.805116682551,792.571220860704 A 319.4206728241967,319.4206728241967 0 0 0 817.2018665472757,792.9202154808229 Z "/><path class="wedge" fill="rgb(229,178,178)" d=" M 817.742393741048,792.9206728241967 L 817.742393741048,852.3 A 378.8,378.8 0 0,1 817.101384193386,852.2994576378903 L 817.2018665472757,792.9202154808229 A 319.4206728241967,319.4206728241967 0 0 0 817.742393741048,792.9206728241967 Z "/><path class="wedge" fill="url(#hiddenPattern)" d=" M 817.742393741048,792.9206728241967 L 817.742393741048,852.3 A 378.8,378.8 0 0,1 817.101384193386,852.2994576378903 L 817.2018665472757,792.9202154808229 A 319.4206728241967,319.4206728241967 0 0 0 817.742393741048,792.9206728241967 Z "/><path class="wedge" fill="rgb(229,178,178)" d=" M 803.0412439291027,787.5273692577177 L 800.0283225141276,851.8855859841487 A 378.8,378.8 0 0,1 798.8127714439529,851.8267230842798 L 802.0324414828559,787.478518132629 A 314.37129711332796,314.37129711332796 0 0 0 803.0412439291027,787.5273692577177 Z "/><path class="wedge" fill="url(#hiddenPattern)" d=" M 803.0412439291027,787.5273692577177 L 800.0283225141276,851.8855859841487 A 378.8,378.8 0 0,1 798.8127714439529,851.8267230842798 L 802.0324414828559,787.478518132629 A 314.37129711332796,314.37129711332796 0 0 0 803.0412439291027,787.5273692577177 Z "/><path class="wedge" fill="rgb(229,178,178)" d=" M 800.9568079655413,781.5287258248056 L 797.1308092625092,851.7388168674443 A 378.8,378.8 0 0,1 791.7400277564705,851.406492353868 L 796.5666833023527,781.2580886191241 A 308.4857400643993,308.4857400643993 0 0 0 800.9568079655413,781.5287258248056 Z "/><path class="wedge" fill="url(#hiddenPattern)" d=" M 800.9568079655413,781.5287258248056 L 797.1308092625092,851.7388168674443 A 378.8,378.8 0 0,1 791.7400277564705,851.406492353868 L 796.5666833023527,781.2580886191241 A 308.4857400643993,308.4857400643993 0 0 0 800.9568079655413,781.5287258248056 Z "/><path class="wedge" fill="rgb(229,178,178)" d=" M 796.5666833023527,781.2580886191241 L 791.7400277564705,851.406492353868 A 378.8,378.8 0 0,1 744.716213465676,845.1942520330236 L 758.2716037032328,776.1989873708834 A 308.4857400643993,308.4857400643993 0 0 0 796.5666833023527,781.2580886191241 Z "/><path class="wedge" fill="rgb(229,178,178)" d=" M 759.5406934488946,782.4366836939548 L 747.6125686803331,845.7515918528134 A 378.8,378.8 0 0,1 744.716213465676,845.1942520330236 L 757.1369686713531,781.9741397602689 A 314.37129711332796,314.37129711332796 0 0 0 759.5406934488946,782.4366836939548 Z "/><path class="wedge" fill="rgb(229,178,178)" d=" M 796.162674832423,787.1297629061073 L 791.7400277564705,851.406492353868 A 378.8,378.8 0 0,1 755.8779646730504,847.2141051874958 L 766.40025854759,783.650443498785 A 314.37129711332796,314.37129711332796 0 0 0 796.162674832423,787.1297629061073 Z "/><path class="wedge" fill="rgb(229,179,178)" d=" M 766.40025854759,783.650443498785 L 755.8779646730504,847.2141051874958 A 378.8,378.8 0 0,1 747.6125686803331,845.7515918528134 L 759.5406934488946,782.4366836939548 A 314.37129711332796,314.37129711332796 0 0 0 766.40025854759,783.650443498785 Z "/><path class="wedge" fill="url(#hiddenPattern)" d=" M 766.40025854759,783.650443498785 L 755.8779646730504,847.2141051874958 A 378.8,378.8 0 0,1 747.6125686803331,845.7515918528134 L 759.5406934488946,782.4366836939548 A 314.37129711332796,314.37129711332796 0 0 0 766.40025854759,783.650443498785 Z "/><path class="wedge" fill="rgb(229,179,178)" d=" M 758.2716037032328,776.1989873708834 L 744.716213465676,845.1942520330236 A 378.8,378.8 0 0,1 743.6617031125454,844.9855196047406 L 757.4128354701519,776.0290006295572 A 308.4857400643993,308.4857400643993 0 0 0 758.2716037032328,776.1989873708834 Z "/><path class="wedge" fill="url(#hiddenPattern)" d=" M 758.2716037032328,776.1989873708834 L 744.716213465676,845.1942520330236 A 378.8,378.8 0 0,1 743.6617031125454,844.9855196047406 L 757.4128354701519,776.0290006295572 A 308.4857400643993,308.4857400643993 0 0 0 758.2716037032328,776.1989873708834 Z "/><path class="wedge" fill="rgb(229,179,178)" d=" M 756.5797701602149,768.7700427937234 L 740.9083324700788,844.4258241597759 A 378.8,378.8 0 0,1 601.316409654831,784.3845982230587 L 645.459674608275,720.9751086127976 A 301.53816457406833,301.53816457406833 0 0 0 756.5797701602149,768.7700427937234 Z "/><path class="wedge" fill="rgb(229,179,178)" d=" M 641.4903614704118,726.677157230961 L 601.316604302031,784.3847337289149 A 378.8,378.8 0 0,1 601.316409654831,784.3845982230587 L 641.4902029543464,726.677046878204 A 308.4857400643993,308.4857400643993 0 0 0 641.4903614704118,726.677157230961 Z "/><path class="wedge" fill="rgb(229,179,178)" d=" M 755.1705556910788,775.5731979274701 L 740.9083324700788,844.4258241597759 A 378.8,378.8 0 0,1 601.346191662914,784.4053292019282 L 641.5144567157089,726.6939296959413 A 308.4857400643993,308.4857400643993 0 0 0 755.1705556910788,775.5731979274701 Z "/><path class="wedge" fill="rgb(229,179,178)" d=" M 645.9065389015229,736.7522581864891 L 610.6897066449126,790.7043895759796 A 378.8,378.8 0 0,1 601.346191662914,784.4053292019282 L 638.1522281188177,731.5245818919125 A 314.37129711332796,314.37129711332796 0 0 0 645.9065389015229,736.7522581864891 Z "/><path class="wedge" fill="rgb(229,179,178)" d=" M 753.9767561902573,781.3364109660479 L 740.9083324700788,844.4258241597759 A 378.8,378.8 0 0,1 701.4338981263212,834.0021135136924 L 721.2163836256798,772.6856310385313 A 314.37129711332796,314.37129711332796 0 0 0 753.9767561902573,781.3364109660479 Z "/><path class="wedge" fill="rgb(229,180,178)" d=" M 721.2163836256798,772.6856310385313 L 701.4338981263212,834.0021135136924 A 378.8,378.8 0 0,1 699.2671957185519,833.295869144617 L 719.4182076848429,772.0995091842937 A 314.37129711332796,314.37129711332796 0 0 0 721.2163836256798,772.6856310385313 Z "/><path class="wedge" fill="url(#hiddenPattern)" d=" M 721.2163836256798,772.6856310385313 L 701.4338981263212,834.0021135136924 A 378.8,378.8 0 0,1 699.2671957185519,833.295869144617 L 719.4182076848429,772.0995091842937 A 314.37129711332796,314.37129711332796 0 0 0 721.2163836256798,772.6856310385313 Z "/><path class="wedge" fill="rgb(229,180,178)" d=" M 719.4182076848429,772.0995091842937 L 699.2671957185519,833.295869144617 A 378.8,378.8 0 0,1 675.355189147906,824.5204039199868 L 699.5733066230785,764.8166306588453 A 314.37129711332796,314.37129711332796 0 0 0 719.4182076848429,772.0995091842937 Z "/><path class="wedge" fill="rgb(229,180,178)" d=" M 715.6525778845206,776.1668725279376 L 696.6743930242105,832.4317194153059 A 378.8,378.8 0 0,1 675.355189147906,824.5204039199868 L 697.6752958194588,769.495706428573 A 319.4206728241967,319.4206728241967 0 0 0 715.6525778845206,776.1668725279376 Z "/><path class="wedge" fill="rgb(229,180,178)" d=" M 717.8389421430394,776.8955612501061 L 699.2671957185519,833.295869144617 A 378.8,378.8 0 0,1 696.6743930242105,832.4317194153059 L 715.6525778845206,776.1668725279376 A 319.4206728241967,319.4206728241967 0 0 0 717.8389421430394,776.8955612501061 Z "/><path class="wedge" fill="url(#hiddenPattern)" d=" M 717.8389421430394,776.8955612501061 L 699.2671957185519,833.295869144617 A 378.8,378.8 0 0,1 696.6743930242105,832.4317194153059 L 715.6525778845206,776.1668725279376 A 319.4206728241967,319.4206728241967 0 0 0 717.8389421430394,776.8955612501061 Z "/><path class="wedge" fill="rgb(229,180,178)" d=" M 699.5733066230785,764.8166306588453 L 675.355189147906,824.5204039199868 A 378.8,378.8 0 0,1 669.5835003841119,822.1235538790345 L 694.7833032355168,762.8274520517693 A 314.37129711332796,314.37129711332796 0 0 0 699.5733066230785,764.8166306588453 Z "/><path class="wedge" fill="url(#hiddenPattern)" d=" M 699.5733066230785,764.8166306588453 L 675.355189147906,824.5204039199868 A 378.8,378.8 0 0,1 669.5835003841119,822.1235538790345 L 694.7833032355168,762.8274520517693 A 314.37129711332796,314.37129711332796 0 0 0 699.5733066230785,764.8166306588453 Z "/><path class="wedge" fill="rgb(229,181,178)" d=" M 694.7833032355168,762.8274520517693 L 669.5835003841119,822.1235538790345 A 378.8,378.8 0 0,1 616.3606377389377,794.3345809751601 L 650.612922121874,739.7650036430098 A 314.37129711332796,314.37129711332796 0 0 0 694.7833032355168,762.8274520517693 Z "/><path class="wedge" fill="rgb(229,181,178)" d=" M 676.2819218850377,759.8887238173622 L 649.9848523606595,813.1275125928512 A 378.8,378.8 0 0,1 616.3606377389377,794.3345809751601 L 647.92851835374,744.041704647188 A 319.4206728241967,319.4206728241967 0 0 0 676.2819218850377,759.8887238173622 Z "/><path class="wedge" fill="rgb(229,181,178)" d=" M 692.8083562517108,767.4745779894503 L 669.5835003841119,822.1235538790345 A 378.8,378.8 0 0,1 649.9848523606595,813.1275125928512 L 676.2819218850377,759.8887238173622 A 319.4206728241967,319.4206728241967 0 0 0 692.8083562517108,767.4745779894503 Z "/><path class="wedge" fill="rgb(229,181,178)" d=" M 650.612922121874,739.7650036430098 L 616.3606377389377,794.3345809751601 A 378.8,378.8 0 0,1 610.6897066449126,790.7043895759796 L 645.9065389015229,736.7522581864891 A 314.37129711332796,314.37129711332796 0 0 0 650.612922121874,739.7650036430098 Z "/><path class="wedge" fill="url(#hiddenPattern)" d=" M 650.612922121874,739.7650036430098 L 616.3606377389377,794.3345809751601 A 378.8,378.8 0 0,1 610.6897066449126,790.7043895759796 L 645.9065389015229,736.7522581864891 A 314.37129711332796,314.37129711332796 0 0 0 650.612922121874,739.7650036430098 Z "/><path class="wedge" fill="rgb(229,182,178)" d=" M 641.5144567157089,726.6939296959413 L 601.346191662914,784.4053292019282 A 378.8,378.8 0 0,1 601.316604302031,784.3847337289149 L 641.4903614704118,726.677157230961 A 308.4857400643993,308.4857400643993 0 0 0 641.5144567157089,726.6939296959413 Z "/><path class="wedge" fill="url(#hiddenPattern)" d=" M 641.5144567157089,726.6939296959413 L 601.346191662914,784.4053292019282 A 378.8,378.8 0 0,1 601.316604302031,784.3847337289149 L 641.4903614704118,726.677157230961 A 308.4857400643993,308.4857400643993 0 0 0 641.5144567157089,726.6939296959413 Z "/><path class="wedge" fill="rgb(229,182,178)" d=" M 645.459674608275,720.9751086127976 L 601.316409654831,784.3845982230587 A 378.8,378.8 0 0,1 507.1784040273605,256.61420449204917 L 570.5225008132097,300.85125475276084 A 301.53816457406833,301.53816457406833 0 0 0 645.459674608275,720.9751086127976 Z "/><path class="wedge" fill="rgb(229,182,178)" d=" M 549.0499527625342,321.9486094287222 L 487.8059220538531,287.4049580171334 A 378.8,378.8 0 0,1 507.1784040273605,256.61420449204917 L 564.8264428324435,296.87334969185275 A 308.4857400643993,308.4857400643993 0 0 0 549.0499527625342,321.9486094287222 Z "/><path class="wedge" fill="rgb(229,182,178)" d=" M 641.4902029543464,726.677046878204 L 601.316409654831,784.3845982230587 A 378.8,378.8 0 0,1 457.1359811955743,357.5152801827601 L 524.0730799974933,379.04479374608434 A 308.4857400643993,308.4857400643993 0 0 0 641.4902029543464,726.677046878204 Z "/><path class="wedge" fill="rgb(229,182,178)" d=" M 512.6474303429425,549.3048531284438 L 450.1198620519018,564.8406491900662 A 378.8,378.8 0 0,1 457.1359811955743,357.5152801827601 L 518.4702035105718,377.2426958440559 A 314.37129711332796,314.37129711332796 0 0 0 512.6474303429425,549.3048531284438 Z "/><path class="wedge" fill="rgb(229,182,178)" d=" M 638.1275116232748,731.5073769692153 L 601.316409654831,784.3845982230587 A 378.8,378.8 0 0,1 477.1573201069712,639.3048479920611 L 535.0861863076186,611.1037094269864 A 314.37129711332796,314.37129711332796 0 0 0 638.1275116232748,731.5073769692153 Z "/><path class="wedge" fill="rgb(229,182,178)" d=" M 632.8901858039321,733.9980373212738 L 598.526725113619,782.4238265790278 A 378.8,378.8 0 0,1 477.1573201069712,639.3048479920611 L 530.5462127112819,613.3138756682624 A 319.4206728241967,319.4206728241967 0 0 0 632.8901858039321,733.9980373212738 Z "/><path class="wedge" fill="rgb(229,182,178)" d=" M 635.2425694182964,735.6514454463818 L 601.316409654831,784.3845982230587 A 378.8,378.8 0 0,1 598.526725113619,782.4238265790278 L 632.8901858039321,733.9980373212738 A 319.4206728241967,319.4206728241967 0 0 0 635.2425694182964,735.6514454463818 Z "/><path class="wedge" fill="url(#hiddenPattern)" d=" M 635.2425694182964,735.6514454463818 L 601.316409654831,784.3845982230587 A 378.8,378.8 0 0,1 598.526725113619,782.4238265790278 L 632.8901858039321,733.9980373212738 A 319.4206728241967,319.4206728241967 0 0 0 635.2425694182964,735.6514454463818 Z "/><path class="wedge" fill="rgb(229,186,178)" d=" M 535.0861863076186,611.1037094269864 L 477.1573201069712,639.3048479920611 A 378.8,378.8 0 0,1 474.82325747176753,634.4220493914078 L 533.1491158266981,607.0514081344031 A 314.37129711332796,314.37129711332796 0 0 0 535.0861863076186,611.1037094269864 Z "/><path class="wedge" fill="url(#hiddenPattern)" d=" M 535.0861863076186,611.1037094269864 L 477.1573201069712,639.3048479920611 A 378.8,378.8 0 0,1 474.82325747176753,634.4220493914078 L 533.1491158266981,607.0514081344031 A 314.37129711332796,314.37129711332796 0 0 0 535.0861863076186,611.1037094269864 Z "/><path class="wedge" fill="rgb(229,186,178)" d=" M 533.1491158266981,607.0514081344031 L 474.82325747176753,634.4220493914078 A 378.8,378.8 0 0,1 466.8255630107229,616.1422725218032 L 526.5117198878525,591.880771478015 A 314.37129711332796,314.37129711332796 0 0 0 533.1491158266981,607.0514081344031 Z "/><path class="wedge" fill="rgb(229,186,178)" d=" M 528.5729106805998,609.1855787989854 L 474.8171872576681,634.4091133476637 A 378.8,378.8 0 0,1 466.8255630107229,616.1422725218032 L 521.8340247410079,593.782182318075 A 319.4206728241967,319.4206728241967 0 0 0 528.5729106805998,609.1855787989854 Z "/><path class="wedge" fill="rgb(229,186,178)" d=" M 528.5780293497439,609.1964870349843 L 474.82325747176753,634.4220493914078 A 378.8,378.8 0 0,1 474.8171872576681,634.4091133476637 L 528.5729106805998,609.1855787989854 A 319.4206728241967,319.4206728241967 0 0 0 528.5780293497439,609.1964870349843 Z "/><path class="wedge" fill="url(#hiddenPattern)" d=" M 528.5780293497439,609.1964870349843 L 474.82325747176753,634.4220493914078 A 378.8,378.8 0 0,1 474.8171872576681,634.4091133476637 L 528.5729106805998,609.1855787989854 A 319.4206728241967,319.4206728241967 0 0 0 528.5780293497439,609.1964870349843 Z "/><path class="wedge" fill="rgb(229,186,178)" d=" M 526.5117198878525,591.880771478015 L 466.8255630107229,616.1422725218032 A 378.8,378.8 0 0,1 458.92048749327165,594.8930788665978 L 519.9511896761314,574.2457752478164 A 314.37129711332796,314.37129711332796 0 0 0 526.5117198878525,591.880771478015 Z "/><path class="wedge" fill="url(#hiddenPattern)" d=" M 526.5117198878525,591.880771478015 L 466.8255630107229,616.1422725218032 A 378.8,378.8 0 0,1 458.92048749327165,594.8930788665978 L 519.9511896761314,574.2457752478164 A 314.37129711332796,314.37129711332796 0 0 0 526.5117198878525,591.880771478015 Z "/><path class="wedge" fill="rgb(229,186,178)" d=" M 519.9511896761314,574.2457752478164 L 458.92048749327165,594.8930788665978 A 378.8,378.8 0 0,1 450.5570564602127,566.5825874477031 L 513.0102639575977,550.7505114957739 A 314.37129711332796,314.37129711332796 0 0 0 519.9511896761314,574.2457752478164 Z "/><path class="wedge" fill="rgb(229,186,178)" d=" M 514.2340450610809,573.0602757580655 L 457.81277032794986,591.5682268423872 A 378.8,378.8 0 0,1 450.5570564602127,566.5825874477031 L 508.1157108333817,551.9912954349588 A 319.4206728241967,319.4206728241967 0 0 0 514.2340450610809,573.0602757580655 Z "/><path class="wedge" fill="rgb(229,186,178)" d=" M 515.1681204629974,575.8639359233617 L 458.92048749327165,594.8930788665978 A 378.8,378.8 0 0,1 457.81277032794986,591.5682268423872 L 514.2340450610809,573.0602757580655 A 319.4206728241967,319.4206728241967 0 0 0 515.1681204629974,575.8639359233617 Z "/><path class="wedge" fill="url(#hiddenPattern)" d=" M 515.1681204629974,575.8639359233617 L 458.92048749327165,594.8930788665978 A 378.8,378.8 0 0,1 457.81277032794986,591.5682268423872 L 514.2340450610809,573.0602757580655 A 319.4206728241967,319.4206728241967 0 0 0 515.1681204629974,575.8639359233617 Z "/><path class="wedge" fill="rgb(229,187,178)" d=" M 513.0102639575977,550.7505114957739 L 450.5570564602127,566.5825874477031 A 378.8,378.8 0 0,1 450.1198620519018,564.8406491900662 L 512.6474303429425,549.3048531284438 A 314.37129711332796,314.37129711332796 0 0 0 513.0102639575977,550.7505114957739 Z "/><path class="wedge" fill="url(#hiddenPattern)" d=" M 513.0102639575977,550.7505114957739 L 450.5570564602127,566.5825874477031 A 378.8,378.8 0 0,1 450.1198620519018,564.8406491900662 L 512.6474303429425,549.3048531284438 A 314.37129711332796,314.37129711332796 0 0 0 513.0102639575977,550.7505114957739 Z "/><path class="wedge" fill="rgb(229,191,178)" d=" M 524.0730799974933,379.04479374608434 L 457.1359811955743,357.5152801827601 A 378.8,378.8 0 0,1 487.8059220538531,287.4049580171334 L 549.0499527625342,321.9486094287222 A 308.4857400643993,308.4857400643993 0 0 0 524.0730799974933,379.04479374608434 Z "/><path class="wedge" fill="rgb(229,191,178)" d=" M 539.1810068152785,327.78498305696814 L 482.0913520066531,297.92147573630905 A 378.8,378.8 0 0,1 487.8059220538531,287.4049580171334 L 543.9236065992891,319.057181271085 A 314.37129711332796,314.37129711332796 0 0 0 539.1810068152785,327.78498305696814 Z "/><path class="wedge" fill="rgb(229,191,178)" d=" M 518.4702035105718,377.2426958440559 L 457.1359811955743,357.5152801827601 A 378.8,378.8 0 0,1 465.8592164679595,333.25853126768726 L 525.709735684818,357.11168839900904 A 314.37129711332796,314.37129711332796 0 0 0 518.4702035105718,377.2426958440559 Z "/><path class="wedge" fill="rgb(229,191,178)" d=" M 513.7398155464856,375.459198909222 L 457.226665056574,357.23371352321107 A 378.8,378.8 0 0,1 465.8592164679595,333.25853126768726 L 521.019159210726,355.2422800941688 A 319.4206728241967,319.4206728241967 0 0 0 513.7398155464856,375.459198909222 Z "/><path class="wedge" fill="rgb(229,191,178)" d=" M 513.663346961758,375.6966281907373 L 457.1359811955743,357.5152801827601 A 378.8,378.8 0 0,1 457.226665056574,357.23371352321107 L 513.7398155464856,375.459198909222 A 319.4206728241967,319.4206728241967 0 0 0 513.663346961758,375.6966281907373 Z "/><path class="wedge" fill="url(#hiddenPattern)" d=" M 513.663346961758,375.6966281907373 L 457.1359811955743,357.5152801827601 A 378.8,378.8 0 0,1 457.226665056574,357.23371352321107 L 513.7398155464856,375.459198909222 A 319.4206728241967,319.4206728241967 0 0 0 513.663346961758,375.6966281907373 Z "/><path class="wedge" fill="rgb(229,191,178)" d=" M 525.709735684818,357.11168839900904 L 465.8592164679595,333.25853126768726 A 378.8,378.8 0 0,1 474.62995617659544,312.9905137115576 L 532.9886924399584,340.2909836233064 A 314.37129711332796,314.37129711332796 0 0 0 525.709735684818,357.11168839900904 Z "/><path class="wedge" fill="rgb(229,191,178)" d=" M 521.0191962317592,355.2421872038633 L 465.85926037108976,333.2584211093578 A 378.8,378.8 0 0,1 474.62995617659544,312.9905137115576 L 528.4150292711757,338.15140415807696 A 319.4206728241967,319.4206728241967 0 0 0 521.0191962317592,355.2421872038633 Z "/><path class="wedge" fill="rgb(229,191,178)" d=" M 521.019159210726,355.2422800941688 L 465.8592164679595,333.25853126768726 A 378.8,378.8 0 0,1 465.85926037108976,333.2584211093578 L 521.0191962317592,355.2421872038633 A 319.4206728241967,319.4206728241967 0 0 0 521.019159210726,355.2422800941688 Z "/><path class="wedge" fill="url(#hiddenPattern)" d=" M 521.019159210726,355.2422800941688 L 465.8592164679595,333.25853126768726 A 378.8,378.8 0 0,1 465.85926037108976,333.2584211093578 L 521.0191962317592,355.2421872038633 A 319.4206728241967,319.4206728241967 0 0 0 521.019159210726,355.2422800941688 Z "/><path class="wedge" fill="rgb(229,192,178)" d=" M 532.9886924399584,340.2909836233064 L 474.62995617659544,312.9905137115576 A 378.8,378.8 0 0,1 475.0586329200664,312.07732479732505 L 533.3444571281509,339.5331156627023 A 314.37129711332796,314.37129711332796 0 0 0 532.9886924399584,340.2909836233064 Z "/><path class="wedge" fill="url(#hiddenPattern)" d=" M 532.9886924399584,340.2909836233064 L 474.62995617659544,312.9905137115576 A 378.8,378.8 0 0,1 475.0586329200664,312.07732479732505 L 533.3444571281509,339.5331156627023 A 314.37129711332796,314.37129711332796 0 0 0 532.9886924399584,340.2909836233064 Z "/><path class="wedge" fill="rgb(229,192,178)" d=" M 533.3444571281509,339.5331156627023 L 475.0586329200664,312.07732479732505 A 378.8,378.8 0 0,1 482.09082983579725,297.9224739667421 L 539.1805734585486,327.7858115020475 A 314.37129711332796,314.37129711332796 0 0 0 533.3444571281509,339.5331156627023 Z "/><path class="wedge" fill="rgb(229,192,178)" d=" M 539.1805734585486,327.7858115020475 L 482.09082983579725,297.9224739667421 A 378.8,378.8 0 0,1 482.0913520066531,297.92147573630905 L 539.1810068152785,327.78498305696814 A 314.37129711332796,314.37129711332796 0 0 0 539.1805734585486,327.7858115020475 Z "/><path class="wedge" fill="url(#hiddenPattern)" d=" M 539.1805734585486,327.7858115020475 L 482.09082983579725,297.9224739667421 A 378.8,378.8 0 0,1 482.0913520066531,297.92147573630905 L 539.1810068152785,327.78498305696814 A 314.37129711332796,314.37129711332796 0 0 0 539.1805734585486,327.7858115020475 Z "/><path class="wedge" fill="rgb(229,193,178)" d=" M 570.5225008132097,300.85125475276084 L 507.1784040273605,256.61420449204917 A 378.8,378.8 0 0,1 515.2229557696112,245.52756822491452 L 576.926247822659,292.0259011326656 A 301.53816457406833,301.53816457406833 0 0 0 570.5225008132097,300.85125475276084 Z "/><path class="wedge" fill="url(#hiddenPattern)" d=" M 570.5225008132097,300.85125475276084 L 507.1784040273605,256.61420449204917 A 378.8,378.8 0 0,1 515.2229557696112,245.52756822491452 L 576.926247822659,292.0259011326656 A 301.53816457406833,301.53816457406833 0 0 0 570.5225008132097,300.85125475276084 Z "/><path class="wedge" fill="rgb(226,188,168)" d=" M 649.3710333518262,233.44722310977025 L 600.2249997320221,163.37805091622067 A 378.8,378.8 0 0,1 600.249465785676,163.36089203488154 L 649.3899715280389,233.43394111819902 A 293.21366047990944,293.21366047990944 0 0 0 649.3710333518262,233.44722310977025 Z "/><path class="wedge" fill="url(#hiddenPattern)" d=" M 649.3710333518262,233.44722310977025 L 600.2249997320221,163.37805091622067 A 378.8,378.8 0 0,1 600.249465785676,163.36089203488154 L 649.3899715280389,233.43394111819902 A 293.21366047990944,293.21366047990944 0 0 0 649.3710333518262,233.44722310977025 Z "/><path class="wedge" fill="rgb(223,181,159)" d=" M 655.2513263424657,241.72540426535255 L 600.2914107410012,163.33148130038506 A 378.8,378.8 0 0,1 601.1688428426163,162.71818416895042 L 655.9069907905828,241.2671156701739 A 283.05972905429314,283.05972905429314 0 0 0 655.2513263424657,241.72540426535255 Z "/><path class="wedge" fill="url(#hiddenPattern)" d=" M 655.2513263424657,241.72540426535255 L 600.2914107410012,163.33148130038506 A 378.8,378.8 0 0,1 601.1688428426163,162.71818416895042 L 655.9069907905828,241.2671156701739 A 283.05972905429314,283.05972905429314 0 0 0 655.2513263424657,241.72540426535255 Z "/><path class="wedge" fill="rgb(219,174,149)" d=" M 676.7663049062024,242.75515290207017 L 620.252474142769,150.25524496588457 A 378.8,378.8 0 0,1 620.3018080161892,150.22510906563633 L 676.8015213695845,242.73364070864199 A 270.40237070968385,270.40237070968385 0 0 0 676.7663049062024,242.75515290207017 Z "/><path class="wedge" fill="url(#hiddenPattern)" d=" M 676.7663049062024,242.75515290207017 L 620.252474142769,150.25524496588457 A 378.8,378.8 0 0,1 620.3018080161892,150.22510906563633 L 676.8015213695845,242.73364070864199 A 270.40237070968385,270.40237070968385 0 0 0 676.7663049062024,242.75515290207017 Z "/><path class="wedge" fill="rgb(216,167,140)" d=" M 685.2594533984259,256.5617398032174 L 620.3152681073148,150.21688868114052 A 378.8,378.8 0 0,1 620.335458885721,150.20455915521376 L 685.2730023658359,256.5534661080878 A 254.19271865856766,254.19271865856766 0 0 0 685.2594533984259,256.5617398032174 Z "/><path class="wedge" fill="url(#hiddenPattern)" d=" M 685.2594533984259,256.5617398032174 L 620.3152681073148,150.21688868114052 A 378.8,378.8 0 0,1 620.335458885721,150.20455915521376 L 685.2730023658359,256.5534661080878 A 254.19271865856766,254.19271865856766 0 0 0 685.2594533984259,256.5617398032174 Z "/><path class="wedge" fill="rgb(216,168,140)" d=" M 696.4722598254177,274.8893672664029 L 620.3392542307929,150.20224171594577 A 378.8,378.8 0 0,1 723.6066282813399,106.58325513637999 L 759.9122249206777,248.09303384996693 A 232.70717396495255,232.70717396495255 0 0 0 696.4722598254177,274.8893672664029 Z "/><path class="wedge" fill="rgb(216,168,140)" d=" M 754.2415727163514,227.36673538868587 L 723.1129679608996,106.71026217120061 A 378.8,378.8 0 0,1 723.6066282813399,106.58325513637999 L 754.5728421433487,227.28150766041284 A 254.19271865856766,254.19271865856766 0 0 0 754.2415727163514,227.36673538868587 Z "/><path class="wedge" fill="rgb(219,175,149)" d=" M 685.2755492219133,256.5519109967154 L 620.3392542307929,150.20224171594577 A 378.8,378.8 0 0,1 654.2999146196271,131.77497016073886 L 708.0647588092365,244.18634010421874 A 254.19271865856766,254.19271865856766 0 0 0 685.2755492219133,256.5519109967154 Z "/><path class="wedge" fill="rgb(219,175,149)" d=" M 701.047762663614,229.5741810239866 L 654.2677683665859,131.7903471385696 A 378.8,378.8 0 0,1 654.2999146196271,131.77497016073886 L 701.0707099261055,229.56320433111495 A 270.40237070968385,270.40237070968385 0 0 0 701.047762663614,229.5741810239866 Z "/><path class="wedge" fill="rgb(223,182,159)" d=" M 676.8282519535416,242.71731709309768 L 620.3392542307929,150.20224171594577 A 378.8,378.8 0 0,1 654.1712848092579,131.83652181887436 L 700.9788888974156,229.60714233080066 A 270.40237070968385,270.40237070968385 0 0 0 676.8282519535416,242.71731709309768 Z "/><path class="wedge" fill="rgb(223,182,159)" d=" M 695.4869306936555,218.20328641489039 L 654.1360426819414,131.853396192609 A 378.8,378.8 0 0,1 654.1712848092579,131.83652181887436 L 695.5132655062466,218.1906769754572 A 283.05972905429314,283.05972905429314 0 0 0 695.4869306936555,218.20328641489039 Z "/><path class="wedge" fill="rgb(226,189,168)" d=" M 670.2321530223584,231.91453045473932 L 620.3392542307929,150.20224171594577 A 378.8,378.8 0 0,1 653.9050065676772,131.96412990111412 L 695.3142880856687,218.28603259632288 A 283.05972905429314,283.05972905429314 0 0 0 670.2321530223584,231.91453045473932 Z "/><path class="wedge" fill="rgb(226,189,168)" d=" M 690.9142654244837,209.13495586642944 L 653.8943147406279,131.96925905876043 A 378.8,378.8 0 0,1 653.9050065676772,131.96412990111412 L 690.9225415325786,209.13098559428414 A 293.21366047990944,293.21366047990944 0 0 0 690.9142654244837,209.13495586642944 Z "/><path class="wedge" fill="rgb(229,197,178)" d=" M 664.940658983846,223.248365545363 L 620.3392542307929,150.20224171594577 A 378.8,378.8 0 0,1 653.8895034708427,131.97156728890042 L 690.9105412163916,209.1367425734215 A 293.21366047990944,293.21366047990944 0 0 0 664.940658983846,223.248365545363 Z "/><path class="wedge" fill="rgb(229,197,178)" d=" M 687.264733549364,201.65290164211547 L 653.8330002139496,131.99868124181597 A 378.8,378.8 0 0,1 653.8895034708427,131.97156728890042 L 687.3097121353618,201.6313179789779 A 301.53816457406833,301.53816457406833 0 0 0 687.264733549364,201.65290164211547 Z "/><path class="wedge" fill="rgb(229,197,178)" d=" M 660.6025300423123,216.14357802564808 L 620.3392542307929,150.20224171594577 A 378.8,378.8 0 0,1 653.8311293219136,131.9995792147239 L 687.2632442532957,201.6536164602319 A 301.53816457406833,301.53816457406833 0 0 0 660.6025300423123,216.14357802564808 Z "/><path class="wedge" fill="rgb(229,197,178)" d=" M 687.2632442532957,201.6536164602319 L 653.8311293219136,131.9995792147239 A 378.8,378.8 0 0,1 653.8330002139496,131.99868124181597 L 687.264733549364,201.65290164211547 A 301.53816457406833,301.53816457406833 0 0 0 687.2632442532957,201.6536164602319 Z "/><path class="wedge" fill="url(#hiddenPattern)" d=" M 687.2632442532957,201.6536164602319 L 653.8311293219136,131.9995792147239 A 378.8,378.8 0 0,1 653.8330002139496,131.99868124181597 L 687.264733549364,201.65290164211547 A 301.53816457406833,301.53816457406833 0 0 0 687.2632442532957,201.6536164602319 Z "/><path class="wedge" fill="rgb(226,190,168)" d=" M 690.9105412163916,209.1367425734215 L 653.8895034708427,131.97156728890042 A 378.8,378.8 0 0,1 653.8943147406279,131.96925905876043 L 690.9142654244837,209.13495586642944 A 293.21366047990944,293.21366047990944 0 0 0 690.9105412163916,209.1367425734215 Z "/><path class="wedge" fill="url(#hiddenPattern)" d=" M 690.9105412163916,209.1367425734215 L 653.8895034708427,131.97156728890042 A 378.8,378.8 0 0,1 653.8943147406279,131.96925905876043 L 690.9142654244837,209.13495586642944 A 293.21366047990944,293.21366047990944 0 0 0 690.9105412163916,209.1367425734215 Z "/><path class="wedge" fill="rgb(223,183,159)" d=" M 695.3142880856687,218.28603259632288 L 653.9050065676772,131.96412990111412 A 378.8,378.8 0 0,1 654.1360426819414,131.853396192609 L 695.4869306936555,218.20328641489039 A 283.05972905429314,283.05972905429314 0 0 0 695.3142880856687,218.28603259632288 Z "/><path class="wedge" fill="url(#hiddenPattern)" d=" M 695.3142880856687,218.28603259632288 L 653.9050065676772,131.96412990111412 A 378.8,378.8 0 0,1 654.1360426819414,131.853396192609 L 695.4869306936555,218.20328641489039 A 283.05972905429314,283.05972905429314 0 0 0 695.3142880856687,218.28603259632288 Z "/><path class="wedge" fill="rgb(219,176,149)" d=" M 700.9788888974156,229.60714233080066 L 654.1712848092579,131.83652181887436 A 378.8,378.8 0 0,1 654.2677683665859,131.7903471385696 L 701.047762663614,229.5741810239866 A 270.40237070968385,270.40237070968385 0 0 0 700.9788888974156,229.60714233080066 Z "/><path class="wedge" fill="url(#hiddenPattern)" d=" M 700.9788888974156,229.60714233080066 L 654.1712848092579,131.83652181887436 A 378.8,378.8 0 0,1 654.2677683665859,131.7903471385696 L 701.047762663614,229.5741810239866 A 270.40237070968385,270.40237070968385 0 0 0 700.9788888974156,229.60714233080066 Z "/><path class="wedge" fill="rgb(219,176,149)" d=" M 708.0647588092365,244.18634010421874 L 654.2999146196271,131.77497016073886 A 378.8,378.8 0 0,1 722.3945758513776,106.89635350466267 L 753.7594976282251,227.49161147625588 A 254.19271865856766,254.19271865856766 0 0 0 708.0647588092365,244.18634010421874 Z "/><path class="wedge" fill="rgb(219,176,149)" d=" M 749.1670533932554,211.9376464748765 L 721.6768938137815,107.08376165387489 A 378.8,378.8 0 0,1 722.3945758513776,106.89635350466267 L 749.679363119712,211.80386715112434 A 270.40237070968385,270.40237070968385 0 0 0 749.1670533932554,211.9376464748765 Z "/><path class="wedge" fill="rgb(223,183,159)" d=" M 701.0707099261055,229.56320433111495 L 654.2999146196271,131.77497016073886 A 378.8,378.8 0 0,1 720.9122309566761,107.2850909982609 L 748.621206906046,212.08136329645885 A 270.40237070968385,270.40237070968385 0 0 0 701.0707099261055,229.56320433111495 Z "/><path class="wedge" fill="rgb(223,183,159)" d=" M 743.6253352770331,200.31604758527334 L 718.5564663045678,107.9160947216559 A 378.8,378.8 0 0,1 720.9122309566761,107.2850909982609 L 745.3856893006378,199.84452767245278 A 283.05972905429314,283.05972905429314 0 0 0 743.6253352770331,200.31604758527334 Z "/><path class="wedge" fill="rgb(226,190,168)" d=" M 695.6093846173115,218.14468226670672 L 654.2999146196271,131.77497016073886 A 378.8,378.8 0 0,1 717.4438695415706,108.21977052760315 L 742.7939431485203,200.54297047690955 A 283.05972905429314,283.05972905429314 0 0 0 695.6093846173115,218.14468226670672 Z "/><path class="wedge" fill="rgb(226,190,168)" d=" M 735.7216480648783,191.99183320771544 L 711.7805554989927,109.82221839055859 A 378.8,378.8 0 0,1 717.4438695415706,108.21977052760315 L 740.1053889330715,190.7514435466136 A 293.21366047990944,293.21366047990944 0 0 0 735.7216480648783,191.99183320771544 Z "/><path class="wedge" fill="rgb(226,190,168)" d=" M 691.2282237803748,208.9845647392396 L 654.2999146196271,131.77497016073886 A 378.8,378.8 0 0,1 655.7241384639552,131.09742267768075 L 692.3306574834852,208.4601028130083 A 293.21366047990944,293.21366047990944 0 0 0 691.2282237803748,208.9845647392396 Z "/><path class="wedge" fill="url(#hiddenPattern)" d=" M 691.2282237803748,208.9845647392396 L 654.2999146196271,131.77497016073886 A 378.8,378.8 0 0,1 655.7241384639552,131.09742267768075 L 692.3306574834852,208.4601028130083 A 293.21366047990944,293.21366047990944 0 0 0 691.2282237803748,208.9845647392396 Z "/><path class="wedge" fill="rgb(229,197,178)" d=" M 692.3306574834852,208.4601028130083 L 655.7241384639552,131.09742267768075 A 378.8,378.8 0 0,1 671.3249959138356,124.1414655207235 L 704.4066461833391,203.0757795286027 A 293.21366047990944,293.21366047990944 0 0 0 692.3306574834852,208.4601028130083 Z "/><path class="wedge" fill="rgb(229,197,178)" d=" M 691.1258534481653,199.8332018330343 L 658.6834383657236,129.7127275262934 A 378.8,378.8 0 0,1 671.3249959138356,124.1414655207235 L 701.188979267635,195.39828071497521 A 301.53816457406833,301.53816457406833 0 0 0 691.1258534481653,199.8332018330343 Z "/><path class="wedge" fill="rgb(229,197,178)" d=" M 688.7701463182723,200.9354680274481 L 655.7241384639552,131.09742267768075 A 378.8,378.8 0 0,1 658.6834383657236,129.7127275262934 L 691.1258534481653,199.8332018330343 A 301.53816457406833,301.53816457406833 0 0 0 688.7701463182723,200.9354680274481 Z "/><path class="wedge" fill="url(#hiddenPattern)" d=" M 688.7701463182723,200.9354680274481 L 655.7241384639552,131.09742267768075 A 378.8,378.8 0 0,1 658.6834383657236,129.7127275262934 L 691.1258534481653,199.8332018330343 A 301.53816457406833,301.53816457406833 0 0 0 688.7701463182723,200.9354680274481 Z "/><path class="wedge" fill="rgb(226,190,168)" d=" M 704.4066461833391,203.0757795286027 L 671.3249959138356,124.1414655207235 A 378.8,378.8 0 0,1 672.2860177036172,123.74025007148475 L 705.1505340312347,202.76521498131547 A 293.21366047990944,293.21366047990944 0 0 0 704.4066461833391,203.0757795286027 Z "/><path class="wedge" fill="url(#hiddenPattern)" d=" M 704.4066461833391,203.0757795286027 L 671.3249959138356,124.1414655207235 A 378.8,378.8 0 0,1 672.2860177036172,123.74025007148475 L 705.1505340312347,202.76521498131547 A 293.21366047990944,293.21366047990944 0 0 0 704.4066461833391,203.0757795286027 Z "/><path class="wedge" fill="rgb(229,198,178)" d=" M 705.1505340312347,202.76521498131547 L 672.2860177036172,123.74025007148475 A 378.8,378.8 0 0,1 694.501413458872,115.30856964593875 L 722.3465675803585,196.23859438582673 A 293.21366047990944,293.21366047990944 0 0 0 705.1505340312347,202.76521498131547 Z "/><path class="wedge" fill="rgb(229,198,178)" d=" M 703.6344477500797,194.38597069222732 L 674.3970563359666,122.8697756264823 A 378.8,378.8 0 0,1 694.501413458872,115.30856964593875 L 719.6382253287029,188.36698396218623 A 301.53816457406833,301.53816457406833 0 0 0 703.6344477500797,194.38597069222732 Z "/><path class="wedge" fill="rgb(229,198,178)" d=" M 701.953986518444,195.07889906195982 L 672.2860177036172,123.74025007148475 A 378.8,378.8 0 0,1 674.3970563359666,122.8697756264823 L 703.6344477500797,194.38597069222732 A 301.53816457406833,301.53816457406833 0 0 0 701.953986518444,195.07889906195982 Z "/><path class="wedge" fill="url(#hiddenPattern)" d=" M 701.953986518444,195.07889906195982 L 672.2860177036172,123.74025007148475 A 378.8,378.8 0 0,1 674.3970563359666,122.8697756264823 L 703.6344477500797,194.38597069222732 A 301.53816457406833,301.53816457406833 0 0 0 701.953986518444,195.07889906195982 Z "/><path class="wedge" fill="rgb(226,191,168)" d=" M 722.3465675803585,196.23859438582673 L 694.501413458872,115.30856964593875 A 378.8,378.8 0 0,1 711.7805554989927,109.82221839055859 L 735.7216480648783,191.99183320771544 A 293.21366047990944,293.21366047990944 0 0 0 722.3465675803585,196.23859438582673 Z "/><path class="wedge" fill="url(#hiddenPattern)" d=" M 722.3465675803585,196.23859438582673 L 694.501413458872,115.30856964593875 A 378.8,378.8 0 0,1 711.7805554989927,109.82221839055859 L 735.7216480648783,191.99183320771544 A 293.21366047990944,293.21366047990944 0 0 0 722.3465675803585,196.23859438582673 Z "/><path class="wedge" fill="rgb(223,184,159)" d=" M 742.7939431485203,200.54297047690955 L 717.4438695415706,108.21977052760315 A 378.8,378.8 0 0,1 718.5564663045678,107.9160947216559 L 743.6253352770331,200.31604758527334 A 283.05972905429314,283.05972905429314 0 0 0 742.7939431485203,200.54297047690955 Z "/><path class="wedge" fill="url(#hiddenPattern)" d=" M 742.7939431485203,200.54297047690955 L 717.4438695415706,108.21977052760315 A 378.8,378.8 0 0,1 718.5564663045678,107.9160947216559 L 743.6253352770331,200.31604758527334 A 283.05972905429314,283.05972905429314 0 0 0 742.7939431485203,200.54297047690955 Z "/><path class="wedge" fill="rgb(219,178,149)" d=" M 748.621206906046,212.08136329645885 L 720.9122309566761,107.2850909982609 A 378.8,378.8 0 0,1 721.6768938137815,107.08376165387489 L 749.1670533932554,211.9376464748765 A 270.40237070968385,270.40237070968385 0 0 0 748.621206906046,212.08136329645885 Z "/><path class="wedge" fill="url(#hiddenPattern)" d=" M 748.621206906046,212.08136329645885 L 720.9122309566761,107.2850909982609 A 378.8,378.8 0 0,1 721.6768938137815,107.08376165387489 L 749.1670533932554,211.9376464748765 A 270.40237070968385,270.40237070968385 0 0 0 748.621206906046,212.08136329645885 Z "/><path class="wedge" fill="rgb(216,171,140)" d=" M 753.7594976282251,227.49161147625588 L 722.3945758513776,106.89635350466267 A 378.8,378.8 0 0,1 723.1129679608996,106.71026217120061 L 754.2415727163514,227.36673538868587 A 254.19271865856766,254.19271865856766 0 0 0 753.7594976282251,227.49161147625588 Z "/><path class="wedge" fill="url(#hiddenPattern)" d=" M 753.7594976282251,227.49161147625588 L 722.3945758513776,106.89635350466267 A 378.8,378.8 0 0,1 723.1129679608996,106.71026217120061 L 754.2415727163514,227.36673538868587 A 254.19271865856766,254.19271865856766 0 0 0 753.7594976282251,227.49161147625588 Z "/><path class="wedge" fill="rgb(213,164,130)" d=" M 759.9122249206777,248.09303384996693 L 723.6066282813399,106.58325513637999 A 378.8,378.8 0 0,1 727.2187893894159,105.67542624888534 L 762.1312740319936,247.53532979808566 A 232.70717396495255,232.70717396495255 0 0 0 759.9122249206777,248.09303384996693 Z "/><path class="wedge" fill="url(#hiddenPattern)" d=" M 759.9122249206777,248.09303384996693 L 723.6066282813399,106.58325513637999 A 378.8,378.8 0 0,1 727.2187893894159,105.67542624888534 L 762.1312740319936,247.53532979808566 A 232.70717396495255,232.70717396495255 0 0 0 759.9122249206777,248.09303384996693 Z "/><path class="wedge" fill="rgb(213,164,130)" d=" M 770.1271587146043,276.25624926888906 L 728.8523137160108,105.27724992452937 A 378.8,378.8 0 0,1 945.7333531026036,116.97825547141076 L 886.3025706420465,282.5240592315255 A 202.90960501932898,202.90960501932898 0 0 0 770.1271587146043,276.25624926888906 Z "/><path class="wedge" fill="rgb(213,164,130)" d=" M 895.7039822374455,254.2407481225181 L 944.6480203242797,116.59048493838475 A 378.8,378.8 0 0,1 945.7333531026036,116.97825547141076 L 896.3707317719104,254.4789661396442 A 232.70717396495255,232.70717396495255 0 0 0 895.7039822374455,254.2407481225181 Z "/><path class="wedge" fill="rgb(216,171,140)" d=" M 763.1347925896623,247.2907192194673 L 728.8523137160108,105.27724992452937 A 378.8,378.8 0 0,1 939.6498214878026,114.85251421462635 L 892.6334523373624,253.17306529369114 A 232.70717396495255,232.70717396495255 0 0 0 763.1347925896623,247.2907192194673 Z "/><path class="wedge" fill="rgb(216,171,140)" d=" M 898.270108248245,232.3999680313561 L 937.7454308709162,114.21082526799182 A 378.8,378.8 0 0,1 939.6498214878026,114.85251421462635 L 899.5480444369837,232.8305716688381 A 254.19271865856766,254.19271865856766 0 0 0 898.270108248245,232.3999680313561 Z "/><path class="wedge" fill="rgb(219,178,149)" d=" M 758.0929452105785,226.40511638432372 L 728.8523137160108,105.27724992452937 A 378.8,378.8 0 0,1 921.3298018567971,109.13879339333994 L 887.2544446590439,228.99639471736276 A 254.19271865856766,254.19271865856766 0 0 0 758.0929452105785,226.40511638432372 Z "/><path class="wedge" fill="rgb(219,178,149)" d=" M 886.7958163280413,212.06345528132567 L 914.4776272647099,107.26000410233371 A 378.8,378.8 0 0,1 921.3298018567971,109.13879339333994 L 891.6871686359004,213.40460913125185 A 270.40237070968385,270.40237070968385 0 0 0 886.7958163280413,212.06345528132567 Z "/><path class="wedge" fill="rgb(223,185,159)" d=" M 754.2891509444704,210.64808719734248 L 728.8523137160108,105.27724992452937 A 378.8,378.8 0 0,1 900.451253482657,103.839771519517 L 876.7832378614962,209.62195845246572 A 270.40237070968385,270.40237070968385 0 0 0 754.2891509444704,210.64808719734248 Z "/><path class="wedge" fill="rgb(223,185,159)" d=" M 879.1918711039239,197.19080372865028 L 899.9761403175264,103.73378882867684 A 378.8,378.8 0 0,1 900.451253482657,103.839771519517 L 879.5469012089713,197.26999969420905 A 283.05972905429314,283.05972905429314 0 0 0 879.1918711039239,197.19080372865028 Z "/><path class="wedge" fill="rgb(226,192,168)" d=" M 751.3189460971687,198.3441608553606 L 728.8523137160108,105.27724992452937 A 378.8,378.8 0 0,1 898.7169859907102,103.45600881786913 L 878.2509632829467,196.9832315676262 A 283.05972905429314,283.05972905429314 0 0 0 751.3189460971687,198.3441608553606 Z "/><path class="wedge" fill="rgb(226,192,168)" d=" M 879.2343041008355,186.80679175758024 L 897.1832206321387,103.12371158123557 A 378.8,378.8 0 0,1 898.7169859907102,103.45600881786913 L 880.4215294310997,187.0640095218904 A 293.21366047990944,293.21366047990944 0 0 0 879.2343041008355,186.80679175758024 Z "/><path class="wedge" fill="rgb(229,199,178)" d=" M 748.936201173748,188.47375812669588 L 728.8523137160108,105.27724992452937 A 378.8,378.8 0 0,1 890.3299032465908,101.71983180408512 L 873.9294300853996,185.72010556874181 A 293.21366047990944,293.21366047990944 0 0 0 748.936201173748,188.47375812669588 Z "/><path class="wedge" fill="rgb(229,199,178)" d=" M 838.1543281093801,172.6534982253561 L 843.3843908316848,95.56888460302213 A 378.8,378.8 0 0,1 890.3299032465908,101.71983180408512 L 875.5246122925372,177.54986921110196 A 301.53816457406833,301.53816457406833 0 0 0 838.1543281093801,172.6534982253561 Z "/><path class="wedge" fill="rgb(229,199,178)" d=" M 746.9827538794013,180.38169954547703 L 728.8523137160108,105.27724992452937 A 378.8,378.8 0 0,1 738.4437245451694,103.09324916551179 L 754.6178552973008,178.64315788681142 A 301.53816457406833,301.53816457406833 0 0 0 746.9827538794013,180.38169954547703 Z "/><path class="wedge" fill="url(#hiddenPattern)" d=" M 746.9827538794013,180.38169954547703 L 728.8523137160108,105.27724992452937 A 378.8,378.8 0 0,1 738.4437245451694,103.09324916551179 L 754.6178552973008,178.64315788681142 A 301.53816457406833,301.53816457406833 0 0 0 746.9827538794013,180.38169954547703 Z "/><path class="wedge" fill="rgb(229,199,178)" d=" M 754.6178552973008,178.64315788681142 L 738.4437245451694,103.09324916551179 A 378.8,378.8 0 0,1 838.7827241174663,95.28479076370928 L 834.4912390518642,172.42734950604984 A 301.53816457406833,301.53816457406833 0 0 0 754.6178552973008,178.64315788681142 Z "/><path class="wedge" fill="rgb(229,199,178)" d=" M 756.031540420185,171.24973547490305 L 741.9655645331147,102.35674981862905 A 378.8,378.8 0 0,1 838.7827241174663,95.28479076370928 L 834.8771400118211,165.490499670357 A 308.4857400643993,308.4857400643993 0 0 0 756.031540420185,171.24973547490305 Z "/><path class="wedge" fill="rgb(229,199,178)" d=" M 753.1634374236969,171.84952308335102 L 738.4437245451694,103.09324916551179 A 378.8,378.8 0 0,1 741.9655645331147,102.35674981862905 L 756.031540420185,171.24973547490305 A 308.4857400643993,308.4857400643993 0 0 0 753.1634374236969,171.84952308335102 Z "/><path class="wedge" fill="url(#hiddenPattern)" d=" M 753.1634374236969,171.84952308335102 L 738.4437245451694,103.09324916551179 A 378.8,378.8 0 0,1 741.9655645331147,102.35674981862905 L 756.031540420185,171.24973547490305 A 308.4857400643993,308.4857400643993 0 0 0 753.1634374236969,171.84952308335102 Z "/><path class="wedge" fill="rgb(229,201,178)" d=" M 834.4912390518642,172.42734950604984 L 838.7827241174663,95.28479076370928 A 378.8,378.8 0 0,1 843.3843908316848,95.56888460302213 L 838.1543281093801,172.6534982253561 A 301.53816457406833,301.53816457406833 0 0 0 834.4912390518642,172.42734950604984 Z "/><path class="wedge" fill="url(#hiddenPattern)" d=" M 834.4912390518642,172.42734950604984 L 838.7827241174663,95.28479076370928 A 378.8,378.8 0 0,1 843.3843908316848,95.56888460302213 L 838.1543281093801,172.6534982253561 A 301.53816457406833,301.53816457406833 0 0 0 834.4912390518642,172.42734950604984 Z "/><path class="wedge" fill="rgb(226,195,168)" d=" M 873.9294300853996,185.72010556874181 L 890.3299032465908,101.71983180408512 A 378.8,378.8 0 0,1 897.1832206321387,103.12371158123557 L 879.2343041008355,186.80679175758024 A 293.21366047990944,293.21366047990944 0 0 0 873.9294300853996,185.72010556874181 Z "/><path class="wedge" fill="url(#hiddenPattern)" d=" M 873.9294300853996,185.72010556874181 L 890.3299032465908,101.71983180408512 A 378.8,378.8 0 0,1 897.1832206321387,103.12371158123557 L 879.2343041008355,186.80679175758024 A 293.21366047990944,293.21366047990944 0 0 0 873.9294300853996,185.72010556874181 Z "/><path class="wedge" fill="rgb(223,189,159)" d=" M 878.2509632829467,196.9832315676262 L 898.7169859907102,103.45600881786913 A 378.8,378.8 0 0,1 899.9761403175264,103.73378882867684 L 879.1918711039239,197.19080372865028 A 283.05972905429314,283.05972905429314 0 0 0 878.2509632829467,196.9832315676262 Z "/><path class="wedge" fill="url(#hiddenPattern)" d=" M 878.2509632829467,196.9832315676262 L 898.7169859907102,103.45600881786913 A 378.8,378.8 0 0,1 899.9761403175264,103.73378882867684 L 879.1918711039239,197.19080372865028 A 283.05972905429314,283.05972905429314 0 0 0 878.2509632829467,196.9832315676262 Z "/><path class="wedge" fill="rgb(219,183,149)" d=" M 876.7832378614962,209.62195845246572 L 900.451253482657,103.839771519517 A 378.8,378.8 0 0,1 914.4776272647099,107.26000410233371 L 886.7958163280413,212.06345528132567 A 270.40237070968385,270.40237070968385 0 0 0 876.7832378614962,209.62195845246572 Z "/><path class="wedge" fill="url(#hiddenPattern)" d=" M 876.7832378614962,209.62195845246572 L 900.451253482657,103.839771519517 A 378.8,378.8 0 0,1 914.4776272647099,107.26000410233371 L 886.7958163280413,212.06345528132567 A 270.40237070968385,270.40237070968385 0 0 0 876.7832378614962,209.62195845246572 Z "/><path class="wedge" fill="rgb(219,183,149)" d=" M 887.2544446590439,228.99639471736276 L 921.3298018567971,109.13879339333994 A 378.8,378.8 0 0,1 936.8738335229795,113.92088484523458 L 897.6852251979609,232.2054042924182 A 254.19271865856766,254.19271865856766 0 0 0 887.2544446590439,228.99639471736276 Z "/><path class="wedge" fill="rgb(219,183,149)" d=" M 902.7803388613821,216.81733604481911 L 936.8699499345817,113.9195982045789 A 378.8,378.8 0 0,1 936.8738335229795,113.92088484523458 L 902.7831111198553,216.8182544996331 A 270.40237070968385,270.40237070968385 0 0 0 902.7803388613821,216.81733604481911 Z "/><path class="wedge" fill="rgb(223,190,159)" d=" M 891.6871686359004,213.40460913125185 L 921.3298018567971,109.13879339333994 A 378.8,378.8 0 0,1 936.7411082367333,113.87693907596196 L 902.6883665790579,216.78688427736813 A 270.40237070968385,270.40237070968385 0 0 0 891.6871686359004,213.40460913125185 Z "/><path class="wedge" fill="rgb(223,190,159)" d=" M 891.6871686359004,213.40460913125185 L 921.3298018567971,109.13879339333994 A 378.8,378.8 0 0,1 936.7411082367333,113.87693907596196 L 902.6883665790579,216.78688427736813 A 270.40237070968385,270.40237070968385 0 0 0 891.6871686359004,213.40460913125185 Z "/><path class="wedge" fill="rgb(223,190,159)" d=" M 906.6641273193064,204.77014399265744 L 936.7404327485096,113.87671555865762 A 378.8,378.8 0 0,1 936.7411082367333,113.87693907596196 L 906.6646320804299,204.77031101680632 A 283.05972905429314,283.05972905429314 0 0 0 906.6641273193064,204.77014399265744 Z "/><path class="wedge" fill="rgb(223,190,159)" d=" M 895.1484752475961,201.22971378042098 L 921.3298018567971,109.13879339333994 A 378.8,378.8 0 0,1 921.3434325075639,109.14266884485653 L 895.1586608028043,201.23260972618726 A 283.05972905429314,283.05972905429314 0 0 0 895.1484752475961,201.22971378042098 Z "/><path class="wedge" fill="url(#hiddenPattern)" d=" M 895.1484752475961,201.22971378042098 L 921.3298018567971,109.13879339333994 A 378.8,378.8 0 0,1 921.3434325075639,109.14266884485653 L 895.1586608028043,201.23260972618726 A 283.05972905429314,283.05972905429314 0 0 0 895.1484752475961,201.22971378042098 Z "/><path class="wedge" fill="rgb(226,196,168)" d=" M 895.1586608028043,201.23260972618726 L 921.3434325075639,109.14266884485653 A 378.8,378.8 0 0,1 936.7404327485096,113.87671555865762 L 906.6641273193064,204.77014399265744 A 283.05972905429314,283.05972905429314 0 0 0 895.1586608028043,201.23260972618726 Z "/><path class="wedge" fill="rgb(226,196,168)" d=" M 909.8452608344516,195.1273853892908 L 936.7292308409238,113.87300908167697 A 378.8,378.8 0 0,1 936.7404327485096,113.87671555865762 L 909.8539317751263,195.13025442224483 A 293.21366047990944,293.21366047990944 0 0 0 909.8452608344516,195.1273853892908 Z "/><path class="wedge" fill="rgb(229,203,178)" d=" M 897.9357406424501,191.46582156628784 L 921.3434325075639,109.14266884485653 A 378.8,378.8 0 0,1 921.3526716109945,109.1452960099013 L 897.9428922563268,191.46785514780703 A 293.21366047990944,293.21366047990944 0 0 0 897.9357406424501,191.46582156628784 Z "/><path class="wedge" fill="url(#hiddenPattern)" d=" M 897.9357406424501,191.46582156628784 L 921.3434325075639,109.14266884485653 A 378.8,378.8 0 0,1 921.3526716109945,109.1452960099013 L 897.9428922563268,191.46785514780703 A 293.21366047990944,293.21366047990944 0 0 0 897.9357406424501,191.46582156628784 Z "/><path class="wedge" fill="rgb(229,203,178)" d=" M 897.9428922563268,191.46785514780703 L 921.3526716109945,109.1452960099013 A 378.8,378.8 0 0,1 936.7292308409238,113.87300908167697 L 909.8452608344516,195.1273853892908 A 293.21366047990944,293.21366047990944 0 0 0 897.9428922563268,191.46785514780703 Z "/><path class="wedge" fill="rgb(219,184,149)" d=" M 902.6883665790579,216.78688427736813 L 936.7411082367333,113.87693907596196 A 378.8,378.8 0 0,1 936.8699499345817,113.9195982045789 L 902.7803388613821,216.81733604481911 A 270.40237070968385,270.40237070968385 0 0 0 902.6883665790579,216.78688427736813 Z "/><path class="wedge" fill="url(#hiddenPattern)" d=" M 902.6883665790579,216.78688427736813 L 936.7411082367333,113.87693907596196 A 378.8,378.8 0 0,1 936.8699499345817,113.9195982045789 L 902.7803388613821,216.81733604481911 A 270.40237070968385,270.40237070968385 0 0 0 902.6883665790579,216.78688427736813 Z "/><path class="wedge" fill="rgb(216,177,140)" d=" M 897.6852251979609,232.2054042924182 L 936.8738335229795,113.92088484523458 A 378.8,378.8 0 0,1 937.7454308709162,114.21082526799182 L 898.270108248245,232.3999680313561 A 254.19271865856766,254.19271865856766 0 0 0 897.6852251979609,232.2054042924182 Z "/><path class="wedge" fill="url(#hiddenPattern)" d=" M 897.6852251979609,232.2054042924182 L 936.8738335229795,113.92088484523458 A 378.8,378.8 0 0,1 937.7454308709162,114.21082526799182 L 898.270108248245,232.3999680313561 A 254.19271865856766,254.19271865856766 0 0 0 897.6852251979609,232.2054042924182 Z "/><path class="wedge" fill="rgb(213,171,130)" d=" M 892.6334523373624,253.17306529369114 L 939.6498214878026,114.85251421462635 A 378.8,378.8 0 0,1 944.6480203242797,116.59048493838475 L 895.7039822374455,254.2407481225181 A 232.70717396495255,232.70717396495255 0 0 0 892.6334523373624,253.17306529369114 Z "/><path class="wedge" fill="url(#hiddenPattern)" d=" M 892.6334523373624,253.17306529369114 L 939.6498214878026,114.85251421462635 A 378.8,378.8 0 0,1 944.6480203242797,116.59048493838475 L 895.7039822374455,254.2407481225181 A 232.70717396495255,232.70717396495255 0 0 0 892.6334523373624,253.17306529369114 Z "/><path class="wedge" fill="rgb(210,165,121)" d=" M 886.3025706420465,282.5240592315255 L 945.7333531026036,116.97825547141076 A 378.8,378.8 0 0,1 945.8211308465823,117.00977979550203 L 886.3495900384567,282.5409456838746 A 202.90960501932898,202.90960501932898 0 0 0 886.3025706420465,282.5240592315255 Z "/><path class="wedge" fill="url(#hiddenPattern)" d=" M 886.3025706420465,282.5240592315255 L 945.7333531026036,116.97825547141076 A 378.8,378.8 0 0,1 945.8211308465823,117.00977979550203 L 886.3495900384567,282.5409456838746 A 202.90960501932898,202.90960501932898 0 0 0 886.3025706420465,282.5240592315255 Z "/><path class="wedge" fill="rgb(207,159,111)" d=" M 873.2037693253,324.54975616966243 L 949.9223319059868,118.50999458194184 A 378.8,378.8 0 0,1 950.1680662838136,118.60159023800031 L 873.3068770042097,324.5881887877516 A 158.94067861568504,158.94067861568504 0 0 0 873.2037693253,324.54975616966243 Z "/><path class="wedge" fill="url(#hiddenPattern)" d=" M 873.2037693253,324.54975616966243 L 949.9223319059868,118.50999458194184 A 378.8,378.8 0 0,1 950.1680662838136,118.60159023800031 L 873.3068770042097,324.5881887877516 A 158.94067861568504,158.94067861568504 0 0 0 873.2037693253,324.54975616966243 Z "/><path class="wedge" fill="rgb(159,207,111)" d=" M 848.5268792337632,391.06023136283795 L 950.2556108392357,118.6342686391252 A 378.8,378.8 0 0,1 823.1371651600857,852.2615825837361 L 818.9956669323767,561.4910751514487 A 88,88 0 0 0 848.5268792337632,391.06023136283795 Z "/><path class="wedge" fill="rgb(101,204,204)" d=" M 818.9956669323767,561.4910751514487 L 823.1371651600857,852.2615825837361 A 378.8,378.8 0 0,1 823.0954275296356,852.2621747604402 L 818.9859707563481,561.4912127215384 A 88,88 0 0 0 818.9956669323767,561.4910751514487 Z "/><path class="wedge" fill="url(#hiddenPattern)" d=" M 818.9956669323767,561.4910751514487 L 823.1371651600857,852.2615825837361 A 378.8,378.8 0 0,1 823.0954275296356,852.2621747604402 L 818.9859707563481,561.4912127215384 A 88,88 0 0 0 818.9956669323767,561.4910751514487 Z "/><rect fill="rgb(101,204,204)" x="1673.795" y="852.1283333333333" width="22" height="22"/><rect fill="url(#hiddenPattern)" style="stroke:none" x="1673.795" y="852.1283333333333" width="22" height="22"/><path class="line" d="M 823.1162963530174,852.2618792469975 L 823.9559686361376,911.4434228793408 A 437.9875,437.9875 0 0,0 1017.7994156626464,863.1283333333333 L 1279.404893741048,863.1283333333333 L 1577.9997526041668,863.1283333333333"/><text x="1666.4616666666668" y="863.1283333333333" style="font-color:black;font-weight:normal" text-anchor="end">Viruses&#160;&#160;&#160;0.002%</text><path class="wedge" fill="rgb(159,111,207)" d=" M 818.9859707563481,561.4912127215384 L 823.0954275296356,852.2621747604402 A 378.8,378.8 0 0,1 823.0951310973683,852.262178949792 L 818.9859018914075,561.4912136947775 A 88,88 0 0 0 818.9859707563481,561.4912127215384 Z "/><path class="wedge" fill="rgb(159,111,207)" d=" M 818.9859707563481,561.4912127215384 L 823.0954275296356,852.2621747604402 A 378.8,378.8 0 0,1 823.0951310973683,852.262178949792 L 818.9859018914075,561.4912136947775 A 88,88 0 0 0 818.9859707563481,561.4912127215384 Z "/><rect fill="rgb(159,111,207)" x="1673.795" y="881.4616666666667" width="22" height="22"/><path class="line" d="M 823.0952793135023,852.2621768551451 L 824.0989453583373,923.2800850154849 A 449.82500000000005,449.82500000000005 0 0,0 981.491141793938,892.4616666666667 L 1268.404893741048,892.4616666666667 L 1520.9157682291668,892.4616666666667"/><text x="1666.4616666666668" y="892.4616666666667" style="font-color:black;font-weight:normal" text-anchor="end">other sequences&#160;&#160;&#160;0.00001%</text><circle cx="817.742393741048" cy="473.5" r="88"/><circle cx="817.742393741048" cy="473.5" r="378.8"/><text x="817.742393741048" y="473.5" text-anchor="middle" style="font-color:black;font-weight:bold" transform="rotate(360,817.742393741048,473.5)">Root</text><rect fill="rgb(220,220,220)" x="1673.795" y="910.795" width="22" height="22"/><path class="line" d="M 820.4188292268005,852.2905446194382 L 821.0042994893089,935.1509762549404 A 461.6625,461.6625 0 0,0 928.0322703447058,921.795 L 1257.404893741048,921.795 L 1569.2448697916668,921.795"/><text x="1666.4616666666668" y="921.795" style="font-color:black;font-weight:normal" text-anchor="end">[other Root]&#160;&#160;&#160;0.2%</text><path class="line" d=" M 848.5268792337632,391.06023136283795 A 88,88 0 1 0 817.742393741048,561.5"/><line x1="950.2556108392357" y1="118.6342686391252" x2="848.5268792337632" y2="391.06023136283795"/><text x="817.742393741048" y="350.02966069215745" text-anchor="middle" style="font-color:black;font-weight:normal" transform="rotate(280.2382660633971,817.742393741048,473.5)">cellular organisms</text><path class="line" d=" M 873.2037693253,324.54975616966243 A 158.94067861568504,158.94067861568504 0 1 0 817.742393741048,632.4406786156851"/><line x1="949.9223319059868" y1="118.50999458194184" x2="873.2037693253" y2="324.54975616966243"/><text x="817.742393741048" y="301.36864346322176" text-anchor="middle" style="font-color:black;font-weight:normal" transform="rotate(280.21136556251594,817.742393741048,473.5)">Bacteria</text><path class="line" d=" M 770.1271587146043,276.25624926888906 A 202.90960501932898,202.90960501932898 0 0 0 817.742393741048,676.409605019329"/><line x1="728.8523137160108" y1="105.27724992452937" x2="770.1271587146043" y2="276.25624926888906"/><text x="817.742393741048" y="685.348875703016" text-anchor="middle" style="font-color:black;font-weight:normal" transform="rotate(83.21414126013984,817.742393741048,473.5)">Pseudomonadati</text><path class="line" d=" M 696.4722598254177,274.8893672664029 A 232.70717396495255,232.70717396495255 0 0 0 817.742393741048,706.2071739649525"/><line x1="620.3392542307929" y1="150.20224171594577" x2="696.4722598254177" y2="274.8893672664029"/><text x="817.742393741048" y="716.9499463117601" text-anchor="middle" style="font-color:black;font-weight:normal" transform="rotate(74.29604003461775,817.742393741048,473.5)">FCB group</text><path class="line" d=" M 685.2594533984259,256.5617398032174 A 254.19271865856766,254.19271865856766 0 0 0 817.742393741048,727.6927186585676"/><line x1="620.3152681073148" y1="150.21688868114052" x2="685.2594533984259" y2="256.5617398032174"/><text x="817.742393741048" y="735.7975446841258" text-anchor="middle" style="font-color:black;font-weight:normal" transform="rotate(74.29391454079916,817.742393741048,473.5)">Bacteroidota/Chlorobiota group</text><path class="line" d=" M 676.7663049062024,242.75515290207017 A 270.40237070968385,270.40237070968385 0 0 0 817.742393741048,743.9023707096839"/><line x1="620.252474142769" y1="150.25524496588457" x2="676.7663049062024" y2="242.75515290207017"/><path class="line" d=" M 655.2513263424657,241.72540426535255 A 283.05972905429314,283.05972905429314 0 0 0 817.742393741048,756.5597290542931"/><line x1="600.2914107410012" y1="163.33148130038506" x2="655.2513263424657" y2="241.72540426535255"/><path class="line" d=" M 649.3710333518262,233.44722310977025 A 293.21366047990944,293.21366047990944 0 0 0 817.742393741048,766.7136604799094"/><line x1="600.2249997320221" y1="163.37805091622067" x2="649.3710333518262" y2="233.44722310977025"/><path class="line" d=" M 756.5797701602149,768.7700427937234 A 301.53816457406833,301.53816457406833 0 0 0 817.742393741048,775.0381645740683"/><line x1="740.9083324700788" y1="844.4258241597759" x2="756.5797701602149" y2="768.7700427937234"/><path class="line" d=" M 800.9568079655413,781.5287258248056 A 308.4857400643993,308.4857400643993 0 0 0 817.742393741048,781.9857400643994"/><line x1="797.1308092625092" y1="851.7388168674443" x2="800.9568079655413" y2="781.5287258248056"/><path class="line" d=" M 803.0412439291027,787.5273692577177 A 314.37129711332796,314.37129711332796 0 0 0 817.742393741048,787.871297113328"/><line x1="800.0283225141276" y1="851.8855859841487" x2="803.0412439291027" y2="787.5273692577177"/><text x="471.156745184384" y="473.5" text-anchor="end" style="font-color:black;font-weight:normal" transform="rotate(-88.65983130574378,817.742393741048,473.5)">Segatella copri&#160;&#160;&#160;0.7%</text><path class="line" d=" M 817.2018665472757,792.9202154808229 A 319.4206728241967,319.4206728241967 0 0 0 817.742393741048,792.9206728241967"/><line x1="817.101384193386" y1="852.2994576378903" x2="817.2018665472757" y2="792.9202154808229"/><path class="line" d=" M 802.0324414828559,787.478518132629 A 314.37129711332796,314.37129711332796 0 0 0 803.0412439291027,787.5273692577177"/><line x1="798.8127714439529" y1="851.8267230842798" x2="802.0324414828559" y2="787.478518132629"/><path class="line" d=" M 796.5666833023527,781.2580886191241 A 308.4857400643993,308.4857400643993 0 0 0 800.9568079655413,781.5287258248056"/><line x1="791.7400277564705" y1="851.406492353868" x2="796.5666833023527" y2="781.2580886191241"/><path class="line" d=" M 758.2716037032328,776.1989873708834 A 308.4857400643993,308.4857400643993 0 0 0 796.5666833023527,781.2580886191241"/><line x1="744.716213465676" y1="845.1942520330236" x2="758.2716037032328" y2="776.1989873708834"/><path class="line" d=" M 766.40025854759,783.650443498785 A 314.37129711332796,314.37129711332796 0 0 0 796.162674832423,787.1297629061073"/><line x1="755.8779646730504" y1="847.2141051874958" x2="766.40025854759" y2="783.650443498785"/><text x="471.156745184384" y="473.5" text-anchor="end" style="font-color:black;font-weight:normal" transform="rotate(-83.332209302847,817.742393741048,473.5)">Paraprevotella clara&#160;&#160;&#160;2%</text><path class="line" d=" M 759.5406934488946,782.4366836939548 A 314.37129711332796,314.37129711332796 0 0 0 766.40025854759,783.650443498785"/><line x1="747.6125686803331" y1="845.7515918528134" x2="759.5406934488946" y2="782.4366836939548"/><path class="line" d=" M 757.4128354701519,776.0290006295572 A 308.4857400643993,308.4857400643993 0 0 0 758.2716037032328,776.1989873708834"/><line x1="743.6617031125454" y1="844.9855196047406" x2="757.4128354701519" y2="776.0290006295572"/><path class="line" d=" M 645.459674608275,720.9751086127976 A 301.53816457406833,301.53816457406833 0 0 0 756.5797701602149,768.7700427937234"/><line x1="601.316409654831" y1="784.3845982230587" x2="645.459674608275" y2="720.9751086127976"/><path class="line" d=" M 641.5144567157089,726.6939296959413 A 308.4857400643993,308.4857400643993 0 0 0 755.1705556910788,775.5731979274701"/><line x1="601.346191662914" y1="784.4053292019282" x2="641.5144567157089" y2="726.6939296959413"/><path class="line" d=" M 721.2163836256798,772.6856310385313 A 314.37129711332796,314.37129711332796 0 0 0 753.9767561902573,781.3364109660479"/><line x1="701.4338981263212" y1="834.0021135136924" x2="721.2163836256798" y2="772.6856310385313"/><text x="471.156745184384" y="473.5" text-anchor="end" style="font-color:black;font-weight:normal" transform="rotate(-75.20798450272862,817.742393741048,473.5)">Alistipes putredinis&#160;&#160;&#160;2%</text><path class="line" d=" M 719.4182076848429,772.0995091842937 A 314.37129711332796,314.37129711332796 0 0 0 721.2163836256798,772.6856310385313"/><line x1="699.2671957185519" y1="833.295869144617" x2="719.4182076848429" y2="772.0995091842937"/><path class="line" d=" M 699.5733066230785,764.8166306588453 A 314.37129711332796,314.37129711332796 0 0 0 719.4182076848429,772.0995091842937"/><line x1="675.355189147906" y1="824.5204039199868" x2="699.5733066230785" y2="764.8166306588453"/><text x="471.156745184384" y="473.5" text-anchor="end" style="font-color:black;font-weight:normal" transform="rotate(-69.84737250400211,817.742393741048,473.5)">Alistipes shahii&#160;&#160;&#160;1%</text><path class="line" d=" M 715.6525778845206,776.1668725279376 A 319.4206728241967,319.4206728241967 0 0 0 717.8389421430394,776.8955612501061"/><line x1="696.6743930242105" y1="832.4317194153059" x2="715.6525778845206" y2="776.1668725279376"/><path class="line" d=" M 694.7833032355168,762.8274520517693 A 314.37129711332796,314.37129711332796 0 0 0 699.5733066230785,764.8166306588453"/><line x1="669.5835003841119" y1="822.1235538790345" x2="694.7833032355168" y2="762.8274520517693"/><path class="line" d=" M 650.612922121874,739.7650036430098 A 314.37129711332796,314.37129711332796 0 0 0 694.7833032355168,762.8274520517693"/><line x1="616.3606377389377" y1="794.3345809751601" x2="650.612922121874" y2="739.7650036430098"/><text x="471.156745184384" y="473.5" text-anchor="end" style="font-color:black;font-weight:normal" transform="rotate(-62.42982507275555,817.742393741048,473.5)">Alistipes finegoldii&#160;&#160;&#160;3%</text><path class="line" d=" M 676.2819218850377,759.8887238173622 A 319.4206728241967,319.4206728241967 0 0 0 692.8083562517108,767.4745779894503"/><line x1="649.9848523606595" y1="813.1275125928512" x2="676.2819218850377" y2="759.8887238173622"/><text x="468.6320573289496" y="473.5" text-anchor="end" style="font-color:black;font-weight:normal" transform="rotate(-65.34424479949061,817.742393741048,473.5)">Alistipes finegoldii DSM 17242&#160;&#160;&#160;0.9%</text><path class="line" d=" M 645.9065389015229,736.7522581864891 A 314.37129711332796,314.37129711332796 0 0 0 650.612922121874,739.7650036430098"/><line x1="610.6897066449126" y1="790.7043895759796" x2="645.9065389015229" y2="736.7522581864891"/><path class="line" d=" M 641.4903614704118,726.677157230961 A 308.4857400643993,308.4857400643993 0 0 0 641.5144567157089,726.6939296959413"/><line x1="601.316604302031" y1="784.3847337289149" x2="641.4903614704118" y2="726.677157230961"/><path class="line" d=" M 570.5225008132097,300.85125475276084 A 301.53816457406833,301.53816457406833 0 0 0 645.459674608275,720.9751086127976"/><line x1="507.1784040273605" y1="256.61420449204917" x2="570.5225008132097" y2="300.85125475276084"/><path class="line" d=" M 524.0730799974933,379.04479374608434 A 308.4857400643993,308.4857400643993 0 0 0 641.4902029543464,726.677046878204"/><line x1="457.1359811955743" y1="357.5152801827601" x2="524.0730799974933" y2="379.04479374608434"/><path class="line" d=" M 535.0861863076186,611.1037094269864 A 314.37129711332796,314.37129711332796 0 0 0 638.1275116232748,731.5073769692153"/><line x1="477.1573201069712" y1="639.3048479920611" x2="535.0861863076186" y2="611.1037094269864"/><text x="471.156745184384" y="473.5" text-anchor="end" style="font-color:black;font-weight:normal" transform="rotate(-40.5568748963037,817.742393741048,473.5)">Bacteroides uniformis&#160;&#160;&#160;8%</text><path class="line" d=" M 632.8901858039321,733.9980373212738 A 319.4206728241967,319.4206728241967 0 0 0 635.2425694182964,735.6514454463818"/><line x1="598.526725113619" y1="782.4238265790278" x2="632.8901858039321" y2="733.9980373212738"/><path class="line" d=" M 533.1491158266981,607.0514081344031 A 314.37129711332796,314.37129711332796 0 0 0 535.0861863076186,611.1037094269864"/><line x1="474.82325747176753" y1="634.4220493914078" x2="533.1491158266981" y2="607.0514081344031"/><path class="line" d=" M 526.5117198878525,591.880771478015 A 314.37129711332796,314.37129711332796 0 0 0 533.1491158266981,607.0514081344031"/><line x1="466.8255630107229" y1="616.1422725218032" x2="526.5117198878525" y2="591.880771478015"/><text x="471.156745184384" y="473.5" text-anchor="end" style="font-color:black;font-weight:normal" transform="rotate(-23.630146138910444,817.742393741048,473.5)">Bacteroides ovatus&#160;&#160;&#160;0.8%</text><path class="line" d=" M 528.5729106805998,609.1855787989854 A 319.4206728241967,319.4206728241967 0 0 0 528.5780293497439,609.1964870349843"/><line x1="474.8171872576681" y1="634.4091133476637" x2="528.5729106805998" y2="609.1855787989854"/><line x1="1188.292393741048" y1="473.5" x2="1204.792393741048" y2="473.5" class="tick" transform="rotate(159.59390960821858,817.742393741048,473.5)"/><text x="427.94239374104797" y="473.5" text-anchor="end" style="font-color:black;font-weight:normal" transform="rotate(-20.406090391781426,817.742393741048,473.5)">8 more</text><path class="line" d=" M 519.9511896761314,574.2457752478164 A 314.37129711332796,314.37129711332796 0 0 0 526.5117198878525,591.880771478015"/><line x1="458.92048749327165" y1="594.8930788665978" x2="519.9511896761314" y2="574.2457752478164"/><path class="line" d=" M 513.0102639575977,550.7505114957739 A 314.37129711332796,314.37129711332796 0 0 0 519.9511896761314,574.2457752478164"/><line x1="450.5570564602127" y1="566.5825874477031" x2="513.0102639575977" y2="550.7505114957739"/><text x="471.156745184384" y="473.5" text-anchor="end" style="font-color:black;font-weight:normal" transform="rotate(-16.458093243709836,817.742393741048,473.5)">Bacteroides stercoris&#160;&#160;&#160;1%</text><path class="line" d=" M 514.2340450610809,573.0602757580655 A 319.4206728241967,319.4206728241967 0 0 0 515.1681204629974,575.8639359233617"/><line x1="457.81277032794986" y1="591.5682268423872" x2="514.2340450610809" y2="573.0602757580655"/><path class="line" d=" M 512.6474303429425,549.3048531284438 A 314.37129711332796,314.37129711332796 0 0 0 513.0102639575977,550.7505114957739"/><line x1="450.1198620519018" y1="564.8406491900662" x2="512.6474303429425" y2="549.3048531284438"/><path class="line" d=" M 549.0499527625342,321.9486094287222 A 308.4857400643993,308.4857400643993 0 0 0 524.0730799974933,379.04479374608434"/><line x1="487.8059220538531" y1="287.4049580171334" x2="549.0499527625342" y2="321.9486094287222"/><path class="line" d=" M 525.709735684818,357.11168839900904 A 314.37129711332796,314.37129711332796 0 0 0 518.4702035105718,377.2426958440559"/><line x1="465.8592164679595" y1="333.25853126768726" x2="525.709735684818" y2="357.11168839900904"/><text x="471.156745184384" y="473.5" text-anchor="end" style="font-color:black;font-weight:normal" transform="rotate(19.779648172478907,817.742393741048,473.5)">Phocaeicola dorei&#160;&#160;&#160;1%</text><path class="line" d=" M 513.7398155464856,375.459198909222 A 319.4206728241967,319.4206728241967 0 0 0 513.663346961758,375.6966281907373"/><line x1="457.226665056574" y1="357.23371352321107" x2="513.7398155464856" y2="375.459198909222"/><path class="line" d=" M 532.9886924399584,340.2909836233064 A 314.37129711332796,314.37129711332796 0 0 0 525.709735684818,357.11168839900904"/><line x1="474.62995617659544" y1="312.9905137115576" x2="532.9886924399584" y2="340.2909836233064"/><text x="471.156745184384" y="473.5" text-anchor="end" style="font-color:black;font-weight:normal" transform="rotate(23.39996502351942,817.742393741048,473.5)">Phocaeicola vulgatus&#160;&#160;&#160;0.9%</text><path class="line" d=" M 521.0191962317592,355.2421872038633 A 319.4206728241967,319.4206728241967 0 0 0 521.019159210726,355.2422800941688"/><line x1="465.85926037108976" y1="333.2584211093578" x2="521.0191962317592" y2="355.2421872038633"/><path class="line" d=" M 533.3444571281509,339.5331156627023 A 314.37129711332796,314.37129711332796 0 0 0 532.9886924399584,340.2909836233064"/><line x1="475.0586329200664" y1="312.07732479732505" x2="533.3444571281509" y2="339.5331156627023"/><path class="line" d=" M 539.1805734585486,327.7858115020475 A 314.37129711332796,314.37129711332796 0 0 0 533.3444571281509,339.5331156627023"/><line x1="482.09082983579725" y1="297.9224739667421" x2="539.1805734585486" y2="327.7858115020475"/><text x="471.156745184384" y="473.5" text-anchor="end" style="font-color:black;font-weight:normal" transform="rotate(26.418403906603835,817.742393741048,473.5)">Phocaeicola coprophilus&#160;&#160;&#160;0.7%</text><path class="line" d=" M 539.1810068152785,327.78498305696814 A 314.37129711332796,314.37129711332796 0 0 0 539.1805734585486,327.7858115020475"/><line x1="482.0913520066531" y1="297.92147573630905" x2="539.1810068152785" y2="327.78498305696814"/><line x1="1188.292393741048" y1="473.5" x2="1204.792393741048" y2="473.5" class="tick" transform="rotate(215.96493832032178,817.742393741048,473.5)"/><text x="427.94239374104797" y="473.5" text-anchor="end" style="font-color:black;font-weight:normal" transform="rotate(35.96493832032179,817.742393741048,473.5)">9 more</text><path class="line" d=" M 576.926247822659,292.0259011326656 A 301.53816457406833,301.53816457406833 0 0 0 570.5225008132097,300.85125475276084"/><line x1="515.2229557696112" y1="245.52756822491452" x2="576.926247822659" y2="292.0259011326656"/><path class="line" d=" M 649.3899715280389,233.43394111819902 A 293.21366047990944,293.21366047990944 0 0 0 649.3710333518262,233.44722310977025"/><line x1="600.249465785676" y1="163.36089203488154" x2="649.3899715280389" y2="233.43394111819902"/><path class="line" d=" M 655.9069907905828,241.2671156701739 A 283.05972905429314,283.05972905429314 0 0 0 655.2513263424657,241.72540426535255"/><line x1="601.1688428426163" y1="162.71818416895042" x2="655.9069907905828" y2="241.2671156701739"/><path class="line" d=" M 676.8015213695845,242.73364070864199 A 270.40237070968385,270.40237070968385 0 0 0 676.7663049062024,242.75515290207017"/><line x1="620.3018080161892" y1="150.22510906563633" x2="676.8015213695845" y2="242.73364070864199"/><path class="line" d=" M 685.2730023658359,256.5534661080878 A 254.19271865856766,254.19271865856766 0 0 0 685.2594533984259,256.5617398032174"/><line x1="620.335458885721" y1="150.20455915521376" x2="685.2730023658359" y2="256.5534661080878"/><path class="line" d=" M 759.9122249206777,248.09303384996693 A 232.70717396495255,232.70717396495255 0 0 0 696.4722598254177,274.8893672664029"/><line x1="723.6066282813399" y1="106.58325513637999" x2="759.9122249206777" y2="248.09303384996693"/><text x="817.742393741048" y="230.0500536882399" text-anchor="middle" style="font-color:black;font-weight:normal" transform="rotate(337.1013465945015,817.742393741048,473.5)">Pseudomonadota</text><path class="line" d=" M 708.0647588092365,244.18634010421874 A 254.19271865856766,254.19271865856766 0 0 0 685.2755492219133,256.5519109967154"/><line x1="654.2999146196271" y1="131.77497016073886" x2="708.0647588092365" y2="244.18634010421874"/><text x="817.742393741048" y="211.20245531587426" text-anchor="middle" style="font-color:black;font-weight:normal" transform="rotate(331.51545915599064,817.742393741048,473.5)">Be...ia</text><path class="line" d=" M 700.9788888974156,229.60714233080066 A 270.40237070968385,270.40237070968385 0 0 0 676.8282519535416,242.71731709309768"/><line x1="654.1712848092579" y1="131.83652181887436" x2="700.9788888974156" y2="229.60714233080066"/><path class="line" d=" M 695.3142880856687,218.28603259632288 A 283.05972905429314,283.05972905429314 0 0 0 670.2321530223584,231.91453045473932"/><line x1="653.9050065676772" y1="131.96412990111412" x2="695.3142880856687" y2="218.28603259632288"/><path class="line" d=" M 690.9105412163916,209.1367425734215 A 293.21366047990944,293.21366047990944 0 0 0 664.940658983846,223.248365545363"/><line x1="653.8895034708427" y1="131.97156728890042" x2="690.9105412163916" y2="209.1367425734215"/><path class="line" d=" M 687.2632442532957,201.6536164602319 A 301.53816457406833,301.53816457406833 0 0 0 660.6025300423123,216.14357802564808"/><line x1="653.8311293219136" y1="131.9995792147239" x2="687.2632442532957" y2="201.6536164602319"/><text x="477.57331145401383" y="473.5" text-anchor="end" style="font-color:black;font-weight:normal" transform="rotate(61.476146488675255,817.742393741048,473.5)">Sutterella wadsworthensis&#160;&#160;&#160;2%</text><path class="line" d=" M 687.264733549364,201.65290164211547 A 301.53816457406833,301.53816457406833 0 0 0 687.2632442532957,201.6536164602319"/><line x1="653.8330002139496" y1="131.99868124181597" x2="687.264733549364" y2="201.65290164211547"/><path class="line" d=" M 690.9142654244837,209.13495586642944 A 293.21366047990944,293.21366047990944 0 0 0 690.9105412163916,209.1367425734215"/><line x1="653.8943147406279" y1="131.96925905876043" x2="690.9142654244837" y2="209.13495586642944"/><path class="line" d=" M 695.4869306936555,218.20328641489039 A 283.05972905429314,283.05972905429314 0 0 0 695.3142880856687,218.28603259632288"/><line x1="654.1360426819414" y1="131.853396192609" x2="695.4869306936555" y2="218.20328641489039"/><path class="line" d=" M 701.047762663614,229.5741810239866 A 270.40237070968385,270.40237070968385 0 0 0 700.9788888974156,229.60714233080066"/><line x1="654.2677683665859" y1="131.7903471385696" x2="701.047762663614" y2="229.5741810239866"/><path class="line" d=" M 753.7594976282251,227.49161147625588 A 254.19271865856766,254.19271865856766 0 0 0 708.0647588092365,244.18634010421874"/><line x1="722.3945758513776" y1="106.89635350466267" x2="753.7594976282251" y2="227.49161147625588"/><text x="817.742393741048" y="211.20245531587426" text-anchor="middle" style="font-color:black;font-weight:normal" transform="rotate(339.9300515230463,817.742393741048,473.5)">Ga...ia</text><path class="line" d=" M 748.621206906046,212.08136329645885 A 270.40237070968385,270.40237070968385 0 0 0 701.0707099261055,229.56320433111495"/><line x1="720.9122309566761" y1="107.2850909982609" x2="748.621206906046" y2="212.08136329645885"/><path class="line" d=" M 742.7939431485203,200.54297047690955 A 283.05972905429314,283.05972905429314 0 0 0 695.6093846173115,218.14468226670672"/><line x1="717.4438695415706" y1="108.21977052760315" x2="742.7939431485203" y2="200.54297047690955"/><path class="line" d=" M 692.3306574834852,208.4601028130083 A 293.21366047990944,293.21366047990944 0 0 0 691.2282237803748,208.9845647392396"/><line x1="655.7241384639552" y1="131.09742267768075" x2="692.3306574834852" y2="208.4601028130083"/><path class="line" d=" M 704.4066461833391,203.0757795286027 A 293.21366047990944,293.21366047990944 0 0 0 692.3306574834852,208.4601028130083"/><line x1="671.3249959138356" y1="124.1414655207235" x2="704.4066461833391" y2="203.0757795286027"/><path class="line" d=" M 691.1258534481653,199.8332018330343 A 301.53816457406833,301.53816457406833 0 0 0 688.7701463182723,200.9354680274481"/><line x1="658.6834383657236" y1="129.7127275262934" x2="691.1258534481653" y2="199.8332018330343"/><path class="line" d=" M 705.1505340312347,202.76521498131547 A 293.21366047990944,293.21366047990944 0 0 0 704.4066461833391,203.0757795286027"/><line x1="672.2860177036172" y1="123.74025007148475" x2="705.1505340312347" y2="202.76521498131547"/><path class="line" d=" M 722.3465675803585,196.23859438582673 A 293.21366047990944,293.21366047990944 0 0 0 705.1505340312347,202.76521498131547"/><line x1="694.501413458872" y1="115.30856964593875" x2="722.3465675803585" y2="196.23859438582673"/><text x="481.7355635010932" y="473.5" text-anchor="end" style="font-color:black;font-weight:normal" transform="rotate(69.21613222903316,817.742393741048,473.5)">Citrobacter&#160;&#160;&#160;1%</text><path class="line" d=" M 703.6344477500797,194.38597069222732 A 301.53816457406833,301.53816457406833 0 0 0 701.953986518444,195.07889906195982"/><line x1="674.3970563359666" y1="122.8697756264823" x2="703.6344477500797" y2="194.38597069222732"/><line x1="1188.292393741048" y1="473.5" x2="1204.792393741048" y2="473.5" class="tick" transform="rotate(252.3846829920137,817.742393741048,473.5)"/><text x="427.94239374104797" y="473.5" text-anchor="end" style="font-color:black;font-weight:normal" transform="rotate(72.3846829920137,817.742393741048,473.5)">27 more</text><path class="line" d=" M 735.7216480648783,191.99183320771544 A 293.21366047990944,293.21366047990944 0 0 0 722.3465675803585,196.23859438582673"/><line x1="711.7805554989927" y1="109.82221839055859" x2="735.7216480648783" y2="191.99183320771544"/><path class="line" d=" M 743.6253352770331,200.31604758527334 A 283.05972905429314,283.05972905429314 0 0 0 742.7939431485203,200.54297047690955"/><line x1="718.5564663045678" y1="107.9160947216559" x2="743.6253352770331" y2="200.31604758527334"/><path class="line" d=" M 749.1670533932554,211.9376464748765 A 270.40237070968385,270.40237070968385 0 0 0 748.621206906046,212.08136329645885"/><line x1="721.6768938137815" y1="107.08376165387489" x2="749.1670533932554" y2="211.9376464748765"/><path class="line" d=" M 754.2415727163514,227.36673538868587 A 254.19271865856766,254.19271865856766 0 0 0 753.7594976282251,227.49161147625588"/><line x1="723.1129679608996" y1="106.71026217120061" x2="754.2415727163514" y2="227.36673538868587"/><path class="line" d=" M 762.1312740319936,247.53532979808566 A 232.70717396495255,232.70717396495255 0 0 0 759.9122249206777,248.09303384996693"/><line x1="727.2187893894159" y1="105.67542624888534" x2="762.1312740319936" y2="247.53532979808566"/><path class="line" d=" M 886.3025706420465,282.5240592315255 A 202.90960501932898,202.90960501932898 0 0 0 770.1271587146043,276.25624926888906"/><line x1="945.7333531026036" y1="116.97825547141076" x2="886.3025706420465" y2="282.5240592315255"/><text x="817.742393741048" y="249.73209671873454" text-anchor="middle" style="font-color:black;font-weight:normal" transform="rotate(363.0881855726502,817.742393741048,473.5)">Bacillati</text><path class="line" d=" M 892.6334523373624,253.17306529369114 A 232.70717396495255,232.70717396495255 0 0 0 763.1347925896623,247.2907192194673"/><line x1="939.6498214878026" y1="114.85251421462635" x2="892.6334523373624" y2="253.17306529369114"/><text x="817.742393741048" y="230.0500536882399" text-anchor="middle" style="font-color:black;font-weight:normal" transform="rotate(362.60081522104684,817.742393741048,473.5)">Bacillota</text><path class="line" d=" M 887.2544446590439,228.99639471736276 A 254.19271865856766,254.19271865856766 0 0 0 758.0929452105785,226.40511638432372"/><line x1="921.3298018567971" y1="109.13879339333994" x2="887.2544446590439" y2="228.99639471736276"/><text x="817.742393741048" y="211.20245531587426" text-anchor="middle" style="font-color:black;font-weight:normal" transform="rotate(361.1493316353299,817.742393741048,473.5)">Clostridia</text><path class="line" d=" M 876.7832378614962,209.62195845246572 A 270.40237070968385,270.40237070968385 0 0 0 754.2891509444704,210.64808719734248"/><line x1="900.451253482657" y1="103.839771519517" x2="876.7832378614962" y2="209.62195845246572"/><path class="line" d=" M 878.2509632829467,196.9832315676262 A 283.05972905429314,283.05972905429314 0 0 0 751.3189460971687,198.3441608553606"/><line x1="898.7169859907102" y1="103.45600881786913" x2="878.2509632829467" y2="196.9832315676262"/><path class="line" d=" M 873.9294300853996,185.72010556874181 A 293.21366047990944,293.21366047990944 0 0 0 748.936201173748,188.47375812669588"/><line x1="890.3299032465908" y1="101.71983180408512" x2="873.9294300853996" y2="185.72010556874181"/><path class="line" d=" M 754.6178552973008,178.64315788681142 A 301.53816457406833,301.53816457406833 0 0 0 746.9827538794013,180.38169954547703"/><line x1="738.4437245451694" y1="103.09324916551179" x2="754.6178552973008" y2="178.64315788681142"/><path class="line" d=" M 834.4912390518642,172.42734950604984 A 301.53816457406833,301.53816457406833 0 0 0 754.6178552973008,178.64315788681142"/><line x1="838.7827241174663" y1="95.28479076370928" x2="834.4912390518642" y2="172.42734950604984"/><text x="477.57331145401383" y="473.5" text-anchor="end" style="font-color:black;font-weight:normal" transform="rotate(85.55016658669908,817.742393741048,473.5)">Faecalibacterium prausnitzii&#160;&#160;&#160;4%</text><path class="line" d=" M 756.031540420185,171.24973547490305 A 308.4857400643993,308.4857400643993 0 0 0 753.1634374236969,171.84952308335102"/><line x1="741.9655645331147" y1="102.35674981862905" x2="756.031540420185" y2="171.24973547490305"/><path class="line" d=" M 838.1543281093801,172.6534982253561 A 301.53816457406833,301.53816457406833 0 0 0 834.4912390518642,172.42734950604984"/><line x1="843.3843908316848" y1="95.56888460302213" x2="838.1543281093801" y2="172.6534982253561"/><path class="line" d=" M 879.2343041008355,186.80679175758024 A 293.21366047990944,293.21366047990944 0 0 0 873.9294300853996,185.72010556874181"/><line x1="897.1832206321387" y1="103.12371158123557" x2="879.2343041008355" y2="186.80679175758024"/><path class="line" d=" M 879.1918711039239,197.19080372865028 A 283.05972905429314,283.05972905429314 0 0 0 878.2509632829467,196.9832315676262"/><line x1="899.9761403175264" y1="103.73378882867684" x2="879.1918711039239" y2="197.19080372865028"/><line x1="1188.292393741048" y1="473.5" x2="1204.792393741048" y2="473.5" class="tick" transform="rotate(283.7037447255019,817.742393741048,473.5)"/><text x="1207.542393741048" y="473.5" text-anchor="start" style="font-color:black;font-weight:normal" transform="rotate(283.7037447255019,817.742393741048,473.5)">12 more</text><path class="line" d=" M 886.7958163280413,212.06345528132567 A 270.40237070968385,270.40237070968385 0 0 0 876.7832378614962,209.62195845246572"/><line x1="914.4776272647099" y1="107.26000410233371" x2="886.7958163280413" y2="212.06345528132567"/><path class="line" d=" M 897.6852251979609,232.2054042924182 A 254.19271865856766,254.19271865856766 0 0 0 887.2544446590439,228.99639471736276"/><line x1="936.8738335229795" y1="113.92088484523458" x2="897.6852251979609" y2="232.2054042924182"/><text x="817.742393741048" y="211.20245531587426" text-anchor="middle" style="font-color:black;font-weight:normal" transform="rotate(377.1004138883533,817.742393741048,473.5)">Negativicutes</text><line x1="936.7411082367333" y1="113.87693907596196" x2="902.6883665790579" y2="216.78688427736813"/><path class="line" d=" M 902.6883665790579,216.78688427736813 A 270.40237070968385,270.40237070968385 0 0 0 891.6871686359004,213.40460913125185"/><path class="line" d=" M 895.1586608028043,201.23260972618726 A 283.05972905429314,283.05972905429314 0 0 0 895.1484752475961,201.22971378042098"/><line x1="921.3434325075639" y1="109.14266884485653" x2="895.1586608028043" y2="201.23260972618726"/><path class="line" d=" M 906.6641273193064,204.77014399265744 A 283.05972905429314,283.05972905429314 0 0 0 895.1586608028043,201.23260972618726"/><line x1="936.7404327485096" y1="113.87671555865762" x2="906.6641273193064" y2="204.77014399265744"/><path class="line" d=" M 897.9428922563268,191.46785514780703 A 293.21366047990944,293.21366047990944 0 0 0 897.9357406424501,191.46582156628784"/><line x1="921.3526716109945" y1="109.1452960099013" x2="897.9428922563268" y2="191.46785514780703"/><path class="line" d=" M 909.8452608344516,195.1273853892908 A 293.21366047990944,293.21366047990944 0 0 0 897.9428922563268,191.46785514780703"/><line x1="936.7292308409238" y1="113.87300908167697" x2="909.8452608344516" y2="195.1273853892908"/><text x="1153.7492239810026" y="473.5" text-anchor="start" style="font-color:black;font-weight:normal" transform="rotate(287.0906922204236,817.742393741048,473.5)">0.7%&#160;&#160;&#160;Phascolarctobacterium faecium</text><path class="line" d=" M 902.7803388613821,216.81733604481911 A 270.40237070968385,270.40237070968385 0 0 0 902.6883665790579,216.78688427736813"/><line x1="936.8699499345817" y1="113.9195982045789" x2="902.7803388613821" y2="216.81733604481911"/><path class="line" d=" M 898.270108248245,232.3999680313561 A 254.19271865856766,254.19271865856766 0 0 0 897.6852251979609,232.2054042924182"/><line x1="937.7454308709162" y1="114.21082526799182" x2="898.270108248245" y2="232.3999680313561"/><path class="line" d=" M 895.7039822374455,254.2407481225181 A 232.70717396495255,232.70717396495255 0 0 0 892.6334523373624,253.17306529369114"/><line x1="944.6480203242797" y1="116.59048493838475" x2="895.7039822374455" y2="254.2407481225181"/><path class="line" d=" M 886.3495900384567,282.5409456838746 A 202.90960501932898,202.90960501932898 0 0 0 886.3025706420465,282.5240592315255"/><line x1="945.8211308465823" y1="117.00977979550203" x2="886.3495900384567" y2="282.5409456838746"/><path class="line" d=" M 873.3068770042097,324.5881887877516 A 158.94067861568504,158.94067861568504 0 0 0 873.2037693253,324.54975616966243"/><line x1="950.1680662838136" y1="118.60159023800031" x2="873.3068770042097" y2="324.5881887877516"/><path class="line" d=" M 818.9956669323767,561.4910751514487 A 88,88 0 0 0 848.5268792337632,391.06023136283795"/><line x1="823.1371651600857" y1="852.2615825837361" x2="818.9956669323767" y2="561.4910751514487"/><text x="1051.142393741048" y="473.5" text-anchor="start" style="font-color:black;font-weight:normal" transform="rotate(369.8302564493491,817.742393741048,473.5)">44%&#160;&#160;&#160;No hits</text><path class="line" d=" M 818.9859707563481,561.4912127215384 A 88,88 0 0 0 818.9956669323767,561.4910751514487"/><line x1="823.0954275296356" y1="852.2621747604402" x2="818.9859707563481" y2="561.4912127215384"/><line x1="823.0951310973683" y1="852.262178949792" x2="818.9859018914075" y2="561.4912136947775"/><path class="line" d=" M 818.9859018914075,561.4912136947775 A 88,88 0 0 0 818.9859707563481,561.4912127215384"/></svg>