<?xml version="1.0" standalone="no"?><!DOCTYPE svg PUBLIC "-//W3C//DTD SVG 1.1//EN" 	"http://www.w3.org/Graphics/SVG/1.1/DTD/svg11.dtd"><svg width="1710" height="947" version="1.1"	xmlns="http://www.w3.org/2000/svg"><title>Krona (snapshot) - Omnivore_1 - Root</title><defs>	<style type="text/css">	text {font-size: 11px; font-family: sans-serif; dominant-baseline:central}	path {stroke-width:0.27499999999999997;}	path.wedge {stroke:none}	path.line {fill:none;stroke:black;}	line {stroke:black;stroke-width:0.27499999999999997;}	line.tick {stroke-width:0.5499999999999999;}	line.pattern {stroke-width:0.18333333333333332;}	circle {fill:none;stroke:black;stroke-width:0.27499999999999997;}	rect {stroke:black;stroke-width:0.27499999999999997;}	.highlight {stroke:black;stroke-width:1.375;}	.searchHighlight {fill:rgb(255, 255, 100);stroke:none;}	</style><pattern id="hiddenPattern" patternUnits="userSpaceOnUse" x="0" y="0" width="6.6" height="6.6"><line class="pattern" x1="0" y1="0" x2="3.3" y2="3.3"/><line class="pattern" x1="3.3" y1="6.6" x2="6.6" y2="3.3"/></pattern></defs><path class="wedge" fill="rgb(220,220,220)" d=" M 818.0481547602037,561.4994688063466 L 819.0585559462318,852.2977134527737 A 378.8,378.8 0 0,1 817.7423937410481,852.3 L 817.742393741048,561.5 A 88,88 0 0 0 818.0481547602037,561.4994688063466 Z "/><path class="wedge" fill="rgb(207,111,111)" d=" M 817.742393741048,561.5 L 817.742393741048,852.3 A 378.8,378.8 0 0,1 673.8230024096764,123.105010311495 L 784.3081106440028,392.0988408326599 A 88,88 0 0 0 817.742393741048,561.5 Z "/><path class="wedge" fill="rgb(207,111,111)" d=" M 757.309805069908,326.49645737153384 L 673.7146672458072,123.14952690111562 A 378.8,378.8 0 0,1 673.8230024096764,123.105010311495 L 757.3552614174879,326.47777865726783 A 158.94067861568504,158.94067861568504 0 0 0 757.309805069908,326.49645737153384 Z "/><path class="wedge" fill="rgb(210,121,121)" d=" M 817.742393741048,632.4406786156851 L 817.742393741048,852.3 A 378.8,378.8 0 0,1 673.4862860598262,123.24350056470934 L 757.2139786161516,326.5358877777207 A 158.94067861568504,158.94067861568504 0 0 0 817.742393741048,632.4406786156851 Z "/><path class="wedge" fill="rgb(210,121,121)" d=" M 737.4217381881812,287.16454953322 L 667.7964889105317,125.64131371409195 A 378.8,378.8 0 0,1 673.4862860598262,123.24350056470934 L 740.469558917335,285.88012683245074 A 202.90960501932898,202.90960501932898 0 0 0 737.4217381881812,287.16454953322 Z "/><path class="wedge" fill="rgb(213,130,130)" d=" M 817.742393741048,676.409605019329 L 817.742393741048,852.3 A 378.8,378.8 0 0,1 440.7065393656654,510.01581185493876 L 615.7777784046327,493.06021372873744 A 202.90960501932898,202.90960501932898 0 0 0 817.742393741048,676.409605019329 Z "/><path class="wedge" fill="rgb(213,130,130)" d=" M 586.1914255824913,496.6684690817012 L 440.8244618870378,511.21356051734864 A 378.8,378.8 0 0,1 440.7065393656654,510.01581185493876 L 586.1189825605921,495.93265940284766 A 232.70717396495255,232.70717396495255 0 0 0 586.1914255824913,496.6684690817012 Z "/><path class="wedge" fill="rgb(216,140,140)" d=" M 817.742393741048,706.2071739649525 L 817.742393741048,852.3 A 378.8,378.8 0 0,1 441.75723722699234,519.5934060479491 L 586.7644549206777,501.81643679999286 A 232.70717396495255,232.70717396495255 0 0 0 817.742393741048,706.2071739649525 Z "/><path class="wedge" fill="rgb(216,140,140)" d=" M 565.4399141400613,504.4418326255482 L 441.75924293637615,519.6097637273435 A 378.8,378.8 0 0,1 441.75723722699234,519.5934060479491 L 565.4385682141872,504.4308558488951 A 254.19271865856766,254.19271865856766 0 0 0 565.4399141400613,504.4418326255482 Z "/><path class="wedge" fill="rgb(219,149,149)" d=" M 817.742393741048,727.6927186585676 L 817.742393741048,852.3 A 378.8,378.8 0 0,1 441.7621972871332,519.6338473842758 L 565.4418966491711,504.4579938985969 A 254.19271865856766,254.19271865856766 0 0 0 817.742393741048,727.6927186585676 Z "/><path class="wedge" fill="rgb(219,149,149)" d=" M 549.3555860164222,506.45396068459775 L 441.765946126096,519.6643892934944 A 378.8,378.8 0 0,1 441.7621972871332,519.6338473842758 L 549.3529099474069,506.43215866596336 A 270.40237070968385,270.40237070968385 0 0 0 549.3555860164222,506.45396068459775 Z "/><path class="wedge" fill="rgb(223,159,159)" d=" M 817.742393741048,743.9023707096839 L 817.742393741048,852.3 A 378.8,378.8 0 0,1 441.77322862045355,519.7236614573449 L 549.36078454794,506.4962714914147 A 270.40237070968385,270.40237070968385 0 0 0 817.742393741048,743.9023707096839 Z "/><path class="wedge" fill="rgb(223,159,159)" d=" M 538.1343469991048,517.5698355958489 L 443.5615504974206,532.4757284778068 A 378.8,378.8 0 0,1 441.77322862045355,519.7236614573449 L 536.798016729949,508.0408054065824 A 283.05972905429314,283.05972905429314 0 0 0 538.1343469991048,517.5698355958489 Z "/><path class="wedge" fill="rgb(226,168,168)" d=" M 817.742393741048,756.5597290542931 L 817.742393741048,852.3 A 378.8,378.8 0 0,1 443.7030206061043,533.3664124933038 L 538.2400610715263,518.235402586608 A 283.05972905429314,283.05972905429314 0 0 0 817.742393741048,756.5597290542931 Z "/><path class="wedge" fill="rgb(226,168,168)" d=" M 528.2254149472432,519.9130335373069 L 443.7181024184831,533.4605662135801 A 378.8,378.8 0 0,1 443.7030206061043,533.3664124933038 L 528.2137407302044,519.8401529750838 A 293.21366047990944,293.21366047990944 0 0 0 528.2254149472432,519.9130335373069 Z "/><path class="wedge" fill="rgb(229,178,178)" d=" M 817.742393741048,766.7136604799094 L 817.742393741048,852.3 A 378.8,378.8 0 0,1 443.7326391188057,533.5511735722969 L 528.2366672152286,519.9831690054053 A 293.21366047990944,293.21366047990944 0 0 0 817.742393741048,766.7136604799094 Z "/><path class="wedge" fill="rgb(229,178,178)" d=" M 537.0742138460253,583.7299300966532 L 465.1598054162476,611.9736740690604 A 378.8,378.8 0 0,1 443.7326391188057,533.5511735722969 L 520.017433493982,521.302852849813 A 301.53816457406833,301.53816457406833 0 0 0 537.0742138460253,583.7299300966532 Z "/><path class="wedge" fill="rgb(229,178,178)" d=" M 817.742393741048,775.0381645740683 L 817.742393741048,852.3 A 378.8,378.8 0 0,1 812.2490286604458,852.2601654610622 L 813.3694813235716,775.0064548756577 A 301.53816457406833,301.53816457406833 0 0 0 817.742393741048,775.0381645740683 Z "/><path class="wedge" fill="url(#hiddenPattern)" d=" M 817.742393741048,775.0381645740683 L 817.742393741048,852.3 A 378.8,378.8 0 0,1 812.2490286604458,852.2601654610622 L 813.3694813235716,775.0064548756577 A 301.53816457406833,301.53816457406833 0 0 0 817.742393741048,775.0381645740683 Z "/><path class="wedge" fill="rgb(229,178,178)" d=" M 813.3694813235716,775.0064548756577 L 812.2490286604458,852.2601654610622 A 378.8,378.8 0 0,1 609.2976232435074,789.791349316145 L 651.8130022128239,725.2790732403533 A 301.53816457406833,301.53816457406833 0 0 0 813.3694813235716,775.0064548756577 Z "/><path class="wedge" fill="rgb(229,178,178)" d=" M 647.9905343748952,731.0805855743286 L 609.2983849046102,789.7918512706185 A 378.8,378.8 0 0,1 609.2976232435074,789.791349316145 L 647.9899140961492,731.0801767945047 A 308.4857400643993,308.4857400643993 0 0 0 647.9905343748952,731.0805855743286 Z "/><path class="wedge" fill="rgb(229,178,178)" d=" M 813.268727446609,781.9532997602167 L 812.2490286604458,852.2601654610622 A 378.8,378.8 0 0,1 609.303868900232,789.7954652886831 L 647.9950004109245,731.0835287449655 A 308.4857400643993,308.4857400643993 0 0 0 813.268727446609,781.9532997602167 Z "/><path class="wedge" fill="rgb(229,178,178)" d=" M 651.7378968740926,740.4678247816867 L 617.716170003026,795.181441518013 A 378.8,378.8 0 0,1 609.303868900232,789.7954652886831 L 644.7564132167714,735.9979294980647 A 314.37129711332796,314.37129711332796 0 0 0 651.7378968740926,740.4678247816867 Z "/><path class="wedge" fill="rgb(229,178,178)" d=" M 813.1833749820565,787.8382378850392 L 812.2490286604458,852.2601654610622 A 378.8,378.8 0 0,1 720.0606852708488,839.4886935826612 L 736.6750088518652,777.2390188236366 A 314.37129711332796,314.37129711332796 0 0 0 813.1833749820565,787.8382378850392 Z "/><path class="wedge" fill="rgb(229,180,178)" d=" M 736.6750088518652,777.2390188236366 L 720.0606852708488,839.4886935826612 A 378.8,378.8 0 0,1 705.5667956178838,835.3094459597626 L 724.6463317388238,773.7706041030231 A 314.37129711332796,314.37129711332796 0 0 0 736.6750088518652,777.2390188236366 Z "/><path class="wedge" fill="rgb(229,181,178)" d=" M 724.6463317388238,773.7706041030231 L 705.5667956178838,835.3094459597626 A 378.8,378.8 0 0,1 693.0365013056379,831.1840510728539 L 714.2472692357813,770.3468825040204 A 314.37129711332796,314.37129711332796 0 0 0 724.6463317388238,773.7706041030231 Z "/><path class="wedge" fill="url(#hiddenPattern)" d=" M 724.6463317388238,773.7706041030231 L 705.5667956178838,835.3094459597626 A 378.8,378.8 0 0,1 693.0365013056379,831.1840510728539 L 714.2472692357813,770.3468825040204 A 314.37129711332796,314.37129711332796 0 0 0 724.6463317388238,773.7706041030231 Z "/><path class="wedge" fill="rgb(229,181,178)" d=" M 714.2472692357813,770.3468825040204 L 693.0365013056379,831.1840510728539 A 378.8,378.8 0 0,1 633.2857115256172,804.3552136298831 L 664.6592721748233,748.0812636365722 A 314.37129711332796,314.37129711332796 0 0 0 714.2472692357813,770.3468825040204 Z "/><path class="wedge" fill="rgb(229,181,178)" d=" M 686.600814312347,764.7583945097689 L 662.2219953636613,818.9024401890335 A 378.8,378.8 0 0,1 633.2857115256172,804.3552136298831 L 662.2004783762857,752.4915389256879 A 319.4206728241967,319.4206728241967 0 0 0 686.600814312347,764.7583945097689 Z "/><path class="wedge" fill="rgb(229,181,178)" d=" M 712.5849490027676,775.1147841926487 L 693.0365013056379,831.1840510728539 A 378.8,378.8 0 0,1 662.2219953636613,818.9024401890335 L 686.600814312347,764.7583945097689 A 319.4206728241967,319.4206728241967 0 0 0 712.5849490027676,775.1147841926487 Z "/><path class="wedge" fill="rgb(229,181,178)" d=" M 664.6592721748233,748.0812636365722 L 633.2857115256172,804.3552136298831 A 378.8,378.8 0 0,1 617.716170003026,795.181441518013 L 651.7378968740926,740.4678247816867 A 314.37129711332796,314.37129711332796 0 0 0 664.6592721748233,748.0812636365722 Z "/><path class="wedge" fill="url(#hiddenPattern)" d=" M 664.6592721748233,748.0812636365722 L 633.2857115256172,804.3552136298831 A 378.8,378.8 0 0,1 617.716170003026,795.181441518013 L 651.7378968740926,740.4678247816867 A 314.37129711332796,314.37129711332796 0 0 0 664.6592721748233,748.0812636365722 Z "/><path class="wedge" fill="rgb(229,183,178)" d=" M 647.9950004109245,731.0835287449655 L 609.303868900232,789.7954652886831 A 378.8,378.8 0 0,1 609.2983849046102,789.7918512706185 L 647.9905343748952,731.0805855743286 A 308.4857400643993,308.4857400643993 0 0 0 647.9950004109245,731.0835287449655 Z "/><path class="wedge" fill="url(#hiddenPattern)" d=" M 647.9950004109245,731.0835287449655 L 609.303868900232,789.7954652886831 A 378.8,378.8 0 0,1 609.2983849046102,789.7918512706185 L 647.9905343748952,731.0805855743286 A 308.4857400643993,308.4857400643993 0 0 0 647.9950004109245,731.0835287449655 Z "/><path class="wedge" fill="rgb(229,183,178)" d=" M 651.8130022128239,725.2790732403533 L 609.2976232435074,789.791349316145 A 378.8,378.8 0 0,1 479.99353953586683,645.0084589257547 L 548.8823895593559,610.0267843542742 A 301.53816457406833,301.53816457406833 0 0 0 651.8130022128239,725.2790732403533 Z "/><path class="wedge" fill="rgb(229,183,178)" d=" M 553.0001607646941,631.850882226068 L 492.65651511823853,667.9443661308705 A 378.8,378.8 0 0,1 479.99353953586683,645.0084589257547 L 542.6877336423463,613.1724231230625 A 308.4857400643993,308.4857400643993 0 0 0 553.0001607646941,631.850882226068 Z "/><path class="wedge" fill="rgb(229,183,178)" d=" M 647.9899140961492,731.0801767945047 L 609.2976232435074,789.791349316145 A 378.8,378.8 0 0,1 541.0658031780517,732.2266979544943 L 592.4235373568856,684.2008893688239 A 308.4857400643993,308.4857400643993 0 0 0 647.9899140961492,731.0801767945047 Z "/><path class="wedge" fill="rgb(229,183,178)" d=" M 606.1664964525062,706.0187135162776 L 562.8051566942188,753.6721705789653 A 378.8,378.8 0 0,1 541.0658031780517,732.2266979544943 L 588.1247098546112,688.2208226869129 A 314.37129711332796,314.37129711332796 0 0 0 606.1664964525062,706.0187135162776 Z "/><path class="wedge" fill="rgb(229,183,178)" d=" M 644.7512298608955,735.9945135962017 L 609.2976232435074,789.791349316145 A 378.8,378.8 0 0,1 593.7708982550562,778.9933865237813 L 631.8653885870272,727.0331366975299 A 314.37129711332796,314.37129711332796 0 0 0 644.7512298608955,735.9945135962017 Z "/><path class="wedge" fill="rgb(229,183,178)" d=" M 641.8207451963442,740.110464537265 L 609.1174482122069,789.6725353396276 A 378.8,378.8 0 0,1 593.7708982550562,778.9933865237813 L 628.8798652785954,731.1053407253657 A 319.4206728241967,319.4206728241967 0 0 0 641.8207451963442,740.110464537265 Z "/><path class="wedge" fill="rgb(229,183,178)" d=" M 641.9726766370097,740.210653661658 L 609.2976232435074,789.791349316145 A 378.8,378.8 0 0,1 609.1174482122069,789.6725353396276 L 641.8207451963442,740.110464537265 A 319.4206728241967,319.4206728241967 0 0 0 641.9726766370097,740.210653661658 Z "/><path class="wedge" fill="url(#hiddenPattern)" d=" M 641.9726766370097,740.210653661658 L 609.2976232435074,789.791349316145 A 378.8,378.8 0 0,1 609.1174482122069,789.6725353396276 L 641.8207451963442,740.110464537265 A 319.4206728241967,319.4206728241967 0 0 0 641.9726766370097,740.210653661658 Z "/><path class="wedge" fill="rgb(229,183,178)" d=" M 631.8653885870272,727.0331366975299 L 593.7708982550562,778.9933865237813 A 378.8,378.8 0 0,1 591.5619342056796,777.3615469656692 L 630.0321391322244,725.6788507456702 A 314.37129711332796,314.37129711332796 0 0 0 631.8653885870272,727.0331366975299 Z "/><path class="wedge" fill="url(#hiddenPattern)" d=" M 631.8653885870272,727.0331366975299 L 593.7708982550562,778.9933865237813 A 378.8,378.8 0 0,1 591.5619342056796,777.3615469656692 L 630.0321391322244,725.6788507456702 A 314.37129711332796,314.37129711332796 0 0 0 631.8653885870272,727.0331366975299 Z "/><path class="wedge" fill="rgb(229,184,178)" d=" M 630.0321391322244,725.6788507456702 L 591.5619342056796,777.3615469656692 A 378.8,378.8 0 0,1 578.5483525955921,767.2271704839475 L 619.2319898955471,717.2681931955285 A 314.37129711332796,314.37129711332796 0 0 0 630.0321391322244,725.6788507456702 Z "/><path class="wedge" fill="rgb(229,184,178)" d=" M 619.2319898955471,717.2681931955285 L 578.5483525955921,767.2271704839475 A 378.8,378.8 0 0,1 562.8051566942188,753.6721705789653 L 606.1664964525062,706.0187135162776 A 314.37129711332796,314.37129711332796 0 0 0 619.2319898955471,717.2681931955285 Z "/><path class="wedge" fill="url(#hiddenPattern)" d=" M 619.2319898955471,717.2681931955285 L 578.5483525955921,767.2271704839475 A 378.8,378.8 0 0,1 562.8051566942188,753.6721705789653 L 606.1664964525062,706.0187135162776 A 314.37129711332796,314.37129711332796 0 0 0 619.2319898955471,717.2681931955285 Z "/><path class="wedge" fill="rgb(229,185,178)" d=" M 592.4235373568856,684.2008893688239 L 541.0658031780517,732.2266979544943 A 378.8,378.8 0 0,1 492.65651511823853,667.9443661308705 L 553.0001607646941,631.850882226068 A 308.4857400643993,308.4857400643993 0 0 0 592.4235373568856,684.2008893688239 Z "/><path class="wedge" fill="rgb(229,185,178)" d=" M 555.8275439310117,647.3675469939761 L 502.1495071796638,683.0007636068501 A 378.8,378.8 0 0,1 492.65651511823853,667.9443661308705 L 547.949180077166,634.8720369507408 A 314.37129711332796,314.37129711332796 0 0 0 555.8275439310117,647.3675469939761 Z "/><path class="wedge" fill="rgb(229,185,178)" d=" M 588.1247098546112,688.2208226869129 L 541.0658031780517,732.2266979544943 A 378.8,378.8 0 0,1 530.5634339140479,720.5175804121689 L 579.408650065044,678.5032660083667 A 314.37129711332796,314.37129711332796 0 0 0 588.1247098546112,688.2208226869129 Z "/><path class="wedge" fill="rgb(229,185,178)" d=" M 584.3132060852021,691.5375668956943 L 540.9194332788088,732.0700844276491 A 378.8,378.8 0 0,1 530.5634339140479,720.5175804121689 L 575.5805759773381,681.7959919077615 A 319.4206728241967,319.4206728241967 0 0 0 584.3132060852021,691.5375668956943 Z "/><path class="wedge" fill="rgb(229,185,178)" d=" M 584.4366315648679,691.6696302486993 L 541.0658031780517,732.2266979544943 A 378.8,378.8 0 0,1 540.9194332788088,732.0700844276491 L 584.3132060852021,691.5375668956943 A 319.4206728241967,319.4206728241967 0 0 0 584.4366315648679,691.6696302486993 Z "/><path class="wedge" fill="url(#hiddenPattern)" d=" M 584.4366315648679,691.6696302486993 L 541.0658031780517,732.2266979544943 A 378.8,378.8 0 0,1 540.9194332788088,732.0700844276491 L 584.3132060852021,691.5375668956943 A 319.4206728241967,319.4206728241967 0 0 0 584.4366315648679,691.6696302486993 Z "/><path class="wedge" fill="rgb(229,185,178)" d=" M 579.408650065044,678.5032660083667 L 530.5634339140479,720.5175804121689 A 378.8,378.8 0 0,1 502.4011089976578,683.3792846766639 L 556.0363517184428,647.6816868031158 A 314.37129711332796,314.37129711332796 0 0 0 579.408650065044,678.5032660083667 Z "/><path class="wedge" fill="rgb(229,185,178)" d=" M 575.5803084590752,681.7956808946097 L 530.5631166649574,720.5172115826224 A 378.8,378.8 0 0,1 502.4011089976578,683.3792846766639 L 551.8328759427895,650.4793619938783 A 319.4206728241967,319.4206728241967 0 0 0 575.5803084590752,681.7956808946097 Z "/><path class="wedge" fill="rgb(229,185,178)" d=" M 575.5805759773381,681.7959919077615 L 530.5634339140479,720.5175804121689 A 378.8,378.8 0 0,1 530.5631166649574,720.5172115826224 L 575.5803084590752,681.7956808946097 A 319.4206728241967,319.4206728241967 0 0 0 575.5805759773381,681.7959919077615 Z "/><path class="wedge" fill="url(#hiddenPattern)" d=" M 575.5805759773381,681.7959919077615 L 530.5634339140479,720.5175804121689 A 378.8,378.8 0 0,1 530.5631166649574,720.5172115826224 L 575.5803084590752,681.7956808946097 A 319.4206728241967,319.4206728241967 0 0 0 575.5805759773381,681.7959919077615 Z "/><path class="wedge" fill="rgb(229,186,178)" d=" M 556.0363517184428,647.6816868031158 L 502.4011089976578,683.3792846766639 A 378.8,378.8 0 0,1 502.1495071796638,683.0007636068501 L 555.8275439310117,647.3675469939761 A 314.37129711332796,314.37129711332796 0 0 0 556.0363517184428,647.6816868031158 Z "/><path class="wedge" fill="url(#hiddenPattern)" d=" M 556.0363517184428,647.6816868031158 L 502.4011089976578,683.3792846766639 A 378.8,378.8 0 0,1 502.1495071796638,683.0007636068501 L 555.8275439310117,647.3675469939761 A 314.37129711332796,314.37129711332796 0 0 0 556.0363517184428,647.6816868031158 Z "/><path class="wedge" fill="rgb(229,188,178)" d=" M 548.8823895593559,610.0267843542742 L 479.99353953586683,645.0084589257547 A 378.8,378.8 0 0,1 471.98302549507895,628.2252379870472 L 542.505737761167,596.6667483524291 A 301.53816457406833,301.53816457406833 0 0 0 548.8823895593559,610.0267843542742 Z "/><path class="wedge" fill="rgb(229,188,178)" d=" M 536.165920836047,599.5084986398114 L 471.98518657112214,628.2300671816987 A 378.8,378.8 0 0,1 471.98302549507895,628.2252379870472 L 536.1641609069484,599.5045658581694 A 308.4857400643993,308.4857400643993 0 0 0 536.165920836047,599.5084986398114 Z "/><path class="wedge" fill="rgb(229,188,178)" d=" M 542.6877336423463,613.1724231230625 L 479.99353953586683,645.0084589257547 A 378.8,378.8 0 0,1 471.99492466990824,628.2518259372124 L 536.1738513128444,599.5262184544828 A 308.4857400643993,308.4857400643993 0 0 0 542.6877336423463,613.1724231230625 Z "/><path class="wedge" fill="rgb(229,188,178)" d=" M 532.6507351524219,605.9841826479773 L 474.2227363645631,633.1361017938689 A 378.8,378.8 0 0,1 471.99492466990824,628.2518259372124 L 530.8018437792094,601.9306553604472 A 314.37129711332796,314.37129711332796 0 0 0 532.6507351524219,605.9841826479773 Z "/><path class="wedge" fill="rgb(229,188,178)" d=" M 537.4400035746723,615.8372140929182 L 479.99353953586683,645.0084589257547 A 378.8,378.8 0 0,1 474.2227363645631,633.1361017938689 L 532.6507351524219,605.9841826479773 A 314.37129711332796,314.37129711332796 0 0 0 537.4400035746723,615.8372140929182 Z "/><path class="wedge" fill="url(#hiddenPattern)" d=" M 537.4400035746723,615.8372140929182 L 479.99353953586683,645.0084589257547 A 378.8,378.8 0 0,1 474.2227363645631,633.1361017938689 L 532.6507351524219,605.9841826479773 A 314.37129711332796,314.37129711332796 0 0 0 537.4400035746723,615.8372140929182 Z "/><path class="wedge" fill="rgb(229,188,178)" d=" M 536.1738513128444,599.5262184544828 L 471.99492466990824,628.2518259372124 A 378.8,378.8 0 0,1 471.98518657112214,628.2300671816987 L 536.165920836047,599.5084986398114 A 308.4857400643993,308.4857400643993 0 0 0 536.1738513128444,599.5262184544828 Z "/><path class="wedge" fill="url(#hiddenPattern)" d=" M 536.1738513128444,599.5262184544828 L 471.99492466990824,628.2518259372124 A 378.8,378.8 0 0,1 471.98518657112214,628.2300671816987 L 536.165920836047,599.5084986398114 A 308.4857400643993,308.4857400643993 0 0 0 536.1738513128444,599.5262184544828 Z "/><path class="wedge" fill="rgb(229,187,178)" d=" M 542.505737761167,596.6667483524291 L 471.98302549507895,628.2252379870472 A 378.8,378.8 0 0,1 465.1598054162476,611.9736740690604 L 537.0742138460253,583.7299300966532 A 301.53816457406833,301.53816457406833 0 0 0 542.505737761167,596.6667483524291 Z "/><path class="wedge" fill="url(#hiddenPattern)" d=" M 542.505737761167,596.6667483524291 L 471.98302549507895,628.2252379870472 A 378.8,378.8 0 0,1 465.1598054162476,611.9736740690604 L 537.0742138460253,583.7299300966532 A 301.53816457406833,301.53816457406833 0 0 0 542.505737761167,596.6667483524291 Z "/><path class="wedge" fill="rgb(226,182,168)" d=" M 528.2366672152286,519.9831690054053 L 443.7326391188057,533.5511735722969 A 378.8,378.8 0 0,1 443.7181024184831,533.4605662135801 L 528.2254149472432,519.9130335373069 A 293.21366047990944,293.21366047990944 0 0 0 528.2366672152286,519.9831690054053 Z "/><path class="wedge" fill="url(#hiddenPattern)" d=" M 528.2366672152286,519.9831690054053 L 443.7326391188057,533.5511735722969 A 378.8,378.8 0 0,1 443.7181024184831,533.4605662135801 L 528.2254149472432,519.9130335373069 A 293.21366047990944,293.21366047990944 0 0 0 528.2366672152286,519.9831690054053 Z "/><path class="wedge" fill="rgb(223,174,159)" d=" M 538.2400610715263,518.235402586608 L 443.7030206061043,533.3664124933038 A 378.8,378.8 0 0,1 443.5615504974206,532.4757284778068 L 538.1343469991048,517.5698355958489 A 283.05972905429314,283.05972905429314 0 0 0 538.2400610715263,518.235402586608 Z "/><path class="wedge" fill="url(#hiddenPattern)" d=" M 538.2400610715263,518.235402586608 L 443.7030206061043,533.3664124933038 A 378.8,378.8 0 0,1 443.5615504974206,532.4757284778068 L 538.1343469991048,517.5698355958489 A 283.05972905429314,283.05972905429314 0 0 0 538.2400610715263,518.235402586608 Z "/><path class="wedge" fill="rgb(219,167,149)" d=" M 549.36078454794,506.4962714914147 L 441.77322862045355,519.7236614573449 A 378.8,378.8 0 0,1 441.765946126096,519.6643892934944 L 549.3555860164222,506.45396068459775 A 270.40237070968385,270.40237070968385 0 0 0 549.36078454794,506.4962714914147 Z "/><path class="wedge" fill="url(#hiddenPattern)" d=" M 549.36078454794,506.4962714914147 L 441.77322862045355,519.7236614573449 A 378.8,378.8 0 0,1 441.765946126096,519.6643892934944 L 549.3555860164222,506.45396068459775 A 270.40237070968385,270.40237070968385 0 0 0 549.36078454794,506.4962714914147 Z "/><path class="wedge" fill="rgb(216,159,140)" d=" M 565.4418966491711,504.4579938985969 L 441.7621972871332,519.6338473842758 A 378.8,378.8 0 0,1 441.75924293637615,519.6097637273435 L 565.4399141400613,504.4418326255482 A 254.19271865856766,254.19271865856766 0 0 0 565.4418966491711,504.4579938985969 Z "/><path class="wedge" fill="url(#hiddenPattern)" d=" M 565.4418966491711,504.4579938985969 L 441.7621972871332,519.6338473842758 A 378.8,378.8 0 0,1 441.75924293637615,519.6097637273435 L 565.4399141400613,504.4418326255482 A 254.19271865856766,254.19271865856766 0 0 0 565.4418966491711,504.4579938985969 Z "/><path class="wedge" fill="rgb(213,152,130)" d=" M 586.7644549206777,501.81643679999286 L 441.75723722699234,519.5934060479491 A 378.8,378.8 0 0,1 440.8244618870378,511.21356051734864 L 586.1914255824913,496.6684690817012 A 232.70717396495255,232.70717396495255 0 0 0 586.7644549206777,501.81643679999286 Z "/><path class="wedge" fill="url(#hiddenPattern)" d=" M 586.7644549206777,501.81643679999286 L 441.75723722699234,519.5934060479491 A 378.8,378.8 0 0,1 440.8244618870378,511.21356051734864 L 586.1914255824913,496.6684690817012 A 232.70717396495255,232.70717396495255 0 0 0 586.7644549206777,501.81643679999286 Z "/><path class="wedge" fill="rgb(213,152,130)" d=" M 615.7777784046327,493.06021372873744 L 440.7065393656654,510.01581185493876 A 378.8,378.8 0 0,1 667.6093734120569,125.72203030252939 L 737.32150711139,287.2077865212832 A 202.90960501932898,202.90960501932898 0 0 0 615.7777784046327,493.06021372873744 Z "/><path class="wedge" fill="rgb(213,152,130)" d=" M 724.3597231036558,260.35144701550746 L 665.7343785400569,126.53746122289328 A 378.8,378.8 0 0,1 667.6093734120569,125.72203030252939 L 725.5115836048751,259.8505055555246 A 232.70717396495255,232.70717396495255 0 0 0 724.3597231036558,260.35144701550746 Z "/><path class="wedge" fill="rgb(216,160,140)" d=" M 586.1189825605921,495.93265940284766 L 440.7065393656654,510.01581185493876 A 378.8,378.8 0 0,1 624.9065442337135,147.45740286768563 L 699.2780706735118,273.20313788053215 A 232.70717396495255,232.70717396495255 0 0 0 586.1189825605921,495.93265940284766 Z "/><path class="wedge" fill="rgb(216,160,140)" d=" M 684.0212805656239,257.3227530239152 L 618.4701331579719,151.35095660221083 A 378.8,378.8 0 0,1 624.9065442337135,147.45740286768563 L 688.3404168637942,254.70999428837615 A 254.19271865856766,254.19271865856766 0 0 0 684.0212805656239,257.3227530239152 Z "/><path class="wedge" fill="rgb(219,168,149)" d=" M 564.7335002472933,498.00383708931264 L 440.7065393656654,510.01581185493876 A 378.8,378.8 0 0,1 612.3469389214886,155.22001768966635 L 679.9123275829254,259.91907603467655 A 254.19271865856766,254.19271865856766 0 0 0 564.7335002472933,498.00383708931264 Z "/><path class="wedge" fill="rgb(219,168,149)" d=" M 661.4470509384278,252.84368827602339 L 598.7921097688807,164.38802490277521 A 378.8,378.8 0 0,1 612.3469389214886,155.22001768966635 L 671.1230222621604,246.29920336285517 A 270.40237070968385,270.40237070968385 0 0 0 661.4470509384278,252.84368827602339 Z "/><path class="wedge" fill="rgb(223,176,159)" d=" M 548.5993397134488,499.5664258024398 L 440.7065393656654,510.01581185493876 A 378.8,378.8 0 0,1 565.7410165233632,190.68425453947907 L 637.8538778440911,271.6149734779531 A 270.40237070968385,270.40237070968385 0 0 0 548.5993397134488,499.5664258024398 Z "/><path class="wedge" fill="rgb(223,176,159)" d=" M 628.4255066435162,263.0672875430479 L 564.3922012847065,191.89190355684946 A 378.8,378.8 0 0,1 565.7410165233632,190.68425453947907 L 629.4334139191194,262.1648672588622 A 283.05972905429314,283.05972905429314 0 0 0 628.4255066435162,263.0672875430479 Z "/><path class="wedge" fill="rgb(226,184,168)" d=" M 536.0009291601352,500.7865781675198 L 440.7065393656654,510.01581185493876 A 378.8,378.8 0 0,1 560.3785045052357,195.55527794646542 L 625.426256583054,265.804757876071 A 283.05972905429314,283.05972905429314 0 0 0 536.0009291601352,500.7865781675198 Z "/><path class="wedge" fill="rgb(226,184,168)" d=" M 610.7837816121877,265.7925529555487 L 550.3744882140684,205.16468161250907 A 378.8,378.8 0 0,1 560.3785045052357,195.55527794646542 L 618.5274833973879,258.3543047402643 A 293.21366047990944,293.21366047990944 0 0 0 610.7837816121877,265.7925529555487 Z "/><path class="wedge" fill="rgb(229,192,178)" d=" M 525.8942865774366,501.765403535856 L 440.7065393656654,510.01581185493876 A 378.8,378.8 0 0,1 521.6836148619691,237.19799101863586 L 588.5753444476297,290.58823381155696 A 293.21366047990944,293.21366047990944 0 0 0 525.8942865774366,501.765403535856 Z "/><path class="wedge" fill="rgb(229,192,178)" d=" M 539.7446854760723,356.6987204945109 L 468.5145205810452,326.7712277426782 A 378.8,378.8 0 0,1 521.6836148619691,237.19799101863586 L 582.0691604009281,285.3952637977678 A 301.53816457406833,301.53816457406833 0 0 0 539.7446854760723,356.6987204945109 Z "/><path class="wedge" fill="rgb(229,192,178)" d=" M 517.6085513256082,502.5678745635434 L 440.7065393656654,510.01581185493876 A 378.8,378.8 0 0,1 441.21416930764656,432.07613966528356 L 518.0126426692932,440.5251456839943 A 301.53816457406833,301.53816457406833 0 0 0 517.6085513256082,502.5678745635434 Z "/><path class="wedge" fill="rgb(229,192,178)" d=" M 510.7701567305034,442.97955557626705 L 440.80087496835034,436.0229213340735 A 378.8,378.8 0 0,1 441.21416930764656,432.07613966528356 L 511.10673384275844,439.76539014868183 A 308.4857400643993,308.4857400643993 0 0 0 510.7701567305034,442.97955557626705 Z "/><path class="wedge" fill="rgb(229,192,178)" d=" M 510.69333205202213,503.2376115209164 L 440.7065393656654,510.01581185493876 A 378.8,378.8 0 0,1 440.51871539005595,508.02153663073693 L 510.54037265889195,501.6135210551562 A 308.4857400643993,308.4857400643993 0 0 0 510.69333205202213,503.2376115209164 Z "/><path class="wedge" fill="url(#hiddenPattern)" d=" M 510.69333205202213,503.2376115209164 L 440.7065393656654,510.01581185493876 A 378.8,378.8 0 0,1 440.51871539005595,508.02153663073693 L 510.54037265889195,501.6135210551562 A 308.4857400643993,308.4857400643993 0 0 0 510.69333205202213,503.2376115209164 Z "/><path class="wedge" fill="rgb(229,192,178)" d=" M 510.54037265889195,501.6135210551562 L 440.51871539005595,508.02153663073693 A 378.8,378.8 0 0,1 439.83629122754365,447.4919688739651 L 509.9846225986744,452.31967600440123 A 308.4857400643993,308.4857400643993 0 0 0 510.54037265889195,501.6135210551562 Z "/><path class="wedge" fill="rgb(229,193,178)" d=" M 509.9846225986744,452.31967600440123 L 439.83629122754365,447.4919688739651 A 378.8,378.8 0 0,1 440.80087496835034,436.0229213340735 L 510.7701567305034,442.97955557626705 A 308.4857400643993,308.4857400643993 0 0 0 509.9846225986744,452.31967600440123 Z "/><path class="wedge" fill="url(#hiddenPattern)" d=" M 509.9846225986744,452.31967600440123 L 439.83629122754365,447.4919688739651 A 378.8,378.8 0 0,1 440.80087496835034,436.0229213340735 L 510.7701567305034,442.97955557626705 A 308.4857400643993,308.4857400643993 0 0 0 509.9846225986744,452.31967600440123 Z "/><path class="wedge" fill="rgb(229,193,178)" d=" M 518.0126426692932,440.5251456839943 L 441.21416930764656,432.07613966528356 A 378.8,378.8 0 0,1 465.88867073246,333.1846494320887 L 537.65441635308,361.80403043343466 A 301.53816457406833,301.53816457406833 0 0 0 518.0126426692932,440.5251456839943 Z "/><path class="wedge" fill="rgb(229,193,178)" d=" M 511.4033305209989,437.1705330545173 L 441.5783703293665,428.88982749712846 A 378.8,378.8 0 0,1 465.88867073246,333.1846494320887 L 531.2010628626995,359.23050485127305 A 308.4857400643993,308.4857400643993 0 0 0 511.4033305209989,437.1705330545173 Z "/><path class="wedge" fill="rgb(229,193,178)" d=" M 511.10673384275844,439.76539014868183 L 441.21416930764656,432.07613966528356 A 378.8,378.8 0 0,1 441.5783703293665,428.88982749712846 L 511.4033305209989,437.1705330545173 A 308.4857400643993,308.4857400643993 0 0 0 511.10673384275844,439.76539014868183 Z "/><path class="wedge" fill="url(#hiddenPattern)" d=" M 511.10673384275844,439.76539014868183 L 441.21416930764656,432.07613966528356 A 378.8,378.8 0 0,1 441.5783703293665,428.88982749712846 L 511.4033305209989,437.1705330545173 A 308.4857400643993,308.4857400643993 0 0 0 511.10673384275844,439.76539014868183 Z "/><path class="wedge" fill="rgb(229,196,178)" d=" M 537.65441635308,361.80403043343466 L 465.88867073246,333.1846494320887 A 378.8,378.8 0 0,1 468.5145205810452,326.7712277426782 L 539.7446854760723,356.6987204945109 A 301.53816457406833,301.53816457406833 0 0 0 537.65441635308,361.80403043343466 Z "/><path class="wedge" fill="url(#hiddenPattern)" d=" M 537.65441635308,361.80403043343466 L 465.88867073246,333.1846494320887 A 378.8,378.8 0 0,1 468.5145205810452,326.7712277426782 L 539.7446854760723,356.6987204945109 A 301.53816457406833,301.53816457406833 0 0 0 537.65441635308,361.80403043343466 Z "/><path class="wedge" fill="rgb(229,198,178)" d=" M 588.5753444476297,290.58823381155696 L 521.6836148619691,237.19799101863586 A 378.8,378.8 0 0,1 532.7928297063766,223.91397083079613 L 597.174535444426,280.30561452653717 A 293.21366047990944,293.21366047990944 0 0 0 588.5753444476297,290.58823381155696 Z "/><path class="wedge" fill="rgb(229,198,178)" d=" M 588.5753444476297,290.58823381155696 L 521.6836148619691,237.19799101863586 A 378.8,378.8 0 0,1 532.7928297063766,223.91397083079613 L 597.174535444426,280.30561452653717 A 293.21366047990944,293.21366047990944 0 0 0 588.5753444476297,290.58823381155696 Z "/><path class="wedge" fill="rgb(226,192,168)" d=" M 597.174535444426,280.30561452653717 L 532.7928297063766,223.91397083079613 A 378.8,378.8 0 0,1 550.3744882140684,205.16468161250907 L 610.7837816121877,265.7925529555487 A 293.21366047990944,293.21366047990944 0 0 0 597.174535444426,280.30561452653717 Z "/><path class="wedge" fill="url(#hiddenPattern)" d=" M 597.174535444426,280.30561452653717 L 532.7928297063766,223.91397083079613 A 378.8,378.8 0 0,1 550.3744882140684,205.16468161250907 L 610.7837816121877,265.7925529555487 A 293.21366047990944,293.21366047990944 0 0 0 597.174535444426,280.30561452653717 Z "/><path class="wedge" fill="rgb(223,186,159)" d=" M 625.426256583054,265.804757876071 L 560.3785045052357,195.55527794646542 A 378.8,378.8 0 0,1 564.3922012847065,191.89190355684946 L 628.4255066435162,263.0672875430479 A 283.05972905429314,283.05972905429314 0 0 0 625.426256583054,265.804757876071 Z "/><path class="wedge" fill="url(#hiddenPattern)" d=" M 625.426256583054,265.804757876071 L 560.3785045052357,195.55527794646542 A 378.8,378.8 0 0,1 564.3922012847065,191.89190355684946 L 628.4255066435162,263.0672875430479 A 283.05972905429314,283.05972905429314 0 0 0 625.426256583054,265.804757876071 Z "/><path class="wedge" fill="rgb(223,186,159)" d=" M 637.8538778440911,271.6149734779531 L 565.7410165233632,190.68425453947907 A 378.8,378.8 0 0,1 597.1937619931463,165.5263955561639 L 660.3060872959327,253.65630211821616 A 270.40237070968385,270.40237070968385 0 0 0 637.8538778440911,271.6149734779531 Z "/><path class="wedge" fill="rgb(223,186,159)" d=" M 652.9285795020379,243.371303727069 L 597.1830332049466,165.5340790283671 A 378.8,378.8 0 0,1 597.1937619931463,165.5263955561639 L 652.9365966294954,243.3655622234786 A 283.05972905429314,283.05972905429314 0 0 0 652.9285795020379,243.371303727069 Z "/><path class="wedge" fill="rgb(226,193,168)" d=" M 629.4334139191194,262.1648672588622 L 565.7410165233632,190.68425453947907 A 378.8,378.8 0 0,1 597.1684978543898,165.54448949015108 L 652.9177179064985,243.37908298391142 A 283.05972905429314,283.05972905429314 0 0 0 629.4334139191194,262.1648672588622 Z "/><path class="wedge" fill="rgb(226,193,168)" d=" M 643.8430732339621,237.42103647465456 L 593.0834794862748,168.51178343111934 A 378.8,378.8 0 0,1 597.1684978543898,165.54448949015108 L 647.0051196670208,235.12417502230196 A 293.21366047990944,293.21366047990944 0 0 0 643.8430732339621,237.42103647465456 Z "/><path class="wedge" fill="rgb(226,194,168)" d=" M 622.6783856629704,254.58384380191742 L 565.7410165233632,190.68425453947907 A 378.8,378.8 0 0,1 593.0834794862748,168.51178343111934 L 643.8430732339621,237.42103647465456 A 293.21366047990944,293.21366047990944 0 0 0 622.6783856629704,254.58384380191742 Z "/><path class="wedge" fill="url(#hiddenPattern)" d=" M 622.6783856629704,254.58384380191742 L 565.7410165233632,190.68425453947907 A 378.8,378.8 0 0,1 593.0834794862748,168.51178343111934 L 643.8430732339621,237.42103647465456 A 293.21366047990944,293.21366047990944 0 0 0 622.6783856629704,254.58384380191742 Z "/><path class="wedge" fill="rgb(223,187,159)" d=" M 652.9177179064985,243.37908298391142 L 597.1684978543898,165.54448949015108 A 378.8,378.8 0 0,1 597.1830332049466,165.5340790283671 L 652.9285795020379,243.371303727069 A 283.05972905429314,283.05972905429314 0 0 0 652.9177179064985,243.37908298391142 Z "/><path class="wedge" fill="url(#hiddenPattern)" d=" M 652.9177179064985,243.37908298391142 L 597.1684978543898,165.54448949015108 A 378.8,378.8 0 0,1 597.1830332049466,165.5340790283671 L 652.9285795020379,243.371303727069 A 283.05972905429314,283.05972905429314 0 0 0 652.9177179064985,243.37908298391142 Z "/><path class="wedge" fill="rgb(219,181,149)" d=" M 660.3060872959327,253.65630211821616 L 597.1937619931463,165.5263955561639 A 378.8,378.8 0 0,1 598.7921097688807,164.38802490277521 L 661.4470509384278,252.84368827602339 A 270.40237070968385,270.40237070968385 0 0 0 660.3060872959327,253.65630211821616 Z "/><path class="wedge" fill="url(#hiddenPattern)" d=" M 660.3060872959327,253.65630211821616 L 597.1937619931463,165.5263955561639 A 378.8,378.8 0 0,1 598.7921097688807,164.38802490277521 L 661.4470509384278,252.84368827602339 A 270.40237070968385,270.40237070968385 0 0 0 660.3060872959327,253.65630211821616 Z "/><path class="wedge" fill="rgb(216,175,140)" d=" M 679.9123275829254,259.91907603467655 L 612.3469389214886,155.22001768966635 A 378.8,378.8 0 0,1 618.4701331579719,151.35095660221083 L 684.0212805656239,257.3227530239152 A 254.19271865856766,254.19271865856766 0 0 0 679.9123275829254,259.91907603467655 Z "/><path class="wedge" fill="url(#hiddenPattern)" d=" M 679.9123275829254,259.91907603467655 L 612.3469389214886,155.22001768966635 A 378.8,378.8 0 0,1 618.4701331579719,151.35095660221083 L 684.0212805656239,257.3227530239152 A 254.19271865856766,254.19271865856766 0 0 0 679.9123275829254,259.91907603467655 Z "/><path class="wedge" fill="rgb(216,175,140)" d=" M 699.2780706735118,273.20313788053215 L 624.9065442337135,147.45740286768563 A 378.8,378.8 0 0,1 665.53877969368,126.62322091134456 L 724.2395613962345,260.4041315317155 A 232.70717396495255,232.70717396495255 0 0 0 699.2780706735118,273.20313788053215 Z "/><path class="wedge" fill="rgb(216,175,140)" d=" M 715.4578612398576,240.79457971493946 L 665.3171743409054,126.72054199993568 A 378.8,378.8 0 0,1 665.53877969368,126.62322091134456 L 715.6065689143326,240.72927266084287 A 254.19271865856766,254.19271865856766 0 0 0 715.4578612398576,240.79457971493946 Z "/><path class="wedge" fill="rgb(219,182,149)" d=" M 688.3404168637942,254.70999428837615 L 624.9065442337135,147.45740286768563 A 378.8,378.8 0 0,1 649.3944622155641,134.16474696682195 L 704.7729681998411,245.78999338649288 A 254.19271865856766,254.19271865856766 0 0 0 688.3404168637942,254.70999428837615 Z "/><path class="wedge" fill="rgb(219,182,149)" d=" M 697.4549603217749,231.32573331003715 L 649.2347003372015,134.2440534585793 A 378.8,378.8 0 0,1 649.3944622155641,134.16474696682195 L 697.5690046476943,231.26912121029096 A 270.40237070968385,270.40237070968385 0 0 0 697.4549603217749,231.32573331003715 Z "/><path class="wedge" fill="rgb(223,189,159)" d=" M 680.0885635810716,240.75794293315687 L 624.9065442337135,147.45740286768563 A 378.8,378.8 0 0,1 646.5713091717475,135.58003934752622 L 695.5537267281477,232.27941269653647 A 270.40237070968385,270.40237070968385 0 0 0 680.0885635810716,240.75794293315687 Z "/><path class="wedge" fill="rgb(223,189,159)" d=" M 689.7585569680346,221.02634248866974 L 646.4701413030525,135.63130428402286 A 378.8,378.8 0 0,1 646.5713091717475,135.58003934752622 L 689.834155039581,220.98803457147145 A 283.05972905429314,283.05972905429314 0 0 0 689.7585569680346,221.02634248866974 Z "/><path class="wedge" fill="rgb(226,195,168)" d=" M 673.6450777075196,229.8634392702456 L 624.9065442337135,147.45740286768563 A 378.8,378.8 0 0,1 646.2954526901788,135.71991413894784 L 689.6280202430373,221.09255653705046 A 283.05972905429314,283.05972905429314 0 0 0 673.6450777075196,229.8634392702456 Z "/><path class="wedge" fill="rgb(226,195,168)" d=" M 685.0199970920216,212.0444280192787 L 646.279564320466,135.72797906414985 A 378.8,378.8 0 0,1 646.2954526901788,135.71991413894784 L 685.0322956322607,212.03818528897256 A 293.21366047990944,293.21366047990944 0 0 0 685.0199970920216,212.0444280192787 Z "/><path class="wedge" fill="rgb(229,202,178)" d=" M 668.4760122579474,221.12369752496747 L 624.9065442337135,147.45740286768563 A 378.8,378.8 0 0,1 646.2254491027588,135.75545496345012 L 684.9781087048211,212.06569599448676 A 293.21366047990944,293.21366047990944 0 0 0 668.4760122579474,221.12369752496747 Z "/><path class="wedge" fill="rgb(229,202,178)" d=" M 677.7336623975523,206.4366744716101 L 641.8598234275021,138.00817974218722 A 378.8,378.8 0 0,1 646.2254491027588,135.75545496345012 L 681.2088544602091,204.64342606857178 A 301.53816457406833,301.53816457406833 0 0 0 677.7336623975523,206.4366744716101 Z "/><path class="wedge" fill="rgb(229,202,178)" d=" M 664.2382540247785,213.9585894608224 L 624.9065442337135,147.45740286768563 A 378.8,378.8 0 0,1 640.2712719937247,138.84578899146248 L 676.4691194100319,207.1034409860154 A 301.53816457406833,301.53816457406833 0 0 0 664.2382540247785,213.9585894608224 Z "/><path class="wedge" fill="rgb(229,202,178)" d=" M 663.008309775688,206.62771765790097 L 627.7392156562447,145.79856222824634 A 378.8,378.8 0 0,1 640.2712719937247,138.84578899146248 L 673.2141193686031,200.96554395819345 A 308.4857400643993,308.4857400643993 0 0 0 663.008309775688,206.62771765790097 Z "/><path class="wedge" fill="rgb(229,202,178)" d=" M 660.701449321256,207.9786381497339 L 624.9065442337135,147.45740286768563 A 378.8,378.8 0 0,1 627.7392156562447,145.79856222824634 L 663.008309775688,206.62771765790097 A 308.4857400643993,308.4857400643993 0 0 0 660.701449321256,207.9786381497339 Z "/><path class="wedge" fill="url(#hiddenPattern)" d=" M 660.701449321256,207.9786381497339 L 624.9065442337135,147.45740286768563 A 378.8,378.8 0 0,1 627.7392156562447,145.79856222824634 L 663.008309775688,206.62771765790097 A 308.4857400643993,308.4857400643993 0 0 0 660.701449321256,207.9786381497339 Z "/><path class="wedge" fill="rgb(229,202,178)" d=" M 676.4691194100319,207.1034409860154 L 640.2712719937247,138.84578899146248 A 378.8,378.8 0 0,1 641.8598234275021,138.00817974218722 L 677.7336623975523,206.4366744716101 A 301.53816457406833,301.53816457406833 0 0 0 676.4691194100319,207.1034409860154 Z "/><path class="wedge" fill="url(#hiddenPattern)" d=" M 676.4691194100319,207.1034409860154 L 640.2712719937247,138.84578899146248 A 378.8,378.8 0 0,1 641.8598234275021,138.00817974218722 L 677.7336623975523,206.4366744716101 A 301.53816457406833,301.53816457406833 0 0 0 676.4691194100319,207.1034409860154 Z "/><path class="wedge" fill="rgb(226,196,168)" d=" M 684.9781087048211,212.06569599448676 L 646.2254491027588,135.75545496345012 A 378.8,378.8 0 0,1 646.279564320466,135.72797906414985 L 685.0199970920216,212.0444280192787 A 293.21366047990944,293.21366047990944 0 0 0 684.9781087048211,212.06569599448676 Z "/><path class="wedge" fill="url(#hiddenPattern)" d=" M 684.9781087048211,212.06569599448676 L 646.2254491027588,135.75545496345012 A 378.8,378.8 0 0,1 646.279564320466,135.72797906414985 L 685.0199970920216,212.0444280192787 A 293.21366047990944,293.21366047990944 0 0 0 684.9781087048211,212.06569599448676 Z "/><path class="wedge" fill="rgb(223,189,159)" d=" M 689.6280202430373,221.09255653705046 L 646.2954526901788,135.71991413894784 A 378.8,378.8 0 0,1 646.4701413030525,135.63130428402286 L 689.7585569680346,221.02634248866974 A 283.05972905429314,283.05972905429314 0 0 0 689.6280202430373,221.09255653705046 Z "/><path class="wedge" fill="url(#hiddenPattern)" d=" M 689.6280202430373,221.09255653705046 L 646.2954526901788,135.71991413894784 A 378.8,378.8 0 0,1 646.4701413030525,135.63130428402286 L 689.7585569680346,221.02634248866974 A 283.05972905429314,283.05972905429314 0 0 0 689.6280202430373,221.09255653705046 Z "/><path class="wedge" fill="rgb(219,183,149)" d=" M 695.5537267281477,232.27941269653647 L 646.5713091717475,135.58003934752622 A 378.8,378.8 0 0,1 649.2347003372015,134.2440534585793 L 697.4549603217749,231.32573331003715 A 270.40237070968385,270.40237070968385 0 0 0 695.5537267281477,232.27941269653647 Z "/><path class="wedge" fill="url(#hiddenPattern)" d=" M 695.5537267281477,232.27941269653647 L 646.5713091717475,135.58003934752622 A 378.8,378.8 0 0,1 649.2347003372015,134.2440534585793 L 697.4549603217749,231.32573331003715 A 270.40237070968385,270.40237070968385 0 0 0 695.5537267281477,232.27941269653647 Z "/><path class="wedge" fill="rgb(219,183,149)" d=" M 704.7729681998411,245.78999338649288 L 649.3944622155641,134.16474696682195 A 378.8,378.8 0 0,1 665.2586096519815,126.74628972442275 L 715.4185615632606,240.8118576560341 A 254.19271865856766,254.19271865856766 0 0 0 704.7729681998411,245.78999338649288 Z "/><path class="wedge" fill="rgb(219,183,149)" d=" M 708.7052913499823,226.05636523123584 L 664.9950111003806,126.86232591302837 A 378.8,378.8 0 0,1 665.2586096519815,126.74628972442275 L 708.8934583860661,225.9735340261485 A 270.40237070968385,270.40237070968385 0 0 0 708.7052913499823,226.05636523123584 Z "/><path class="wedge" fill="rgb(223,189,159)" d=" M 697.5690046476943,231.26912121029096 L 649.3944622155641,134.16474696682195 A 378.8,378.8 0 0,1 663.0507666746108,127.72559302987975 L 707.3174130448946,226.67259932561896 A 270.40237070968385,270.40237070968385 0 0 0 697.5690046476943,231.26912121029096 Z "/><path class="wedge" fill="rgb(223,189,159)" d=" M 697.5690046476943,231.26912121029096 L 649.3944622155641,134.16474696682195 A 378.8,378.8 0 0,1 663.0507666746108,127.72559302987975 L 707.3174130448946,226.67259932561896 A 270.40237070968385,270.40237070968385 0 0 0 697.5690046476943,231.26912121029096 Z "/><path class="wedge" fill="rgb(223,189,159)" d=" M 702.1411083496571,215.12207325673495 L 663.040885855906,127.73001365349342 A 378.8,378.8 0 0,1 663.0507666746108,127.72559302987975 L 702.1484918287105,215.11876992906252 A 283.05972905429314,283.05972905429314 0 0 0 702.1411083496571,215.12207325673495 Z "/><path class="wedge" fill="rgb(226,196,168)" d=" M 691.943766802151,219.93045200068272 L 649.3944622155641,134.16474696682195 A 378.8,378.8 0 0,1 663.0315047460665,127.73421102372993 L 702.1340982799385,215.12520975747913 A 283.05972905429314,283.05972905429314 0 0 0 691.943766802151,219.93045200068272 Z "/><path class="wedge" fill="rgb(226,196,168)" d=" M 693.9633389028247,207.69368653964648 L 657.8333843996103,130.10729662463706 A 378.8,378.8 0 0,1 663.0315047460665,127.73421102372993 L 697.9869922671318,205.8567775753536 A 293.21366047990944,293.21366047990944 0 0 0 693.9633389028247,207.69368653964648 Z "/><path class="wedge" fill="rgb(229,203,178)" d=" M 687.4311127568656,210.83439368602313 L 649.3944622155641,134.16474696682195 A 378.8,378.8 0 0,1 657.8333843996103,130.10729662463706 L 693.9633389028247,207.69368653964648 A 293.21366047990944,293.21366047990944 0 0 0 687.4311127568656,210.83439368602313 Z "/><path class="wedge" fill="url(#hiddenPattern)" d=" M 687.4311127568656,210.83439368602313 L 649.3944622155641,134.16474696682195 A 378.8,378.8 0 0,1 657.8333843996103,130.10729662463706 L 693.9633389028247,207.69368653964648 A 293.21366047990944,293.21366047990944 0 0 0 687.4311127568656,210.83439368602313 Z "/><path class="wedge" fill="rgb(223,190,159)" d=" M 702.1340982799385,215.12520975747913 L 663.0315047460665,127.73421102372993 A 378.8,378.8 0 0,1 663.040885855906,127.73001365349342 L 702.1411083496571,215.12207325673495 A 283.05972905429314,283.05972905429314 0 0 0 702.1340982799385,215.12520975747913 Z "/><path class="wedge" fill="url(#hiddenPattern)" d=" M 702.1340982799385,215.12520975747913 L 663.0315047460665,127.73421102372993 A 378.8,378.8 0 0,1 663.040885855906,127.73001365349342 L 702.1411083496571,215.12207325673495 A 283.05972905429314,283.05972905429314 0 0 0 702.1340982799385,215.12520975747913 Z "/><path class="wedge" fill="rgb(219,184,149)" d=" M 707.3174130448946,226.67259932561896 L 663.0507666746108,127.72559302987975 A 378.8,378.8 0 0,1 664.9950111003806,126.86232591302837 L 708.7052913499823,226.05636523123584 A 270.40237070968385,270.40237070968385 0 0 0 707.3174130448946,226.67259932561896 Z "/><path class="wedge" fill="url(#hiddenPattern)" d=" M 707.3174130448946,226.67259932561896 L 663.0507666746108,127.72559302987975 A 378.8,378.8 0 0,1 664.9950111003806,126.86232591302837 L 708.7052913499823,226.05636523123584 A 270.40237070968385,270.40237070968385 0 0 0 707.3174130448946,226.67259932561896 Z "/><path class="wedge" fill="rgb(216,177,140)" d=" M 715.4185615632606,240.8118576560341 L 665.2586096519815,126.74628972442275 A 378.8,378.8 0 0,1 665.3171743409054,126.72054199993568 L 715.4578612398576,240.79457971493946 A 254.19271865856766,254.19271865856766 0 0 0 715.4185615632606,240.8118576560341 Z "/><path class="wedge" fill="url(#hiddenPattern)" d=" M 715.4185615632606,240.8118576560341 L 665.2586096519815,126.74628972442275 A 378.8,378.8 0 0,1 665.3171743409054,126.72054199993568 L 715.4578612398576,240.79457971493946 A 254.19271865856766,254.19271865856766 0 0 0 715.4185615632606,240.8118576560341 Z "/><path class="wedge" fill="rgb(213,171,130)" d=" M 724.2395613962345,260.4041315317155 L 665.53877969368,126.62322091134456 A 378.8,378.8 0 0,1 665.7343785400569,126.53746122289328 L 724.3597231036558,260.35144701550746 A 232.70717396495255,232.70717396495255 0 0 0 724.2395613962345,260.4041315317155 Z "/><path class="wedge" fill="url(#hiddenPattern)" d=" M 724.2395613962345,260.4041315317155 L 665.53877969368,126.62322091134456 A 378.8,378.8 0 0,1 665.7343785400569,126.53746122289328 L 724.3597231036558,260.35144701550746 A 232.70717396495255,232.70717396495255 0 0 0 724.2395613962345,260.4041315317155 Z "/><path class="wedge" fill="rgb(210,165,121)" d=" M 737.32150711139,287.2077865212832 L 667.6093734120569,125.72203030252939 A 378.8,378.8 0 0,1 667.7964889105317,125.64131371409195 L 737.4217381881812,287.16454953322 A 202.90960501932898,202.90960501932898 0 0 0 737.32150711139,287.2077865212832 Z "/><path class="wedge" fill="url(#hiddenPattern)" d=" M 737.32150711139,287.2077865212832 L 667.6093734120569,125.72203030252939 A 378.8,378.8 0 0,1 667.7964889105317,125.64131371409195 L 737.4217381881812,287.16454953322 A 202.90960501932898,202.90960501932898 0 0 0 737.32150711139,287.2077865212832 Z "/><path class="wedge" fill="rgb(207,159,111)" d=" M 757.2139786161516,326.5358877777207 L 673.4862860598262,123.24350056470934 A 378.8,378.8 0 0,1 673.7146672458072,123.14952690111562 L 757.309805069908,326.49645737153384 A 158.94067861568504,158.94067861568504 0 0 0 757.2139786161516,326.5358877777207 Z "/><path class="wedge" fill="url(#hiddenPattern)" d=" M 757.2139786161516,326.5358877777207 L 673.4862860598262,123.24350056470934 A 378.8,378.8 0 0,1 673.7146672458072,123.14952690111562 L 757.309805069908,326.49645737153384 A 158.94067861568504,158.94067861568504 0 0 0 757.2139786161516,326.5358877777207 Z "/><path class="wedge" fill="rgb(159,207,111)" d=" M 784.3081106440028,392.0988408326599 L 673.8230024096764,123.105010311495 A 378.8,378.8 0 1,1 820.1642957105036,852.2922575645526 L 818.3050320021675,561.4982013349542 A 88,88 0 1 0 784.3081106440028,392.0988408326599 Z "/><path class="wedge" fill="rgb(101,204,204)" d=" M 818.3050320021675,561.4982013349542 L 820.1642957105036,852.2922575645526 A 378.8,378.8 0 0,1 819.0587383826188,852.2977128188403 L 818.0481971424689,561.4994686590759 A 88,88 0 0 0 818.3050320021675,561.4982013349542 Z "/><path class="wedge" fill="url(#hiddenPattern)" d=" M 818.3050320021675,561.4982013349542 L 820.1642957105036,852.2922575645526 A 378.8,378.8 0 0,1 819.0587383826188,852.2977128188403 L 818.0481971424689,561.4994686590759 A 88,88 0 0 0 818.3050320021675,561.4982013349542 Z "/><rect fill="rgb(101,204,204)" x="1673.795" y="852.1283333333333" width="22" height="22"/><rect fill="url(#hiddenPattern)" style="stroke:none" x="1673.795" y="852.1283333333333" width="22" height="22"/><path class="line" d="M 819.6115190367844,852.2953885287264 L 819.9035698642433,911.48216798634 A 437.9875,437.9875 0 0,0 1017.7994156626464,863.1283333333333 L 1279.404893741048,863.1283333333333 L 1584.1174283854168,863.1283333333333"/><text x="1666.4616666666668" y="863.1283333333333" style="font-color:black;font-weight:normal" text-anchor="end">Viruses&#160;&#160;&#160;0.05%</text><path class="wedge" fill="rgb(159,111,207)" d=" M 818.0481971424689,561.4994686590759 L 819.0587383826188,852.2977128188403 A 378.8,378.8 0 0,1 819.0585559462318,852.2977134527737 L 818.0481547602037,561.4994688063466 A 88,88 0 0 0 818.0481971424689,561.4994686590759 Z "/><path class="wedge" fill="rgb(159,111,207)" d=" M 818.0481971424689,561.4994686590759 L 819.0587383826188,852.2977128188403 A 378.8,378.8 0 0,1 819.0585559462318,852.2977134527737 L 818.0481547602037,561.4994688063466 A 88,88 0 0 0 818.0481971424689,561.4994686590759 Z "/><rect fill="rgb(159,111,207)" x="1673.795" y="881.4616666666667" width="22" height="22"/><path class="line" d="M 819.0586471644255,852.297713135818 L 819.3054446813087,923.3222843487839 A 449.82500000000005,449.82500000000005 0 0,0 981.491141793938,892.4616666666667 L 1268.404893741048,892.4616666666667 L 1514.7980924479168,892.4616666666667"/><text x="1666.4616666666668" y="892.4616666666667" style="font-color:black;font-weight:normal" text-anchor="end">other sequences&#160;&#160;&#160;0.000008%</text><circle cx="817.742393741048" cy="473.5" r="88"/><circle cx="817.742393741048" cy="473.5" r="378.8"/><text x="817.742393741048" y="473.5" text-anchor="middle" style="font-color:black;font-weight:bold" transform="rotate(360,817.742393741048,473.5)">Root</text><rect fill="rgb(220,220,220)" x="1673.795" y="910.795" width="22" height="22"/><path class="line" d="M 818.4004758367345,852.2994283627621 L 818.5444312951659,935.1618033171164 A 461.6625,461.6625 0 0,0 928.0322703447058,921.795 L 1257.404893741048,921.795 L 1563.1271940104168,921.795"/><text x="1666.4616666666668" y="921.795" style="font-color:black;font-weight:normal" text-anchor="end">[other Root]&#160;&#160;&#160;0.06%</text><path class="line" d=" M 784.3081106440028,392.0988408326599 A 88,88 0 0 0 817.742393741048,561.5"/><line x1="673.8230024096764" y1="123.105010311495" x2="784.3081106440028" y2="392.0988408326599"/><text x="817.742393741048" y="596.9703393078426" text-anchor="middle" style="font-color:black;font-weight:normal" transform="rotate(78.83517067645046,817.742393741048,473.5)">cellular organisms</text><path class="line" d=" M 757.2139786161516,326.5358877777207 A 158.94067861568504,158.94067861568504 0 0 0 817.742393741048,632.4406786156851"/><line x1="673.4862860598262" y1="123.24350056470934" x2="757.2139786161516" y2="326.5358877777207"/><text x="817.742393741048" y="645.6313565367782" text-anchor="middle" style="font-color:black;font-weight:normal" transform="rotate(78.80763569714374,817.742393741048,473.5)">Bacteria</text><path class="line" d=" M 615.7777784046327,493.06021372873744 A 202.90960501932898,202.90960501932898 0 0 0 817.742393741048,676.409605019329"/><line x1="440.7065393656654" y1="510.01581185493876" x2="615.7777784046327" y2="493.06021372873744"/><text x="817.742393741048" y="685.348875703016" text-anchor="middle" style="font-color:black;font-weight:normal" transform="rotate(42.234086723303726,817.742393741048,473.5)">Pseudomonadati</text><path class="line" d=" M 586.7644549206777,501.81643679999286 A 232.70717396495255,232.70717396495255 0 0 0 817.742393741048,706.2071739649525"/><line x1="441.75723722699234" y1="519.5934060479491" x2="586.7644549206777" y2="501.81643679999286"/><text x="817.742393741048" y="716.9499463117601" text-anchor="middle" style="font-color:black;font-weight:normal" transform="rotate(41.50538708637424,817.742393741048,473.5)">FCB group</text><path class="line" d=" M 565.4418966491711,504.4579938985969 A 254.19271865856766,254.19271865856766 0 0 0 817.742393741048,727.6927186585676"/><line x1="441.7621972871332" y1="519.6338473842758" x2="565.4418966491711" y2="504.4579938985969"/><text x="817.742393741048" y="735.7975446841258" text-anchor="middle" style="font-color:black;font-weight:normal" transform="rotate(41.50230567061751,817.742393741048,473.5)">Bacteroidota/Chlorobiota group</text><path class="line" d=" M 549.36078454794,506.4962714914147 A 270.40237070968385,270.40237070968385 0 0 0 817.742393741048,743.9023707096839"/><line x1="441.77322862045355" y1="519.7236614573449" x2="549.36078454794" y2="506.4962714914147"/><path class="line" d=" M 538.2400610715263,518.235402586608 A 283.05972905429314,283.05972905429314 0 0 0 817.742393741048,756.5597290542931"/><line x1="443.7030206061043" y1="533.3664124933038" x2="538.2400610715263" y2="518.235402586608"/><path class="line" d=" M 528.2366672152286,519.9831690054053 A 293.21366047990944,293.21366047990944 0 0 0 817.742393741048,766.7136604799094"/><line x1="443.7326391188057" y1="533.5511735722969" x2="528.2366672152286" y2="519.9831690054053"/><path class="line" d=" M 813.3694813235716,775.0064548756577 A 301.53816457406833,301.53816457406833 0 0 0 817.742393741048,775.0381645740683"/><line x1="812.2490286604458" y1="852.2601654610622" x2="813.3694813235716" y2="775.0064548756577"/><path class="line" d=" M 651.8130022128239,725.2790732403533 A 301.53816457406833,301.53816457406833 0 0 0 813.3694813235716,775.0064548756577"/><line x1="609.2976232435074" y1="789.791349316145" x2="651.8130022128239" y2="725.2790732403533"/><path class="line" d=" M 647.9950004109245,731.0835287449655 A 308.4857400643993,308.4857400643993 0 0 0 813.268727446609,781.9532997602167"/><line x1="609.303868900232" y1="789.7954652886831" x2="647.9950004109245" y2="731.0835287449655"/><path class="line" d=" M 736.6750088518652,777.2390188236366 A 314.37129711332796,314.37129711332796 0 0 0 813.1833749820565,787.8382378850392"/><line x1="720.0606852708488" y1="839.4886935826612" x2="736.6750088518652" y2="777.2390188236366"/><text x="471.156745184384" y="473.5" text-anchor="end" style="font-color:black;font-weight:normal" transform="rotate(-82.11263346222306,817.742393741048,473.5)">Alistipes putredinis&#160;&#160;&#160;4%</text><path class="line" d=" M 724.6463317388238,773.7706041030231 A 314.37129711332796,314.37129711332796 0 0 0 736.6750088518652,777.2390188236366"/><line x1="705.5667956178838" y1="835.3094459597626" x2="724.6463317388238" y2="773.7706041030231"/><text x="471.156745184384" y="473.5" text-anchor="end" style="font-color:black;font-weight:normal" transform="rotate(-73.91532249059952,817.742393741048,473.5)">Alistipes communis&#160;&#160;&#160;0.6%</text><line x1="1188.292393741048" y1="473.5" x2="1204.792393741048" y2="473.5" class="tick" transform="rotate(108.22328582451146,817.742393741048,473.5)"/><text x="427.94239374104797" y="473.5" text-anchor="end" style="font-color:black;font-weight:normal" transform="rotate(-71.77671417548854,817.742393741048,473.5)">5 more</text><path class="line" d=" M 714.2472692357813,770.3468825040204 A 314.37129711332796,314.37129711332796 0 0 0 724.6463317388238,773.7706041030231"/><line x1="693.0365013056379" y1="831.1840510728539" x2="714.2472692357813" y2="770.3468825040204"/><path class="line" d=" M 664.6592721748233,748.0812636365722 A 314.37129711332796,314.37129711332796 0 0 0 714.2472692357813,770.3468825040204"/><line x1="633.2857115256172" y1="804.3552136298831" x2="664.6592721748233" y2="748.0812636365722"/><path class="line" d=" M 686.600814312347,764.7583945097689 A 319.4206728241967,319.4206728241967 0 0 0 712.5849490027676,775.1147841926487"/><line x1="662.2219953636613" y1="818.9024401890335" x2="686.600814312347" y2="764.7583945097689"/><text x="468.6320573289496" y="473.5" text-anchor="end" style="font-color:black;font-weight:normal" transform="rotate(-68.26946055856818,817.742393741048,473.5)">Alistipes onderdonkii subsp. vulgaris&#160;&#160;&#160;1%</text><line x1="1188.292393741048" y1="473.5" x2="1204.792393741048" y2="473.5" class="tick" transform="rotate(120.50713357967966,817.742393741048,473.5)"/><text x="427.94239374104797" y="473.5" text-anchor="end" style="font-color:black;font-weight:normal" transform="rotate(-59.49286642032035,817.742393741048,473.5)">4 more</text><path class="line" d=" M 651.7378968740926,740.4678247816867 A 314.37129711332796,314.37129711332796 0 0 0 664.6592721748233,748.0812636365722"/><line x1="617.716170003026" y1="795.181441518013" x2="651.7378968740926" y2="740.4678247816867"/><path class="line" d=" M 647.9905343748952,731.0805855743286 A 308.4857400643993,308.4857400643993 0 0 0 647.9950004109245,731.0835287449655"/><line x1="609.2983849046102" y1="789.7918512706185" x2="647.9905343748952" y2="731.0805855743286"/><path class="line" d=" M 548.8823895593559,610.0267843542742 A 301.53816457406833,301.53816457406833 0 0 0 651.8130022128239,725.2790732403533"/><line x1="479.99353953586683" y1="645.0084589257547" x2="548.8823895593559" y2="610.0267843542742"/><path class="line" d=" M 592.4235373568856,684.2008893688239 A 308.4857400643993,308.4857400643993 0 0 0 647.9899140961492,731.0801767945047"/><line x1="541.0658031780517" y1="732.2266979544943" x2="592.4235373568856" y2="684.2008893688239"/><path class="line" d=" M 631.8653885870272,727.0331366975299 A 314.37129711332796,314.37129711332796 0 0 0 644.7512298608955,735.9945135962017"/><line x1="593.7708982550562" y1="778.9933865237813" x2="631.8653885870272" y2="727.0331366975299"/><text x="471.156745184384" y="473.5" text-anchor="end" style="font-color:black;font-weight:normal" transform="rotate(-55.18356167407647,817.742393741048,473.5)">Bacteroides uniformis&#160;&#160;&#160;0.8%</text><path class="line" d=" M 641.8207451963442,740.110464537265 A 319.4206728241967,319.4206728241967 0 0 0 641.9726766370097,740.210653661658"/><line x1="609.1174482122069" y1="789.6725353396276" x2="641.8207451963442" y2="740.110464537265"/><path class="line" d=" M 630.0321391322244,725.6788507456702 A 314.37129711332796,314.37129711332796 0 0 0 631.8653885870272,727.0331366975299"/><line x1="591.5619342056796" y1="777.3615469656692" x2="630.0321391322244" y2="725.6788507456702"/><path class="line" d=" M 619.2319898955471,717.2681931955285 A 314.37129711332796,314.37129711332796 0 0 0 630.0321391322244,725.6788507456702"/><line x1="578.5483525955921" y1="767.2271704839475" x2="619.2319898955471" y2="717.2681931955285"/><text x="471.156745184384" y="473.5" text-anchor="end" style="font-color:black;font-weight:normal" transform="rotate(-52.09018818456423,817.742393741048,473.5)">Bacteroides eggerthii&#160;&#160;&#160;0.7%</text><line x1="1188.292393741048" y1="473.5" x2="1204.792393741048" y2="473.5" class="tick" transform="rotate(130.72867715230376,817.742393741048,473.5)"/><text x="427.94239374104797" y="473.5" text-anchor="end" style="font-color:black;font-weight:normal" transform="rotate(-49.27132284769624,817.742393741048,473.5)">28 more</text><path class="line" d=" M 606.1664964525062,706.0187135162776 A 314.37129711332796,314.37129711332796 0 0 0 619.2319898955471,717.2681931955285"/><line x1="562.8051566942188" y1="753.6721705789653" x2="606.1664964525062" y2="706.0187135162776"/><path class="line" d=" M 553.0001607646941,631.850882226068 A 308.4857400643993,308.4857400643993 0 0 0 592.4235373568856,684.2008893688239"/><line x1="492.65651511823853" y1="667.9443661308705" x2="553.0001607646941" y2="631.850882226068"/><path class="line" d=" M 579.408650065044,678.5032660083667 A 314.37129711332796,314.37129711332796 0 0 0 588.1247098546112,688.2208226869129"/><line x1="530.5634339140479" y1="720.5175804121689" x2="579.408650065044" y2="678.5032660083667"/><text x="471.156745184384" y="473.5" text-anchor="end" style="font-color:black;font-weight:normal" transform="rotate(-41.890182328341254,817.742393741048,473.5)">Phocaeicola dorei&#160;&#160;&#160;0.7%</text><path class="line" d=" M 584.3132060852021,691.5375668956943 A 319.4206728241967,319.4206728241967 0 0 0 584.4366315648679,691.6696302486993"/><line x1="540.9194332788088" y1="732.0700844276491" x2="584.3132060852021" y2="691.5375668956943"/><path class="line" d=" M 556.0363517184428,647.6816868031158 A 314.37129711332796,314.37129711332796 0 0 0 579.408650065044,678.5032660083667"/><line x1="502.4011089976578" y1="683.3792846766639" x2="556.0363517184428" y2="647.6816868031158"/><text x="471.156745184384" y="473.5" text-anchor="end" style="font-color:black;font-weight:normal" transform="rotate(-37.17339024260248,817.742393741048,473.5)">Phocaeicola vulgatus&#160;&#160;&#160;2%</text><path class="line" d=" M 575.5803084590752,681.7956808946097 A 319.4206728241967,319.4206728241967 0 0 0 575.5805759773381,681.7959919077615"/><line x1="530.5631166649574" y1="720.5172115826224" x2="575.5803084590752" y2="681.7956808946097"/><path class="line" d=" M 555.8275439310117,647.3675469939761 A 314.37129711332796,314.37129711332796 0 0 0 556.0363517184428,647.6816868031158"/><line x1="502.1495071796638" y1="683.0007636068501" x2="555.8275439310117" y2="647.3675469939761"/><path class="line" d=" M 542.505737761167,596.6667483524291 A 301.53816457406833,301.53816457406833 0 0 0 548.8823895593559,610.0267843542742"/><line x1="471.98302549507895" y1="628.2252379870472" x2="542.505737761167" y2="596.6667483524291"/><path class="line" d=" M 536.1738513128444,599.5262184544828 A 308.4857400643993,308.4857400643993 0 0 0 542.6877336423463,613.1724231230625"/><line x1="471.99492466990824" y1="628.2518259372124" x2="536.1738513128444" y2="599.5262184544828"/><line x1="1188.292393741048" y1="473.5" x2="1204.792393741048" y2="473.5" class="tick" transform="rotate(154.07697826252814,817.742393741048,473.5)"/><text x="427.94239374104797" y="473.5" text-anchor="end" style="font-color:black;font-weight:normal" transform="rotate(-25.92302173747186,817.742393741048,473.5)">8 more</text><path class="line" d=" M 532.6507351524219,605.9841826479773 A 314.37129711332796,314.37129711332796 0 0 0 537.4400035746723,615.8372140929182"/><line x1="474.2227363645631" y1="633.1361017938689" x2="532.6507351524219" y2="605.9841826479773"/><path class="line" d=" M 536.165920836047,599.5084986398114 A 308.4857400643993,308.4857400643993 0 0 0 536.1738513128444,599.5262184544828"/><line x1="471.98518657112214" y1="628.2300671816987" x2="536.165920836047" y2="599.5084986398114"/><line x1="1188.292393741048" y1="473.5" x2="1204.792393741048" y2="473.5" class="tick" transform="rotate(157.2248974100624,817.742393741048,473.5)"/><text x="427.94239374104797" y="473.5" text-anchor="end" style="font-color:black;font-weight:normal" transform="rotate(-22.775102589937607,817.742393741048,473.5)">8 more</text><path class="line" d=" M 537.0742138460253,583.7299300966532 A 301.53816457406833,301.53816457406833 0 0 0 542.505737761167,596.6667483524291"/><line x1="465.1598054162476" y1="611.9736740690604" x2="537.0742138460253" y2="583.7299300966532"/><path class="line" d=" M 528.2254149472432,519.9130335373069 A 293.21366047990944,293.21366047990944 0 0 0 528.2366672152286,519.9831690054053"/><line x1="443.7181024184831" y1="533.4605662135801" x2="528.2254149472432" y2="519.9130335373069"/><path class="line" d=" M 538.1343469991048,517.5698355958489 A 283.05972905429314,283.05972905429314 0 0 0 538.2400610715263,518.235402586608"/><line x1="443.5615504974206" y1="532.4757284778068" x2="538.1343469991048" y2="517.5698355958489"/><path class="line" d=" M 549.3555860164222,506.45396068459775 A 270.40237070968385,270.40237070968385 0 0 0 549.36078454794,506.4962714914147"/><line x1="441.765946126096" y1="519.6643892934944" x2="549.3555860164222" y2="506.45396068459775"/><path class="line" d=" M 565.4399141400613,504.4418326255482 A 254.19271865856766,254.19271865856766 0 0 0 565.4418966491711,504.4579938985969"/><line x1="441.75924293637615" y1="519.6097637273435" x2="565.4399141400613" y2="504.4418326255482"/><path class="line" d=" M 586.1914255824913,496.6684690817012 A 232.70717396495255,232.70717396495255 0 0 0 586.7644549206777,501.81643679999286"/><line x1="440.8244618870378" y1="511.21356051734864" x2="586.1914255824913" y2="496.6684690817012"/><path class="line" d=" M 737.32150711139,287.2077865212832 A 202.90960501932898,202.90960501932898 0 0 0 615.7777784046327,493.06021372873744"/><line x1="667.6093734120569" y1="125.72203030252939" x2="737.32150711139" y2="287.2077865212832"/><text x="817.742393741048" y="249.73209671873454" text-anchor="middle" style="font-color:black;font-weight:normal" transform="rotate(300.55934747980814,817.742393741048,473.5)">Bacillati</text><path class="line" d=" M 699.2780706735118,273.20313788053215 A 232.70717396495255,232.70717396495255 0 0 0 586.1189825605921,495.93265940284766"/><line x1="624.9065442337135" y1="147.45740286768563" x2="699.2780706735118" y2="273.20313788053215"/><text x="817.742393741048" y="230.0500536882399" text-anchor="middle" style="font-color:black;font-weight:normal" transform="rotate(296.93312361991025,817.742393741048,473.5)">Bacillota</text><path class="line" d=" M 679.9123275829254,259.91907603467655 A 254.19271865856766,254.19271865856766 0 0 0 564.7335002472933,498.00383708931264"/><line x1="612.3469389214886" y1="155.22001768966635" x2="679.9123275829254" y2="259.91907603467655"/><text x="817.742393741048" y="211.20245531587426" text-anchor="middle" style="font-color:black;font-weight:normal" transform="rotate(295.81641395054515,817.742393741048,473.5)">Clostridia</text><path class="line" d=" M 637.8538778440911,271.6149734779531 A 270.40237070968385,270.40237070968385 0 0 0 548.5993397134488,499.5664258024398"/><line x1="565.7410165233632" y1="190.68425453947907" x2="637.8538778440911" y2="271.6149734779531"/><path class="line" d=" M 625.426256583054,265.804757876071 A 283.05972905429314,283.05972905429314 0 0 0 536.0009291601352,500.7865781675198"/><line x1="560.3785045052357" y1="195.55527794646542" x2="625.426256583054" y2="265.804757876071"/><path class="line" d=" M 588.5753444476297,290.58823381155696 A 293.21366047990944,293.21366047990944 0 0 0 525.8942865774366,501.765403535856"/><line x1="521.6836148619691" y1="237.19799101863586" x2="588.5753444476297" y2="290.58823381155696"/><path class="line" d=" M 518.0126426692932,440.5251456839943 A 301.53816457406833,301.53816457406833 0 0 0 517.6085513256082,502.5678745635434"/><line x1="441.21416930764656" y1="432.07613966528356" x2="518.0126426692932" y2="440.5251456839943"/><path class="line" d=" M 510.54037265889195,501.6135210551562 A 308.4857400643993,308.4857400643993 0 0 0 510.69333205202213,503.2376115209164"/><line x1="440.51871539005595" y1="508.02153663073693" x2="510.54037265889195" y2="501.6135210551562"/><path class="line" d=" M 509.9846225986744,452.31967600440123 A 308.4857400643993,308.4857400643993 0 0 0 510.54037265889195,501.6135210551562"/><line x1="439.83629122754365" y1="447.4919688739651" x2="509.9846225986744" y2="452.31967600440123"/><text x="474.0995237088483" y="473.5" text-anchor="end" style="font-color:black;font-weight:normal" transform="rotate(-0.645938328657483,817.742393741048,473.5)">Faecalibacterium sp. I3-3-89&#160;&#160;&#160;3%</text><path class="line" d=" M 510.7701567305034,442.97955557626705 A 308.4857400643993,308.4857400643993 0 0 0 509.9846225986744,452.31967600440123"/><line x1="440.80087496835034" y1="436.0229213340735" x2="510.7701567305034" y2="442.97955557626705"/><path class="line" d=" M 537.65441635308,361.80403043343466 A 301.53816457406833,301.53816457406833 0 0 0 518.0126426692932,440.5251456839943"/><line x1="465.88867073246" y1="333.1846494320887" x2="537.65441635308" y2="361.80403043343466"/><text x="477.57331145401383" y="473.5" text-anchor="end" style="font-color:black;font-weight:normal" transform="rotate(14.009863698709683,817.742393741048,473.5)">Faecalibacterium prausnitzii&#160;&#160;&#160;4%</text><path class="line" d=" M 511.4033305209989,437.1705330545173 A 308.4857400643993,308.4857400643993 0 0 0 511.10673384275844,439.76539014868183"/><line x1="441.5783703293665" y1="428.88982749712846" x2="511.4033305209989" y2="437.1705330545173"/><path class="line" d=" M 539.7446854760723,356.6987204945109 A 301.53816457406833,301.53816457406833 0 0 0 537.65441635308,361.80403043343466"/><line x1="468.5145205810452" y1="326.7712277426782" x2="539.7446854760723" y2="356.6987204945109"/><line x1="532.7928297063766" y1="223.91397083079613" x2="597.174535444426" y2="280.30561452653717"/><path class="line" d=" M 597.174535444426,280.30561452653717 A 293.21366047990944,293.21366047990944 0 0 0 588.5753444476297,290.58823381155696"/><text x="481.7355635010932" y="473.5" text-anchor="end" style="font-color:black;font-weight:normal" transform="rotate(39.90520328477898,817.742393741048,473.5)">Lawsonibacter asaccharolyticus&#160;&#160;&#160;0.7%</text><line x1="1188.292393741048" y1="473.5" x2="1204.792393741048" y2="473.5" class="tick" transform="rotate(223.15921971603248,817.742393741048,473.5)"/><text x="427.94239374104797" y="473.5" text-anchor="end" style="font-color:black;font-weight:normal" transform="rotate(43.159219716032474,817.742393741048,473.5)">24 more</text><path class="line" d=" M 610.7837816121877,265.7925529555487 A 293.21366047990944,293.21366047990944 0 0 0 597.174535444426,280.30561452653717"/><line x1="550.3744882140684" y1="205.16468161250907" x2="610.7837816121877" y2="265.7925529555487"/><path class="line" d=" M 628.4255066435162,263.0672875430479 A 283.05972905429314,283.05972905429314 0 0 0 625.426256583054,265.804757876071"/><line x1="564.3922012847065" y1="191.89190355684946" x2="628.4255066435162" y2="263.0672875430479"/><path class="line" d=" M 660.3060872959327,253.65630211821616 A 270.40237070968385,270.40237070968385 0 0 0 637.8538778440911,271.6149734779531"/><line x1="597.1937619931463" y1="165.5263955561639" x2="660.3060872959327" y2="253.65630211821616"/><path class="line" d=" M 652.9177179064985,243.37908298391142 A 283.05972905429314,283.05972905429314 0 0 0 629.4334139191194,262.1648672588622"/><line x1="597.1684978543898" y1="165.54448949015108" x2="652.9177179064985" y2="243.37908298391142"/><line x1="1188.292393741048" y1="473.5" x2="1204.792393741048" y2="473.5" class="tick" transform="rotate(230.96081251670054,817.742393741048,473.5)"/><text x="427.94239374104797" y="473.5" text-anchor="end" style="font-color:black;font-weight:normal" transform="rotate(50.960812516700535,817.742393741048,473.5)">42 more</text><path class="line" d=" M 643.8430732339621,237.42103647465456 A 293.21366047990944,293.21366047990944 0 0 0 622.6783856629704,254.58384380191742"/><line x1="593.0834794862748" y1="168.51178343111934" x2="643.8430732339621" y2="237.42103647465456"/><path class="line" d=" M 652.9285795020379,243.371303727069 A 283.05972905429314,283.05972905429314 0 0 0 652.9177179064985,243.37908298391142"/><line x1="597.1830332049466" y1="165.5340790283671" x2="652.9285795020379" y2="243.371303727069"/><path class="line" d=" M 661.4470509384278,252.84368827602339 A 270.40237070968385,270.40237070968385 0 0 0 660.3060872959327,253.65630211821616"/><line x1="598.7921097688807" y1="164.38802490277521" x2="661.4470509384278" y2="252.84368827602339"/><path class="line" d=" M 684.0212805656239,257.3227530239152 A 254.19271865856766,254.19271865856766 0 0 0 679.9123275829254,259.91907603467655"/><line x1="618.4701331579719" y1="151.35095660221083" x2="684.0212805656239" y2="257.3227530239152"/><path class="line" d=" M 724.2395613962345,260.4041315317155 A 232.70717396495255,232.70717396495255 0 0 0 699.2780706735118,273.20313788053215"/><line x1="665.53877969368" y1="126.62322091134456" x2="724.2395613962345" y2="260.4041315317155"/><text x="817.742393741048" y="230.0500536882399" text-anchor="middle" style="font-color:black;font-weight:normal" transform="rotate(332.85351363414054,817.742393741048,473.5)">Actinomycetota</text><path class="line" d=" M 704.7729681998411,245.78999338649288 A 254.19271865856766,254.19271865856766 0 0 0 688.3404168637942,254.70999428837615"/><line x1="649.3944622155641" y1="134.16474696682195" x2="704.7729681998411" y2="245.78999338649288"/><text x="817.742393741048" y="211.20245531587426" text-anchor="middle" style="font-color:black;font-weight:normal" transform="rotate(331.50578056732496,817.742393741048,473.5)">...</text><path class="line" d=" M 695.5537267281477,232.27941269653647 A 270.40237070968385,270.40237070968385 0 0 0 680.0885635810716,240.75794293315687"/><line x1="646.5713091717475" y1="135.58003934752622" x2="695.5537267281477" y2="232.27941269653647"/><path class="line" d=" M 689.6280202430373,221.09255653705046 A 283.05972905429314,283.05972905429314 0 0 0 673.6450777075196,229.8634392702456"/><line x1="646.2954526901788" y1="135.71991413894784" x2="689.6280202430373" y2="221.09255653705046"/><path class="line" d=" M 684.9781087048211,212.06569599448676 A 293.21366047990944,293.21366047990944 0 0 0 668.4760122579474,221.12369752496747"/><line x1="646.2254491027588" y1="135.75545496345012" x2="684.9781087048211" y2="212.06569599448676"/><path class="line" d=" M 676.4691194100319,207.1034409860154 A 301.53816457406833,301.53816457406833 0 0 0 664.2382540247785,213.9585894608224"/><line x1="640.2712719937247" y1="138.84578899146248" x2="676.4691194100319" y2="207.1034409860154"/><path class="line" d=" M 663.008309775688,206.62771765790097 A 308.4857400643993,308.4857400643993 0 0 0 660.701449321256,207.9786381497339"/><line x1="627.7392156562447" y1="145.79856222824634" x2="663.008309775688" y2="206.62771765790097"/><path class="line" d=" M 677.7336623975523,206.4366744716101 A 301.53816457406833,301.53816457406833 0 0 0 676.4691194100319,207.1034409860154"/><line x1="641.8598234275021" y1="138.00817974218722" x2="677.7336623975523" y2="206.4366744716101"/><path class="line" d=" M 685.0199970920216,212.0444280192787 A 293.21366047990944,293.21366047990944 0 0 0 684.9781087048211,212.06569599448676"/><line x1="646.279564320466" y1="135.72797906414985" x2="685.0199970920216" y2="212.0444280192787"/><path class="line" d=" M 689.7585569680346,221.02634248866974 A 283.05972905429314,283.05972905429314 0 0 0 689.6280202430373,221.09255653705046"/><line x1="646.4701413030525" y1="135.63130428402286" x2="689.7585569680346" y2="221.02634248866974"/><path class="line" d=" M 697.4549603217749,231.32573331003715 A 270.40237070968385,270.40237070968385 0 0 0 695.5537267281477,232.27941269653647"/><line x1="649.2347003372015" y1="134.2440534585793" x2="697.4549603217749" y2="231.32573331003715"/><path class="line" d=" M 715.4185615632606,240.8118576560341 A 254.19271865856766,254.19271865856766 0 0 0 704.7729681998411,245.78999338649288"/><line x1="665.2586096519815" y1="126.74628972442275" x2="715.4185615632606" y2="240.8118576560341"/><text x="817.742393741048" y="211.20245531587426" text-anchor="middle" style="font-color:black;font-weight:normal" transform="rotate(334.9380775961809,817.742393741048,473.5)">...</text><line x1="663.0507666746108" y1="127.72559302987975" x2="707.3174130448946" y2="226.67259932561896"/><path class="line" d=" M 707.3174130448946,226.67259932561896 A 270.40237070968385,270.40237070968385 0 0 0 697.5690046476943,231.26912121029096"/><path class="line" d=" M 702.1340982799385,215.12520975747913 A 283.05972905429314,283.05972905429314 0 0 0 691.943766802151,219.93045200068272"/><line x1="663.0315047460665" y1="127.73421102372993" x2="702.1340982799385" y2="215.12520975747913"/><path class="line" d=" M 693.9633389028247,207.69368653964648 A 293.21366047990944,293.21366047990944 0 0 0 687.4311127568656,210.83439368602313"/><line x1="657.8333843996103" y1="130.10729662463706" x2="693.9633389028247" y2="207.69368653964648"/><path class="line" d=" M 702.1411083496571,215.12207325673495 A 283.05972905429314,283.05972905429314 0 0 0 702.1340982799385,215.12520975747913"/><line x1="663.040885855906" y1="127.73001365349342" x2="702.1411083496571" y2="215.12207325673495"/><path class="line" d=" M 708.7052913499823,226.05636523123584 A 270.40237070968385,270.40237070968385 0 0 0 707.3174130448946,226.67259932561896"/><line x1="664.9950111003806" y1="126.86232591302837" x2="708.7052913499823" y2="226.05636523123584"/><path class="line" d=" M 715.4578612398576,240.79457971493946 A 254.19271865856766,254.19271865856766 0 0 0 715.4185615632606,240.8118576560341"/><line x1="665.3171743409054" y1="126.72054199993568" x2="715.4578612398576" y2="240.79457971493946"/><path class="line" d=" M 724.3597231036558,260.35144701550746 A 232.70717396495255,232.70717396495255 0 0 0 724.2395613962345,260.4041315317155"/><line x1="665.7343785400569" y1="126.53746122289328" x2="724.3597231036558" y2="260.35144701550746"/><path class="line" d=" M 737.4217381881812,287.16454953322 A 202.90960501932898,202.90960501932898 0 0 0 737.32150711139,287.2077865212832"/><line x1="667.7964889105317" y1="125.64131371409195" x2="737.4217381881812" y2="287.16454953322"/><path class="line" d=" M 757.309805069908,326.49645737153384 A 158.94067861568504,158.94067861568504 0 0 0 757.2139786161516,326.5358877777207"/><line x1="673.7146672458072" y1="123.14952690111562" x2="757.309805069908" y2="326.49645737153384"/><path class="line" d=" M 818.3050320021675,561.4982013349542 A 88,88 0 1 0 784.3081106440028,392.0988408326599"/><line x1="820.1642957105036" y1="852.2922575645526" x2="818.3050320021675" y2="561.4982013349542"/><text x="1051.142393741048" y="473.5" text-anchor="start" style="font-color:black;font-weight:normal" transform="rotate(348.6520058049172,817.742393741048,473.5)">56%&#160;&#160;&#160;No hits</text><path class="line" d=" M 818.0481971424689,561.4994686590759 A 88,88 0 0 0 818.3050320021675,561.4982013349542"/><line x1="819.0587383826188" y1="852.2977128188403" x2="818.0481971424689" y2="561.4994686590759"/><line x1="819.0585559462318" y1="852.2977134527737" x2="818.0481547602037" y2="561.4994688063466"/><path class="line" d=" M 818.0481547602037,561.4994688063466 A 88,88 0 0 0 818.0481971424689,561.4994686590759"/></svg>