<?xml version="1.0" standalone="no"?><!DOCTYPE svg PUBLIC "-//W3C//DTD SVG 1.1//EN" 	"http://www.w3.org/Graphics/SVG/1.1/DTD/svg11.dtd"><svg width="1710" height="947" version="1.1"	xmlns="http://www.w3.org/2000/svg"><title>Krona (snapshot) - Omnivore_2 - Root</title><defs>	<style type="text/css">	text {font-size: 11px; font-family: sans-serif; dominant-baseline:central}	path {stroke-width:0.27499999999999997;}	path.wedge {stroke:none}	path.line {fill:none;stroke:black;}	line {stroke:black;stroke-width:0.27499999999999997;}	line.tick {stroke-width:0.5499999999999999;}	line.pattern {stroke-width:0.18333333333333332;}	circle {fill:none;stroke:black;stroke-width:0.27499999999999997;}	rect {stroke:black;stroke-width:0.27499999999999997;}	.highlight {stroke:black;stroke-width:1.375;}	.searchHighlight {fill:rgb(255, 255, 100);stroke:none;}	</style><pattern id="hiddenPattern" patternUnits="userSpaceOnUse" x="0" y="0" width="6.6" height="6.6"><line class="pattern" x1="0" y1="0" x2="3.3" y2="3.3"/><line class="pattern" x1="3.3" y1="6.6" x2="6.6" y2="3.3"/></pattern></defs><path class="wedge" fill="rgb(220,220,220)" d=" M 817.8236888201764,561.4999624494812 L 818.0923321043872,852.2998383620852 A 378.8,378.8 0 0,1 817.7423937410481,852.3 L 817.742393741048,561.5 A 88,88 0 0 0 817.8236888201764,561.4999624494812 Z "/><path class="wedge" fill="rgb(207,111,111)" d=" M 817.742393741048,561.5 L 817.742393741048,852.3 A 378.8,378.8 0 1,1 1102.2137915886547,223.36910665287928 L 883.8286741280316,415.3914503311863 A 88,88 0 1 0 817.742393741048,561.5 Z "/><path class="wedge" fill="rgb(207,111,111)" d=" M 937.0617096725144,368.49980874083434 L 1102.113627515176,223.25523701427778 A 378.8,378.8 0 0,1 1102.2137915886547,223.36910665287928 L 937.1037375125663,368.54758729847174 A 158.94067861568504,158.94067861568504 0 0 0 937.0617096725144,368.49980874083434 Z "/><path class="wedge" fill="rgb(210,121,121)" d=" M 817.742393741048,632.4406786156851 L 817.742393741048,852.3 A 378.8,378.8 0 1,1 1101.6914412379417,222.77629065920624 L 936.8845645473671,368.2988476566327 A 158.94067861568504,158.94067861568504 0 1 0 817.742393741048,632.4406786156851 Z "/><path class="wedge" fill="rgb(210,121,121)" d=" M 968.6367674371517,337.8416209887472 L 1099.4382195775784,220.2473559737724 A 378.8,378.8 0 0,1 1101.6914412379417,222.77629065920624 L 969.8437376513156,339.1962808043255 A 202.90960501932898,202.90960501932898 0 0 0 968.6367674371517,337.8416209887472 Z "/><path class="wedge" fill="rgb(213,130,130)" d=" M 817.742393741048,676.409605019329 L 817.742393741048,852.3 A 378.8,378.8 0 1,1 996.8531435598907,139.72046303086228 L 913.6856131192349,294.70624601388 A 202.90960501932898,202.90960501932898 0 1 0 817.742393741048,676.409605019329 Z "/><path class="wedge" fill="rgb(213,130,130)" d=" M 927.1484160248306,268.1151147167953 L 995.8331699512325,139.1751348929398 A 378.8,378.8 0 0,1 996.8531435598907,139.72046303086228 L 927.7750136383197,268.4501246689059 A 232.70717396495255,232.70717396495255 0 0 0 927.1484160248306,268.1151147167953 Z "/><path class="wedge" fill="rgb(216,140,140)" d=" M 817.742393741048,706.2071739649525 L 817.742393741048,852.3 A 378.8,378.8 0 1,1 888.0115967725003,101.27469308854813 L 860.9106821629559,244.83183936219356 A 232.70717396495255,232.70717396495255 0 1 0 817.742393741048,706.2071739649525 Z "/><path class="wedge" fill="rgb(216,140,140)" d=" M 864.8952326267287,223.71899991381497 L 888.0099272257008,101.2743779130953 A 378.8,378.8 0 0,1 888.0115967725003,101.27469308854813 L 864.8963529716069,223.7192114114528 A 254.19271865856766,254.19271865856766 0 0 0 864.8952326267287,223.71899991381497 Z "/><path class="wedge" fill="rgb(219,149,149)" d=" M 817.742393741048,727.6927186585676 L 817.742393741048,852.3 A 378.8,378.8 0 1,1 888.0072683149169,101.2738759824635 L 864.8934483718162,223.71866309461782 A 254.19271865856766,254.19271865856766 0 1 0 817.742393741048,727.6927186585676 Z "/><path class="wedge" fill="rgb(219,149,149)" d=" M 867.8646090168097,207.78359926179286 L 887.9573666964556,101.26445955165514 A 378.8,378.8 0 0,1 888.0072683149169,101.2738759824635 L 867.9002307589803,207.79032108126012 A 270.40237070968385,270.40237070968385 0 0 0 867.8646090168097,207.78359926179286 Z "/><path class="wedge" fill="rgb(223,159,159)" d=" M 817.742393741048,743.9023707096839 L 817.742393741048,852.3 A 378.8,378.8 0 1,1 887.9552024093518,101.26405130763072 L 867.8630640633679,207.78330784111694 A 270.40237070968385,270.40237070968385 0 1 0 817.742393741048,743.9023707096839 Z "/><path class="wedge" fill="rgb(223,159,159)" d=" M 865.3620956003416,194.47459935138193 L 881.4686720236097,100.09887325256568 A 378.8,378.8 0 0,1 887.9552024093518,101.26405130763072 L 870.2091799020591,195.3452830487597 A 283.05972905429314,283.05972905429314 0 0 0 865.3620956003416,194.47459935138193 Z "/><path class="wedge" fill="rgb(226,168,168)" d=" M 817.742393741048,756.5597290542931 L 817.742393741048,852.3 A 378.8,378.8 0 1,1 881.1081839027136,100.03752981432285 L 865.0927194920307,194.42876023573177 A 283.05972905429314,283.05972905429314 0 1 0 817.742393741048,756.5597290542931 Z "/><path class="wedge" fill="rgb(226,168,168)" d=" M 866.7731197044386,184.4148246562434 L 881.0847324456424,100.03355153717968 A 378.8,378.8 0 0,1 881.1081839027136,100.03752981432285 L 866.791272522737,184.4179040786393 A 293.21366047990944,293.21366047990944 0 0 0 866.7731197044386,184.4148246562434 Z "/><path class="wedge" fill="rgb(229,178,178)" d=" M 817.742393741048,766.7136604799094 L 817.742393741048,852.3 A 378.8,378.8 0 1,1 881.0777838177991,100.03237307120474 L 866.7677410544775,184.41391245370312 A 293.21366047990944,293.21366047990944 0 1 0 817.742393741048,766.7136604799094 Z "/><path class="wedge" fill="rgb(229,178,178)" d=" M 838.1342994942878,172.65213998692144 L 843.3592303701304,95.56717834895721 A 378.8,378.8 0 0,1 881.0777838177991,100.03237307120474 L 868.1595987999872,176.20659252391283 A 301.53816457406833,301.53816457406833 0 0 0 838.1342994942878,172.65213998692144 Z "/><path class="wedge" fill="rgb(229,178,178)" d=" M 817.742393741048,775.0381645740683 L 817.742393741048,852.3 A 378.8,378.8 0 0,1 593.0670317389249,168.52389977374463 L 638.8928787380528,230.72826425242306 A 301.53816457406833,301.53816457406833 0 0 0 817.742393741048,775.0381645740683 Z "/><path class="wedge" fill="rgb(229,178,178)" d=" M 631.5283641093959,227.55735019842058 L 589.083933191966,171.49876089770106 A 378.8,378.8 0 0,1 593.0670317389249,168.52389977374463 L 634.7721051416241,225.1346938219356 A 308.4857400643993,308.4857400643993 0 0 0 631.5283641093959,227.55735019842058 Z "/><path class="wedge" fill="rgb(229,178,178)" d=" M 817.742393741048,781.9857400643994 L 817.742393741048,852.3 A 378.8,378.8 0 0,1 588.1217985677015,172.2296525174803 L 630.7448244800194,228.1525710068537 A 308.4857400643993,308.4857400643993 0 0 0 817.742393741048,781.9857400643994 Z "/><path class="wedge" fill="rgb(229,178,178)" d=" M 606.4318203975745,240.7401365312979 L 563.1248573517368,193.03725708565537 A 378.8,378.8 0 0,1 588.1217985677015,172.2296525174803 L 627.1771235494448,223.47162111968652 A 314.37129711332796,314.37129711332796 0 0 0 606.4318203975745,240.7401365312979 Z "/><path class="wedge" fill="rgb(229,178,178)" d=" M 817.742393741048,787.871297113328 L 817.742393741048,852.3 A 378.8,378.8 0 0,1 559.5927072750253,196.28495824090976 L 603.5004407745155,243.43544810683585 A 314.37129711332796,314.37129711332796 0 0 0 817.742393741048,787.871297113328 Z "/><path class="wedge" fill="rgb(229,178,178)" d=" M 799.8290797768004,792.4179822623378 L 796.4990494400621,851.7038607985246 A 378.8,378.8 0 0,1 559.5927072750253,196.28495824090976 L 600.0593247327787,239.74019230286063 A 319.4206728241967,319.4206728241967 0 0 0 799.8290797768004,792.4179822623378 Z "/><path class="wedge" fill="rgb(229,178,178)" d=" M 817.742393741048,792.9206728241967 L 817.742393741048,852.3 A 378.8,378.8 0 0,1 796.4990494400621,851.7038607985246 L 799.8290797768004,792.4179822623378 A 319.4206728241967,319.4206728241967 0 0 0 817.742393741048,792.9206728241967 Z "/><path class="wedge" fill="rgb(229,192,178)" d=" M 603.5004407745155,243.43544810683585 L 559.5927072750253,196.28495824090976 A 378.8,378.8 0 0,1 563.1248573517368,193.03725708565537 L 606.4318203975745,240.7401365312979 A 314.37129711332796,314.37129711332796 0 0 0 603.5004407745155,243.43544810683585 Z "/><path class="wedge" fill="url(#hiddenPattern)" d=" M 603.5004407745155,243.43544810683585 L 559.5927072750253,196.28495824090976 A 378.8,378.8 0 0,1 563.1248573517368,193.03725708565537 L 606.4318203975745,240.7401365312979 A 314.37129711332796,314.37129711332796 0 0 0 603.5004407745155,243.43544810683585 Z "/><path class="wedge" fill="rgb(229,193,178)" d=" M 630.7448244800194,228.1525710068537 L 588.1217985677015,172.2296525174803 A 378.8,378.8 0 0,1 589.083933191966,171.49876089770106 L 631.5283641093959,227.55735019842058 A 308.4857400643993,308.4857400643993 0 0 0 630.7448244800194,228.1525710068537 Z "/><path class="wedge" fill="url(#hiddenPattern)" d=" M 630.7448244800194,228.1525710068537 L 588.1217985677015,172.2296525174803 A 378.8,378.8 0 0,1 589.083933191966,171.49876089770106 L 631.5283641093959,227.55735019842058 A 308.4857400643993,308.4857400643993 0 0 0 630.7448244800194,228.1525710068537 Z "/><path class="wedge" fill="rgb(229,193,178)" d=" M 638.8928787380528,230.72826425242306 L 593.0670317389249,168.52389977374463 A 378.8,378.8 0 0,1 635.5664971239679,141.38348024862876 L 672.723952622913,209.12353275988437 A 301.53816457406833,301.53816457406833 0 0 0 638.8928787380528,230.72826425242306 Z "/><path class="wedge" fill="rgb(229,193,178)" d=" M 669.3825723857093,203.0322288506593 L 635.5663867798501,141.38354077571887 A 378.8,378.8 0 0,1 635.5664971239679,141.38348024862876 L 669.382662247343,203.032179558832 A 308.4857400643993,308.4857400643993 0 0 0 669.3825723857093,203.0322288506593 Z "/><path class="wedge" fill="rgb(229,193,178)" d=" M 634.7721051416241,225.1346938219356 L 593.0670317389249,168.52389977374463 A 378.8,378.8 0 0,1 635.5662212637111,141.38363156642276 L 669.3824375932895,203.03230278845626 A 308.4857400643993,308.4857400643993 0 0 0 634.7721051416241,225.1346938219356 Z "/><path class="wedge" fill="rgb(229,193,178)" d=" M 663.9144100237886,199.33533438059726 L 632.3881938915241,143.14676390544804 A 378.8,378.8 0 0,1 635.5662212637111,141.38363156642276 L 666.5518983745175,197.87208675546043 A 314.37129711332796,314.37129711332796 0 0 0 663.9144100237886,199.33533438059726 Z "/><path class="wedge" fill="rgb(229,193,178)" d=" M 631.2812401454462,220.3961662706119 L 593.0670317389249,168.52389977374463 A 378.8,378.8 0 0,1 597.4139516858783,165.3688304933405 L 634.8888084193943,217.7777311540252 A 314.37129711332796,314.37129711332796 0 0 0 631.2812401454462,220.3961662706119 Z "/><path class="wedge" fill="url(#hiddenPattern)" d=" M 631.2812401454462,220.3961662706119 L 593.0670317389249,168.52389977374463 A 378.8,378.8 0 0,1 597.4139516858783,165.3688304933405 L 634.8888084193943,217.7777311540252 A 314.37129711332796,314.37129711332796 0 0 0 631.2812401454462,220.3961662706119 Z "/><path class="wedge" fill="rgb(229,193,178)" d=" M 634.8888084193943,217.7777311540252 L 597.4139516858783,165.3688304933405 A 378.8,378.8 0 0,1 627.0078164321893,146.22372371525154 L 659.4491612359049,201.8889453799993 A 314.37129711332796,314.37129711332796 0 0 0 634.8888084193943,217.7777311540252 Z "/><path class="wedge" fill="rgb(229,193,178)" d=" M 646.2787399267655,204.0008689288249 L 614.404170542834,153.90180384333627 A 378.8,378.8 0 0,1 627.0078164321893,146.22372371525154 L 656.9066835646108,197.52637705841596 A 319.4206728241967,319.4206728241967 0 0 0 646.2787399267655,204.0008689288249 Z "/><path class="wedge" fill="rgb(229,193,178)" d=" M 631.9518467411289,213.67036567601963 L 597.4139516858783,165.3688304933405 A 378.8,378.8 0 0,1 614.404170542834,153.90180384333627 L 646.2787399267655,204.0008689288249 A 319.4206728241967,319.4206728241967 0 0 0 631.9518467411289,213.67036567601963 Z "/><path class="wedge" fill="rgb(229,193,178)" d=" M 659.4491612359049,201.8889453799993 L 627.0078164321893,146.22372371525154 A 378.8,378.8 0 0,1 632.3881938915241,143.14676390544804 L 663.9144100237886,199.33533438059726 A 314.37129711332796,314.37129711332796 0 0 0 659.4491612359049,201.8889453799993 Z "/><path class="wedge" fill="url(#hiddenPattern)" d=" M 659.4491612359049,201.8889453799993 L 627.0078164321893,146.22372371525154 A 378.8,378.8 0 0,1 632.3881938915241,143.14676390544804 L 663.9144100237886,199.33533438059726 A 314.37129711332796,314.37129711332796 0 0 0 659.4491612359049,201.8889453799993 Z "/><path class="wedge" fill="rgb(229,194,178)" d=" M 669.3824375932895,203.03230278845626 L 635.5662212637111,141.38363156642276 A 378.8,378.8 0 0,1 635.5663867798501,141.38354077571887 L 669.3825723857093,203.0322288506593 A 308.4857400643993,308.4857400643993 0 0 0 669.3824375932895,203.03230278845626 Z "/><path class="wedge" fill="url(#hiddenPattern)" d=" M 669.3824375932895,203.03230278845626 L 635.5662212637111,141.38363156642276 A 378.8,378.8 0 0,1 635.5663867798501,141.38354077571887 L 669.3825723857093,203.0322288506593 A 308.4857400643993,308.4857400643993 0 0 0 669.3824375932895,203.03230278845626 Z "/><path class="wedge" fill="rgb(229,194,178)" d=" M 672.723952622913,209.12353275988437 L 635.5664971239679,141.38348024862876 A 378.8,378.8 0 0,1 779.9264039656416,96.59233104471548 L 787.6395316807846,173.46819770151257 A 301.53816457406833,301.53816457406833 0 0 0 672.723952622913,209.12353275988437 Z "/><path class="wedge" fill="rgb(229,194,178)" d=" M 783.9368995425423,166.87214675591696 L 776.2314921359342,96.98136161946701 A 378.8,378.8 0 0,1 779.9264039656416,96.59233104471548 L 786.9459481440733,166.5553294783037 A 308.4857400643993,308.4857400643993 0 0 0 783.9368995425423,166.87214675591696 Z "/><path class="wedge" fill="rgb(229,194,178)" d=" M 669.382662247343,203.032179558832 L 635.5664971239679,141.38348024862876 A 378.8,378.8 0 0,1 715.9542894716027,108.63204877759881 L 734.8485746404353,176.3601901831479 A 308.4857400643993,308.4857400643993 0 0 0 669.382662247343,203.032179558832 Z "/><path class="wedge" fill="rgb(229,194,178)" d=" M 711.8771497300463,177.4900971940172 L 690.1806385821121,116.82446310298809 A 378.8,378.8 0 0,1 715.9542894716027,108.63204877759881 L 733.267054855377,170.69110057848803 A 314.37129711332796,314.37129711332796 0 0 0 711.8771497300463,177.4900971940172 Z "/><path class="wedge" fill="rgb(229,194,178)" d=" M 666.5521273147149,197.87196117475509 L 635.5664971239679,141.38348024862876 A 378.8,378.8 0 0,1 666.010120280758,126.41678636014137 L 691.8177062498506,185.45089736477115 A 314.37129711332796,314.37129711332796 0 0 0 666.5521273147149,197.87196117475509 Z "/><path class="wedge" fill="url(#hiddenPattern)" d=" M 666.5521273147149,197.87196117475509 L 635.5664971239679,141.38348024862876 A 378.8,378.8 0 0,1 666.010120280758,126.41678636014137 L 691.8177062498506,185.45089736477115 A 314.37129711332796,314.37129711332796 0 0 0 666.5521273147149,197.87196117475509 Z "/><path class="wedge" fill="rgb(229,194,178)" d=" M 691.8177062498506,185.45089736477115 L 666.010120280758,126.41678636014137 A 378.8,378.8 0 0,1 685.9719884428591,118.35777456411773 L 708.3843334592618,178.76261333159385 A 314.37129711332796,314.37129711332796 0 0 0 691.8177062498506,185.45089736477115 Z "/><path class="wedge" fill="rgb(229,194,178)" d=" M 697.4311101112066,177.60346190128826 L 675.0656100625322,122.5971994994141 A 378.8,378.8 0 0,1 685.9719884428591,118.35777456411773 L 706.6278437973716,174.02859398888052 A 319.4206728241967,319.4206728241967 0 0 0 697.4311101112066,177.60346190128826 Z "/><path class="wedge" fill="rgb(229,194,178)" d=" M 689.7951263761303,180.82430404744446 L 666.010120280758,126.41678636014137 A 378.8,378.8 0 0,1 675.0656100625322,122.5971994994141 L 697.4311101112066,177.60346190128826 A 319.4206728241967,319.4206728241967 0 0 0 689.7951263761303,180.82430404744446 Z "/><path class="wedge" fill="url(#hiddenPattern)" d=" M 689.7951263761303,180.82430404744446 L 666.010120280758,126.41678636014137 A 378.8,378.8 0 0,1 675.0656100625322,122.5971994994141 L 697.4311101112066,177.60346190128826 A 319.4206728241967,319.4206728241967 0 0 0 689.7951263761303,180.82430404744446 Z "/><path class="wedge" fill="rgb(229,194,178)" d=" M 708.3843334592618,178.76261333159385 L 685.9719884428591,118.35777456411773 A 378.8,378.8 0 0,1 690.1806385821121,116.82446310298809 L 711.8771497300463,177.4900971940172 A 314.37129711332796,314.37129711332796 0 0 0 708.3843334592618,178.76261333159385 Z "/><path class="wedge" fill="url(#hiddenPattern)" d=" M 708.3843334592618,178.76261333159385 L 685.9719884428591,118.35777456411773 A 378.8,378.8 0 0,1 690.1806385821121,116.82446310298809 L 711.8771497300463,177.4900971940172 A 314.37129711332796,314.37129711332796 0 0 0 708.3843334592618,178.76261333159385 Z "/><path class="wedge" fill="rgb(229,195,178)" d=" M 734.8485746404353,176.3601901831479 L 715.9542894716027,108.63204877759881 A 378.8,378.8 0 0,1 776.2314921359342,96.98136161946701 L 783.9368995425423,166.87214675591696 A 308.4857400643993,308.4857400643993 0 0 0 734.8485746404353,176.3601901831479 Z "/><path class="wedge" fill="rgb(229,195,178)" d=" M 773.3101582202196,162.2844976622502 L 764.2040110393269,98.50255790514507 A 378.8,378.8 0 0,1 776.2314921359342,96.98136161946701 L 783.291929163584,161.02203607436053 A 314.37129711332796,314.37129711332796 0 0 0 773.3101582202196,162.2844976622502 Z "/><path class="wedge" fill="rgb(229,195,178)" d=" M 733.267054855377,170.69110057848803 L 715.9542894716027,108.63204877759881 A 378.8,378.8 0 0,1 717.6231086498733,108.1706023971899 L 734.6520306994121,170.30813992073354 A 314.37129711332796,314.37129711332796 0 0 0 733.267054855377,170.69110057848803 Z "/><path class="wedge" fill="url(#hiddenPattern)" d=" M 733.267054855377,170.69110057848803 L 715.9542894716027,108.63204877759881 A 378.8,378.8 0 0,1 717.6231086498733,108.1706023971899 L 734.6520306994121,170.30813992073354 A 314.37129711332796,314.37129711332796 0 0 0 733.267054855377,170.69110057848803 Z "/><path class="wedge" fill="rgb(229,195,178)" d=" M 734.6520306994121,170.30813992073354 L 717.6231086498733,108.1706023971899 A 378.8,378.8 0 0,1 763.9037636599954,98.54554688469744 L 773.0609788165889,162.3201748039172 A 314.37129711332796,314.37129711332796 0 0 0 734.6520306994121,170.30813992073354 Z "/><path class="wedge" fill="rgb(229,195,178)" d=" M 733.317499282158,165.43831230893414 L 717.6231693393487,108.17058576511772 A 378.8,378.8 0 0,1 763.9037636599954,98.54554688469744 L 772.3433138983266,157.3220599458325 A 319.4206728241967,319.4206728241967 0 0 0 733.317499282158,165.43831230893414 Z "/><path class="wedge" fill="rgb(229,195,178)" d=" M 733.3174481061468,165.43832633382243 L 717.6231086498733,108.1706023971899 A 378.8,378.8 0 0,1 717.6231693393487,108.17058576511772 L 733.317499282158,165.43831230893414 A 319.4206728241967,319.4206728241967 0 0 0 733.3174481061468,165.43832633382243 Z "/><path class="wedge" fill="url(#hiddenPattern)" d=" M 733.3174481061468,165.43832633382243 L 717.6231086498733,108.1706023971899 A 378.8,378.8 0 0,1 717.6231693393487,108.17058576511772 L 733.317499282158,165.43831230893414 A 319.4206728241967,319.4206728241967 0 0 0 733.3174481061468,165.43832633382243 Z "/><path class="wedge" fill="rgb(229,196,178)" d=" M 773.0609788165889,162.3201748039172 L 763.9037636599954,98.54554688469744 A 378.8,378.8 0 0,1 764.2040110393269,98.50255790514507 L 773.3101582202196,162.2844976622502 A 314.37129711332796,314.37129711332796 0 0 0 773.0609788165889,162.3201748039172 Z "/><path class="wedge" fill="url(#hiddenPattern)" d=" M 773.0609788165889,162.3201748039172 L 763.9037636599954,98.54554688469744 A 378.8,378.8 0 0,1 764.2040110393269,98.50255790514507 L 773.3101582202196,162.2844976622502 A 314.37129711332796,314.37129711332796 0 0 0 773.0609788165889,162.3201748039172 Z "/><path class="wedge" fill="rgb(229,196,178)" d=" M 787.6395316807846,173.46819770151257 L 779.9264039656416,96.59233104471548 A 378.8,378.8 0 0,1 833.2333720223568,95.01688334631353 L 830.0737589955428,172.2140857496684 A 301.53816457406833,301.53816457406833 0 0 0 787.6395316807846,173.46819770151257 Z "/><path class="wedge" fill="rgb(229,196,178)" d=" M 830.3572135733485,165.2722949771083 L 833.2325546524661,95.01684989297291 A 378.8,378.8 0 0,1 833.2333720223568,95.01688334631353 L 830.3578792200108,165.27232222071586 A 308.4857400643993,308.4857400643993 0 0 0 830.3572135733485,165.2722949771083 Z "/><path class="wedge" fill="rgb(229,196,178)" d=" M 786.9459481440733,166.5553294783037 L 779.9264039656416,96.59233104471548 A 378.8,378.8 0 0,1 833.2302282916138,95.01675468928045 L 830.3553190402198,165.27221744547808 A 308.4857400643993,308.4857400643993 0 0 0 786.9459481440733,166.5553294783037 Z "/><path class="wedge" fill="rgb(229,196,178)" d=" M 818.9807564353043,159.13114195812307 L 819.2345521947353,94.70293894599831 A 378.8,378.8 0 0,1 833.2302282916138,95.01675468928045 L 830.5959593089941,159.39158193243713 A 314.37129711332796,314.37129711332796 0 0 0 818.9807564353043,159.13114195812307 Z "/><path class="wedge" fill="rgb(229,196,178)" d=" M 786.3583869899422,160.6991742834382 L 779.9264039656416,96.59233104471548 A 378.8,378.8 0 0,1 807.5080508021629,94.83827995873503 L 809.2487726618507,159.2434633143181 A 314.37129711332796,314.37129711332796 0 0 0 786.3583869899422,160.6991742834382 Z "/><path class="wedge" fill="rgb(229,196,178)" d=" M 785.8543026703688,155.67502320407453 L 779.9264039656416,96.59233104471548 A 378.8,378.8 0 0,1 807.5080508021629,94.83827995873503 L 809.1123496347855,154.1959308649724 A 319.4206728241967,319.4206728241967 0 0 0 785.8543026703688,155.67502320407453 Z "/><path class="wedge" fill="rgb(229,196,178)" d=" M 785.8543026703688,155.67502320407453 L 779.9264039656416,96.59233104471548 A 378.8,378.8 0 0,1 779.9264039656416,96.59233104471548 L 785.8543026703688,155.67502320407453 A 319.4206728241967,319.4206728241967 0 0 0 785.8543026703688,155.67502320407453 Z "/><path class="wedge" fill="url(#hiddenPattern)" d=" M 785.8543026703688,155.67502320407453 L 779.9264039656416,96.59233104471548 A 378.8,378.8 0 0,1 779.9264039656416,96.59233104471548 L 785.8543026703688,155.67502320407453 A 319.4206728241967,319.4206728241967 0 0 0 785.8543026703688,155.67502320407453 Z "/><path class="wedge" fill="rgb(229,197,178)" d=" M 809.2487726618507,159.2434633143181 L 807.5080508021629,94.83827995873503 A 378.8,378.8 0 0,1 819.2345521947353,94.70293894599831 L 818.9807564353043,159.13114195812307 A 314.37129711332796,314.37129711332796 0 0 0 809.2487726618507,159.2434633143181 Z "/><path class="wedge" fill="url(#hiddenPattern)" d=" M 809.2487726618507,159.2434633143181 L 807.5080508021629,94.83827995873503 A 378.8,378.8 0 0,1 819.2345521947353,94.70293894599831 L 818.9807564353043,159.13114195812307 A 314.37129711332796,314.37129711332796 0 0 0 809.2487726618507,159.2434633143181 Z "/><path class="wedge" fill="rgb(229,197,178)" d=" M 830.3553190402198,165.27221744547808 L 833.2302282916138,95.01675468928045 A 378.8,378.8 0 0,1 833.2325546524661,95.01684989297291 L 830.3572135733485,165.2722949771083 A 308.4857400643993,308.4857400643993 0 0 0 830.3553190402198,165.27221744547808 Z "/><path class="wedge" fill="url(#hiddenPattern)" d=" M 830.3553190402198,165.27221744547808 L 833.2302282916138,95.01675468928045 A 378.8,378.8 0 0,1 833.2325546524661,95.01684989297291 L 830.3572135733485,165.2722949771083 A 308.4857400643993,308.4857400643993 0 0 0 830.3553190402198,165.27221744547808 Z "/><path class="wedge" fill="rgb(229,197,178)" d=" M 830.0737589955428,172.2140857496684 L 833.2333720223568,95.01688334631353 A 378.8,378.8 0 0,1 843.3592303701304,95.56717834895721 L 838.1342994942878,172.65213998692144 A 301.53816457406833,301.53816457406833 0 0 0 830.0737589955428,172.2140857496684 Z "/><path class="wedge" fill="url(#hiddenPattern)" d=" M 830.0737589955428,172.2140857496684 L 833.2333720223568,95.01688334631353 A 378.8,378.8 0 0,1 843.3592303701304,95.56717834895721 L 838.1342994942878,172.65213998692144 A 301.53816457406833,301.53816457406833 0 0 0 830.0737589955428,172.2140857496684 Z "/><path class="wedge" fill="rgb(226,191,168)" d=" M 866.7677410544775,184.41391245370312 L 881.0777838177991,100.03237307120474 A 378.8,378.8 0 0,1 881.0847324456424,100.03355153717968 L 866.7731197044386,184.4148246562434 A 293.21366047990944,293.21366047990944 0 0 0 866.7677410544775,184.41391245370312 Z "/><path class="wedge" fill="url(#hiddenPattern)" d=" M 866.7677410544775,184.41391245370312 L 881.0777838177991,100.03237307120474 A 378.8,378.8 0 0,1 881.0847324456424,100.03355153717968 L 866.7731197044386,184.4148246562434 A 293.21366047990944,293.21366047990944 0 0 0 866.7677410544775,184.41391245370312 Z "/><path class="wedge" fill="rgb(223,184,159)" d=" M 865.0927194920307,194.42876023573177 L 881.1081839027136,100.03752981432285 A 378.8,378.8 0 0,1 881.4686720236097,100.09887325256568 L 865.3620956003416,194.47459935138193 A 283.05972905429314,283.05972905429314 0 0 0 865.0927194920307,194.42876023573177 Z "/><path class="wedge" fill="url(#hiddenPattern)" d=" M 865.0927194920307,194.42876023573177 L 881.1081839027136,100.03752981432285 A 378.8,378.8 0 0,1 881.4686720236097,100.09887325256568 L 865.3620956003416,194.47459935138193 A 283.05972905429314,283.05972905429314 0 0 0 865.0927194920307,194.42876023573177 Z "/><path class="wedge" fill="rgb(219,177,149)" d=" M 867.8630640633679,207.78330784111694 L 887.9552024093518,101.26405130763072 A 378.8,378.8 0 0,1 887.9573666964556,101.26445955165514 L 867.8646090168097,207.78359926179286 A 270.40237070968385,270.40237070968385 0 0 0 867.8630640633679,207.78330784111694 Z "/><path class="wedge" fill="url(#hiddenPattern)" d=" M 867.8630640633679,207.78330784111694 L 887.9552024093518,101.26405130763072 A 378.8,378.8 0 0,1 887.9573666964556,101.26445955165514 L 867.8646090168097,207.78359926179286 A 270.40237070968385,270.40237070968385 0 0 0 867.8630640633679,207.78330784111694 Z "/><path class="wedge" fill="rgb(216,171,140)" d=" M 864.8934483718162,223.71866309461782 L 888.0072683149169,101.2738759824635 A 378.8,378.8 0 0,1 888.0099272257008,101.2743779130953 L 864.8952326267287,223.71899991381497 A 254.19271865856766,254.19271865856766 0 0 0 864.8934483718162,223.71866309461782 Z "/><path class="wedge" fill="url(#hiddenPattern)" d=" M 864.8934483718162,223.71866309461782 L 888.0072683149169,101.2738759824635 A 378.8,378.8 0 0,1 888.0099272257008,101.2743779130953 L 864.8952326267287,223.71899991381497 A 254.19271865856766,254.19271865856766 0 0 0 864.8934483718162,223.71866309461782 Z "/><path class="wedge" fill="rgb(216,171,140)" d=" M 860.9106821629559,244.83183936219356 L 888.0115967725003,101.27469308854813 A 378.8,378.8 0 0,1 993.1959678251332,137.7836266412964 L 925.5283108137985,267.2602732363601 A 232.70717396495255,232.70717396495255 0 0 0 860.9106821629559,244.83183936219356 Z "/><path class="wedge" fill="rgb(216,171,140)" d=" M 934.5447325066043,247.7320840377669 L 991.8021628716593,137.0588658172157 A 378.8,378.8 0 0,1 993.1959678251332,137.7836266412964 L 935.4800415625791,248.21843283462619 A 254.19271865856766,254.19271865856766 0 0 0 934.5447325066043,247.7320840377669 Z "/><path class="wedge" fill="rgb(219,178,149)" d=" M 864.8963529716069,223.7192114114528 L 888.0115967725003,101.27469308854813 A 378.8,378.8 0 0,1 989.2549274556816,135.75321499859297 L 932.8354170487089,246.8559305762978 A 254.19271865856766,254.19271865856766 0 0 0 864.8963529716069,223.7192114114528 Z "/><path class="wedge" fill="rgb(219,178,149)" d=" M 939.921005606688,232.2743195926218 L 988.8993923029951,135.5729045440931 A 378.8,378.8 0 0,1 989.2549274556816,135.75321499859297 L 940.1748006123825,232.40303230212686 A 270.40237070968385,270.40237070968385 0 0 0 939.921005606688,232.2743195926218 Z "/><path class="wedge" fill="rgb(223,185,159)" d=" M 867.9033205826129,207.79090436379028 L 888.0115967725003,101.27469308854813 A 378.8,378.8 0 0,1 988.575962965112,135.40928491576858 L 939.690128997077,232.15752145272322 A 270.40237070968385,270.40237070968385 0 0 0 867.9033205826129,207.79090436379028 Z "/><path class="wedge" fill="rgb(223,185,159)" d=" M 944.7712214054347,220.54449570230463 L 987.7366210372954,134.98648079293525 A 378.8,378.8 0 0,1 988.575962965112,135.40928491576858 L 945.3984228274825,220.8604376781553 A 283.05972905429314,283.05972905429314 0 0 0 944.7712214054347,220.54449570230463 Z "/><path class="wedge" fill="rgb(226,192,168)" d=" M 870.2513208026742,195.35323515969725 L 888.0115967725003,101.27469308854813 A 378.8,378.8 0 0,1 986.4360681255471,134.3364933801742 L 943.7993783356876,220.05879015598777 A 283.05972905429314,283.05972905429314 0 0 0 870.2513208026742,195.35323515969725 Z "/><path class="wedge" fill="rgb(226,192,168)" d=" M 947.9869037587555,210.8012784532919 L 986.0040644761606,134.12196570575082 A 378.8,378.8 0 0,1 986.4360681255471,134.3364933801742 L 948.3213001985055,210.96733559345006 A 293.21366047990944,293.21366047990944 0 0 0 947.9869037587555,210.8012784532919 Z "/><path class="wedge" fill="rgb(229,199,178)" d=" M 872.1349234133238,185.37554180896376 L 888.0115967725003,101.27469308854813 A 378.8,378.8 0 0,1 985.6183843239249,133.93102057782454 L 947.6883644524951,210.65347560242054 A 293.21366047990944,293.21366047990944 0 0 0 872.1349234133238,185.37554180896376 Z "/><path class="wedge" fill="rgb(229,199,178)" d=" M 950.2670291684484,202.64489907049472 L 984.2232502217153,133.24485393242992 A 378.8,378.8 0 0,1 985.6183843239249,133.93102057782454 L 951.3776051360171,203.19111192911203 A 301.53816457406833,301.53816457406833 0 0 0 950.2670291684484,202.64489907049472 Z "/><path class="wedge" fill="rgb(229,199,178)" d=" M 873.6791585461871,177.19552308844123 L 888.0115967725003,101.27469308854813 A 378.8,378.8 0 0,1 893.2525639586195,102.30240545807226 L 877.8511533347174,178.01361839365865 A 301.53816457406833,301.53816457406833 0 0 0 873.6791585461871,177.19552308844123 Z "/><path class="wedge" fill="url(#hiddenPattern)" d=" M 873.6791585461871,177.19552308844123 L 888.0115967725003,101.27469308854813 A 378.8,378.8 0 0,1 893.2525639586195,102.30240545807226 L 877.8511533347174,178.01361839365865 A 301.53816457406833,301.53816457406833 0 0 0 873.6791585461871,177.19552308844123 Z "/><path class="wedge" fill="rgb(229,199,178)" d=" M 877.8511533347174,178.01361839365865 L 893.2525639586195,102.30240545807226 A 378.8,378.8 0 0,1 983.7155355482212,132.99690721132066 L 949.8628703754898,202.44752473259757 A 301.53816457406833,301.53816457406833 0 0 0 877.8511533347174,178.01361839365865 Z "/><path class="wedge" fill="rgb(229,200,178)" d=" M 949.8628703754898,202.44752473259757 L 983.7155355482212,132.99690721132066 A 378.8,378.8 0 0,1 984.2232502217153,133.24485393242992 L 950.2670291684484,202.64489907049472 A 301.53816457406833,301.53816457406833 0 0 0 949.8628703754898,202.44752473259757 Z "/><path class="wedge" fill="url(#hiddenPattern)" d=" M 949.8628703754898,202.44752473259757 L 983.7155355482212,132.99690721132066 A 378.8,378.8 0 0,1 984.2232502217153,133.24485393242992 L 950.2670291684484,202.64489907049472 A 301.53816457406833,301.53816457406833 0 0 0 949.8628703754898,202.44752473259757 Z "/><path class="wedge" fill="rgb(226,194,168)" d=" M 947.6883644524951,210.65347560242054 L 985.6183843239249,133.93102057782454 A 378.8,378.8 0 0,1 986.0040644761606,134.12196570575082 L 947.9869037587555,210.8012784532919 A 293.21366047990944,293.21366047990944 0 0 0 947.6883644524951,210.65347560242054 Z "/><path class="wedge" fill="url(#hiddenPattern)" d=" M 947.6883644524951,210.65347560242054 L 985.6183843239249,133.93102057782454 A 378.8,378.8 0 0,1 986.0040644761606,134.12196570575082 L 947.9869037587555,210.8012784532919 A 293.21366047990944,293.21366047990944 0 0 0 947.6883644524951,210.65347560242054 Z "/><path class="wedge" fill="rgb(223,187,159)" d=" M 943.7993783356876,220.05879015598777 L 986.4360681255471,134.3364933801742 A 378.8,378.8 0 0,1 987.7366210372954,134.98648079293525 L 944.7712214054347,220.54449570230463 A 283.05972905429314,283.05972905429314 0 0 0 943.7993783356876,220.05879015598777 Z "/><path class="wedge" fill="url(#hiddenPattern)" d=" M 943.7993783356876,220.05879015598777 L 986.4360681255471,134.3364933801742 A 378.8,378.8 0 0,1 987.7366210372954,134.98648079293525 L 944.7712214054347,220.54449570230463 A 283.05972905429314,283.05972905429314 0 0 0 943.7993783356876,220.05879015598777 Z "/><path class="wedge" fill="rgb(219,180,149)" d=" M 939.690128997077,232.15752145272322 L 988.575962965112,135.40928491576858 A 378.8,378.8 0 0,1 988.8993923029951,135.5729045440931 L 939.921005606688,232.2743195926218 A 270.40237070968385,270.40237070968385 0 0 0 939.690128997077,232.15752145272322 Z "/><path class="wedge" fill="url(#hiddenPattern)" d=" M 939.690128997077,232.15752145272322 L 988.575962965112,135.40928491576858 A 378.8,378.8 0 0,1 988.8993923029951,135.5729045440931 L 939.921005606688,232.2743195926218 A 270.40237070968385,270.40237070968385 0 0 0 939.690128997077,232.15752145272322 Z "/><path class="wedge" fill="rgb(216,174,140)" d=" M 932.8354170487089,246.8559305762978 L 989.2549274556816,135.75321499859297 A 378.8,378.8 0 0,1 991.8021628716593,137.0588658172157 L 934.5447325066043,247.7320840377669 A 254.19271865856766,254.19271865856766 0 0 0 932.8354170487089,246.8559305762978 Z "/><path class="wedge" fill="url(#hiddenPattern)" d=" M 932.8354170487089,246.8559305762978 L 989.2549274556816,135.75321499859297 A 378.8,378.8 0 0,1 991.8021628716593,137.0588658172157 L 934.5447325066043,247.7320840377669 A 254.19271865856766,254.19271865856766 0 0 0 932.8354170487089,246.8559305762978 Z "/><path class="wedge" fill="rgb(213,167,130)" d=" M 925.5283108137985,267.2602732363601 L 993.1959678251332,137.7836266412964 A 378.8,378.8 0 0,1 995.8331699512325,139.1751348929398 L 927.1484160248306,268.1151147167953 A 232.70717396495255,232.70717396495255 0 0 0 925.5283108137985,267.2602732363601 Z "/><path class="wedge" fill="url(#hiddenPattern)" d=" M 925.5283108137985,267.2602732363601 L 993.1959678251332,137.7836266412964 A 378.8,378.8 0 0,1 995.8331699512325,139.1751348929398 L 927.1484160248306,268.1151147167953 A 232.70717396495255,232.70717396495255 0 0 0 925.5283108137985,267.2602732363601 Z "/><path class="wedge" fill="rgb(213,168,130)" d=" M 913.6856131192349,294.70624601388 L 996.8531435598907,139.72046303086228 A 378.8,378.8 0 0,1 1085.1200656624937,205.17441315098614 L 960.9670447457161,329.76758488882507 A 202.90960501932898,202.90960501932898 0 0 0 913.6856131192349,294.70624601388 Z "/><path class="wedge" fill="rgb(213,168,130)" d=" M 981.8702989405373,308.5313376741445 L 1084.90927746991,204.96453448639465 A 378.8,378.8 0 0,1 1085.1200656624937,205.17441315098614 L 981.9997918777109,308.66027186345974 A 232.70717396495255,232.70717396495255 0 0 0 981.8702989405373,308.5313376741445 Z "/><path class="wedge" fill="rgb(216,174,140)" d=" M 927.7750136383197,268.4501246689059 L 996.8531435598907,139.72046303086228 A 378.8,378.8 0 0,1 1081.3961761284231,201.51448010449025 L 979.7121049462661,306.411875147116 A 232.70717396495255,232.70717396495255 0 0 0 927.7750136383197,268.4501246689059 Z "/><path class="wedge" fill="rgb(216,174,140)" d=" M 994.0107496459677,290.3514129849474 L 1080.4188919867347,200.57052693161967 A 378.8,378.8 0 0,1 1081.3961761284231,201.51448010449025 L 994.6665535342403,290.98485021646366 A 254.19271865856766,254.19271865856766 0 0 0 994.0107496459677,290.3514129849474 Z "/><path class="wedge" fill="rgb(216,174,140)" d=" M 937.9341794787094,249.5181416716394 L 996.8531435598907,139.72046303086228 A 378.8,378.8 0 0,1 1015.1965092491293,150.2333727881561 L 950.2434455660798,256.5728014187848 A 254.19271865856766,254.19271865856766 0 0 0 937.9341794787094,249.5181416716394 Z "/><path class="wedge" fill="url(#hiddenPattern)" d=" M 937.9341794787094,249.5181416716394 L 996.8531435598907,139.72046303086228 A 378.8,378.8 0 0,1 1015.1965092491293,150.2333727881561 L 950.2434455660798,256.5728014187848 A 254.19271865856766,254.19271865856766 0 0 0 937.9341794787094,249.5181416716394 Z "/><path class="wedge" fill="rgb(219,181,149)" d=" M 950.2434455660798,256.5728014187848 L 1015.1965092491293,150.2333727881561 A 378.8,378.8 0 0,1 1079.2325126452524,199.43366183446568 L 993.2146329876473,289.5885227267805 A 254.19271865856766,254.19271865856766 0 0 0 950.2434455660798,256.5728014187848 Z "/><path class="wedge" fill="rgb(219,181,149)" d=" M 1004.3931346120906,277.84994756528135 L 1079.216804843239,199.41867568409128 A 378.8,378.8 0 0,1 1079.2325126452524,199.43366183446568 L 1004.4043474603035,277.8606452701099 A 270.40237070968385,270.40237070968385 0 0 0 1004.3931346120906,277.84994756528135 Z "/><path class="wedge" fill="rgb(223,188,159)" d=" M 958.6929242050632,242.7395396794979 L 1015.1965092491293,150.2333727881561 A 378.8,378.8 0 0,1 1079.135839132889,199.3414569885108 L 1004.3353380967136,277.79482581673835 A 270.40237070968385,270.40237070968385 0 0 0 958.6929242050632,242.7395396794979 Z "/><path class="wedge" fill="rgb(223,188,159)" d=" M 958.6929242050632,242.7395396794979 L 1015.1965092491293,150.2333727881561 A 378.8,378.8 0 0,1 1079.135839132889,199.3414569885108 L 1004.3353380967136,277.79482581673835 A 270.40237070968385,270.40237070968385 0 0 0 958.6929242050632,242.7395396794979 Z "/><path class="wedge" fill="rgb(223,188,159)" d=" M 1013.062416847608,268.627115542484 L 1079.1261836568985,199.33225140577434 A 378.8,378.8 0 0,1 1079.135839132889,199.3414569885108 L 1013.0696319384681,268.63399444891263 A 283.05972905429314,283.05972905429314 0 0 0 1013.062416847608,268.627115542484 Z "/><path class="wedge" fill="rgb(223,188,159)" d=" M 965.2907264664244,231.93779326589302 L 1015.1965092491293,150.2333727881561 A 378.8,378.8 0 0,1 1015.5520036636349,150.45078049579809 L 965.5563710087957,232.10025199561704 A 283.05972905429314,283.05972905429314 0 0 0 965.2907264664244,231.93779326589302 Z "/><path class="wedge" fill="url(#hiddenPattern)" d=" M 965.2907264664244,231.93779326589302 L 1015.1965092491293,150.2333727881561 A 378.8,378.8 0 0,1 1015.5520036636349,150.45078049579809 L 965.5563710087957,232.10025199561704 A 283.05972905429314,283.05972905429314 0 0 0 965.2907264664244,231.93779326589302 Z "/><path class="wedge" fill="rgb(226,195,168)" d=" M 965.5563710087957,232.10025199561704 L 1015.5520036636349,150.45078049579809 A 378.8,378.8 0 0,1 1079.1261836568985,199.33225140577434 L 1013.062416847608,268.627115542484 A 283.05972905429314,283.05972905429314 0 0 0 965.5563710087957,232.10025199561704 Z "/><path class="wedge" fill="rgb(226,195,168)" d=" M 1015.63811898196,257.1402703287854 L 1073.4020400159316,193.9868781852963 A 378.8,378.8 0 0,1 1079.1261836568985,199.33225140577434 L 1020.0689455661224,261.27790614876335 A 293.21366047990944,293.21366047990944 0 0 0 1015.63811898196,257.1402703287854 Z "/><path class="wedge" fill="rgb(229,201,178)" d=" M 970.8587606985577,223.44074929776983 L 1015.5520036636349,150.45078049579809 A 378.8,378.8 0 0,1 1070.8445406604947,191.66894559902244 L 1013.6584628370745,255.34605306804878 A 293.21366047990944,293.21366047990944 0 0 0 970.8587606985577,223.44074929776983 Z "/><path class="wedge" fill="rgb(226,196,168)" d=" M 1013.6584628370745,255.34605306804878 L 1070.8445406604947,191.66894559902244 A 378.8,378.8 0 0,1 1073.4020400159316,193.9868781852963 L 1015.63811898196,257.1402703287854 A 293.21366047990944,293.21366047990944 0 0 0 1013.6584628370745,255.34605306804878 Z "/><path class="wedge" fill="url(#hiddenPattern)" d=" M 1013.6584628370745,255.34605306804878 L 1070.8445406604947,191.66894559902244 A 378.8,378.8 0 0,1 1073.4020400159316,193.9868781852963 L 1015.63811898196,257.1402703287854 A 293.21366047990944,293.21366047990944 0 0 0 1013.6584628370745,255.34605306804878 Z "/><path class="wedge" fill="rgb(219,183,149)" d=" M 1004.3353380967136,277.79482581673835 L 1079.135839132889,199.3414569885108 A 378.8,378.8 0 0,1 1079.216804843239,199.41867568409128 L 1004.3931346120906,277.84994756528135 A 270.40237070968385,270.40237070968385 0 0 0 1004.3353380967136,277.79482581673835 Z "/><path class="wedge" fill="url(#hiddenPattern)" d=" M 1004.3353380967136,277.79482581673835 L 1079.135839132889,199.3414569885108 A 378.8,378.8 0 0,1 1079.216804843239,199.41867568409128 L 1004.3931346120906,277.84994756528135 A 270.40237070968385,270.40237070968385 0 0 0 1004.3353380967136,277.79482581673835 Z "/><path class="wedge" fill="rgb(216,177,140)" d=" M 993.2146329876473,289.5885227267805 L 1079.2325126452524,199.43366183446568 A 378.8,378.8 0 0,1 1080.4188919867347,200.57052693161967 L 994.0107496459677,290.3514129849474 A 254.19271865856766,254.19271865856766 0 0 0 993.2146329876473,289.5885227267805 Z "/><path class="wedge" fill="url(#hiddenPattern)" d=" M 993.2146329876473,289.5885227267805 L 1079.2325126452524,199.43366183446568 A 378.8,378.8 0 0,1 1080.4188919867347,200.57052693161967 L 994.0107496459677,290.3514129849474 A 254.19271865856766,254.19271865856766 0 0 0 993.2146329876473,289.5885227267805 Z "/><path class="wedge" fill="rgb(213,170,130)" d=" M 979.7121049462661,306.411875147116 L 1081.3961761284231,201.51448010449025 A 378.8,378.8 0 0,1 1084.90927746991,204.96453448639465 L 981.8702989405373,308.5313376741445 A 232.70717396495255,232.70717396495255 0 0 0 979.7121049462661,306.411875147116 Z "/><path class="wedge" fill="url(#hiddenPattern)" d=" M 979.7121049462661,306.411875147116 L 1081.3961761284231,201.51448010449025 A 378.8,378.8 0 0,1 1084.90927746991,204.96453448639465 L 981.8702989405373,308.5313376741445 A 232.70717396495255,232.70717396495255 0 0 0 979.7121049462661,306.411875147116 Z "/><path class="wedge" fill="rgb(210,164,121)" d=" M 960.9670447457161,329.76758488882507 L 1085.1200656624937,205.17441315098614 A 378.8,378.8 0 0,1 1085.1604921046815,205.21470284866882 L 960.9886997441761,329.789166638147 A 202.90960501932898,202.90960501932898 0 0 0 960.9670447457161,329.76758488882507 Z "/><path class="wedge" fill="url(#hiddenPattern)" d=" M 960.9670447457161,329.76758488882507 L 1085.1200656624937,205.17441315098614 A 378.8,378.8 0 0,1 1085.1604921046815,205.21470284866882 L 960.9886997441761,329.789166638147 A 202.90960501932898,202.90960501932898 0 0 0 960.9670447457161,329.76758488882507 Z "/><path class="wedge" fill="rgb(213,171,130)" d=" M 960.9886997441761,329.789166638147 L 1085.1604921046815,205.21470284866882 A 378.8,378.8 0 0,1 1099.4281643887352,220.2361719182572 L 968.6313812323033,337.835630090418 A 202.90960501932898,202.90960501932898 0 0 0 960.9886997441761,329.789166638147 Z "/><path class="wedge" fill="rgb(213,171,130)" d=" M 960.9886997441761,329.789166638147 L 1085.1604921046815,205.21470284866882 A 378.8,378.8 0 0,1 1099.4281643887352,220.2361719182572 L 968.6313812323033,337.835630090418 A 202.90960501932898,202.90960501932898 0 0 0 960.9886997441761,329.789166638147 Z "/><path class="wedge" fill="rgb(213,171,130)" d=" M 960.9886997441761,329.789166638147 L 1085.1604921046815,205.21470284866882 A 378.8,378.8 0 0,1 1099.4281643887352,220.2361719182572 L 968.6313812323033,337.835630090418 A 202.90960501932898,202.90960501932898 0 0 0 960.9886997441761,329.789166638147 Z "/><path class="wedge" fill="rgb(213,171,130)" d=" M 960.9886997441761,329.789166638147 L 1085.1604921046815,205.21470284866882 A 378.8,378.8 0 0,1 1099.4281643887352,220.2361719182572 L 968.6313812323033,337.835630090418 A 202.90960501932898,202.90960501932898 0 0 0 960.9886997441761,329.789166638147 Z "/><path class="wedge" fill="rgb(213,171,130)" d=" M 990.766228373751,317.8870780951989 L 1099.390043197437,220.19377908213352 A 378.8,378.8 0 0,1 1099.4281643887352,220.2361719182572 L 990.7896472615419,317.9131211709399 A 232.70717396495255,232.70717396495255 0 0 0 990.766228373751,317.8870780951989 Z "/><path class="wedge" fill="rgb(213,171,130)" d=" M 982.0246269440122,308.6850229238812 L 1085.1604921046815,205.21470284866882 A 378.8,378.8 0 0,1 1085.1702523754398,205.2244319245159 L 982.030622944607,308.6909997605909 A 232.70717396495255,232.70717396495255 0 0 0 982.0246269440122,308.6850229238812 Z "/><path class="wedge" fill="url(#hiddenPattern)" d=" M 982.0246269440122,308.6850229238812 L 1085.1604921046815,205.21470284866882 A 378.8,378.8 0 0,1 1085.1702523754398,205.2244319245159 L 982.030622944607,308.6909997605909 A 232.70717396495255,232.70717396495255 0 0 0 982.0246269440122,308.6850229238812 Z "/><path class="wedge" fill="rgb(216,177,140)" d=" M 982.030622944607,308.6909997605909 L 1085.1702523754398,205.2244319245159 A 378.8,378.8 0 0,1 1099.3877708719792,220.19125253798381 L 990.7648324222314,317.88552597020157 A 232.70717396495255,232.70717396495255 0 0 0 982.030622944607,308.6909997605909 Z "/><path class="wedge" fill="rgb(216,177,140)" d=" M 1006.627138805995,303.3927065032669 L 1099.219934908179,220.00476568876869 A 378.8,378.8 0 0,1 1099.3877708719792,220.19125253798381 L 1006.7397646769746,303.5178480006166 A 254.19271865856766,254.19271865856766 0 0 0 1006.627138805995,303.3927065032669 Z "/><path class="wedge" fill="rgb(219,183,149)" d=" M 997.1991372239286,293.47440338231536 L 1085.1702523754398,205.2244319245159 A 378.8,378.8 0 0,1 1099.1118938977922,219.88484985801054 L 1006.5546381772812,303.3122373083603 A 254.19271865856766,254.19271865856766 0 0 0 997.1991372239286,293.47440338231536 Z "/><path class="wedge" fill="rgb(219,183,149)" d=" M 1018.0619001387615,291.86977828017257 L 1098.3650407404089,219.05871012928714 A 378.8,378.8 0 0,1 1099.1118938977922,219.88484985801054 L 1018.5950333603257,292.45950938150384 A 270.40237070968385,270.40237070968385 0 0 0 1018.0619001387615,291.86977828017257 Z "/><path class="wedge" fill="rgb(219,183,149)" d=" M 1008.6429401205457,281.9943252082944 L 1085.1702523754398,205.2244319245159 A 378.8,378.8 0 0,1 1085.3962439395614,205.44989932120558 L 1008.8042618066567,282.1552727230321 A 270.40237070968385,270.40237070968385 0 0 0 1008.6429401205457,281.9943252082944 Z "/><path class="wedge" fill="url(#hiddenPattern)" d=" M 1008.6429401205457,281.9943252082944 L 1085.1702523754398,205.2244319245159 A 378.8,378.8 0 0,1 1085.3962439395614,205.44989932120558 L 1008.8042618066567,282.1552727230321 A 270.40237070968385,270.40237070968385 0 0 0 1008.6429401205457,281.9943252082944 Z "/><path class="wedge" fill="rgb(223,190,159)" d=" M 1008.8042618066567,282.1552727230321 L 1085.3962439395614,205.44989932120558 A 378.8,378.8 0 0,1 1098.0950411839842,218.7612454459731 L 1017.8691638131338,291.6574362644109 A 270.40237070968385,270.40237070968385 0 0 0 1008.8042618066567,282.1552727230321 Z "/><path class="wedge" fill="rgb(223,190,159)" d=" M 1008.8042618066567,282.1552727230321 L 1085.3962439395614,205.44989932120558 A 378.8,378.8 0 0,1 1098.0950411839842,218.7612454459731 L 1017.8691638131338,291.6574362644109 A 270.40237070968385,270.40237070968385 0 0 0 1008.8042618066567,282.1552727230321 Z "/><path class="wedge" fill="rgb(223,190,159)" d=" M 1017.8691638131338,291.6574362644109 L 1098.0950411839842,218.7612454459731 A 378.8,378.8 0 0,1 1098.3650407404089,219.05871012928714 L 1018.0619001387615,291.86977828017257 A 270.40237070968385,270.40237070968385 0 0 0 1017.8691638131338,291.6574362644109 Z "/><path class="wedge" fill="url(#hiddenPattern)" d=" M 1017.8691638131338,291.6574362644109 L 1098.0950411839842,218.7612454459731 A 378.8,378.8 0 0,1 1098.3650407404089,219.05871012928714 L 1018.0619001387615,291.86977828017257 A 270.40237070968385,270.40237070968385 0 0 0 1017.8691638131338,291.6574362644109 Z "/><path class="wedge" fill="rgb(216,177,140)" d=" M 1006.5546381772812,303.3122373083603 L 1099.1118938977922,219.88484985801054 A 378.8,378.8 0 0,1 1099.219934908179,220.00476568876869 L 1006.627138805995,303.3927065032669 A 254.19271865856766,254.19271865856766 0 0 0 1006.5546381772812,303.3122373083603 Z "/><path class="wedge" fill="url(#hiddenPattern)" d=" M 1006.5546381772812,303.3122373083603 L 1099.1118938977922,219.88484985801054 A 378.8,378.8 0 0,1 1099.219934908179,220.00476568876869 L 1006.627138805995,303.3927065032669 A 254.19271865856766,254.19271865856766 0 0 0 1006.5546381772812,303.3122373083603 Z "/><path class="wedge" fill="rgb(213,171,130)" d=" M 990.7648324222314,317.88552597020157 L 1099.3877708719792,220.19125253798381 A 378.8,378.8 0 0,1 1099.390043197437,220.19377908213352 L 990.766228373751,317.8870780951989 A 232.70717396495255,232.70717396495255 0 0 0 990.7648324222314,317.88552597020157 Z "/><path class="wedge" fill="url(#hiddenPattern)" d=" M 990.7648324222314,317.88552597020157 L 1099.3877708719792,220.19125253798381 A 378.8,378.8 0 0,1 1099.390043197437,220.19377908213352 L 990.766228373751,317.8870780951989 A 232.70717396495255,232.70717396495255 0 0 0 990.7648324222314,317.88552597020157 Z "/><path class="wedge" fill="rgb(210,165,121)" d=" M 968.6313812323033,337.835630090418 L 1099.4281643887352,220.2361719182572 A 378.8,378.8 0 0,1 1099.4382195775784,220.2473559737724 L 968.6367674371517,337.8416209887472 A 202.90960501932898,202.90960501932898 0 0 0 968.6313812323033,337.835630090418 Z "/><path class="wedge" fill="url(#hiddenPattern)" d=" M 968.6313812323033,337.835630090418 L 1099.4281643887352,220.2361719182572 A 378.8,378.8 0 0,1 1099.4382195775784,220.2473559737724 L 968.6367674371517,337.8416209887472 A 202.90960501932898,202.90960501932898 0 0 0 968.6313812323033,337.835630090418 Z "/><path class="wedge" fill="rgb(207,159,111)" d=" M 936.8845645473671,368.2988476566327 L 1101.6914412379417,222.77629065920624 A 378.8,378.8 0 0,1 1102.113627515176,223.25523701427778 L 937.0617096725144,368.49980874083434 A 158.94067861568504,158.94067861568504 0 0 0 936.8845645473671,368.2988476566327 Z "/><path class="wedge" fill="url(#hiddenPattern)" d=" M 936.8845645473671,368.2988476566327 L 1101.6914412379417,222.77629065920624 A 378.8,378.8 0 0,1 1102.113627515176,223.25523701427778 L 937.0617096725144,368.49980874083434 A 158.94067861568504,158.94067861568504 0 0 0 936.8845645473671,368.2988476566327 Z "/><path class="wedge" fill="rgb(159,207,111)" d=" M 883.8286741280316,415.3914503311863 L 1102.2137915886547,223.36910665287928 A 378.8,378.8 0 0,1 819.212810997596,852.2971460730554 L 818.0839901470042,561.4993369969084 A 88,88 0 0 0 883.8286741280316,415.3914503311863 Z "/><path class="wedge" fill="rgb(101,204,204)" d=" M 818.0839901470042,561.4993369969084 L 819.212810997596,852.2971460730554 A 378.8,378.8 0 0,1 818.0930243037935,852.2998377219933 L 817.8238496267967,561.4999623007799 A 88,88 0 0 0 818.0839901470042,561.4993369969084 Z "/><path class="wedge" fill="url(#hiddenPattern)" d=" M 818.0839901470042,561.4993369969084 L 819.212810997596,852.2971460730554 A 378.8,378.8 0 0,1 818.0930243037935,852.2998377219933 L 817.8238496267967,561.4999623007799 A 88,88 0 0 0 818.0839901470042,561.4993369969084 Z "/><rect fill="rgb(101,204,204)" x="1673.795" y="852.1283333333333" width="22" height="22"/><rect fill="url(#hiddenPattern)" style="stroke:none" x="1673.795" y="852.1283333333333" width="22" height="22"/><path class="line" d="M 818.65291864531,852.2989056800438 L 818.795188161601,911.4862346925506 A 437.9875,437.9875 0 0,0 1017.7994156626464,863.1283333333333 L 1279.404893741048,863.1283333333333 L 1584.1174283854168,863.1283333333333"/><text x="1666.4616666666668" y="863.1283333333333" style="font-color:black;font-weight:normal" text-anchor="end">Viruses&#160;&#160;&#160;0.05%</text><path class="wedge" fill="rgb(159,111,207)" d=" M 817.8238496267967,561.4999623007799 L 818.0930243037935,852.2998377219933 A 378.8,378.8 0 0,1 818.0923321043872,852.2998383620852 L 817.8236888201764,561.4999624494812 A 88,88 0 0 0 817.8238496267967,561.4999623007799 Z "/><path class="wedge" fill="rgb(159,111,207)" d=" M 817.8238496267967,561.4999623007799 L 818.0930243037935,852.2998377219933 A 378.8,378.8 0 0,1 818.0923321043872,852.2998383620852 L 817.8236888201764,561.4999624494812 A 88,88 0 0 0 817.8238496267967,561.4999623007799 Z "/><rect fill="rgb(159,111,207)" x="1673.795" y="881.4616666666667" width="22" height="22"/><path class="line" d="M 818.0926782040906,852.2998380421973 L 818.1583565409111,923.3248076751095 A 449.82500000000005,449.82500000000005 0 0,0 981.491141793938,892.4616666666667 L 1268.404893741048,892.4616666666667 L 1520.9157682291668,892.4616666666667"/><text x="1666.4616666666668" y="892.4616666666667" style="font-color:black;font-weight:normal" text-anchor="end">other sequences&#160;&#160;&#160;0.00003%</text><circle cx="817.742393741048" cy="473.5" r="88"/><circle cx="817.742393741048" cy="473.5" r="378.8"/><text x="817.742393741048" y="473.5" text-anchor="middle" style="font-color:black;font-weight:bold" transform="rotate(360,817.742393741048,473.5)">Root</text><rect fill="rgb(220,220,220)" x="1673.795" y="910.795" width="22" height="22"/><path class="line" d="M 817.9173629413829,852.2999595905192 L 817.9556374539561,935.1624507509453 A 461.6625,461.6625 0 0,0 928.0322703447058,921.795 L 1257.404893741048,921.795 L 1563.1271940104168,921.795"/><text x="1666.4616666666668" y="921.795" style="font-color:black;font-weight:normal" text-anchor="end">[other Root]&#160;&#160;&#160;0.01%</text><path class="line" d=" M 883.8286741280316,415.3914503311863 A 88,88 0 1 0 817.742393741048,561.5"/><line x1="1102.2137915886547" y1="223.36910665287928" x2="883.8286741280316" y2="415.3914503311863"/><text x="817.742393741048" y="350.02966069215745" text-anchor="middle" style="font-color:black;font-weight:normal" transform="rotate(294.33768989352575,817.742393741048,473.5)">cellular organisms</text><path class="line" d=" M 936.8845645473671,368.2988476566327 A 158.94067861568504,158.94067861568504 0 1 0 817.742393741048,632.4406786156851"/><line x1="1101.6914412379417" y1="222.77629065920624" x2="936.8845645473671" y2="368.2988476566327"/><text x="817.742393741048" y="301.36864346322176" text-anchor="middle" style="font-color:black;font-weight:normal" transform="rotate(294.2779351073831,817.742393741048,473.5)">Bacteria</text><path class="line" d=" M 913.6856131192349,294.70624601388 A 202.90960501932898,202.90960501932898 0 1 0 817.742393741048,676.409605019329"/><line x1="996.8531435598907" y1="139.72046303086228" x2="913.6856131192349" y2="294.70624601388"/><text x="817.742393741048" y="261.651124296984" text-anchor="middle" style="font-color:black;font-weight:normal" transform="rotate(284.1093133342025,817.742393741048,473.5)">Pseudomonadati</text><path class="line" d=" M 860.9106821629559,244.83183936219356 A 232.70717396495255,232.70717396495255 0 1 0 817.742393741048,706.2071739649525"/><line x1="888.0115967725003" y1="101.27469308854813" x2="860.9106821629559" y2="244.83183936219356"/><text x="817.742393741048" y="230.0500536882399" text-anchor="middle" style="font-color:black;font-weight:normal" transform="rotate(275.34528120598446,817.742393741048,473.5)">FCB group</text><path class="line" d=" M 864.8934483718162,223.71866309461782 A 254.19271865856766,254.19271865856766 0 1 0 817.742393741048,727.6927186585676"/><line x1="888.0072683149169" y1="101.2738759824635" x2="864.8934483718162" y2="223.71866309461782"/><text x="817.742393741048" y="211.20245531587426" text-anchor="middle" style="font-color:black;font-weight:normal" transform="rotate(275.344948071624,817.742393741048,473.5)">Bacteroidota/Chlorobiota group</text><path class="line" d=" M 867.8630640633679,207.78330784111694 A 270.40237070968385,270.40237070968385 0 1 0 817.742393741048,743.9023707096839"/><line x1="887.9552024093518" y1="101.26405130763072" x2="867.8630640633679" y2="207.78330784111694"/><path class="line" d=" M 865.0927194920307,194.42876023573177 A 283.05972905429314,283.05972905429314 0 1 0 817.742393741048,756.5597290542931"/><line x1="881.1081839027136" y1="100.03752981432285" x2="865.0927194920307" y2="194.42876023573177"/><path class="line" d=" M 866.7677410544775,184.41391245370312 A 293.21366047990944,293.21366047990944 0 1 0 817.742393741048,766.7136604799094"/><line x1="881.0777838177991" y1="100.03237307120474" x2="866.7677410544775" y2="184.41391245370312"/><path class="line" d=" M 638.8928787380528,230.72826425242306 A 301.53816457406833,301.53816457406833 0 0 0 817.742393741048,775.0381645740683"/><line x1="593.0670317389249" y1="168.52389977374463" x2="638.8928787380528" y2="230.72826425242306"/><path class="line" d=" M 630.7448244800194,228.1525710068537 A 308.4857400643993,308.4857400643993 0 0 0 817.742393741048,781.9857400643994"/><line x1="588.1217985677015" y1="172.2296525174803" x2="630.7448244800194" y2="228.1525710068537"/><path class="line" d=" M 603.5004407745155,243.43544810683585 A 314.37129711332796,314.37129711332796 0 0 0 817.742393741048,787.871297113328"/><line x1="559.5927072750253" y1="196.28495824090976" x2="603.5004407745155" y2="243.43544810683585"/><text x="471.156745184384" y="473.5" text-anchor="end" style="font-color:black;font-weight:normal" transform="rotate(-21.480225157582474,817.742393741048,473.5)">Segatella copri&#160;&#160;&#160;38%</text><path class="line" d=" M 799.8290797768004,792.4179822623378 A 319.4206728241967,319.4206728241967 0 0 0 817.742393741048,792.9206728241967"/><line x1="796.4990494400621" y1="851.7038607985246" x2="799.8290797768004" y2="792.4179822623378"/><text x="468.6320573289496" y="473.5" text-anchor="end" style="font-color:black;font-weight:normal" transform="rotate(-88.39256484295082,817.742393741048,473.5)">Segatella copri DSM 18205&#160;&#160;&#160;0.9%</text><path class="line" d=" M 606.4318203975745,240.7401365312979 A 314.37129711332796,314.37129711332796 0 0 0 603.5004407745155,243.43544810683585"/><line x1="563.1248573517368" y1="193.03725708565537" x2="606.4318203975745" y2="240.7401365312979"/><path class="line" d=" M 631.5283641093959,227.55735019842058 A 308.4857400643993,308.4857400643993 0 0 0 630.7448244800194,228.1525710068537"/><line x1="589.083933191966" y1="171.49876089770106" x2="631.5283641093959" y2="227.55735019842058"/><path class="line" d=" M 672.723952622913,209.12353275988437 A 301.53816457406833,301.53816457406833 0 0 0 638.8928787380528,230.72826425242306"/><line x1="635.5664971239679" y1="141.38348024862876" x2="672.723952622913" y2="209.12353275988437"/><path class="line" d=" M 669.3824375932895,203.03230278845626 A 308.4857400643993,308.4857400643993 0 0 0 634.7721051416241,225.1346938219356"/><line x1="635.5662212637111" y1="141.38363156642276" x2="669.3824375932895" y2="203.03230278845626"/><path class="line" d=" M 634.8888084193943,217.7777311540252 A 314.37129711332796,314.37129711332796 0 0 0 631.2812401454462,220.3961662706119"/><line x1="597.4139516858783" y1="165.3688304933405" x2="634.8888084193943" y2="217.7777311540252"/><path class="line" d=" M 659.4491612359049,201.8889453799993 A 314.37129711332796,314.37129711332796 0 0 0 634.8888084193943,217.7777311540252"/><line x1="627.0078164321893" y1="146.22372371525154" x2="659.4491612359049" y2="201.8889453799993"/><path class="line" d=" M 646.2787399267655,204.0008689288249 A 319.4206728241967,319.4206728241967 0 0 0 631.9518467411289,213.67036567601963"/><line x1="614.404170542834" y1="153.90180384333627" x2="646.2787399267655" y2="204.0008689288249"/><text x="468.6320573289496" y="473.5" text-anchor="end" style="font-color:black;font-weight:normal" transform="rotate(55.983826538313295,817.742393741048,473.5)">Alistipes onderdonkii subsp. vulgaris&#160;&#160;&#160;0.9%</text><path class="line" d=" M 663.9144100237886,199.33533438059726 A 314.37129711332796,314.37129711332796 0 0 0 659.4491612359049,201.8889453799993"/><line x1="632.3881938915241" y1="143.14676390544804" x2="663.9144100237886" y2="199.33533438059726"/><path class="line" d=" M 669.3825723857093,203.0322288506593 A 308.4857400643993,308.4857400643993 0 0 0 669.3824375932895,203.03230278845626"/><line x1="635.5663867798501" y1="141.38354077571887" x2="669.3825723857093" y2="203.0322288506593"/><path class="line" d=" M 787.6395316807846,173.46819770151257 A 301.53816457406833,301.53816457406833 0 0 0 672.723952622913,209.12353275988437"/><line x1="779.9264039656416" y1="96.59233104471548" x2="787.6395316807846" y2="173.46819770151257"/><path class="line" d=" M 734.8485746404353,176.3601901831479 A 308.4857400643993,308.4857400643993 0 0 0 669.382662247343,203.032179558832"/><line x1="715.9542894716027" y1="108.63204877759881" x2="734.8485746404353" y2="176.3601901831479"/><line x1="1188.292393741048" y1="473.5" x2="1204.792393741048" y2="473.5" class="tick" transform="rotate(243.82034598012714,817.742393741048,473.5)"/><text x="427.94239374104797" y="473.5" text-anchor="end" style="font-color:black;font-weight:normal" transform="rotate(63.82034598012712,817.742393741048,473.5)">13 more</text><path class="line" d=" M 691.8177062498506,185.45089736477115 A 314.37129711332796,314.37129711332796 0 0 0 666.5521273147149,197.87196117475509"/><line x1="666.010120280758" y1="126.41678636014137" x2="691.8177062498506" y2="185.45089736477115"/><path class="line" d=" M 708.3843334592618,178.76261333159385 A 314.37129711332796,314.37129711332796 0 0 0 691.8177062498506,185.45089736477115"/><line x1="685.9719884428591" y1="118.35777456411773" x2="708.3843334592618" y2="178.76261333159385"/><path class="line" d=" M 697.4311101112066,177.60346190128826 A 319.4206728241967,319.4206728241967 0 0 0 689.7951263761303,180.82430404744446"/><line x1="675.0656100625322" y1="122.5971994994141" x2="697.4311101112066" y2="177.60346190128826"/><path class="line" d=" M 711.8771497300463,177.4900971940172 A 314.37129711332796,314.37129711332796 0 0 0 708.3843334592618,178.76261333159385"/><line x1="690.1806385821121" y1="116.82446310298809" x2="711.8771497300463" y2="177.4900971940172"/><path class="line" d=" M 783.9368995425423,166.87214675591696 A 308.4857400643993,308.4857400643993 0 0 0 734.8485746404353,176.3601901831479"/><line x1="776.2314921359342" y1="96.98136161946701" x2="783.9368995425423" y2="166.87214675591696"/><path class="line" d=" M 734.6520306994121,170.30813992073354 A 314.37129711332796,314.37129711332796 0 0 0 733.267054855377,170.69110057848803"/><line x1="717.6231086498733" y1="108.1706023971899" x2="734.6520306994121" y2="170.30813992073354"/><path class="line" d=" M 773.0609788165889,162.3201748039172 A 314.37129711332796,314.37129711332796 0 0 0 734.6520306994121,170.30813992073354"/><line x1="763.9037636599954" y1="98.54554688469744" x2="773.0609788165889" y2="162.3201748039172"/><text x="471.156745184384" y="473.5" text-anchor="end" style="font-color:black;font-weight:normal" transform="rotate(78.25158370356414,817.742393741048,473.5)">Phocaeicola vulgatus&#160;&#160;&#160;2%</text><path class="line" d=" M 733.317499282158,165.43831230893414 A 319.4206728241967,319.4206728241967 0 0 0 733.3174481061468,165.43832633382243"/><line x1="717.6231693393487" y1="108.17058576511772" x2="733.317499282158" y2="165.43831230893414"/><path class="line" d=" M 773.3101582202196,162.2844976622502 A 314.37129711332796,314.37129711332796 0 0 0 773.0609788165889,162.3201748039172"/><line x1="764.2040110393269" y1="98.50255790514507" x2="773.3101582202196" y2="162.2844976622502"/><path class="line" d=" M 830.0737589955428,172.2140857496684 A 301.53816457406833,301.53816457406833 0 0 0 787.6395316807846,173.46819770151257"/><line x1="833.2333720223568" y1="95.01688334631353" x2="830.0737589955428" y2="172.2140857496684"/><path class="line" d=" M 830.3553190402198,165.27221744547808 A 308.4857400643993,308.4857400643993 0 0 0 786.9459481440733,166.5553294783037"/><line x1="833.2302282916138" y1="95.01675468928045" x2="830.3553190402198" y2="165.27221744547808"/><path class="line" d=" M 809.2487726618507,159.2434633143181 A 314.37129711332796,314.37129711332796 0 0 0 786.3583869899422,160.6991742834382"/><line x1="807.5080508021629" y1="94.83827995873503" x2="809.2487726618507" y2="159.2434633143181"/><text x="471.156745184384" y="473.5" text-anchor="end" style="font-color:black;font-weight:normal" transform="rotate(86.36118289877494,817.742393741048,473.5)">Parabacteroides merdae&#160;&#160;&#160;1%</text><path class="line" d=" M 785.8543026703688,155.67502320407453 A 319.4206728241967,319.4206728241967 0 0 0 785.8543026703688,155.67502320407453"/><line x1="779.9264039656416" y1="96.59233104471548" x2="785.8543026703688" y2="155.67502320407453"/><path class="line" d=" M 818.9807564353043,159.13114195812307 A 314.37129711332796,314.37129711332796 0 0 0 809.2487726618507,159.2434633143181"/><line x1="819.2345521947353" y1="94.70293894599831" x2="818.9807564353043" y2="159.13114195812307"/><path class="line" d=" M 830.3572135733485,165.2722949771083 A 308.4857400643993,308.4857400643993 0 0 0 830.3553190402198,165.27221744547808"/><line x1="833.2325546524661" y1="95.01684989297291" x2="830.3572135733485" y2="165.2722949771083"/><path class="line" d=" M 838.1342994942878,172.65213998692144 A 301.53816457406833,301.53816457406833 0 0 0 830.0737589955428,172.2140857496684"/><line x1="843.3592303701304" y1="95.56717834895721" x2="838.1342994942878" y2="172.65213998692144"/><path class="line" d=" M 866.7731197044386,184.4148246562434 A 293.21366047990944,293.21366047990944 0 0 0 866.7677410544775,184.41391245370312"/><line x1="881.0847324456424" y1="100.03355153717968" x2="866.7731197044386" y2="184.4148246562434"/><path class="line" d=" M 865.3620956003416,194.47459935138193 A 283.05972905429314,283.05972905429314 0 0 0 865.0927194920307,194.42876023573177"/><line x1="881.4686720236097" y1="100.09887325256568" x2="865.3620956003416" y2="194.47459935138193"/><path class="line" d=" M 867.8646090168097,207.78359926179286 A 270.40237070968385,270.40237070968385 0 0 0 867.8630640633679,207.78330784111694"/><line x1="887.9573666964556" y1="101.26445955165514" x2="867.8646090168097" y2="207.78359926179286"/><path class="line" d=" M 864.8952326267287,223.71899991381497 A 254.19271865856766,254.19271865856766 0 0 0 864.8934483718162,223.71866309461782"/><line x1="888.0099272257008" y1="101.2743779130953" x2="864.8952326267287" y2="223.71899991381497"/><path class="line" d=" M 925.5283108137985,267.2602732363601 A 232.70717396495255,232.70717396495255 0 0 0 860.9106821629559,244.83183936219356"/><line x1="993.1959678251332" y1="137.7836266412964" x2="925.5283108137985" y2="267.2602732363601"/><text x="817.742393741048" y="230.0500536882399" text-anchor="middle" style="font-color:black;font-weight:normal" transform="rotate(379.1416148085309,817.742393741048,473.5)">Pseudo...nadota</text><path class="line" d=" M 932.8354170487089,246.8559305762978 A 254.19271865856766,254.19271865856766 0 0 0 864.8963529716069,223.7192114114528"/><line x1="989.2549274556816" y1="135.75321499859297" x2="932.8354170487089" y2="246.8559305762978"/><text x="817.742393741048" y="211.20245531587426" text-anchor="middle" style="font-color:black;font-weight:normal" transform="rotate(378.8063293519106,817.742393741048,473.5)">Betapro...acteria</text><path class="line" d=" M 939.690128997077,232.15752145272322 A 270.40237070968385,270.40237070968385 0 0 0 867.9033205826129,207.79090436379028"/><line x1="988.575962965112" y1="135.40928491576858" x2="939.690128997077" y2="232.15752145272322"/><path class="line" d=" M 943.7993783356876,220.05879015598777 A 283.05972905429314,283.05972905429314 0 0 0 870.2513208026742,195.35323515969725"/><line x1="986.4360681255471" y1="134.3364933801742" x2="943.7993783356876" y2="220.05879015598777"/><path class="line" d=" M 947.6883644524951,210.65347560242054 A 293.21366047990944,293.21366047990944 0 0 0 872.1349234133238,185.37554180896376"/><line x1="985.6183843239249" y1="133.93102057782454" x2="947.6883644524951" y2="210.65347560242054"/><path class="line" d=" M 877.8511533347174,178.01361839365865 A 301.53816457406833,301.53816457406833 0 0 0 873.6791585461871,177.19552308844123"/><line x1="893.2525639586195" y1="102.30240545807226" x2="877.8511533347174" y2="178.01361839365865"/><path class="line" d=" M 949.8628703754898,202.44752473259757 A 301.53816457406833,301.53816457406833 0 0 0 877.8511533347174,178.01361839365865"/><line x1="983.7155355482212" y1="132.99690721132066" x2="949.8628703754898" y2="202.44752473259757"/><text x="1157.9114760280822" y="473.5" text-anchor="start" style="font-color:black;font-weight:normal" transform="rotate(288.74231044595405,817.742393741048,473.5)">4%&#160;&#160;&#160;Sutterella faecalis</text><path class="line" d=" M 950.2670291684484,202.64489907049472 A 301.53816457406833,301.53816457406833 0 0 0 949.8628703754898,202.44752473259757"/><line x1="984.2232502217153" y1="133.24485393242992" x2="950.2670291684484" y2="202.64489907049472"/><path class="line" d=" M 947.9869037587555,210.8012784532919 A 293.21366047990944,293.21366047990944 0 0 0 947.6883644524951,210.65347560242054"/><line x1="986.0040644761606" y1="134.12196570575082" x2="947.9869037587555" y2="210.8012784532919"/><path class="line" d=" M 944.7712214054347,220.54449570230463 A 283.05972905429314,283.05972905429314 0 0 0 943.7993783356876,220.05879015598777"/><line x1="987.7366210372954" y1="134.98648079293525" x2="944.7712214054347" y2="220.54449570230463"/><path class="line" d=" M 939.921005606688,232.2743195926218 A 270.40237070968385,270.40237070968385 0 0 0 939.690128997077,232.15752145272322"/><line x1="988.8993923029951" y1="135.5729045440931" x2="939.921005606688" y2="232.2743195926218"/><path class="line" d=" M 934.5447325066043,247.7320840377669 A 254.19271865856766,254.19271865856766 0 0 0 932.8354170487089,246.8559305762978"/><line x1="991.8021628716593" y1="137.0588658172157" x2="934.5447325066043" y2="247.7320840377669"/><path class="line" d=" M 927.1484160248306,268.1151147167953 A 232.70717396495255,232.70717396495255 0 0 0 925.5283108137985,267.2602732363601"/><line x1="995.8331699512325" y1="139.1751348929398" x2="927.1484160248306" y2="268.1151147167953"/><path class="line" d=" M 960.9670447457161,329.76758488882507 A 202.90960501932898,202.90960501932898 0 0 0 913.6856131192349,294.70624601388"/><line x1="1085.1200656624937" y1="205.17441315098614" x2="960.9670447457161" y2="329.76758488882507"/><text x="817.742393741048" y="249.73209671873454" text-anchor="middle" style="font-color:black;font-weight:normal" transform="rotate(396.55862158731276,817.742393741048,473.5)">Bacillati</text><path class="line" d=" M 979.7121049462661,306.411875147116 A 232.70717396495255,232.70717396495255 0 0 0 927.7750136383197,268.4501246689059"/><line x1="1081.3961761284231" y1="201.51448010449025" x2="979.7121049462661" y2="306.411875147116"/><text x="817.742393741048" y="230.0500536882399" text-anchor="middle" style="font-color:black;font-weight:normal" transform="rotate(396.16373839360546,817.742393741048,473.5)">Bac...ota</text><path class="line" d=" M 950.2434455660798,256.5728014187848 A 254.19271865856766,254.19271865856766 0 0 0 937.9341794787094,249.5181416716394"/><line x1="1015.1965092491293" y1="150.2333727881561" x2="950.2434455660798" y2="256.5728014187848"/><text x="1134.2387530703318" y="473.5" text-anchor="start" style="font-color:black;font-weight:normal" transform="rotate(299.8177905751901,817.742393741048,473.5)">0.9%&#160;&#160;&#160;Clostridia</text><path class="line" d=" M 993.2146329876473,289.5885227267805 A 254.19271865856766,254.19271865856766 0 0 0 950.2434455660798,256.5728014187848"/><line x1="1079.2325126452524" y1="199.43366183446568" x2="993.2146329876473" y2="289.5885227267805"/><text x="817.742393741048" y="211.20245531587426" text-anchor="middle" style="font-color:black;font-weight:normal" transform="rotate(397.53587599279655,817.742393741048,473.5)">Ne...es</text><line x1="1079.135839132889" y1="199.3414569885108" x2="1004.3353380967136" y2="277.79482581673835"/><path class="line" d=" M 1004.3353380967136,277.79482581673835 A 270.40237070968385,270.40237070968385 0 0 0 958.6929242050632,242.7395396794979"/><path class="line" d=" M 965.5563710087957,232.10025199561704 A 283.05972905429314,283.05972905429314 0 0 0 965.2907264664244,231.93779326589302"/><line x1="1015.5520036636349" y1="150.45078049579809" x2="965.5563710087957" y2="232.10025199561704"/><path class="line" d=" M 1013.062416847608,268.627115542484 A 283.05972905429314,283.05972905429314 0 0 0 965.5563710087957,232.10025199561704"/><line x1="1079.1261836568985" y1="199.33225140577434" x2="1013.062416847608" y2="268.627115542484"/><path class="line" d=" M 1013.6584628370745,255.34605306804878 A 293.21366047990944,293.21366047990944 0 0 0 970.8587606985577,223.44074929776983"/><line x1="1070.8445406604947" y1="191.66894559902244" x2="1013.6584628370745" y2="255.34605306804878"/><text x="1153.7492239810026" y="473.5" text-anchor="start" style="font-color:black;font-weight:normal" transform="rotate(306.70291635601666,817.742393741048,473.5)">3%&#160;&#160;&#160;Phascolarctobacterium succinatutens</text><path class="line" d=" M 1015.63811898196,257.1402703287854 A 293.21366047990944,293.21366047990944 0 0 0 1013.6584628370745,255.34605306804878"/><line x1="1073.4020400159316" y1="193.9868781852963" x2="1015.63811898196" y2="257.1402703287854"/><path class="line" d=" M 1004.3931346120906,277.84994756528135 A 270.40237070968385,270.40237070968385 0 0 0 1004.3353380967136,277.79482581673835"/><line x1="1079.216804843239" y1="199.41867568409128" x2="1004.3931346120906" y2="277.84994756528135"/><path class="line" d=" M 994.0107496459677,290.3514129849474 A 254.19271865856766,254.19271865856766 0 0 0 993.2146329876473,289.5885227267805"/><line x1="1080.4188919867347" y1="200.57052693161967" x2="994.0107496459677" y2="290.3514129849474"/><path class="line" d=" M 981.8702989405373,308.5313376741445 A 232.70717396495255,232.70717396495255 0 0 0 979.7121049462661,306.411875147116"/><line x1="1084.90927746991" y1="204.96453448639465" x2="981.8702989405373" y2="308.5313376741445"/><path class="line" d=" M 960.9886997441761,329.789166638147 A 202.90960501932898,202.90960501932898 0 0 0 960.9670447457161,329.76758488882507"/><line x1="1085.1604921046815" y1="205.21470284866882" x2="960.9886997441761" y2="329.789166638147"/><line x1="1099.4281643887352" y1="220.2361719182572" x2="968.6313812323033" y2="337.835630090418"/><path class="line" d=" M 968.6313812323033,337.835630090418 A 202.90960501932898,202.90960501932898 0 0 0 960.9886997441761,329.789166638147"/><text x="817.742393741048" y="261.651124296984" text-anchor="middle" style="font-color:black;font-weight:normal" transform="rotate(406.4742611271569,817.742393741048,473.5)">Fusoba...riales</text><path class="line" d=" M 982.030622944607,308.6909997605909 A 232.70717396495255,232.70717396495255 0 0 0 982.0246269440122,308.6850229238812"/><line x1="1085.1702523754398" y1="205.2244319245159" x2="982.030622944607" y2="308.6909997605909"/><path class="line" d=" M 990.7648324222314,317.88552597020157 A 232.70717396495255,232.70717396495255 0 0 0 982.030622944607,308.6909997605909"/><line x1="1099.3877708719792" y1="220.19125253798381" x2="990.7648324222314" y2="317.88552597020157"/><text x="817.742393741048" y="230.0500536882399" text-anchor="middle" style="font-color:black;font-weight:normal" transform="rotate(406.47073466199834,817.742393741048,473.5)">Fu...ae</text><path class="line" d=" M 1006.5546381772812,303.3122373083603 A 254.19271865856766,254.19271865856766 0 0 0 997.1991372239286,293.47440338231536"/><line x1="1099.1118938977922" y1="219.88484985801054" x2="1006.5546381772812" y2="303.3122373083603"/><text x="817.742393741048" y="211.20245531587426" text-anchor="middle" style="font-color:black;font-weight:normal" transform="rotate(406.4395532858589,817.742393741048,473.5)">Fu...um</text><path class="line" d=" M 1008.8042618066567,282.1552727230321 A 270.40237070968385,270.40237070968385 0 0 0 1008.6429401205457,281.9943252082944"/><line x1="1085.3962439395614" y1="205.44989932120558" x2="1008.8042618066567" y2="282.1552727230321"/><line x1="1098.0950411839842" y1="218.7612454459731" x2="1017.8691638131338" y2="291.6574362644109"/><path class="line" d=" M 1017.8691638131338,291.6574362644109 A 270.40237070968385,270.40237070968385 0 0 0 1008.8042618066567,282.1552727230321"/><text x="1142.34357909589" y="473.5" text-anchor="start" style="font-color:black;font-weight:normal" transform="rotate(316.34908827074366,817.742393741048,473.5)">0.8%&#160;&#160;&#160;Fusobacterium mortiferum ATCC 9817</text><path class="line" d=" M 1018.0619001387615,291.86977828017257 A 270.40237070968385,270.40237070968385 0 0 0 1017.8691638131338,291.6574362644109"/><line x1="1098.3650407404089" y1="219.05871012928714" x2="1018.0619001387615" y2="291.86977828017257"/><path class="line" d=" M 1006.627138805995,303.3927065032669 A 254.19271865856766,254.19271865856766 0 0 0 1006.5546381772812,303.3122373083603"/><line x1="1099.219934908179" y1="220.00476568876869" x2="1006.627138805995" y2="303.3927065032669"/><path class="line" d=" M 990.766228373751,317.8870780951989 A 232.70717396495255,232.70717396495255 0 0 0 990.7648324222314,317.88552597020157"/><line x1="1099.390043197437" y1="220.19377908213352" x2="990.766228373751" y2="317.8870780951989"/><path class="line" d=" M 968.6367674371517,337.8416209887472 A 202.90960501932898,202.90960501932898 0 0 0 968.6313812323033,337.835630090418"/><line x1="1099.4382195775784" y1="220.2473559737724" x2="968.6367674371517" y2="337.8416209887472"/><path class="line" d=" M 937.0617096725144,368.49980874083434 A 158.94067861568504,158.94067861568504 0 0 0 936.8845645473671,368.2988476566327"/><line x1="1102.113627515176" y1="223.25523701427778" x2="937.0617096725144" y2="368.49980874083434"/><path class="line" d=" M 818.0839901470042,561.4993369969084 A 88,88 0 0 0 883.8286741280316,415.3914503311863"/><line x1="819.212810997596" y1="852.2971460730554" x2="818.0839901470042" y2="561.4993369969084"/><text x="1051.142393741048" y="473.5" text-anchor="start" style="font-color:black;font-weight:normal" transform="rotate(384.22648488494053,817.742393741048,473.5)">36%&#160;&#160;&#160;No hits</text><path class="line" d=" M 817.8238496267967,561.4999623007799 A 88,88 0 0 0 818.0839901470042,561.4993369969084"/><line x1="818.0930243037935" y1="852.2998377219933" x2="817.8238496267967" y2="561.4999623007799"/><line x1="818.0923321043872" y1="852.2998383620852" x2="817.8236888201764" y2="561.4999624494812"/><path class="line" d=" M 817.8236888201764,561.4999624494812 A 88,88 0 0 0 817.8238496267967,561.4999623007799"/></svg>