<?xml version="1.0" standalone="no"?><!DOCTYPE svg PUBLIC "-//W3C//DTD SVG 1.1//EN" 	"http://www.w3.org/Graphics/SVG/1.1/DTD/svg11.dtd"><svg width="1710" height="947" version="1.1"	xmlns="http://www.w3.org/2000/svg"><title>Krona (snapshot) - Vegan_1 - Root</title><defs>	<style type="text/css">	text {font-size: 11px; font-family: sans-serif; dominant-baseline:central}	path {stroke-width:0.27499999999999997;}	path.wedge {stroke:none}	path.line {fill:none;stroke:black;}	line {stroke:black;stroke-width:0.27499999999999997;}	line.tick {stroke-width:0.5499999999999999;}	line.pattern {stroke-width:0.18333333333333332;}	circle {fill:none;stroke:black;stroke-width:0.27499999999999997;}	rect {stroke:black;stroke-width:0.27499999999999997;}	.highlight {stroke:black;stroke-width:1.375;}	.searchHighlight {fill:rgb(255, 255, 100);stroke:none;}	</style><pattern id="hiddenPattern" patternUnits="userSpaceOnUse" x="0" y="0" width="6.6" height="6.6"><line class="pattern" x1="0" y1="0" x2="3.3" y2="3.3"/><line class="pattern" x1="3.3" y1="6.6" x2="6.6" y2="3.3"/></pattern></defs><path class="wedge" fill="rgb(220,220,220)" d=" M 817.8269206299261,561.4999594045648 L 818.1062435763552,852.299825255104 A 378.8,378.8 0 0,1 817.7423937410481,852.3 L 817.742393741048,561.5 A 88,88 0 0 0 817.8269206299261,561.4999594045648 Z "/><path class="wedge" fill="rgb(207,111,111)" d=" M 817.742393741048,561.5 L 817.742393741048,852.3 A 378.8,378.8 0 1,1 1131.4939274306669,261.25152507635784 L 890.6308176182562,424.1920121613503 A 88,88 0 1 0 817.742393741048,561.5 Z "/><path class="wedge" fill="rgb(207,111,111)" d=" M 949.3612964351438,384.4011572891286 L 1131.4269757798425,261.1525889229001 A 378.8,378.8 0 0,1 1131.4939274306669,261.25152507635784 L 949.3893886759477,384.44266990626215 A 158.94067861568504,158.94067861568504 0 0 0 949.3612964351438,384.4011572891286 Z "/><path class="wedge" fill="rgb(210,121,121)" d=" M 817.742393741048,632.4406786156851 L 817.742393741048,852.3 A 378.8,378.8 0 1,1 1131.2991473328825,260.9638800651768 L 949.3076609016006,384.3219769461842 A 158.94067861568504,158.94067861568504 0 1 0 817.742393741048,632.4406786156851 Z "/><path class="wedge" fill="rgb(210,121,121)" d=" M 984.6660307201885,358.1361962019447 L 1129.3623078484907,258.13410406549974 A 378.8,378.8 0 0,1 1131.2991473328825,260.9638800651768 L 985.7035263241055,359.6520059442563 A 202.90960501932898,202.90960501932898 0 0 0 984.6660307201885,358.1361962019447 Z "/><path class="wedge" fill="rgb(213,130,130)" d=" M 817.742393741048,676.409605019329 L 817.742393741048,852.3 A 378.8,378.8 0 1,1 982.0767753212817,132.20298707629718 L 905.7704414114305,290.67940315040823 A 202.90960501932898,202.90960501932898 0 1 0 817.742393741048,676.409605019329 Z "/><path class="wedge" fill="rgb(213,130,130)" d=" M 917.9854423948459,263.4905716132083 L 980.9177105268448,131.64731829067824 A 378.8,378.8 0 0,1 982.0767753212817,132.20298707629718 L 918.697487518277,263.83193410729996 A 232.70717396495255,232.70717396495255 0 0 0 917.9854423948459,263.4905716132083 Z "/><path class="wedge" fill="rgb(216,140,140)" d=" M 817.742393741048,706.2071739649525 L 817.742393741048,852.3 A 378.8,378.8 0 1,1 872.2161863523456,98.63729724265534 L 851.2071306305094,243.21161514380753 A 232.70717396495255,232.70717396495255 0 1 0 817.742393741048,706.2071739649525 Z "/><path class="wedge" fill="rgb(216,140,140)" d=" M 854.2706889157886,221.94558864798105 L 872.1771481479102,98.63162641713211 A 378.8,378.8 0 0,1 872.2161863523456,98.63729724265534 L 854.296885397618,221.9493940401584 A 254.19271865856766,254.19271865856766 0 0 0 854.2706889157886,221.94558864798105 Z "/><path class="wedge" fill="rgb(219,149,149)" d=" M 817.742393741048,727.6927186585676 L 817.742393741048,852.3 A 378.8,378.8 0 1,1 872.1635922696621,98.62965821405771 L 854.2615922802404,221.94426789061478 A 254.19271865856766,254.19271865856766 0 1 0 817.742393741048,727.6927186585676 Z "/><path class="wedge" fill="rgb(219,149,149)" d=" M 856.5262651779275,205.89347279674791 L 872.0737609614309,98.61662808819608 A 378.8,378.8 0 0,1 872.1635922696621,98.62965821405771 L 856.590390306517,205.90277421418097 A 270.40237070968385,270.40237070968385 0 0 0 856.5262651779275,205.89347279674791 Z "/><path class="wedge" fill="rgb(223,159,159)" d=" M 817.742393741048,743.9023707096839 L 817.742393741048,852.3 A 378.8,378.8 0 1,1 872.0411207040421,98.61189902825907 L 856.502965275661,205.89009700736517 A 270.40237070968385,270.40237070968385 0 1 0 817.742393741048,743.9023707096839 Z "/><path class="wedge" fill="rgb(223,159,159)" d=" M 845.9158973097632,191.84584343746417 L 855.4451188425135,96.58098413595087 A 378.8,378.8 0 0,1 872.0411207040421,98.61189902825907 L 858.3173223105784,193.3634522525357 A 283.05972905429314,283.05972905429314 0 0 0 845.9158973097632,191.84584343746417 Z "/><path class="wedge" fill="rgb(226,168,168)" d=" M 817.742393741048,756.5597290542931 L 817.742393741048,852.3 A 378.8,378.8 0 1,1 854.9310048990171,96.52991206179053 L 845.5317237259483,191.80767963737424 A 283.05972905429314,283.05972905429314 0 1 0 817.742393741048,756.5597290542931 Z "/><path class="wedge" fill="rgb(226,168,168)" d=" M 846.5010945337814,181.70008940929807 L 854.8954917326535,96.52641032875238 A 378.8,378.8 0 0,1 854.9310048990171,96.52991206179053 L 846.5285838302564,181.70279995830055 A 293.21366047990944,293.21366047990944 0 0 0 846.5010945337814,181.70008940929807 Z "/><path class="wedge" fill="rgb(229,178,178)" d=" M 817.742393741048,766.7136604799094 L 817.742393741048,852.3 A 378.8,378.8 0 1,1 854.8894655777884,96.52581646224621 L 846.4964299326024,181.69962972140974 A 293.21366047990944,293.21366047990944 0 1 0 817.742393741048,766.7136604799094 Z "/><path class="wedge" fill="rgb(229,178,178)" d=" M 815.024360211511,171.97408570998374 L 814.3279300944879,94.71538912198884 A 378.8,378.8 0 0,1 854.8894655777884,96.52581646224621 L 847.3127735218077,173.41524974714298 A 301.53816457406833,301.53816457406833 0 0 0 815.024360211511,171.97408570998374 Z "/><path class="wedge" fill="rgb(229,178,178)" d=" M 817.742393741048,775.0381645740683 L 817.742393741048,852.3 A 378.8,378.8 0 0,1 444.4245569660968,409.2875966368574 L 520.5682245122191,422.3846614228835 A 301.53816457406833,301.53816457406833 0 0 0 817.742393741048,775.0381645740683 Z "/><path class="wedge" fill="rgb(229,178,178)" d=" M 513.3914308943239,423.16171201409327 L 444.0196255434917,411.68792568797244 A 378.8,378.8 0 0,1 444.4245569660968,409.2875966368574 L 513.7211974454792,421.2069409377171 A 308.4857400643993,308.4857400643993 0 0 0 513.3914308943239,423.16171201409327 Z "/><path class="wedge" fill="rgb(229,178,178)" d=" M 817.742393741048,781.9857400643994 L 817.742393741048,852.3 A 378.8,378.8 0 0,1 443.949682353867,412.11230649536 L 513.3344708187858,423.5073176831431 A 308.4857400643993,308.4857400643993 0 0 0 817.742393741048,781.9857400643994 Z "/><path class="wedge" fill="rgb(229,178,178)" d=" M 505.8871160671551,433.8061939887911 L 441.97405780328717,425.67116239582907 A 378.8,378.8 0 0,1 443.949682353867,412.11230649536 L 507.5267138828222,422.55351416618504 A 314.37129711332796,314.37129711332796 0 0 0 505.8871160671551,433.8061939887911 Z "/><path class="wedge" fill="rgb(229,178,178)" d=" M 817.742393741048,787.871297113328 L 817.742393741048,852.3 A 378.8,378.8 0 0,1 441.8518789591097,426.64105318117515 L 505.7857181745366,434.6111196071847 A 314.37129711332796,314.37129711332796 0 0 0 817.742393741048,787.871297113328 Z "/><path class="wedge" fill="rgb(229,178,178)" d=" M 805.3561893792769,792.6804319957146 L 803.0536318310723,852.0150991354928 A 378.8,378.8 0 0,1 441.8518789591097,426.64105318117515 L 500.7751256843416,433.9864933455589 A 319.4206728241967,319.4206728241967 0 0 0 805.3561893792769,792.6804319957146 Z "/><path class="wedge" fill="rgb(229,178,178)" d=" M 817.742393741048,792.9206728241967 L 817.742393741048,852.3 A 378.8,378.8 0 0,1 803.0536318310723,852.0150991354928 L 805.3561893792769,792.6804319957146 A 319.4206728241967,319.4206728241967 0 0 0 817.742393741048,792.9206728241967 Z "/><path class="wedge" fill="rgb(229,188,178)" d=" M 505.7857181745366,434.6111196071847 L 441.8518789591097,426.64105318117515 A 378.8,378.8 0 0,1 441.97405780328717,425.67116239582907 L 505.8871160671551,433.8061939887911 A 314.37129711332796,314.37129711332796 0 0 0 505.7857181745366,434.6111196071847 Z "/><path class="wedge" fill="url(#hiddenPattern)" d=" M 505.7857181745366,434.6111196071847 L 441.8518789591097,426.64105318117515 A 378.8,378.8 0 0,1 441.97405780328717,425.67116239582907 L 505.8871160671551,433.8061939887911 A 314.37129711332796,314.37129711332796 0 0 0 505.7857181745366,434.6111196071847 Z "/><path class="wedge" fill="rgb(229,188,178)" d=" M 513.3344708187858,423.5073176831431 L 443.949682353867,412.11230649536 A 378.8,378.8 0 0,1 444.0196255434917,411.68792568797244 L 513.3914308943239,423.16171201409327 A 308.4857400643993,308.4857400643993 0 0 0 513.3344708187858,423.5073176831431 Z "/><path class="wedge" fill="url(#hiddenPattern)" d=" M 513.3344708187858,423.5073176831431 L 443.949682353867,412.11230649536 A 378.8,378.8 0 0,1 444.0196255434917,411.68792568797244 L 513.3914308943239,423.16171201409327 A 308.4857400643993,308.4857400643993 0 0 0 513.3344708187858,423.5073176831431 Z "/><path class="wedge" fill="rgb(229,188,178)" d=" M 520.5682245122191,422.3846614228835 L 444.4245569660968,409.2875966368574 A 378.8,378.8 0 0,1 606.9398232568392,158.77517371956463 L 649.9361102370776,222.96793436511356 A 301.53816457406833,301.53816457406833 0 0 0 520.5682245122191,422.3846614228835 Z "/><path class="wedge" fill="rgb(229,188,178)" d=" M 646.0675898728277,217.19702783641344 L 606.9371367729102,158.7769731421016 A 378.8,378.8 0 0,1 606.9398232568392,158.77517371956463 L 646.069777681653,217.19556242935693 A 308.4857400643993,308.4857400643993 0 0 0 646.0675898728277,217.19702783641344 Z "/><path class="wedge" fill="rgb(229,188,178)" d=" M 513.7211974454792,421.2069409377171 L 444.4245569660968,409.2875966368574 A 378.8,378.8 0 0,1 606.9368925478601,158.7771367271058 L 646.0673909817365,217.19716105616283 A 308.4857400643993,308.4857400643993 0 0 0 513.7211974454792,421.2069409377171 Z "/><path class="wedge" fill="rgb(229,188,178)" d=" M 624.627844070829,225.43532465426506 L 585.0500580005228,174.5958065071373 A 378.8,378.8 0 0,1 606.9368925478601,158.7771367271058 L 642.7920271921364,212.3071944078133 A 314.37129711332796,314.37129711332796 0 0 0 624.627844070829,225.43532465426506 Z "/><path class="wedge" fill="rgb(229,188,178)" d=" M 507.9208188136904,420.2092488489035 L 444.4245569660968,409.2875966368574 A 378.8,378.8 0 0,1 506.1298332697462,258.12346423874465 L 559.1308709528523,294.7560693900715 A 314.37129711332796,314.37129711332796 0 0 0 507.9208188136904,420.2092488489035 Z "/><path class="wedge" fill="rgb(229,191,178)" d=" M 559.1308709528523,294.7560693900715 L 506.1298332697462,258.12346423874465 A 378.8,378.8 0 0,1 525.5936183501924,232.38066639602832 L 575.284132205426,273.3917696299318 A 314.37129711332796,314.37129711332796 0 0 0 559.1308709528523,294.7560693900715 Z "/><path class="wedge" fill="rgb(229,191,178)" d=" M 575.284132205426,273.3917696299318 L 525.5936183501924,232.38066639602832 A 378.8,378.8 0 0,1 540.587312549347,215.28593963608097 L 587.7276039422497,259.2046222557962 A 314.37129711332796,314.37129711332796 0 0 0 575.284132205426,273.3917696299318 Z "/><path class="wedge" fill="rgb(229,191,178)" d=" M 587.7276039422497,259.2046222557962 L 540.587312549347,215.28593963608097 A 378.8,378.8 0 0,1 555.7237589064782,199.93890079284222 L 600.2895476459923,246.46790496963573 A 314.37129711332796,314.37129711332796 0 0 0 587.7276039422497,259.2046222557962 Z "/><path class="wedge" fill="rgb(229,192,178)" d=" M 600.2895476459923,246.46790496963573 L 555.7237589064782,199.93890079284222 A 378.8,378.8 0 0,1 569.9014118037094,187.0313495819554 L 612.0557755533976,235.7557518103876 A 314.37129711332796,314.37129711332796 0 0 0 600.2895476459923,246.46790496963573 Z "/><path class="wedge" fill="rgb(229,192,178)" d=" M 600.2895476459923,246.46790496963573 L 555.7237589064782,199.93890079284222 A 378.8,378.8 0 0,1 569.9014118037094,187.0313495819554 L 612.0557755533976,235.7557518103876 A 314.37129711332796,314.37129711332796 0 0 0 600.2895476459923,246.46790496963573 Z "/><path class="wedge" fill="rgb(229,192,178)" d=" M 612.0557755533976,235.7557518103876 L 569.9014118037094,187.0313495819554 A 378.8,378.8 0 0,1 585.0500580005228,174.5958065071373 L 624.627844070829,225.43532465426506 A 314.37129711332796,314.37129711332796 0 0 0 612.0557755533976,235.7557518103876 Z "/><path class="wedge" fill="url(#hiddenPattern)" d=" M 612.0557755533976,235.7557518103876 L 569.9014118037094,187.0313495819554 A 378.8,378.8 0 0,1 585.0500580005228,174.5958065071373 L 624.627844070829,225.43532465426506 A 314.37129711332796,314.37129711332796 0 0 0 612.0557755533976,235.7557518103876 Z "/><path class="wedge" fill="rgb(229,193,178)" d=" M 646.0673909817365,217.19716105616283 L 606.9368925478601,158.7771367271058 A 378.8,378.8 0 0,1 606.9371367729102,158.7769731421016 L 646.0675898728277,217.19702783641344 A 308.4857400643993,308.4857400643993 0 0 0 646.0673909817365,217.19716105616283 Z "/><path class="wedge" fill="url(#hiddenPattern)" d=" M 646.0673909817365,217.19716105616283 L 606.9368925478601,158.7771367271058 A 378.8,378.8 0 0,1 606.9371367729102,158.7769731421016 L 646.0675898728277,217.19702783641344 A 308.4857400643993,308.4857400643993 0 0 0 646.0673909817365,217.19716105616283 Z "/><path class="wedge" fill="rgb(229,193,178)" d=" M 649.9361102370776,222.96793436511356 L 606.9398232568392,158.77517371956463 A 378.8,378.8 0 0,1 727.9276169981957,105.5017039731955 L 746.2466626674751,180.5603728872564 A 301.53816457406833,301.53816457406833 0 0 0 649.9361102370776,222.96793436511356 Z "/><path class="wedge" fill="rgb(229,193,178)" d=" M 742.9338526837289,174.22231287990155 L 725.8824739061903,106.0068774413138 A 378.8,378.8 0 0,1 727.9276169981957,105.5017039731955 L 744.599368735141,173.81091158324534 A 308.4857400643993,308.4857400643993 0 0 0 742.9338526837289,174.22231287990155 Z "/><path class="wedge" fill="rgb(229,193,178)" d=" M 646.069777681653,217.19556242935693 L 606.9398232568392,158.77517371956463 A 378.8,378.8 0 0,1 694.2914170958159,115.38089081237462 L 717.2068449235261,181.85628714638847 A 308.4857400643993,308.4857400643993 0 0 0 646.069777681653,217.19556242935693 Z "/><path class="wedge" fill="rgb(229,193,178)" d=" M 688.952937585221,186.72031377414015 L 662.5582327193738,127.94636282047458 A 378.8,378.8 0 0,1 694.2914170958159,115.38089081237462 L 715.2887410011621,176.2920568205298 A 314.37129711332796,314.37129711332796 0 0 0 688.952937585221,186.72031377414015 Z "/><path class="wedge" fill="rgb(229,193,178)" d=" M 642.7944594275726,212.30556528102625 L 606.9398232568392,158.77517371956463 A 378.8,378.8 0 0,1 634.1253084666228,142.17809309476007 L 665.3560651510543,198.53142123584593 A 314.37129711332796,314.37129711332796 0 0 0 642.7944594275726,212.30556528102625 Z "/><path class="wedge" fill="rgb(229,193,178)" d=" M 640.192615765402,207.97101369481084 L 607.1866544943553,158.60998639163108 A 378.8,378.8 0 0,1 634.1253084666228,142.17809309476007 L 662.9084631170384,194.11492496022282 A 319.4206728241967,319.4206728241967 0 0 0 640.192615765402,207.97101369481084 Z "/><path class="wedge" fill="rgb(229,193,178)" d=" M 639.9844769059474,208.11030685064657 L 606.9398232568392,158.77517371956463 A 378.8,378.8 0 0,1 607.1866544943553,158.60998639163108 L 640.192615765402,207.97101369481084 A 319.4206728241967,319.4206728241967 0 0 0 639.9844769059474,208.11030685064657 Z "/><path class="wedge" fill="url(#hiddenPattern)" d=" M 639.9844769059474,208.11030685064657 L 606.9398232568392,158.77517371956463 A 378.8,378.8 0 0,1 607.1866544943553,158.60998639163108 L 640.192615765402,207.97101369481084 A 319.4206728241967,319.4206728241967 0 0 0 639.9844769059474,208.11030685064657 Z "/><path class="wedge" fill="rgb(229,193,178)" d=" M 665.3560651510543,198.53142123584593 L 634.1253084666228,142.17809309476007 A 378.8,378.8 0 0,1 648.5398655113199,134.59006441140139 L 677.3189030482441,192.23401252486224 A 314.37129711332796,314.37129711332796 0 0 0 665.3560651510543,198.53142123584593 Z "/><path class="wedge" fill="rgb(229,193,178)" d=" M 662.9709929382282,194.08028036483284 L 634.1994623905289,142.13700817493418 A 378.8,378.8 0 0,1 648.5398655113199,134.59006441140139 L 675.0634459831417,187.71636839357092 A 319.4206728241967,319.4206728241967 0 0 0 662.9709929382282,194.08028036483284 Z "/><path class="wedge" fill="rgb(229,193,178)" d=" M 662.9084631170384,194.11492496022282 L 634.1253084666228,142.17809309476007 A 378.8,378.8 0 0,1 634.1994623905289,142.13700817493418 L 662.9709929382282,194.08028036483284 A 319.4206728241967,319.4206728241967 0 0 0 662.9084631170384,194.11492496022282 Z "/><path class="wedge" fill="url(#hiddenPattern)" d=" M 662.9084631170384,194.11492496022282 L 634.1253084666228,142.17809309476007 A 378.8,378.8 0 0,1 634.1994623905289,142.13700817493418 L 662.9709929382282,194.08028036483284 A 319.4206728241967,319.4206728241967 0 0 0 662.9084631170384,194.11492496022282 Z "/><path class="wedge" fill="rgb(229,194,178)" d=" M 677.3189030482441,192.23401252486224 L 648.5398655113199,134.59006441140139 A 378.8,378.8 0 0,1 662.5582327193738,127.94636282047458 L 688.952937585221,186.72031377414015 A 314.37129711332796,314.37129711332796 0 0 0 677.3189030482441,192.23401252486224 Z "/><path class="wedge" fill="url(#hiddenPattern)" d=" M 677.3189030482441,192.23401252486224 L 648.5398655113199,134.59006441140139 A 378.8,378.8 0 0,1 662.5582327193738,127.94636282047458 L 688.952937585221,186.72031377414015 A 314.37129711332796,314.37129711332796 0 0 0 677.3189030482441,192.23401252486224 Z "/><path class="wedge" fill="rgb(229,194,178)" d=" M 717.2068449235261,181.85628714638847 L 694.2914170958159,115.38089081237462 A 378.8,378.8 0 0,1 725.8824739061903,106.0068774413138 L 742.9338526837289,174.22231287990155 A 308.4857400643993,308.4857400643993 0 0 0 717.2068449235261,181.85628714638847 Z "/><path class="wedge" fill="rgb(229,194,178)" d=" M 735.3287895437462,170.12348427749583 L 718.4385655716334,107.94810257516184 A 378.8,378.8 0 0,1 725.8824739061903,106.0068774413138 L 741.5065908075461,168.5124350079161 A 314.37129711332796,314.37129711332796 0 0 0 735.3287895437462,170.12348427749583 Z "/><path class="wedge" fill="rgb(229,194,178)" d=" M 715.2887410011621,176.2920568205298 L 694.2914170958159,115.38089081237462 A 378.8,378.8 0 0,1 707.5389193573785,111.08499722863576 L 726.2830241835254,172.726836022798 A 314.37129711332796,314.37129711332796 0 0 0 715.2887410011621,176.2920568205298 Z "/><path class="wedge" fill="rgb(229,194,178)" d=" M 713.7738720740881,171.47332447307014 L 694.4464415434886,115.32748825224297 A 378.8,378.8 0 0,1 707.5389193573785,111.08499722863576 L 724.8140201000875,167.8958711013404 A 319.4206728241967,319.4206728241967 0 0 0 713.7738720740881,171.47332447307014 Z "/><path class="wedge" fill="rgb(229,194,178)" d=" M 713.6431487019132,171.51835583972212 L 694.2914170958159,115.38089081237462 A 378.8,378.8 0 0,1 694.4464415434886,115.32748825224297 L 713.7738720740881,171.47332447307014 A 319.4206728241967,319.4206728241967 0 0 0 713.6431487019132,171.51835583972212 Z "/><path class="wedge" fill="url(#hiddenPattern)" d=" M 713.6431487019132,171.51835583972212 L 694.2914170958159,115.38089081237462 A 378.8,378.8 0 0,1 694.4464415434886,115.32748825224297 L 713.7738720740881,171.47332447307014 A 319.4206728241967,319.4206728241967 0 0 0 713.6431487019132,171.51835583972212 Z "/><path class="wedge" fill="rgb(229,195,178)" d=" M 726.2830241835254,172.726836022798 L 707.5389193573785,111.08499722863576 A 378.8,378.8 0 0,1 718.4385655716334,107.94810257516184 L 735.3287895437462,170.12348427749583 A 314.37129711332796,314.37129711332796 0 0 0 726.2830241835254,172.726836022798 Z "/><path class="wedge" fill="url(#hiddenPattern)" d=" M 726.2830241835254,172.726836022798 L 707.5389193573785,111.08499722863576 A 378.8,378.8 0 0,1 718.4385655716334,107.94810257516184 L 735.3287895437462,170.12348427749583 A 314.37129711332796,314.37129711332796 0 0 0 726.2830241835254,172.726836022798 Z "/><path class="wedge" fill="rgb(229,195,178)" d=" M 746.2466626674751,180.5603728872564 L 727.9276169981957,105.5017039731955 A 378.8,378.8 0 0,1 797.7935573840211,95.22564992058926 L 801.8624161790461,172.38027130835775 A 301.53816457406833,301.53816457406833 0 0 0 746.2466626674751,180.5603728872564 Z "/><path class="wedge" fill="rgb(229,195,178)" d=" M 801.4961518399617,165.44235694082914 L 797.7930877185175,95.22567468936057 A 378.8,378.8 0 0,1 797.7935573840211,95.22564992058926 L 801.4965343244138,165.44233676972897 A 308.4857400643993,308.4857400643993 0 0 0 801.4961518399617,165.44235694082914 Z "/><path class="wedge" fill="rgb(229,195,178)" d=" M 744.599368735141,173.81091158324534 L 727.9276169981957,105.5017039731955 A 378.8,378.8 0 0,1 797.7821680042281,95.22625072768375 L 801.48725908351,165.4428260527838 A 308.4857400643993,308.4857400643993 0 0 0 744.599368735141,173.81091158324534 Z "/><path class="wedge" fill="rgb(229,195,178)" d=" M 794.0992803666333,160.0190346469488 L 789.2537517165831,95.77280045567028 A 378.8,378.8 0 0,1 797.7821680042281,95.22625072768375 L 801.1771296028248,159.5654455579201 A 314.37129711332796,314.37129711332796 0 0 0 794.0992803666333,160.0190346469488 Z "/><path class="wedge" fill="rgb(229,195,178)" d=" M 743.2038830108621,168.09318464244728 L 727.9276169981957,105.5017039731955 A 378.8,378.8 0 0,1 783.5870142644287,96.2429920428142 L 789.3963775069859,160.40925307129464 A 314.37129711332796,314.37129711332796 0 0 0 743.2038830108621,168.09318464244728 Z "/><path class="wedge" fill="rgb(229,195,178)" d=" M 742.0068513861966,163.187747822167 L 727.927845451597,105.50164821624281 A 378.8,378.8 0 0,1 783.5870142644287,96.2429920428142 L 788.9410888493176,155.3804453291246 A 319.4206728241967,319.4206728241967 0 0 0 742.0068513861966,163.187747822167 Z "/><path class="wedge" fill="rgb(229,195,178)" d=" M 742.0066587443297,163.1877948388601 L 727.9276169981957,105.5017039731955 A 378.8,378.8 0 0,1 727.927845451597,105.50164821624281 L 742.0068513861966,163.187747822167 A 319.4206728241967,319.4206728241967 0 0 0 742.0066587443297,163.1877948388601 Z "/><path class="wedge" fill="url(#hiddenPattern)" d=" M 742.0066587443297,163.1877948388601 L 727.9276169981957,105.5017039731955 A 378.8,378.8 0 0,1 727.927845451597,105.50164821624281 L 742.0068513861966,163.187747822167 A 319.4206728241967,319.4206728241967 0 0 0 742.0066587443297,163.1877948388601 Z "/><path class="wedge" fill="rgb(229,196,178)" d=" M 789.3963775069859,160.40925307129464 L 783.5870142644287,96.2429920428142 A 378.8,378.8 0 0,1 789.2537517165831,95.77280045567028 L 794.0992803666333,160.0190346469488 A 314.37129711332796,314.37129711332796 0 0 0 789.3963775069859,160.40925307129464 Z "/><path class="wedge" fill="url(#hiddenPattern)" d=" M 789.3963775069859,160.40925307129464 L 783.5870142644287,96.2429920428142 A 378.8,378.8 0 0,1 789.2537517165831,95.77280045567028 L 794.0992803666333,160.0190346469488 A 314.37129711332796,314.37129711332796 0 0 0 789.3963775069859,160.40925307129464 Z "/><path class="wedge" fill="rgb(229,196,178)" d=" M 801.48725908351,165.4428260527838 L 797.7821680042281,95.22625072768375 A 378.8,378.8 0 0,1 797.7930877185175,95.22567468936057 L 801.4961518399617,165.44235694082914 A 308.4857400643993,308.4857400643993 0 0 0 801.48725908351,165.4428260527838 Z "/><path class="wedge" fill="url(#hiddenPattern)" d=" M 801.48725908351,165.4428260527838 L 797.7821680042281,95.22625072768375 A 378.8,378.8 0 0,1 797.7930877185175,95.22567468936057 L 801.4961518399617,165.44235694082914 A 308.4857400643993,308.4857400643993 0 0 0 801.48725908351,165.4428260527838 Z "/><path class="wedge" fill="rgb(229,196,178)" d=" M 801.8624161790461,172.38027130835775 L 797.7935573840211,95.22564992058926 A 378.8,378.8 0 0,1 814.3279300944879,94.71538912198884 L 815.024360211511,171.97408570998374 A 301.53816457406833,301.53816457406833 0 0 0 801.8624161790461,172.38027130835775 Z "/><path class="wedge" fill="url(#hiddenPattern)" d=" M 801.8624161790461,172.38027130835775 L 797.7935573840211,95.22564992058926 A 378.8,378.8 0 0,1 814.3279300944879,94.71538912198884 L 815.024360211511,171.97408570998374 A 301.53816457406833,301.53816457406833 0 0 0 801.8624161790461,172.38027130835775 Z "/><path class="wedge" fill="rgb(226,190,168)" d=" M 846.4964299326024,181.69962972140974 L 854.8894655777884,96.52581646224621 A 378.8,378.8 0 0,1 854.8954917326535,96.52641032875238 L 846.5010945337814,181.70008940929807 A 293.21366047990944,293.21366047990944 0 0 0 846.4964299326024,181.69962972140974 Z "/><path class="wedge" fill="url(#hiddenPattern)" d=" M 846.4964299326024,181.69962972140974 L 854.8894655777884,96.52581646224621 A 378.8,378.8 0 0,1 854.8954917326535,96.52641032875238 L 846.5010945337814,181.70008940929807 A 293.21366047990944,293.21366047990944 0 0 0 846.4964299326024,181.69962972140974 Z "/><path class="wedge" fill="rgb(223,183,159)" d=" M 845.5317237259483,191.80767963737424 L 854.9310048990171,96.52991206179053 A 378.8,378.8 0 0,1 855.4451188425135,96.58098413595087 L 845.9158973097632,191.84584343746417 A 283.05972905429314,283.05972905429314 0 0 0 845.5317237259483,191.80767963737424 Z "/><path class="wedge" fill="url(#hiddenPattern)" d=" M 845.5317237259483,191.80767963737424 L 854.9310048990171,96.52991206179053 A 378.8,378.8 0 0,1 855.4451188425135,96.58098413595087 L 845.9158973097632,191.84584343746417 A 283.05972905429314,283.05972905429314 0 0 0 845.5317237259483,191.80767963737424 Z "/><path class="wedge" fill="rgb(219,176,149)" d=" M 856.502965275661,205.89009700736517 L 872.0411207040421,98.61189902825907 A 378.8,378.8 0 0,1 872.0737609614309,98.61662808819608 L 856.5262651779275,205.89347279674791 A 270.40237070968385,270.40237070968385 0 0 0 856.502965275661,205.89009700736517 Z "/><path class="wedge" fill="url(#hiddenPattern)" d=" M 856.502965275661,205.89009700736517 L 872.0411207040421,98.61189902825907 A 378.8,378.8 0 0,1 872.0737609614309,98.61662808819608 L 856.5262651779275,205.89347279674791 A 270.40237070968385,270.40237070968385 0 0 0 856.502965275661,205.89009700736517 Z "/><path class="wedge" fill="rgb(216,169,140)" d=" M 854.2615922802404,221.94426789061478 L 872.1635922696621,98.62965821405771 A 378.8,378.8 0 0,1 872.1771481479102,98.63162641713211 L 854.2706889157886,221.94558864798105 A 254.19271865856766,254.19271865856766 0 0 0 854.2615922802404,221.94426789061478 Z "/><path class="wedge" fill="url(#hiddenPattern)" d=" M 854.2615922802404,221.94426789061478 L 872.1635922696621,98.62965821405771 A 378.8,378.8 0 0,1 872.1771481479102,98.63162641713211 L 854.2706889157886,221.94558864798105 A 254.19271865856766,254.19271865856766 0 0 0 854.2615922802404,221.94426789061478 Z "/><path class="wedge" fill="rgb(216,170,140)" d=" M 851.2071306305094,243.21161514380753 L 872.2161863523456,98.63729724265534 A 378.8,378.8 0 0,1 965.4432844628107,124.68215802514067 L 908.4790803090724,259.2116836469828 A 232.70717396495255,232.70717396495255 0 0 0 851.2071306305094,243.21161514380753 Z "/><path class="wedge" fill="rgb(216,170,140)" d=" M 916.6269638040151,239.32959191542608 L 965.1009622221732,124.53740559310154 A 378.8,378.8 0 0,1 965.4432844628107,124.68215802514067 L 916.8566782206067,239.42672764465647 A 254.19271865856766,254.19271865856766 0 0 0 916.6269638040151,239.32959191542608 Z "/><path class="wedge" fill="rgb(219,177,149)" d=" M 854.296885397618,221.9493940401584 L 872.2161863523456,98.63729724265534 A 378.8,378.8 0 0,1 962.6087385726861,123.49545412220584 L 914.9545638436974,238.6303931902485 A 254.19271865856766,254.19271865856766 0 0 0 854.296885397618,221.9493940401584 Z "/><path class="wedge" fill="rgb(219,177,149)" d=" M 921.100187085565,223.6308169454076 L 962.5337726633072,123.4644352500867 A 378.8,378.8 0 0,1 962.6087385726861,123.49545412220584 L 921.1537007065218,223.6529594389603 A 270.40237070968385,270.40237070968385 0 0 0 921.100187085565,223.6308169454076 Z "/><path class="wedge" fill="rgb(223,184,159)" d=" M 856.6279340357748,205.90822725389245 L 872.2161863523456,98.63729724265534 A 378.8,378.8 0 0,1 962.4510308377122,123.43022074216987 L 921.041122709119,223.60639328106396 A 270.40237070968385,270.40237070968385 0 0 0 856.6279340357748,205.90822725389245 Z "/><path class="wedge" fill="rgb(223,184,159)" d=" M 925.8145117452922,211.8834341591371 L 962.3681179187021,123.39595845507705 A 378.8,378.8 0 0,1 962.4510308377122,123.43022074216987 L 925.8764687368183,211.9090367824245 A 283.05972905429314,283.05972905429314 0 0 0 925.8145117452922,211.8834341591371 Z "/><path class="wedge" fill="rgb(226,191,168)" d=" M 858.4481407767229,193.38243116406016 L 872.2161863523456,98.63729724265534 A 378.8,378.8 0 0,1 960.0332545636758,122.44053078380637 L 924.0697762947839,211.16948722735026 A 283.05972905429314,283.05972905429314 0 0 0 858.4481407767229,193.38243116406016 Z "/><path class="wedge" fill="rgb(226,191,168)" d=" M 927.8514820690096,201.74599476803894 L 959.9913005292423,122.42352896047902 A 378.8,378.8 0 0,1 960.0332545636758,122.44053078380637 L 927.883956979274,201.75915518739652 A 293.21366047990944,293.21366047990944 0 0 0 927.8514820690096,201.74599476803894 Z "/><path class="wedge" fill="rgb(229,198,178)" d=" M 859.9083391786985,183.3340410431012 L 872.2161863523456,98.63729724265534 A 378.8,378.8 0 0,1 959.9890665561529,122.42262380917725 L 927.8497528413778,201.7452941272615 A 293.21366047990944,293.21366047990944 0 0 0 859.9083391786985,183.3340410431012 Z "/><path class="wedge" fill="rgb(229,198,178)" d=" M 930.822030270692,193.9677827208078 L 959.7959423455316,122.34443713807741 A 378.8,378.8 0 0,1 959.9890665561529,122.42262380917725 L 930.9757639560289,194.0300220695343 A 301.53816457406833,301.53816457406833 0 0 0 930.822030270692,193.9677827208078 Z "/><path class="wedge" fill="rgb(229,198,178)" d=" M 861.1054545683952,175.09606294423372 L 872.2161863523456,98.63729724265534 A 378.8,378.8 0 0,1 959.7826989016515,122.33908003611418 L 930.811488022117,193.9635182786393 A 301.53816457406833,301.53816457406833 0 0 0 861.1054545683952,175.09606294423372 Z "/><path class="wedge" fill="rgb(229,199,178)" d=" M 930.811488022117,193.9635182786393 L 959.7826989016515,122.33908003611418 A 378.8,378.8 0 0,1 959.7959423455316,122.34443713807741 L 930.822030270692,193.9677827208078 A 301.53816457406833,301.53816457406833 0 0 0 930.811488022117,193.9635182786393 Z "/><path class="wedge" fill="url(#hiddenPattern)" d=" M 930.811488022117,193.9635182786393 L 959.7826989016515,122.33908003611418 A 378.8,378.8 0 0,1 959.7959423455316,122.34443713807741 L 930.822030270692,193.9677827208078 A 301.53816457406833,301.53816457406833 0 0 0 930.811488022117,193.9635182786393 Z "/><path class="wedge" fill="rgb(226,192,168)" d=" M 927.8497528413778,201.7452941272615 L 959.9890665561529,122.42262380917725 A 378.8,378.8 0 0,1 959.9913005292423,122.42352896047902 L 927.8514820690096,201.74599476803894 A 293.21366047990944,293.21366047990944 0 0 0 927.8497528413778,201.7452941272615 Z "/><path class="wedge" fill="url(#hiddenPattern)" d=" M 927.8497528413778,201.7452941272615 L 959.9890665561529,122.42262380917725 A 378.8,378.8 0 0,1 959.9913005292423,122.42352896047902 L 927.8514820690096,201.74599476803894 A 293.21366047990944,293.21366047990944 0 0 0 927.8497528413778,201.7452941272615 Z "/><path class="wedge" fill="rgb(223,186,159)" d=" M 924.0697762947839,211.16948722735026 L 960.0332545636758,122.44053078380637 A 378.8,378.8 0 0,1 962.3681179187021,123.39595845507705 L 925.8145117452922,211.8834341591371 A 283.05972905429314,283.05972905429314 0 0 0 924.0697762947839,211.16948722735026 Z "/><path class="wedge" fill="url(#hiddenPattern)" d=" M 924.0697762947839,211.16948722735026 L 960.0332545636758,122.44053078380637 A 378.8,378.8 0 0,1 962.3681179187021,123.39595845507705 L 925.8145117452922,211.8834341591371 A 283.05972905429314,283.05972905429314 0 0 0 924.0697762947839,211.16948722735026 Z "/><path class="wedge" fill="rgb(219,179,149)" d=" M 921.041122709119,223.60639328106396 L 962.4510308377122,123.43022074216987 A 378.8,378.8 0 0,1 962.5337726633072,123.4644352500867 L 921.100187085565,223.6308169454076 A 270.40237070968385,270.40237070968385 0 0 0 921.041122709119,223.60639328106396 Z "/><path class="wedge" fill="url(#hiddenPattern)" d=" M 921.041122709119,223.60639328106396 L 962.4510308377122,123.43022074216987 A 378.8,378.8 0 0,1 962.5337726633072,123.4644352500867 L 921.100187085565,223.6308169454076 A 270.40237070968385,270.40237070968385 0 0 0 921.041122709119,223.60639328106396 Z "/><path class="wedge" fill="rgb(216,172,140)" d=" M 914.9545638436974,238.6303931902485 L 962.6087385726861,123.49545412220584 A 378.8,378.8 0 0,1 965.1009622221732,124.53740559310154 L 916.6269638040151,239.32959191542608 A 254.19271865856766,254.19271865856766 0 0 0 914.9545638436974,238.6303931902485 Z "/><path class="wedge" fill="url(#hiddenPattern)" d=" M 914.9545638436974,238.6303931902485 L 962.6087385726861,123.49545412220584 A 378.8,378.8 0 0,1 965.1009622221732,124.53740559310154 L 916.6269638040151,239.32959191542608 A 254.19271865856766,254.19271865856766 0 0 0 914.9545638436974,238.6303931902485 Z "/><path class="wedge" fill="rgb(213,166,130)" d=" M 908.4790803090724,259.2116836469828 L 965.4432844628107,124.68215802514067 A 378.8,378.8 0 0,1 980.9177105268448,131.64731829067824 L 917.9854423948459,263.4905716132083 A 232.70717396495255,232.70717396495255 0 0 0 908.4790803090724,259.2116836469828 Z "/><path class="wedge" fill="url(#hiddenPattern)" d=" M 908.4790803090724,259.2116836469828 L 965.4432844628107,124.68215802514067 A 378.8,378.8 0 0,1 980.9177105268448,131.64731829067824 L 917.9854423948459,263.4905716132083 A 232.70717396495255,232.70717396495255 0 0 0 908.4790803090724,259.2116836469828 Z "/><path class="wedge" fill="rgb(213,166,130)" d=" M 905.7704414114305,290.67940315040823 L 982.0767753212817,132.20298707629718 A 378.8,378.8 0 0,1 1129.284842456438,258.0220599494727 L 984.6245352816877,358.0761781783761 A 202.90960501932898,202.90960501932898 0 0 0 905.7704414114305,290.67940315040823 Z "/><path class="wedge" fill="rgb(213,166,130)" d=" M 1008.7582117988853,340.5880514534158 L 1128.6773367746748,257.14635154295354 A 378.8,378.8 0 0,1 1129.284842456438,258.0220599494727 L 1009.1314191124301,341.1260230175616 A 232.70717396495255,232.70717396495255 0 0 0 1008.7582117988853,340.5880514534158 Z "/><path class="wedge" fill="rgb(216,173,140)" d=" M 918.697487518277,263.83193410729996 L 982.0767753212817,132.20298707629718 A 378.8,378.8 0 0,1 1117.3793108616712,241.75195168362532 L 1001.8175262614043,331.1308516483716 A 232.70717396495255,232.70717396495255 0 0 0 918.697487518277,263.83193410729996 Z "/><path class="wedge" fill="rgb(216,173,140)" d=" M 1017.6146126937977,316.4489436204333 L 1115.5935554062944,239.46127351512274 A 378.8,378.8 0 0,1 1117.3793108616712,241.75195168362532 L 1018.8129390772759,317.9860970291543 A 254.19271865856766,254.19271865856766 0 0 0 1017.6146126937977,316.4489436204333 Z "/><path class="wedge" fill="rgb(219,180,149)" d=" M 928.0185374130492,244.47355970136138 L 982.0767753212817,132.20298707629718 A 378.8,378.8 0 0,1 1082.4774391145872,202.5668057415811 L 995.3921321457449,291.69101049789515 A 254.19271865856766,254.19271865856766 0 0 0 928.0185374130492,244.47355970136138 Z "/><path class="wedge" fill="rgb(219,180,149)" d=" M 1003.9173479324959,277.39714811551175 L 1078.550287039577,198.78436012272044 A 378.8,378.8 0 0,1 1082.4774391145872,202.5668057415811 L 1006.7207038755272,280.09720688642085 A 270.40237070968385,270.40237070968385 0 0 0 1003.9173479324959,277.39714811551175 Z "/><path class="wedge" fill="rgb(223,186,159)" d=" M 935.0507526861509,229.86873967607485 L 982.0767753212817,132.20298707629718 A 378.8,378.8 0 0,1 1068.2563283358759,189.36586165365787 L 996.5691144650505,270.6738526705275 A 270.40237070968385,270.40237070968385 0 0 0 935.0507526861509,229.86873967607485 Z "/><path class="wedge" fill="rgb(223,186,159)" d=" M 1004.4378894735196,260.73815641544996 L 1067.5845525664581,188.77498235409905 A 378.8,378.8 0 0,1 1068.2563283358759,189.36586165365787 L 1004.9398764515466,261.17969320118624 A 283.05972905429314,283.05972905429314 0 0 0 1004.4378894735196,260.73815641544996 Z "/><path class="wedge" fill="rgb(226,193,168)" d=" M 940.541880341908,218.46451952158685 L 982.0767753212817,132.20298707629718 A 378.8,378.8 0 0,1 1063.9868202361938,185.65781681609496 L 1001.7494704169872,258.40884270741185 A 283.05972905429314,283.05972905429314 0 0 0 940.541880341908,218.46451952158685 Z "/><path class="wedge" fill="rgb(226,193,168)" d=" M 1003.3240913235643,246.48968258156404 L 1057.493662250156,180.22748296460918 A 378.8,378.8 0 0,1 1063.9868202361938,185.65781681609496 L 1008.3501806085709,250.69308296757805 A 293.21366047990944,293.21366047990944 0 0 0 1003.3240913235643,246.48968258156404 Z "/><path class="wedge" fill="rgb(229,200,178)" d=" M 944.9469490891012,209.31587521061812 L 982.0767753212817,132.20298707629718 A 378.8,378.8 0 0,1 1037.4088835647167,164.89657609069207 L 987.7772817187954,234.62265163389287 A 293.21366047990944,293.21366047990944 0 0 0 944.9469490891012,209.31587521061812 Z "/><path class="wedge" fill="rgb(229,200,178)" d=" M 970.7219049046868,213.64901605183013 L 1009.9191913634669,147.068508786925 A 378.8,378.8 0 0,1 1037.4088835647167,164.89657609069207 L 992.6046697702384,227.84078662384934 A 301.53816457406833,301.53816457406833 0 0 0 970.7219049046868,213.64901605183013 Z "/><path class="wedge" fill="rgb(229,200,178)" d=" M 948.5583594171785,201.81553629454748 L 982.0767753212817,132.20298707629718 A 378.8,378.8 0 0,1 999.7987744129447,141.31795012877433 L 962.6656959501336,209.07136847248938 A 301.53816457406833,301.53816457406833 0 0 0 948.5583594171785,201.81553629454748 Z "/><path class="wedge" fill="url(#hiddenPattern)" d=" M 948.5583594171785,201.81553629454748 L 982.0767753212817,132.20298707629718 A 378.8,378.8 0 0,1 999.7987744129447,141.31795012877433 L 962.6656959501336,209.07136847248938 A 301.53816457406833,301.53816457406833 0 0 0 948.5583594171785,201.81553629454748 Z "/><path class="wedge" fill="rgb(229,200,178)" d=" M 962.6656959501336,209.07136847248938 L 999.7987744129447,141.31795012877433 A 378.8,378.8 0 0,1 1009.9191913634669,147.068508786925 L 970.7219049046868,213.64901605183013 A 301.53816457406833,301.53816457406833 0 0 0 962.6656959501336,209.07136847248938 Z "/><path class="wedge" fill="url(#hiddenPattern)" d=" M 962.6656959501336,209.07136847248938 L 999.7987744129447,141.31795012877433 A 378.8,378.8 0 0,1 1009.9191913634669,147.068508786925 L 970.7219049046868,213.64901605183013 A 301.53816457406833,301.53816457406833 0 0 0 962.6656959501336,209.07136847248938 Z "/><path class="wedge" fill="rgb(226,195,168)" d=" M 987.7772817187954,234.62265163389287 L 1037.4088835647167,164.89657609069207 A 378.8,378.8 0 0,1 1057.493662250156,180.22748296460918 L 1003.3240913235643,246.48968258156404 A 293.21366047990944,293.21366047990944 0 0 0 987.7772817187954,234.62265163389287 Z "/><path class="wedge" fill="url(#hiddenPattern)" d=" M 987.7772817187954,234.62265163389287 L 1037.4088835647167,164.89657609069207 A 378.8,378.8 0 0,1 1057.493662250156,180.22748296460918 L 1003.3240913235643,246.48968258156404 A 293.21366047990944,293.21366047990944 0 0 0 987.7772817187954,234.62265163389287 Z "/><path class="wedge" fill="rgb(223,188,159)" d=" M 1001.7494704169872,258.40884270741185 L 1063.9868202361938,185.65781681609496 A 378.8,378.8 0 0,1 1067.5845525664581,188.77498235409905 L 1004.4378894735196,260.73815641544996 A 283.05972905429314,283.05972905429314 0 0 0 1001.7494704169872,258.40884270741185 Z "/><path class="wedge" fill="url(#hiddenPattern)" d=" M 1001.7494704169872,258.40884270741185 L 1063.9868202361938,185.65781681609496 A 378.8,378.8 0 0,1 1067.5845525664581,188.77498235409905 L 1004.4378894735196,260.73815641544996 A 283.05972905429314,283.05972905429314 0 0 0 1001.7494704169872,258.40884270741185 Z "/><path class="wedge" fill="rgb(219,182,149)" d=" M 996.5691144650505,270.6738526705275 L 1068.2563283358759,189.36586165365787 A 378.8,378.8 0 0,1 1078.550287039577,198.78436012272044 L 1003.9173479324959,277.39714811551175 A 270.40237070968385,270.40237070968385 0 0 0 996.5691144650505,270.6738526705275 Z "/><path class="wedge" fill="url(#hiddenPattern)" d=" M 996.5691144650505,270.6738526705275 L 1068.2563283358759,189.36586165365787 A 378.8,378.8 0 0,1 1078.550287039577,198.78436012272044 L 1003.9173479324959,277.39714811551175 A 270.40237070968385,270.40237070968385 0 0 0 996.5691144650505,270.6738526705275 Z "/><path class="wedge" fill="rgb(219,182,149)" d=" M 995.3921321457449,291.69101049789515 L 1082.4774391145872,202.5668057415811 A 378.8,378.8 0 0,1 1115.0338803195505,238.75074652313782 L 1017.2390442358649,315.97214639822386 A 254.19271865856766,254.19271865856766 0 0 0 995.3921321457449,291.69101049789515 Z "/><path class="wedge" fill="rgb(219,182,149)" d=" M 1029.9090100468193,305.8611947943529 L 1114.9613642911015,238.65893982276776 A 378.8,378.8 0 0,1 1115.0338803195505,238.75074652313782 L 1029.9607748462045,305.9267300357127 A 270.40237070968385,270.40237070968385 0 0 0 1029.9090100468193,305.8611947943529 Z "/><path class="wedge" fill="rgb(223,189,159)" d=" M 1006.7207038755272,280.09720688642085 L 1082.4774391145872,202.5668057415811 A 378.8,378.8 0 0,1 1114.3883324246674,237.93551400409623 L 1029.4999573140421,305.34478493056895 A 270.40237070968385,270.40237070968385 0 0 0 1006.7207038755272,280.09720688642085 Z "/><path class="wedge" fill="rgb(223,189,159)" d=" M 1006.7207038755272,280.09720688642085 L 1082.4774391145872,202.5668057415811 A 378.8,378.8 0 0,1 1114.3883324246674,237.93551400409623 L 1029.4999573140421,305.34478493056895 A 270.40237070968385,270.40237070968385 0 0 0 1006.7207038755272,280.09720688642085 Z "/><path class="wedge" fill="rgb(223,189,159)" d=" M 1039.4100596212566,297.4708657195917 L 1114.3854807529674,237.9319229436239 A 378.8,378.8 0 0,1 1114.3883324246674,237.93551400409623 L 1039.4121905436925,297.4735491530772 A 283.05972905429314,283.05972905429314 0 0 0 1039.4100596212566,297.4708657195917 Z "/><path class="wedge" fill="rgb(226,195,168)" d=" M 1015.5666551312539,271.044148472539 L 1082.4774391145872,202.5668057415811 A 378.8,378.8 0 0,1 1114.364896243603,237.90600387717475 L 1039.394677768977,297.4514975994058 A 283.05972905429314,283.05972905429314 0 0 0 1015.5666551312539,271.044148472539 Z "/><path class="wedge" fill="rgb(226,195,168)" d=" M 1047.3221637325896,291.1065245063344 L 1114.3343626502,237.867565945194 A 378.8,378.8 0 0,1 1114.364896243603,237.90600387717475 L 1047.3457985443354,291.1362777448174 A 293.21366047990944,293.21366047990944 0 0 0 1047.3221637325896,291.1065245063344 Z "/><path class="wedge" fill="rgb(229,202,178)" d=" M 1022.6630159989422,263.7816429935972 L 1082.4774391145872,202.5668057415811 A 378.8,378.8 0 0,1 1114.3319490040499,237.86452790614334 L 1047.3202954273552,291.1041728839724 A 293.21366047990944,293.21366047990944 0 0 0 1022.6630159989422,263.7816429935972 Z "/><path class="wedge" fill="rgb(229,202,178)" d=" M 1028.8799275124768,258.2183088889891 L 1082.9787955928327,203.05760108163787 A 378.8,378.8 0 0,1 1114.3319490040499,237.86452790614334 L 1053.838143809276,285.92585067654267 A 301.53816457406833,301.53816457406833 0 0 0 1028.8799275124768,258.2183088889891 Z "/><path class="wedge" fill="rgb(229,202,178)" d=" M 1028.4808300672616,257.8276184823835 L 1082.4774391145872,202.5668057415811 A 378.8,378.8 0 0,1 1082.9787955928327,203.05760108163787 L 1028.8799275124768,258.2183088889891 A 301.53816457406833,301.53816457406833 0 0 0 1028.4808300672616,257.8276184823835 Z "/><path class="wedge" fill="url(#hiddenPattern)" d=" M 1028.4808300672616,257.8276184823835 L 1082.4774391145872,202.5668057415811 A 378.8,378.8 0 0,1 1082.9787955928327,203.05760108163787 L 1028.8799275124768,258.2183088889891 A 301.53816457406833,301.53816457406833 0 0 0 1028.4808300672616,257.8276184823835 Z "/><path class="wedge" fill="rgb(229,203,178)" d=" M 1047.3202954273552,291.1041728839724 L 1114.3319490040499,237.86452790614334 A 378.8,378.8 0 0,1 1114.3343626502,237.867565945194 L 1047.3221637325896,291.1065245063344 A 293.21366047990944,293.21366047990944 0 0 0 1047.3202954273552,291.1041728839724 Z "/><path class="wedge" fill="url(#hiddenPattern)" d=" M 1047.3202954273552,291.1041728839724 L 1114.3319490040499,237.86452790614334 A 378.8,378.8 0 0,1 1114.3343626502,237.867565945194 L 1047.3221637325896,291.1065245063344 A 293.21366047990944,293.21366047990944 0 0 0 1047.3202954273552,291.1041728839724 Z "/><path class="wedge" fill="rgb(223,190,159)" d=" M 1039.394677768977,297.4514975994058 L 1114.364896243603,237.90600387717475 A 378.8,378.8 0 0,1 1114.3854807529674,237.9319229436239 L 1039.4100596212566,297.4708657195917 A 283.05972905429314,283.05972905429314 0 0 0 1039.394677768977,297.4514975994058 Z "/><path class="wedge" fill="url(#hiddenPattern)" d=" M 1039.394677768977,297.4514975994058 L 1114.364896243603,237.90600387717475 A 378.8,378.8 0 0,1 1114.3854807529674,237.9319229436239 L 1039.4100596212566,297.4708657195917 A 283.05972905429314,283.05972905429314 0 0 0 1039.394677768977,297.4514975994058 Z "/><path class="wedge" fill="rgb(219,183,149)" d=" M 1029.4999573140421,305.34478493056895 L 1114.3883324246674,237.93551400409623 A 378.8,378.8 0 0,1 1114.9613642911015,238.65893982276776 L 1029.9090100468193,305.8611947943529 A 270.40237070968385,270.40237070968385 0 0 0 1029.4999573140421,305.34478493056895 Z "/><path class="wedge" fill="url(#hiddenPattern)" d=" M 1029.4999573140421,305.34478493056895 L 1114.3883324246674,237.93551400409623 A 378.8,378.8 0 0,1 1114.9613642911015,238.65893982276776 L 1029.9090100468193,305.8611947943529 A 270.40237070968385,270.40237070968385 0 0 0 1029.4999573140421,305.34478493056895 Z "/><path class="wedge" fill="rgb(216,177,140)" d=" M 1017.2390442358649,315.97214639822386 L 1115.0338803195505,238.75074652313782 A 378.8,378.8 0 0,1 1115.5935554062944,239.46127351512274 L 1017.6146126937977,316.4489436204333 A 254.19271865856766,254.19271865856766 0 0 0 1017.2390442358649,315.97214639822386 Z "/><path class="wedge" fill="url(#hiddenPattern)" d=" M 1017.2390442358649,315.97214639822386 L 1115.0338803195505,238.75074652313782 A 378.8,378.8 0 0,1 1115.5935554062944,239.46127351512274 L 1017.6146126937977,316.4489436204333 A 254.19271865856766,254.19271865856766 0 0 0 1017.2390442358649,315.97214639822386 Z "/><path class="wedge" fill="rgb(213,171,130)" d=" M 1001.8175262614043,331.1308516483716 L 1117.3793108616712,241.75195168362532 A 378.8,378.8 0 0,1 1128.6021702492885,257.0383651793079 L 1008.7120349517381,340.5217124842745 A 232.70717396495255,232.70717396495255 0 0 0 1001.8175262614043,331.1308516483716 Z "/><path class="wedge" fill="url(#hiddenPattern)" d=" M 1001.8175262614043,331.1308516483716 L 1117.3793108616712,241.75195168362532 A 378.8,378.8 0 0,1 1128.6021702492885,257.0383651793079 L 1008.7120349517381,340.5217124842745 A 232.70717396495255,232.70717396495255 0 0 0 1001.8175262614043,331.1308516483716 Z "/><path class="wedge" fill="rgb(213,171,130)" d=" M 1008.7120349517381,340.5217124842745 L 1128.6021702492885,257.0383651793079 A 378.8,378.8 0 0,1 1128.6773367746748,257.14635154295354 L 1008.7582117988853,340.5880514534158 A 232.70717396495255,232.70717396495255 0 0 0 1008.7120349517381,340.5217124842745 Z "/><path class="wedge" fill="url(#hiddenPattern)" d=" M 1008.7120349517381,340.5217124842745 L 1128.6021702492885,257.0383651793079 A 378.8,378.8 0 0,1 1128.6773367746748,257.14635154295354 L 1008.7582117988853,340.5880514534158 A 232.70717396495255,232.70717396495255 0 0 0 1008.7120349517381,340.5217124842745 Z "/><path class="wedge" fill="rgb(210,165,121)" d=" M 984.6245352816877,358.0761781783761 L 1129.284842456438,258.0220599494727 A 378.8,378.8 0 0,1 1129.3623078484907,258.13410406549974 L 984.6660307201885,358.1361962019447 A 202.90960501932898,202.90960501932898 0 0 0 984.6245352816877,358.0761781783761 Z "/><path class="wedge" fill="url(#hiddenPattern)" d=" M 984.6245352816877,358.0761781783761 L 1129.284842456438,258.0220599494727 A 378.8,378.8 0 0,1 1129.3623078484907,258.13410406549974 L 984.6660307201885,358.1361962019447 A 202.90960501932898,202.90960501932898 0 0 0 984.6245352816877,358.0761781783761 Z "/><path class="wedge" fill="rgb(207,159,111)" d=" M 949.3076609016006,384.3219769461842 L 1131.2991473328825,260.9638800651768 A 378.8,378.8 0 0,1 1131.4269757798425,261.1525889229001 L 949.3612964351438,384.4011572891286 A 158.94067861568504,158.94067861568504 0 0 0 949.3076609016006,384.3219769461842 Z "/><path class="wedge" fill="url(#hiddenPattern)" d=" M 949.3076609016006,384.3219769461842 L 1131.2991473328825,260.9638800651768 A 378.8,378.8 0 0,1 1131.4269757798425,261.1525889229001 L 949.3612964351438,384.4011572891286 A 158.94067861568504,158.94067861568504 0 0 0 949.3076609016006,384.3219769461842 Z "/><path class="wedge" fill="rgb(159,207,111)" d=" M 890.6308176182562,424.1920121613503 L 1131.4939274306669,261.25152507635784 A 378.8,378.8 0 0,1 830.3492365482996,852.0901577094064 L 820.6711217427326,561.4512509990174 A 88,88 0 0 0 890.6308176182562,424.1920121613503 Z "/><path class="wedge" fill="rgb(101,204,204)" d=" M 820.6711217427326,561.4512509990174 L 830.3492365482996,852.0901577094064 A 378.8,378.8 0 0,1 818.1063023660989,852.29982519863 L 817.8269342875224,561.4999593914451 A 88,88 0 0 0 820.6711217427326,561.4512509990174 Z "/><path class="wedge" fill="url(#hiddenPattern)" d=" M 820.6711217427326,561.4512509990174 L 830.3492365482996,852.0901577094064 A 378.8,378.8 0 0,1 818.1063023660989,852.29982519863 L 817.8269342875224,561.4999593914451 A 88,88 0 0 0 820.6711217427326,561.4512509990174 Z "/><rect fill="rgb(101,204,204)" x="1673.795" y="852.1283333333333" width="22" height="22"/><rect fill="url(#hiddenPattern)" style="stroke:none" x="1673.795" y="852.1283333333333" width="22" height="22"/><path class="line" d="M 824.2286167015739,852.244463869383 L 825.242089039156,911.423286348974 A 437.9875,437.9875 0 0,0 1017.7994156626464,863.1283333333333 L 1279.404893741048,863.1283333333333 L 1590.2351041666668,863.1283333333333"/><text x="1666.4616666666668" y="863.1283333333333" style="font-color:black;font-weight:normal" text-anchor="end">Viruses&#160;&#160;&#160;0.5%</text><path class="wedge" fill="rgb(159,111,207)" d=" M 817.8269342875224,561.4999593914451 L 818.1063023660989,852.29982519863 A 378.8,378.8 0 0,1 818.1062435763552,852.299825255104 L 817.8269206299261,561.4999594045648 A 88,88 0 0 0 817.8269342875224,561.4999593914451 Z "/><path class="wedge" fill="rgb(159,111,207)" d=" M 817.8269342875224,561.4999593914451 L 818.1063023660989,852.29982519863 A 378.8,378.8 0 0,1 818.1062435763552,852.299825255104 L 817.8269206299261,561.4999594045648 A 88,88 0 0 0 817.8269342875224,561.4999593914451 Z "/><rect fill="rgb(159,111,207)" x="1673.795" y="881.4616666666667" width="22" height="22"/><path class="line" d="M 818.1062729712269,852.2998252268682 L 818.1745003268854,923.3247924569059 A 449.82500000000005,449.82500000000005 0 0,0 981.491141793938,892.4616666666667 L 1268.404893741048,892.4616666666667 L 1514.7980924479168,892.4616666666667"/><text x="1666.4616666666668" y="892.4616666666667" style="font-color:black;font-weight:normal" text-anchor="end">other sequences&#160;&#160;&#160;0.000002%</text><circle cx="817.742393741048" cy="473.5" r="88"/><circle cx="817.742393741048" cy="473.5" r="378.8"/><text x="817.742393741048" y="473.5" text-anchor="middle" style="font-color:black;font-weight:bold" transform="rotate(360,817.742393741048,473.5)">Root</text><rect fill="rgb(220,220,220)" x="1673.795" y="910.795" width="22" height="22"/><path class="line" d="M 817.9243186796825,852.2999563137735 L 817.9641147600089,935.1624467574114 A 461.6625,461.6625 0 0,0 928.0322703447058,921.795 L 1257.404893741048,921.795 L 1563.1271940104168,921.795"/><text x="1666.4616666666668" y="921.795" style="font-color:black;font-weight:normal" text-anchor="end">[other Root]&#160;&#160;&#160;0.02%</text><path class="line" d=" M 890.6308176182562,424.1920121613503 A 88,88 0 1 0 817.742393741048,561.5"/><line x1="1131.4939274306669" y1="261.25152507635784" x2="890.6308176182562" y2="424.1920121613503"/><text x="817.742393741048" y="350.02966069215745" text-anchor="middle" style="font-color:black;font-weight:normal" transform="rotate(297.961102284399,817.742393741048,473.5)">cellular organisms</text><path class="line" d=" M 949.3076609016006,384.3219769461842 A 158.94067861568504,158.94067861568504 0 1 0 817.742393741048,632.4406786156851"/><line x1="1131.2991473328825" y1="260.9638800651768" x2="949.3076609016006" y2="384.3219769461842"/><text x="817.742393741048" y="301.36864346322176" text-anchor="middle" style="font-color:black;font-weight:normal" transform="rotate(297.9348299645241,817.742393741048,473.5)">Bacteria</text><path class="line" d=" M 905.7704414114305,290.67940315040823 A 202.90960501932898,202.90960501932898 0 1 0 817.742393741048,676.409605019329"/><line x1="982.0767753212817" y1="132.20298707629718" x2="905.7704414114305" y2="290.67940315040823"/><text x="817.742393741048" y="261.651124296984" text-anchor="middle" style="font-color:black;font-weight:normal" transform="rotate(282.8553986947181,817.742393741048,473.5)">Pseudomonadati</text><path class="line" d=" M 851.2071306305094,243.21161514380753 A 232.70717396495255,232.70717396495255 0 1 0 817.742393741048,706.2071739649525"/><line x1="872.2161863523456" y1="98.63729724265534" x2="851.2071306305094" y2="243.21161514380753"/><text x="817.742393741048" y="230.0500536882399" text-anchor="middle" style="font-color:black;font-weight:normal" transform="rotate(274.1340778038295,817.742393741048,473.5)">FCB group</text><path class="line" d=" M 854.2615922802404,221.94426789061478 A 254.19271865856766,254.19271865856766 0 1 0 817.742393741048,727.6927186585676"/><line x1="872.1635922696621" y1="98.62965821405771" x2="854.2615922802404" y2="221.94426789061478"/><text x="817.742393741048" y="211.20245531587426" text-anchor="middle" style="font-color:black;font-weight:normal" transform="rotate(274.13005848124243,817.742393741048,473.5)">Bacteroidota/Chlorobiota group</text><path class="line" d=" M 856.502965275661,205.89009700736517 A 270.40237070968385,270.40237070968385 0 1 0 817.742393741048,743.9023707096839"/><line x1="872.0411207040421" y1="98.61189902825907" x2="856.502965275661" y2="205.89009700736517"/><path class="line" d=" M 845.5317237259483,191.80767963737424 A 283.05972905429314,283.05972905429314 0 1 0 817.742393741048,756.5597290542931"/><line x1="854.9310048990171" y1="96.52991206179053" x2="845.5317237259483" y2="191.80767963737424"/><path class="line" d=" M 846.4964299326024,181.69962972140974 A 293.21366047990944,293.21366047990944 0 1 0 817.742393741048,766.7136604799094"/><line x1="854.8894655777884" y1="96.52581646224621" x2="846.4964299326024" y2="181.69962972140974"/><path class="line" d=" M 520.5682245122191,422.3846614228835 A 301.53816457406833,301.53816457406833 0 0 0 817.742393741048,775.0381645740683"/><line x1="444.4245569660968" y1="409.2875966368574" x2="520.5682245122191" y2="422.3846614228835"/><path class="line" d=" M 513.3344708187858,423.5073176831431 A 308.4857400643993,308.4857400643993 0 0 0 817.742393741048,781.9857400643994"/><line x1="443.949682353867" y1="412.11230649536" x2="513.3344708187858" y2="423.5073176831431"/><path class="line" d=" M 505.7857181745366,434.6111196071847 A 314.37129711332796,314.37129711332796 0 0 0 817.742393741048,787.871297113328"/><line x1="441.8518789591097" y1="426.64105318117515" x2="505.7857181745366" y2="434.6111196071847"/><text x="471.156745184384" y="473.5" text-anchor="end" style="font-color:black;font-weight:normal" transform="rotate(-41.44704999457322,817.742393741048,473.5)">Segatella copri&#160;&#160;&#160;27%</text><path class="line" d=" M 805.3561893792769,792.6804319957146 A 319.4206728241967,319.4206728241967 0 0 0 817.742393741048,792.9206728241967"/><line x1="803.0536318310723" y1="852.0150991354928" x2="805.3561893792769" y2="792.6804319957146"/><text x="468.6320573289496" y="473.5" text-anchor="end" style="font-color:black;font-weight:normal" transform="rotate(-88.88883959696707,817.742393741048,473.5)">Segatella copri DSM 18205&#160;&#160;&#160;0.6%</text><path class="line" d=" M 505.8871160671551,433.8061939887911 A 314.37129711332796,314.37129711332796 0 0 0 505.7857181745366,434.6111196071847"/><line x1="441.97405780328717" y1="425.67116239582907" x2="505.8871160671551" y2="433.8061939887911"/><path class="line" d=" M 513.3914308943239,423.16171201409327 A 308.4857400643993,308.4857400643993 0 0 0 513.3344708187858,423.5073176831431"/><line x1="444.0196255434917" y1="411.68792568797244" x2="513.3914308943239" y2="423.16171201409327"/><path class="line" d=" M 649.9361102370776,222.96793436511356 A 301.53816457406833,301.53816457406833 0 0 0 520.5682245122191,422.3846614228835"/><line x1="606.9398232568392" y1="158.77517371956463" x2="649.9361102370776" y2="222.96793436511356"/><path class="line" d=" M 646.0673909817365,217.19716105616283 A 308.4857400643993,308.4857400643993 0 0 0 513.7211974454792,421.2069409377171"/><line x1="606.9368925478601" y1="158.7771367271058" x2="646.0673909817365" y2="217.19716105616283"/><path class="line" d=" M 559.1308709528523,294.7560693900715 A 314.37129711332796,314.37129711332796 0 0 0 507.9208188136904,420.2092488489035"/><line x1="506.1298332697462" y1="258.12346423874465" x2="559.1308709528523" y2="294.7560693900715"/><text x="471.156745184384" y="473.5" text-anchor="end" style="font-color:black;font-weight:normal" transform="rotate(22.20530784745565,817.742393741048,473.5)">Alistipes putredinis&#160;&#160;&#160;7%</text><path class="line" d=" M 575.284132205426,273.3917696299318 A 314.37129711332796,314.37129711332796 0 0 0 559.1308709528523,294.7560693900715"/><line x1="525.5936183501924" y1="232.38066639602832" x2="575.284132205426" y2="273.3917696299318"/><text x="471.156745184384" y="473.5" text-anchor="end" style="font-color:black;font-weight:normal" transform="rotate(37.09243854069939,817.742393741048,473.5)">Alistipes communis&#160;&#160;&#160;1%</text><path class="line" d=" M 587.7276039422497,259.2046222557962 A 314.37129711332796,314.37129711332796 0 0 0 575.284132205426,273.3917696299318"/><line x1="540.587312549347" y1="215.28593963608097" x2="587.7276039422497" y2="259.2046222557962"/><text x="471.156745184384" y="473.5" text-anchor="end" style="font-color:black;font-weight:normal" transform="rotate(41.25382906427691,817.742393741048,473.5)">Alistipes megaguti&#160;&#160;&#160;1%</text><path class="line" d=" M 600.2895476459923,246.46790496963573 A 314.37129711332796,314.37129711332796 0 0 0 587.7276039422497,259.2046222557962"/><line x1="555.7237589064782" y1="199.93890079284222" x2="600.2895476459923" y2="246.46790496963573"/><text x="471.156745184384" y="473.5" text-anchor="end" style="font-color:black;font-weight:normal" transform="rotate(44.60418342516536,817.742393741048,473.5)">Alistipes dispar&#160;&#160;&#160;0.9%</text><line x1="569.9014118037094" y1="187.0313495819554" x2="612.0557755533976" y2="235.7557518103876"/><path class="line" d=" M 612.0557755533976,235.7557518103876 A 314.37129711332796,314.37129711332796 0 0 0 600.2895476459923,246.46790496963573"/><text x="471.156745184384" y="473.5" text-anchor="end" style="font-color:black;font-weight:normal" transform="rotate(47.6847941112379,817.742393741048,473.5)">uncultured Alistipes sp.&#160;&#160;&#160;0.8%</text><line x1="1188.292393741048" y1="473.5" x2="1204.792393741048" y2="473.5" class="tick" transform="rotate(230.6173834615052,817.742393741048,473.5)"/><text x="427.94239374104797" y="473.5" text-anchor="end" style="font-color:black;font-weight:normal" transform="rotate(50.61738346150521,817.742393741048,473.5)">7 more</text><path class="line" d=" M 624.627844070829,225.43532465426506 A 314.37129711332796,314.37129711332796 0 0 0 612.0557755533976,235.7557518103876"/><line x1="585.0500580005228" y1="174.5958065071373" x2="624.627844070829" y2="225.43532465426506"/><path class="line" d=" M 646.0675898728277,217.19702783641344 A 308.4857400643993,308.4857400643993 0 0 0 646.0673909817365,217.19716105616283"/><line x1="606.9371367729102" y1="158.7769731421016" x2="646.0675898728277" y2="217.19702783641344"/><path class="line" d=" M 746.2466626674751,180.5603728872564 A 301.53816457406833,301.53816457406833 0 0 0 649.9361102370776,222.96793436511356"/><line x1="727.9276169981957" y1="105.5017039731955" x2="746.2466626674751" y2="180.5603728872564"/><path class="line" d=" M 717.2068449235261,181.85628714638847 A 308.4857400643993,308.4857400643993 0 0 0 646.069777681653,217.19556242935693"/><line x1="694.2914170958159" y1="115.38089081237462" x2="717.2068449235261" y2="181.85628714638847"/><path class="line" d=" M 665.3560651510543,198.53142123584593 A 314.37129711332796,314.37129711332796 0 0 0 642.7944594275726,212.30556528102625"/><line x1="634.1253084666228" y1="142.17809309476007" x2="665.3560651510543" y2="198.53142123584593"/><text x="471.156745184384" y="473.5" text-anchor="end" style="font-color:black;font-weight:normal" transform="rotate(58.595409781448346,817.742393741048,473.5)">Bacteroides uniformis&#160;&#160;&#160;1%</text><path class="line" d=" M 640.192615765402,207.97101369481084 A 319.4206728241967,319.4206728241967 0 0 0 639.9844769059474,208.11030685064657"/><line x1="607.1866544943553" y1="158.60998639163108" x2="640.192615765402" y2="207.97101369481084"/><path class="line" d=" M 677.3189030482441,192.23401252486224 A 314.37129711332796,314.37129711332796 0 0 0 665.3560651510543,198.53142123584593"/><line x1="648.5398655113199" y1="134.59006441140139" x2="677.3189030482441" y2="192.23401252486224"/><text x="471.156745184384" y="473.5" text-anchor="end" style="font-color:black;font-weight:normal" transform="rotate(62.23704053760519,817.742393741048,473.5)">Bacteroides fragilis&#160;&#160;&#160;0.7%</text><path class="line" d=" M 662.9709929382282,194.08028036483284 A 319.4206728241967,319.4206728241967 0 0 0 662.9084631170384,194.11492496022282"/><line x1="634.1994623905289" y1="142.13700817493418" x2="662.9709929382282" y2="194.08028036483284"/><line x1="1188.292393741048" y1="473.5" x2="1204.792393741048" y2="473.5" class="tick" transform="rotate(244.6424005829006,817.742393741048,473.5)"/><text x="427.94239374104797" y="473.5" text-anchor="end" style="font-color:black;font-weight:normal" transform="rotate(64.64240058290058,817.742393741048,473.5)">29 more</text><path class="line" d=" M 688.952937585221,186.72031377414015 A 314.37129711332796,314.37129711332796 0 0 0 677.3189030482441,192.23401252486224"/><line x1="662.5582327193738" y1="127.94636282047458" x2="688.952937585221" y2="186.72031377414015"/><path class="line" d=" M 742.9338526837289,174.22231287990155 A 308.4857400643993,308.4857400643993 0 0 0 717.2068449235261,181.85628714638847"/><line x1="725.8824739061903" y1="106.0068774413138" x2="742.9338526837289" y2="174.22231287990155"/><path class="line" d=" M 726.2830241835254,172.726836022798 A 314.37129711332796,314.37129711332796 0 0 0 715.2887410011621,176.2920568205298"/><line x1="707.5389193573785" y1="111.08499722863576" x2="726.2830241835254" y2="172.726836022798"/><path class="line" d=" M 713.7738720740881,171.47332447307014 A 319.4206728241967,319.4206728241967 0 0 0 713.6431487019132,171.51835583972212"/><line x1="694.4464415434886" y1="115.32748825224297" x2="713.7738720740881" y2="171.47332447307014"/><path class="line" d=" M 735.3287895437462,170.12348427749583 A 314.37129711332796,314.37129711332796 0 0 0 726.2830241835254,172.726836022798"/><line x1="718.4385655716334" y1="107.94810257516184" x2="735.3287895437462" y2="170.12348427749583"/><path class="line" d=" M 801.8624161790461,172.38027130835775 A 301.53816457406833,301.53816457406833 0 0 0 746.2466626674751,180.5603728872564"/><line x1="797.7935573840211" y1="95.22564992058926" x2="801.8624161790461" y2="172.38027130835775"/><path class="line" d=" M 801.48725908351,165.4428260527838 A 308.4857400643993,308.4857400643993 0 0 0 744.599368735141,173.81091158324534"/><line x1="797.7821680042281" y1="95.22625072768375" x2="801.48725908351" y2="165.4428260527838"/><path class="line" d=" M 789.3963775069859,160.40925307129464 A 314.37129711332796,314.37129711332796 0 0 0 743.2038830108621,168.09318464244728"/><line x1="783.5870142644287" y1="96.2429920428142" x2="789.3963775069859" y2="160.40925307129464"/><text x="471.156745184384" y="473.5" text-anchor="end" style="font-color:black;font-weight:normal" transform="rotate(80.55556118186067,817.742393741048,473.5)">Parabacteroides merdae&#160;&#160;&#160;2%</text><path class="line" d=" M 742.0068513861966,163.187747822167 A 319.4206728241967,319.4206728241967 0 0 0 742.0066587443297,163.1877948388601"/><line x1="727.927845451597" y1="105.50164821624281" x2="742.0068513861966" y2="163.187747822167"/><path class="line" d=" M 794.0992803666333,160.0190346469488 A 314.37129711332796,314.37129711332796 0 0 0 789.3963775069859,160.40925307129464"/><line x1="789.2537517165831" y1="95.77280045567028" x2="794.0992803666333" y2="160.0190346469488"/><path class="line" d=" M 801.4961518399617,165.44235694082914 A 308.4857400643993,308.4857400643993 0 0 0 801.48725908351,165.4428260527838"/><line x1="797.7930877185175" y1="95.22567468936057" x2="801.4961518399617" y2="165.44235694082914"/><line x1="1188.292393741048" y1="473.5" x2="1204.792393741048" y2="473.5" class="tick" transform="rotate(268.23237840005373,817.742393741048,473.5)"/><text x="427.94239374104797" y="473.5" text-anchor="end" style="font-color:black;font-weight:normal" transform="rotate(88.23237840005373,817.742393741048,473.5)">9 more</text><path class="line" d=" M 815.024360211511,171.97408570998374 A 301.53816457406833,301.53816457406833 0 0 0 801.8624161790461,172.38027130835775"/><line x1="814.3279300944879" y1="94.71538912198884" x2="815.024360211511" y2="171.97408570998374"/><path class="line" d=" M 846.5010945337814,181.70008940929807 A 293.21366047990944,293.21366047990944 0 0 0 846.4964299326024,181.69962972140974"/><line x1="854.8954917326535" y1="96.52641032875238" x2="846.5010945337814" y2="181.70008940929807"/><path class="line" d=" M 845.9158973097632,191.84584343746417 A 283.05972905429314,283.05972905429314 0 0 0 845.5317237259483,191.80767963737424"/><line x1="855.4451188425135" y1="96.58098413595087" x2="845.9158973097632" y2="191.84584343746417"/><path class="line" d=" M 856.5262651779275,205.89347279674791 A 270.40237070968385,270.40237070968385 0 0 0 856.502965275661,205.89009700736517"/><line x1="872.0737609614309" y1="98.61662808819608" x2="856.5262651779275" y2="205.89347279674791"/><path class="line" d=" M 854.2706889157886,221.94558864798105 A 254.19271865856766,254.19271865856766 0 0 0 854.2615922802404,221.94426789061478"/><line x1="872.1771481479102" y1="98.63162641713211" x2="854.2706889157886" y2="221.94558864798105"/><path class="line" d=" M 908.4790803090724,259.2116836469828 A 232.70717396495255,232.70717396495255 0 0 0 851.2071306305094,243.21161514380753"/><line x1="965.4432844628107" y1="124.68215802514067" x2="908.4790803090724" y2="259.2116836469828"/><text x="817.742393741048" y="230.0500536882399" text-anchor="middle" style="font-color:black;font-weight:normal" transform="rotate(375.60877249759744,817.742393741048,473.5)">Pseudomonadota</text><path class="line" d=" M 914.9545638436974,238.6303931902485 A 254.19271865856766,254.19271865856766 0 0 0 854.296885397618,221.9493940401584"/><line x1="962.6087385726861" y1="123.49545412220584" x2="914.9545638436974" y2="238.6303931902485"/><text x="817.742393741048" y="211.20245531587426" text-anchor="middle" style="font-color:black;font-weight:normal" transform="rotate(375.37637206438404,817.742393741048,473.5)">Betaproteobacteria</text><path class="line" d=" M 921.041122709119,223.60639328106396 A 270.40237070968385,270.40237070968385 0 0 0 856.6279340357748,205.90822725389245"/><line x1="962.4510308377122" y1="123.43022074216987" x2="921.041122709119" y2="223.60639328106396"/><path class="line" d=" M 924.0697762947839,211.16948722735026 A 283.05972905429314,283.05972905429314 0 0 0 858.4481407767229,193.38243116406016"/><line x1="960.0332545636758" y1="122.44053078380637" x2="924.0697762947839" y2="211.16948722735026"/><path class="line" d=" M 927.8497528413778,201.7452941272615 A 293.21366047990944,293.21366047990944 0 0 0 859.9083391786985,183.3340410431012"/><line x1="959.9890665561529" y1="122.42262380917725" x2="927.8497528413778" y2="201.7452941272615"/><path class="line" d=" M 930.811488022117,193.9635182786393 A 301.53816457406833,301.53816457406833 0 0 0 861.1054545683952,175.09606294423372"/><line x1="959.7826989016515" y1="122.33908003611418" x2="930.811488022117" y2="193.9635182786393"/><text x="1157.9114760280822" y="473.5" text-anchor="start" style="font-color:black;font-weight:normal" transform="rotate(285.1454433079143,817.742393741048,473.5)">4%&#160;&#160;&#160;Sutterella wadsworthensis</text><path class="line" d=" M 930.822030270692,193.9677827208078 A 301.53816457406833,301.53816457406833 0 0 0 930.811488022117,193.9635182786393"/><line x1="959.7959423455316" y1="122.34443713807741" x2="930.822030270692" y2="193.9677827208078"/><path class="line" d=" M 927.8514820690096,201.74599476803894 A 293.21366047990944,293.21366047990944 0 0 0 927.8497528413778,201.7452941272615"/><line x1="959.9913005292423" y1="122.42352896047902" x2="927.8514820690096" y2="201.74599476803894"/><path class="line" d=" M 925.8145117452922,211.8834341591371 A 283.05972905429314,283.05972905429314 0 0 0 924.0697762947839,211.16948722735026"/><line x1="962.3681179187021" y1="123.39595845507705" x2="925.8145117452922" y2="211.8834341591371"/><path class="line" d=" M 921.100187085565,223.6308169454076 A 270.40237070968385,270.40237070968385 0 0 0 921.041122709119,223.60639328106396"/><line x1="962.5337726633072" y1="123.4644352500867" x2="921.100187085565" y2="223.6308169454076"/><path class="line" d=" M 916.6269638040151,239.32959191542608 A 254.19271865856766,254.19271865856766 0 0 0 914.9545638436974,238.6303931902485"/><line x1="965.1009622221732" y1="124.53740559310154" x2="916.6269638040151" y2="239.32959191542608"/><line x1="1188.292393741048" y1="473.5" x2="1204.792393741048" y2="473.5" class="tick" transform="rotate(294.2328826926419,817.742393741048,473.5)"/><text x="1207.542393741048" y="473.5" text-anchor="start" style="font-color:black;font-weight:normal" transform="rotate(294.2328826926419,817.742393741048,473.5)">17 more</text><path class="line" d=" M 917.9854423948459,263.4905716132083 A 232.70717396495255,232.70717396495255 0 0 0 908.4790803090724,259.2116836469828"/><line x1="980.9177105268448" y1="131.64731829067824" x2="917.9854423948459" y2="263.4905716132083"/><path class="line" d=" M 984.6245352816877,358.0761781783761 A 202.90960501932898,202.90960501932898 0 0 0 905.7704414114305,290.67940315040823"/><line x1="1129.284842456438" y1="258.0220599494727" x2="984.6245352816877" y2="358.0761781783761"/><text x="817.742393741048" y="249.73209671873454" text-anchor="middle" style="font-color:black;font-weight:normal" transform="rotate(400.52058724595236,817.742393741048,473.5)">Bacillati</text><path class="line" d=" M 1001.8175262614043,331.1308516483716 A 232.70717396495255,232.70717396495255 0 0 0 918.697487518277,263.83193410729996"/><line x1="1117.3793108616712" y1="241.75195168362532" x2="1001.8175262614043" y2="331.1308516483716"/><text x="817.742393741048" y="230.0500536882399" text-anchor="middle" style="font-color:black;font-weight:normal" transform="rotate(398.99568560103864,817.742393741048,473.5)">Bacillota</text><path class="line" d=" M 995.3921321457449,291.69101049789515 A 254.19271865856766,254.19271865856766 0 0 0 928.0185374130492,244.47355970136138"/><line x1="1082.4774391145872" y1="202.5668057415811" x2="995.3921321457449" y2="291.69101049789515"/><text x="817.742393741048" y="211.20245531587426" text-anchor="middle" style="font-color:black;font-weight:normal" transform="rotate(395.02393240819424,817.742393741048,473.5)">Clostridia</text><path class="line" d=" M 996.5691144650505,270.6738526705275 A 270.40237070968385,270.40237070968385 0 0 0 935.0507526861509,229.86873967607485"/><line x1="1068.2563283358759" y1="189.36586165365787" x2="996.5691144650505" y2="270.6738526705275"/><path class="line" d=" M 1001.7494704169872,258.40884270741185 A 283.05972905429314,283.05972905429314 0 0 0 940.541880341908,218.46451952158685"/><line x1="1063.9868202361938" y1="185.65781681609496" x2="1001.7494704169872" y2="258.40884270741185"/><path class="line" d=" M 987.7772817187954,234.62265163389287 A 293.21366047990944,293.21366047990944 0 0 0 944.9469490891012,209.31587521061812"/><line x1="1037.4088835647167" y1="164.89657609069207" x2="987.7772817187954" y2="234.62265163389287"/><path class="line" d=" M 962.6656959501336,209.07136847248938 A 301.53816457406833,301.53816457406833 0 0 0 948.5583594171785,201.81553629454748"/><line x1="999.7987744129447" y1="141.31795012877433" x2="962.6656959501336" y2="209.07136847248938"/><text x="1157.9114760280822" y="473.5" text-anchor="start" style="font-color:black;font-weight:normal" transform="rotate(297.2181367287981,817.742393741048,473.5)">0.8%&#160;&#160;&#160;unclassified Faecalibacterium</text><path class="line" d=" M 970.7219049046868,213.64901605183013 A 301.53816457406833,301.53816457406833 0 0 0 962.6656959501336,209.07136847248938"/><line x1="1009.9191913634669" y1="147.068508786925" x2="970.7219049046868" y2="213.64901605183013"/><line x1="1188.292393741048" y1="473.5" x2="1204.792393741048" y2="473.5" class="tick" transform="rotate(307.35484606256324,817.742393741048,473.5)"/><text x="1207.542393741048" y="473.5" text-anchor="start" style="font-color:black;font-weight:normal" transform="rotate(307.35484606256324,817.742393741048,473.5)">25 more</text><path class="line" d=" M 1003.3240913235643,246.48968258156404 A 293.21366047990944,293.21366047990944 0 0 0 987.7772817187954,234.62265163389287"/><line x1="1057.493662250156" y1="180.22748296460918" x2="1003.3240913235643" y2="246.48968258156404"/><path class="line" d=" M 1004.4378894735196,260.73815641544996 A 283.05972905429314,283.05972905429314 0 0 0 1001.7494704169872,258.40884270741185"/><line x1="1067.5845525664581" y1="188.77498235409905" x2="1004.4378894735196" y2="260.73815641544996"/><line x1="1188.292393741048" y1="473.5" x2="1204.792393741048" y2="473.5" class="tick" transform="rotate(312.4570781945476,817.742393741048,473.5)"/><text x="1207.542393741048" y="473.5" text-anchor="start" style="font-color:black;font-weight:normal" transform="rotate(312.4570781945476,817.742393741048,473.5)">12 more</text><path class="line" d=" M 1003.9173479324959,277.39714811551175 A 270.40237070968385,270.40237070968385 0 0 0 996.5691144650505,270.6738526705275"/><line x1="1078.550287039577" y1="198.78436012272044" x2="1003.9173479324959" y2="277.39714811551175"/><path class="line" d=" M 1017.2390442358649,315.97214639822386 A 254.19271865856766,254.19271865856766 0 0 0 995.3921321457449,291.69101049789515"/><line x1="1115.0338803195505" y1="238.75074652313782" x2="1017.2390442358649" y2="315.97214639822386"/><text x="817.742393741048" y="211.20245531587426" text-anchor="middle" style="font-color:black;font-weight:normal" transform="rotate(408.020754347214,817.742393741048,473.5)">Nega...utes</text><line x1="1114.3883324246674" y1="237.93551400409623" x2="1029.4999573140421" y2="305.34478493056895"/><path class="line" d=" M 1029.4999573140421,305.34478493056895 A 270.40237070968385,270.40237070968385 0 0 0 1006.7207038755272,280.09720688642085"/><path class="line" d=" M 1039.394677768977,297.4514975994058 A 283.05972905429314,283.05972905429314 0 0 0 1015.5666551312539,271.044148472539"/><line x1="1114.364896243603" y1="237.90600387717475" x2="1039.394677768977" y2="297.4514975994058"/><path class="line" d=" M 1047.3202954273552,291.1041728839724 A 293.21366047990944,293.21366047990944 0 0 0 1022.6630159989422,263.7816429935972"/><line x1="1114.3319490040499" y1="237.86452790614334" x2="1047.3202954273552" y2="291.1041728839724"/><text x="1153.7492239810026" y="473.5" text-anchor="start" style="font-color:black;font-weight:normal" transform="rotate(317.9352548191732,817.742393741048,473.5)">2%&#160;&#160;&#160;Acidaminococcus intestini</text><path class="line" d=" M 1028.8799275124768,258.2183088889891 A 301.53816457406833,301.53816457406833 0 0 0 1028.4808300672616,257.8276184823835"/><line x1="1082.9787955928327" y1="203.05760108163787" x2="1028.8799275124768" y2="258.2183088889891"/><path class="line" d=" M 1047.3221637325896,291.1065245063344 A 293.21366047990944,293.21366047990944 0 0 0 1047.3202954273552,291.1041728839724"/><line x1="1114.3343626502" y1="237.867565945194" x2="1047.3221637325896" y2="291.1065245063344"/><path class="line" d=" M 1039.4100596212566,297.4708657195917 A 283.05972905429314,283.05972905429314 0 0 0 1039.394677768977,297.4514975994058"/><line x1="1114.3854807529674" y1="237.9319229436239" x2="1039.4100596212566" y2="297.4708657195917"/><path class="line" d=" M 1029.9090100468193,305.8611947943529 A 270.40237070968385,270.40237070968385 0 0 0 1029.4999573140421,305.34478493056895"/><line x1="1114.9613642911015" y1="238.65893982276776" x2="1029.9090100468193" y2="305.8611947943529"/><path class="line" d=" M 1017.6146126937977,316.4489436204333 A 254.19271865856766,254.19271865856766 0 0 0 1017.2390442358649,315.97214639822386"/><line x1="1115.5935554062944" y1="239.46127351512274" x2="1017.6146126937977" y2="316.4489436204333"/><path class="line" d=" M 1008.7120349517381,340.5217124842745 A 232.70717396495255,232.70717396495255 0 0 0 1001.8175262614043,331.1308516483716"/><line x1="1128.6021702492885" y1="257.0383651793079" x2="1008.7120349517381" y2="340.5217124842745"/><text x="1123.4959807235243" y="473.5" text-anchor="start" style="font-color:black;font-weight:normal" transform="rotate(323.7149206532071,817.742393741048,473.5)">0.8%&#160;&#160;&#160;Actinomycetota</text><path class="line" d=" M 1008.7582117988853,340.5880514534158 A 232.70717396495255,232.70717396495255 0 0 0 1008.7120349517381,340.5217124842745"/><line x1="1128.6773367746748" y1="257.14635154295354" x2="1008.7582117988853" y2="340.5880514534158"/><path class="line" d=" M 984.6660307201885,358.1361962019447 A 202.90960501932898,202.90960501932898 0 0 0 984.6245352816877,358.0761781783761"/><line x1="1129.3623078484907" y1="258.13410406549974" x2="984.6660307201885" y2="358.1361962019447"/><path class="line" d=" M 949.3612964351438,384.4011572891286 A 158.94067861568504,158.94067861568504 0 0 0 949.3076609016006,384.3219769461842"/><line x1="1131.4269757798425" y1="261.1525889229001" x2="949.3612964351438" y2="384.4011572891286"/><path class="line" d=" M 820.6711217427326,561.4512509990174 A 88,88 0 0 0 890.6308176182562,424.1920121613503"/><line x1="830.3492365482996" y1="852.0901577094064" x2="820.6711217427326" y2="561.4512509990174"/><text x="1051.142393741048" y="473.5" text-anchor="start" style="font-color:black;font-weight:normal" transform="rotate(387.0074957698556,817.742393741048,473.5)">34%&#160;&#160;&#160;No hits</text><path class="line" d=" M 817.8269342875224,561.4999593914451 A 88,88 0 0 0 820.6711217427326,561.4512509990174"/><line x1="818.1063023660989" y1="852.29982519863" x2="817.8269342875224" y2="561.4999593914451"/><line x1="818.1062435763552" y1="852.299825255104" x2="817.8269206299261" y2="561.4999594045648"/><path class="line" d=" M 817.8269206299261,561.4999594045648 A 88,88 0 0 0 817.8269342875224,561.4999593914451"/></svg>